%TF.GenerationSoftware,KiCad,Pcbnew,(5.0.0)*%
%TF.CreationDate,2021-11-23T11:21:32+01:00*%
%TF.ProjectId,PlacaSlave3AGesinen,506C616361536C617665334147657369,rev?*%
%TF.SameCoordinates,Original*%
%TF.FileFunction,Copper,L2,Bot,Signal*%
%TF.FilePolarity,Positive*%
%FSLAX46Y46*%
G04 Gerber Fmt 4.6, Leading zero omitted, Abs format (unit mm)*
G04 Created by KiCad (PCBNEW (5.0.0)) date 11/23/21 11:21:32*
%MOMM*%
%LPD*%
G01*
G04 APERTURE LIST*
%TA.AperFunction,ComponentPad*%
%ADD10C,1.778000*%
%TD*%
%TA.AperFunction,ComponentPad*%
%ADD11O,2.032000X1.727200*%
%TD*%
%TA.AperFunction,ComponentPad*%
%ADD12O,1.727200X2.032000*%
%TD*%
%TA.AperFunction,ComponentPad*%
%ADD13R,1.700000X1.700000*%
%TD*%
%TA.AperFunction,ComponentPad*%
%ADD14O,1.700000X1.700000*%
%TD*%
%TA.AperFunction,ComponentPad*%
%ADD15O,1.200000X1.750000*%
%TD*%
%TA.AperFunction,Conductor*%
%ADD16C,0.100000*%
%TD*%
%TA.AperFunction,ComponentPad*%
%ADD17C,1.200000*%
%TD*%
%TA.AperFunction,ComponentPad*%
%ADD18C,1.500000*%
%TD*%
%TA.AperFunction,ComponentPad*%
%ADD19R,1.600000X1.600000*%
%TD*%
%TA.AperFunction,ComponentPad*%
%ADD20O,1.600000X1.600000*%
%TD*%
%TA.AperFunction,ViaPad*%
%ADD21C,0.600000*%
%TD*%
%TA.AperFunction,ViaPad*%
%ADD22C,0.800000*%
%TD*%
%TA.AperFunction,Conductor*%
%ADD23C,0.250000*%
%TD*%
%TA.AperFunction,Conductor*%
%ADD24C,0.400000*%
%TD*%
%TA.AperFunction,Conductor*%
%ADD25C,0.300000*%
%TD*%
%TA.AperFunction,Conductor*%
%ADD26C,0.254000*%
%TD*%
G04 APERTURE END LIST*
D10*
%TO.P,P3,1*%
%TO.N,/A5_SCL*%
X151130000Y-93980000D03*
%TO.P,P3,2*%
%TO.N,/A4_SDA*%
X151130000Y-96520000D03*
%TD*%
D11*
%TO.P,P1,1*%
%TO.N,/TX0*%
X138430000Y-85090000D03*
%TO.P,P1,2*%
%TO.N,/RX0*%
X138430000Y-87630000D03*
%TO.P,P1,3*%
%TO.N,/RST*%
X138430000Y-90170000D03*
%TO.P,P1,4*%
%TO.N,GND*%
X138430000Y-92710000D03*
%TO.P,P1,5*%
%TO.N,/RX1*%
X138430000Y-95250000D03*
%TO.P,P1,6*%
%TO.N,/TX1*%
X138430000Y-97790000D03*
%TO.P,P1,7*%
%TO.N,/RX2*%
X138430000Y-100330000D03*
%TO.P,P1,8*%
%TO.N,/TX2*%
X138430000Y-102870000D03*
%TO.P,P1,9*%
%TO.N,/RX3*%
X138430000Y-105410000D03*
%TO.P,P1,10*%
%TO.N,/TX3*%
X138430000Y-107950000D03*
%TO.P,P1,11*%
%TO.N,/RX4*%
X138430000Y-110490000D03*
%TO.P,P1,12*%
%TO.N,/TX4*%
X138430000Y-113030000D03*
%TD*%
D12*
%TO.P,P2,1*%
%TO.N,/RST*%
X139700000Y-82550000D03*
%TO.P,P2,2*%
%TO.N,/TX0*%
X142240000Y-82550000D03*
%TO.P,P2,3*%
%TO.N,/RX0*%
X144780000Y-82550000D03*
%TO.P,P2,4*%
%TO.N,+5V*%
X147320000Y-82550000D03*
%TO.P,P2,5*%
%TO.N,GND*%
X149860000Y-82550000D03*
%TO.P,P2,6*%
X152400000Y-82550000D03*
%TD*%
D11*
%TO.P,P4,1*%
%TO.N,N/C*%
X153670000Y-85090000D03*
%TO.P,P4,2*%
%TO.N,GND*%
X153670000Y-87630000D03*
%TO.P,P4,3*%
%TO.N,/RST*%
X153670000Y-90170000D03*
%TO.P,P4,4*%
%TO.N,+5V*%
X153670000Y-92710000D03*
%TO.P,P4,5*%
%TO.N,/A3*%
X153670000Y-95250000D03*
%TO.P,P4,6*%
%TO.N,/A2*%
X153670000Y-97790000D03*
%TO.P,P4,7*%
%TO.N,/A1*%
X153670000Y-100330000D03*
%TO.P,P4,8*%
%TO.N,/A0*%
X153670000Y-102870000D03*
%TO.P,P4,9*%
%TO.N,/SCK*%
X153670000Y-105410000D03*
%TO.P,P4,10*%
%TO.N,/RX5*%
X153670000Y-107950000D03*
%TO.P,P4,11*%
%TO.N,/TX5*%
X153670000Y-110490000D03*
%TO.P,P4,12*%
%TO.N,N/C*%
X153670000Y-113030000D03*
%TD*%
D13*
%TO.P,J1,1*%
%TO.N,GND*%
X124000000Y-101460000D03*
D14*
%TO.P,J1,2*%
%TO.N,/VIN*%
X124000000Y-104000000D03*
%TD*%
%TO.P,JP1,2*%
%TO.N,+5V*%
X124904500Y-86042500D03*
D13*
%TO.P,JP1,1*%
%TO.N,/VIN*%
X122364500Y-86042500D03*
%TD*%
%TO.P,JP2,1*%
%TO.N,+5V*%
X122364500Y-89979500D03*
D14*
%TO.P,JP2,2*%
%TO.N,Net-(D1-Pad2)*%
X124904500Y-89979500D03*
%TD*%
D15*
%TO.P,S1,4*%
%TO.N,/TX1*%
X123000000Y-118000000D03*
%TO.P,S1,3*%
%TO.N,/RX1*%
X121000000Y-118000000D03*
%TO.P,S1,2*%
%TO.N,GND*%
X119000000Y-118000000D03*
D16*
%TD*%
%TO.N,+5V*%
%TO.C,S1*%
G36*
X117374505Y-117126204D02*
X117398773Y-117129804D01*
X117422572Y-117135765D01*
X117445671Y-117144030D01*
X117467850Y-117154520D01*
X117488893Y-117167132D01*
X117508599Y-117181747D01*
X117526777Y-117198223D01*
X117543253Y-117216401D01*
X117557868Y-117236107D01*
X117570480Y-117257150D01*
X117580970Y-117279329D01*
X117589235Y-117302428D01*
X117595196Y-117326227D01*
X117598796Y-117350495D01*
X117600000Y-117374999D01*
X117600000Y-118625001D01*
X117598796Y-118649505D01*
X117595196Y-118673773D01*
X117589235Y-118697572D01*
X117580970Y-118720671D01*
X117570480Y-118742850D01*
X117557868Y-118763893D01*
X117543253Y-118783599D01*
X117526777Y-118801777D01*
X117508599Y-118818253D01*
X117488893Y-118832868D01*
X117467850Y-118845480D01*
X117445671Y-118855970D01*
X117422572Y-118864235D01*
X117398773Y-118870196D01*
X117374505Y-118873796D01*
X117350001Y-118875000D01*
X116649999Y-118875000D01*
X116625495Y-118873796D01*
X116601227Y-118870196D01*
X116577428Y-118864235D01*
X116554329Y-118855970D01*
X116532150Y-118845480D01*
X116511107Y-118832868D01*
X116491401Y-118818253D01*
X116473223Y-118801777D01*
X116456747Y-118783599D01*
X116442132Y-118763893D01*
X116429520Y-118742850D01*
X116419030Y-118720671D01*
X116410765Y-118697572D01*
X116404804Y-118673773D01*
X116401204Y-118649505D01*
X116400000Y-118625001D01*
X116400000Y-117374999D01*
X116401204Y-117350495D01*
X116404804Y-117326227D01*
X116410765Y-117302428D01*
X116419030Y-117279329D01*
X116429520Y-117257150D01*
X116442132Y-117236107D01*
X116456747Y-117216401D01*
X116473223Y-117198223D01*
X116491401Y-117181747D01*
X116511107Y-117167132D01*
X116532150Y-117154520D01*
X116554329Y-117144030D01*
X116577428Y-117135765D01*
X116601227Y-117129804D01*
X116625495Y-117126204D01*
X116649999Y-117125000D01*
X117350001Y-117125000D01*
X117374505Y-117126204D01*
X117374505Y-117126204D01*
G37*
D17*
%TO.P,S1,1*%
%TO.N,+5V*%
X117000000Y-118000000D03*
%TD*%
D16*
%TO.N,+5V*%
%TO.C,S3*%
G36*
X153374505Y-117126204D02*
X153398773Y-117129804D01*
X153422572Y-117135765D01*
X153445671Y-117144030D01*
X153467850Y-117154520D01*
X153488893Y-117167132D01*
X153508599Y-117181747D01*
X153526777Y-117198223D01*
X153543253Y-117216401D01*
X153557868Y-117236107D01*
X153570480Y-117257150D01*
X153580970Y-117279329D01*
X153589235Y-117302428D01*
X153595196Y-117326227D01*
X153598796Y-117350495D01*
X153600000Y-117374999D01*
X153600000Y-118625001D01*
X153598796Y-118649505D01*
X153595196Y-118673773D01*
X153589235Y-118697572D01*
X153580970Y-118720671D01*
X153570480Y-118742850D01*
X153557868Y-118763893D01*
X153543253Y-118783599D01*
X153526777Y-118801777D01*
X153508599Y-118818253D01*
X153488893Y-118832868D01*
X153467850Y-118845480D01*
X153445671Y-118855970D01*
X153422572Y-118864235D01*
X153398773Y-118870196D01*
X153374505Y-118873796D01*
X153350001Y-118875000D01*
X152649999Y-118875000D01*
X152625495Y-118873796D01*
X152601227Y-118870196D01*
X152577428Y-118864235D01*
X152554329Y-118855970D01*
X152532150Y-118845480D01*
X152511107Y-118832868D01*
X152491401Y-118818253D01*
X152473223Y-118801777D01*
X152456747Y-118783599D01*
X152442132Y-118763893D01*
X152429520Y-118742850D01*
X152419030Y-118720671D01*
X152410765Y-118697572D01*
X152404804Y-118673773D01*
X152401204Y-118649505D01*
X152400000Y-118625001D01*
X152400000Y-117374999D01*
X152401204Y-117350495D01*
X152404804Y-117326227D01*
X152410765Y-117302428D01*
X152419030Y-117279329D01*
X152429520Y-117257150D01*
X152442132Y-117236107D01*
X152456747Y-117216401D01*
X152473223Y-117198223D01*
X152491401Y-117181747D01*
X152511107Y-117167132D01*
X152532150Y-117154520D01*
X152554329Y-117144030D01*
X152577428Y-117135765D01*
X152601227Y-117129804D01*
X152625495Y-117126204D01*
X152649999Y-117125000D01*
X153350001Y-117125000D01*
X153374505Y-117126204D01*
X153374505Y-117126204D01*
G37*
D17*
%TD*%
%TO.P,S3,1*%
%TO.N,+5V*%
X153000000Y-118000000D03*
D15*
%TO.P,S3,2*%
%TO.N,GND*%
X155000000Y-118000000D03*
%TO.P,S3,3*%
%TO.N,/RX2*%
X157000000Y-118000000D03*
%TO.P,S3,4*%
%TO.N,/TX2*%
X159000000Y-118000000D03*
%TD*%
D16*
%TO.N,+5V*%
%TO.C,S4*%
G36*
X129374505Y-117126204D02*
X129398773Y-117129804D01*
X129422572Y-117135765D01*
X129445671Y-117144030D01*
X129467850Y-117154520D01*
X129488893Y-117167132D01*
X129508599Y-117181747D01*
X129526777Y-117198223D01*
X129543253Y-117216401D01*
X129557868Y-117236107D01*
X129570480Y-117257150D01*
X129580970Y-117279329D01*
X129589235Y-117302428D01*
X129595196Y-117326227D01*
X129598796Y-117350495D01*
X129600000Y-117374999D01*
X129600000Y-118625001D01*
X129598796Y-118649505D01*
X129595196Y-118673773D01*
X129589235Y-118697572D01*
X129580970Y-118720671D01*
X129570480Y-118742850D01*
X129557868Y-118763893D01*
X129543253Y-118783599D01*
X129526777Y-118801777D01*
X129508599Y-118818253D01*
X129488893Y-118832868D01*
X129467850Y-118845480D01*
X129445671Y-118855970D01*
X129422572Y-118864235D01*
X129398773Y-118870196D01*
X129374505Y-118873796D01*
X129350001Y-118875000D01*
X128649999Y-118875000D01*
X128625495Y-118873796D01*
X128601227Y-118870196D01*
X128577428Y-118864235D01*
X128554329Y-118855970D01*
X128532150Y-118845480D01*
X128511107Y-118832868D01*
X128491401Y-118818253D01*
X128473223Y-118801777D01*
X128456747Y-118783599D01*
X128442132Y-118763893D01*
X128429520Y-118742850D01*
X128419030Y-118720671D01*
X128410765Y-118697572D01*
X128404804Y-118673773D01*
X128401204Y-118649505D01*
X128400000Y-118625001D01*
X128400000Y-117374999D01*
X128401204Y-117350495D01*
X128404804Y-117326227D01*
X128410765Y-117302428D01*
X128419030Y-117279329D01*
X128429520Y-117257150D01*
X128442132Y-117236107D01*
X128456747Y-117216401D01*
X128473223Y-117198223D01*
X128491401Y-117181747D01*
X128511107Y-117167132D01*
X128532150Y-117154520D01*
X128554329Y-117144030D01*
X128577428Y-117135765D01*
X128601227Y-117129804D01*
X128625495Y-117126204D01*
X128649999Y-117125000D01*
X129350001Y-117125000D01*
X129374505Y-117126204D01*
X129374505Y-117126204D01*
G37*
D17*
%TD*%
%TO.P,S4,1*%
%TO.N,+5V*%
X129000000Y-118000000D03*
D15*
%TO.P,S4,2*%
%TO.N,GND*%
X131000000Y-118000000D03*
%TO.P,S4,3*%
%TO.N,/RX3*%
X133000000Y-118000000D03*
%TO.P,S4,4*%
%TO.N,/TX3*%
X135000000Y-118000000D03*
%TD*%
%TO.P,S5,4*%
%TO.N,/TX4*%
X171000000Y-118000000D03*
%TO.P,S5,3*%
%TO.N,/RX4*%
X169000000Y-118000000D03*
%TO.P,S5,2*%
%TO.N,GND*%
X167000000Y-118000000D03*
D16*
%TD*%
%TO.N,+5V*%
%TO.C,S5*%
G36*
X165374505Y-117126204D02*
X165398773Y-117129804D01*
X165422572Y-117135765D01*
X165445671Y-117144030D01*
X165467850Y-117154520D01*
X165488893Y-117167132D01*
X165508599Y-117181747D01*
X165526777Y-117198223D01*
X165543253Y-117216401D01*
X165557868Y-117236107D01*
X165570480Y-117257150D01*
X165580970Y-117279329D01*
X165589235Y-117302428D01*
X165595196Y-117326227D01*
X165598796Y-117350495D01*
X165600000Y-117374999D01*
X165600000Y-118625001D01*
X165598796Y-118649505D01*
X165595196Y-118673773D01*
X165589235Y-118697572D01*
X165580970Y-118720671D01*
X165570480Y-118742850D01*
X165557868Y-118763893D01*
X165543253Y-118783599D01*
X165526777Y-118801777D01*
X165508599Y-118818253D01*
X165488893Y-118832868D01*
X165467850Y-118845480D01*
X165445671Y-118855970D01*
X165422572Y-118864235D01*
X165398773Y-118870196D01*
X165374505Y-118873796D01*
X165350001Y-118875000D01*
X164649999Y-118875000D01*
X164625495Y-118873796D01*
X164601227Y-118870196D01*
X164577428Y-118864235D01*
X164554329Y-118855970D01*
X164532150Y-118845480D01*
X164511107Y-118832868D01*
X164491401Y-118818253D01*
X164473223Y-118801777D01*
X164456747Y-118783599D01*
X164442132Y-118763893D01*
X164429520Y-118742850D01*
X164419030Y-118720671D01*
X164410765Y-118697572D01*
X164404804Y-118673773D01*
X164401204Y-118649505D01*
X164400000Y-118625001D01*
X164400000Y-117374999D01*
X164401204Y-117350495D01*
X164404804Y-117326227D01*
X164410765Y-117302428D01*
X164419030Y-117279329D01*
X164429520Y-117257150D01*
X164442132Y-117236107D01*
X164456747Y-117216401D01*
X164473223Y-117198223D01*
X164491401Y-117181747D01*
X164511107Y-117167132D01*
X164532150Y-117154520D01*
X164554329Y-117144030D01*
X164577428Y-117135765D01*
X164601227Y-117129804D01*
X164625495Y-117126204D01*
X164649999Y-117125000D01*
X165350001Y-117125000D01*
X165374505Y-117126204D01*
X165374505Y-117126204D01*
G37*
D17*
%TO.P,S5,1*%
%TO.N,+5V*%
X165000000Y-118000000D03*
%TD*%
D16*
%TO.N,+5V*%
%TO.C,S6*%
G36*
X141374505Y-117126204D02*
X141398773Y-117129804D01*
X141422572Y-117135765D01*
X141445671Y-117144030D01*
X141467850Y-117154520D01*
X141488893Y-117167132D01*
X141508599Y-117181747D01*
X141526777Y-117198223D01*
X141543253Y-117216401D01*
X141557868Y-117236107D01*
X141570480Y-117257150D01*
X141580970Y-117279329D01*
X141589235Y-117302428D01*
X141595196Y-117326227D01*
X141598796Y-117350495D01*
X141600000Y-117374999D01*
X141600000Y-118625001D01*
X141598796Y-118649505D01*
X141595196Y-118673773D01*
X141589235Y-118697572D01*
X141580970Y-118720671D01*
X141570480Y-118742850D01*
X141557868Y-118763893D01*
X141543253Y-118783599D01*
X141526777Y-118801777D01*
X141508599Y-118818253D01*
X141488893Y-118832868D01*
X141467850Y-118845480D01*
X141445671Y-118855970D01*
X141422572Y-118864235D01*
X141398773Y-118870196D01*
X141374505Y-118873796D01*
X141350001Y-118875000D01*
X140649999Y-118875000D01*
X140625495Y-118873796D01*
X140601227Y-118870196D01*
X140577428Y-118864235D01*
X140554329Y-118855970D01*
X140532150Y-118845480D01*
X140511107Y-118832868D01*
X140491401Y-118818253D01*
X140473223Y-118801777D01*
X140456747Y-118783599D01*
X140442132Y-118763893D01*
X140429520Y-118742850D01*
X140419030Y-118720671D01*
X140410765Y-118697572D01*
X140404804Y-118673773D01*
X140401204Y-118649505D01*
X140400000Y-118625001D01*
X140400000Y-117374999D01*
X140401204Y-117350495D01*
X140404804Y-117326227D01*
X140410765Y-117302428D01*
X140419030Y-117279329D01*
X140429520Y-117257150D01*
X140442132Y-117236107D01*
X140456747Y-117216401D01*
X140473223Y-117198223D01*
X140491401Y-117181747D01*
X140511107Y-117167132D01*
X140532150Y-117154520D01*
X140554329Y-117144030D01*
X140577428Y-117135765D01*
X140601227Y-117129804D01*
X140625495Y-117126204D01*
X140649999Y-117125000D01*
X141350001Y-117125000D01*
X141374505Y-117126204D01*
X141374505Y-117126204D01*
G37*
D17*
%TD*%
%TO.P,S6,1*%
%TO.N,+5V*%
X141000000Y-118000000D03*
D15*
%TO.P,S6,2*%
%TO.N,GND*%
X143000000Y-118000000D03*
%TO.P,S6,3*%
%TO.N,/RX5*%
X145000000Y-118000000D03*
%TO.P,S6,4*%
%TO.N,/TX5*%
X147000000Y-118000000D03*
%TD*%
D18*
%TO.P,Y1,1*%
%TO.N,Net-(U2-Pad7)*%
X133477000Y-99949000D03*
%TO.P,Y1,2*%
%TO.N,Net-(U2-Pad8)*%
X133477000Y-104829000D03*
%TD*%
D13*
%TO.P,JP3,1*%
%TO.N,/A5_SCL_3V3*%
X162560000Y-105346500D03*
D14*
%TO.P,JP3,2*%
%TO.N,/A5_SCL*%
X160020000Y-105346500D03*
%TD*%
%TO.P,JP4,2*%
%TO.N,/A4_SDA*%
X160210500Y-109855000D03*
D13*
%TO.P,JP4,1*%
%TO.N,/A4_SDA_3V3*%
X162750500Y-109855000D03*
%TD*%
%TO.P,S2,1*%
%TO.N,/3V3*%
X168529000Y-101473000D03*
D14*
%TO.P,S2,2*%
%TO.N,/A4_SDA_3V3*%
X168529000Y-98933000D03*
%TO.P,S2,3*%
%TO.N,/A5_SCL_3V3*%
X168529000Y-96393000D03*
%TO.P,S2,4*%
%TO.N,GND*%
X168529000Y-93853000D03*
%TO.P,S2,5*%
%TO.N,/VIN*%
X168529000Y-91313000D03*
%TD*%
D19*
%TO.P,SW1,1*%
%TO.N,/RST*%
X161000000Y-89000000D03*
D20*
%TO.P,SW1,2*%
%TO.N,GND*%
X161000000Y-81380000D03*
%TD*%
D21*
%TO.N,GND*%
X148590000Y-109220000D03*
X144145000Y-113665000D03*
X143827500Y-102235000D03*
X144843500Y-101219000D03*
D22*
X133858000Y-83693000D03*
D21*
%TO.N,/VIN*%
X128524000Y-80264000D03*
X168656000Y-88011000D03*
X132842000Y-80264000D03*
%TO.N,Net-(C2-Pad2)*%
X149225000Y-113665000D03*
X150495000Y-108585000D03*
%TO.N,+5V*%
X165100000Y-92075000D03*
X142113000Y-99314000D03*
X170942000Y-95250000D03*
X127635000Y-83669001D03*
%TO.N,/RX0*%
X145288000Y-94234000D03*
%TO.N,/RST*%
X140843000Y-90170000D03*
X142875000Y-90170000D03*
X140843000Y-85979000D03*
%TO.N,/RX2*%
X156845000Y-120585000D03*
%TO.N,/TX2*%
X140462000Y-104203500D03*
X158750000Y-114935000D03*
%TO.N,/A4_SDA*%
X163020500Y-97933000D03*
X166560500Y-94170500D03*
%TO.N,/A5_SCL*%
X157670500Y-99695000D03*
X172402500Y-108839000D03*
%TO.N,/RX5*%
X156210000Y-112395000D03*
X147320000Y-111379000D03*
X143510000Y-110490000D03*
%TO.N,/A4_SDA_3V3*%
X166433500Y-102743000D03*
%TD*%
D23*
%TO.N,GND*%
X149860000Y-82550000D02*
X152400000Y-82550000D01*
X153670000Y-87630000D02*
X150812500Y-87630000D01*
X149860000Y-86677500D02*
X149860000Y-82550000D01*
X150812500Y-87630000D02*
X149860000Y-86677500D01*
D24*
X155000000Y-116725000D02*
X155300990Y-116424010D01*
X155000000Y-118000000D02*
X155000000Y-116725000D01*
X167000000Y-116835000D02*
X167000000Y-118000000D01*
X166589010Y-116424010D02*
X167000000Y-116835000D01*
D25*
X148590000Y-109220000D02*
X147955000Y-109855000D01*
X147970001Y-109870001D02*
X147970001Y-112379999D01*
X147955000Y-109855000D02*
X147970001Y-109870001D01*
X147970001Y-112379999D02*
X146685000Y-113665000D01*
X146685000Y-113665000D02*
X144145000Y-113665000D01*
D23*
X143827500Y-102235000D02*
X144843500Y-101219000D01*
D24*
X155667010Y-116424010D02*
X166589010Y-116424010D01*
X155300990Y-116424010D02*
X155667010Y-116424010D01*
D23*
X143238990Y-119489990D02*
X148156030Y-119489990D01*
X148156030Y-119489990D02*
X151222010Y-116424010D01*
X143000000Y-118000000D02*
X143000000Y-119251000D01*
X143000000Y-119251000D02*
X143238990Y-119489990D01*
X151222010Y-116424010D02*
X154778010Y-116424010D01*
X154778010Y-116424010D02*
X155667010Y-116424010D01*
X155000000Y-116646000D02*
X154778010Y-116424010D01*
X155000000Y-116725000D02*
X155000000Y-116646000D01*
X155413010Y-116424010D02*
X155338010Y-116349010D01*
X155667010Y-116424010D02*
X155413010Y-116424010D01*
X151297010Y-116349010D02*
X151222010Y-116424010D01*
X155000000Y-116680020D02*
X154668990Y-116349010D01*
X155000000Y-116725000D02*
X155000000Y-116680020D01*
X155338010Y-116349010D02*
X154668990Y-116349010D01*
X154668990Y-116349010D02*
X151297010Y-116349010D01*
D24*
X161000000Y-81380000D02*
X153868490Y-81380000D01*
X152533480Y-80044990D02*
X136363010Y-80044990D01*
X153868490Y-81380000D02*
X152533480Y-80044990D01*
X136363010Y-80044990D02*
X135255000Y-81153000D01*
X135255000Y-81153000D02*
X135255000Y-83185000D01*
X135255000Y-83185000D02*
X134747000Y-83693000D01*
X134747000Y-83693000D02*
X133858000Y-83693000D01*
%TO.N,/VIN*%
X128524000Y-80264000D02*
X132842000Y-80264000D01*
X166039800Y-88011000D02*
X168656000Y-88011000D01*
X165100000Y-87071200D02*
X166039800Y-88011000D01*
X165100000Y-82042000D02*
X165100000Y-87071200D01*
X134620000Y-80264000D02*
X135572500Y-79311500D01*
X132842000Y-80264000D02*
X134620000Y-80264000D01*
X135572500Y-79311500D02*
X162394900Y-79311500D01*
X162394900Y-79311500D02*
X162394900Y-79336900D01*
X162394900Y-79336900D02*
X165100000Y-82042000D01*
D25*
%TO.N,Net-(C2-Pad2)*%
X149225000Y-113665000D02*
X150495000Y-113665000D01*
X150495000Y-113665000D02*
X151130000Y-113030000D01*
X151130000Y-113030000D02*
X151765000Y-112395000D01*
X151765000Y-112395000D02*
X151765000Y-109855000D01*
X151765000Y-109855000D02*
X150495000Y-108585000D01*
D24*
%TO.N,+5V*%
X142113000Y-99314000D02*
X142113000Y-97155000D01*
X142113000Y-97155000D02*
X143383000Y-95885000D01*
X146558000Y-95885000D02*
X147320000Y-95123000D01*
X143383000Y-95885000D02*
X146558000Y-95885000D01*
X153650999Y-92690999D02*
X151745999Y-92690999D01*
X153670000Y-92710000D02*
X153650999Y-92690999D01*
X151745999Y-92690999D02*
X151130000Y-92075000D01*
X147701000Y-92075000D02*
X147320000Y-91694000D01*
X147701000Y-92075000D02*
X147320000Y-92075000D01*
X147320000Y-91694000D02*
X147320000Y-82550000D01*
X147320000Y-92075000D02*
X147320000Y-91694000D01*
X151130000Y-92075000D02*
X147701000Y-92075000D01*
X147701000Y-92075000D02*
X147320000Y-92456000D01*
X147320000Y-95123000D02*
X147320000Y-92456000D01*
X147320000Y-92456000D02*
X147320000Y-92075000D01*
X170942000Y-95250000D02*
X170942000Y-90424000D01*
X170580999Y-90062999D02*
X165588001Y-90062999D01*
X170942000Y-90424000D02*
X170580999Y-90062999D01*
X165100000Y-90551000D02*
X165100000Y-92075000D01*
X165588001Y-90062999D02*
X165100000Y-90551000D01*
X127635000Y-86042500D02*
X127635000Y-83820000D01*
X124904500Y-86042500D02*
X127635000Y-86042500D01*
X127635000Y-83820000D02*
X127635000Y-83669001D01*
X147320000Y-81216500D02*
X147320000Y-82550000D01*
X146748500Y-80645000D02*
X147320000Y-81216500D01*
X127635000Y-86042500D02*
X133921500Y-86042500D01*
X133921500Y-86042500D02*
X136652000Y-83312000D01*
X136652000Y-83312000D02*
X136652000Y-82169000D01*
X138176000Y-80645000D02*
X146748500Y-80645000D01*
X136652000Y-82169000D02*
X138176000Y-80645000D01*
D23*
%TO.N,/RX0*%
X145288000Y-94234000D02*
X143891000Y-92837000D01*
X142938500Y-87630000D02*
X138430000Y-87630000D01*
X144780000Y-82550000D02*
X144780000Y-84709000D01*
X144780000Y-84709000D02*
X143891000Y-85598000D01*
X143891000Y-92837000D02*
X143891000Y-89027000D01*
X143764000Y-87630000D02*
X143891000Y-87757000D01*
X143573500Y-87630000D02*
X143764000Y-87630000D01*
X142938500Y-87630000D02*
X143573500Y-87630000D01*
X143573500Y-87630000D02*
X143891000Y-87630000D01*
X143891000Y-87630000D02*
X143891000Y-87757000D01*
X143573500Y-87630000D02*
X143891000Y-87947500D01*
X143891000Y-87757000D02*
X143891000Y-87947500D01*
X143891000Y-87947500D02*
X143891000Y-89027000D01*
X143573500Y-87630000D02*
X143891000Y-87312500D01*
X143891000Y-85598000D02*
X143891000Y-87312500D01*
X143891000Y-87312500D02*
X143891000Y-87630000D01*
%TO.N,/RST*%
X140843000Y-90170000D02*
X142875000Y-90170000D01*
X140843000Y-85979000D02*
X140843000Y-85090000D01*
X139700000Y-83947000D02*
X139700000Y-82550000D01*
X140843000Y-85090000D02*
X139700000Y-83947000D01*
D24*
%TO.N,/RX2*%
X136525000Y-100330000D02*
X138430000Y-100330000D01*
X135890000Y-100965000D02*
X136525000Y-100330000D01*
X135890000Y-110657458D02*
X135890000Y-100965000D01*
X135543990Y-111003468D02*
X135890000Y-110657458D01*
X135543991Y-115056533D02*
X135543990Y-111003468D01*
X136525000Y-116037542D02*
X135543991Y-115056533D01*
X156845000Y-120585000D02*
X156845000Y-121539000D01*
X137160000Y-121920000D02*
X136525000Y-121285000D01*
X156845000Y-121539000D02*
X156464000Y-121920000D01*
X156464000Y-121920000D02*
X137160000Y-121920000D01*
X136525000Y-121285000D02*
X136525000Y-116037542D01*
D23*
%TO.N,/TX2*%
X139128500Y-102870000D02*
X138430000Y-102870000D01*
X140462000Y-104203500D02*
X139128500Y-102870000D01*
D24*
X140462000Y-110363000D02*
X140462000Y-113157000D01*
X140462000Y-104203500D02*
X140462000Y-110363000D01*
X140462000Y-113157000D02*
X142240000Y-114935000D01*
X142240000Y-114935000D02*
X158750000Y-114935000D01*
%TO.N,/RX4*%
X169000000Y-118000000D02*
X169000000Y-119544000D01*
X168455000Y-120015000D02*
X169000000Y-119470000D01*
X136144000Y-111252000D02*
X136144000Y-114808000D01*
X137668000Y-116332000D02*
X137668000Y-119253000D01*
X136906000Y-110490000D02*
X136144000Y-111252000D01*
X169000000Y-119470000D02*
X169000000Y-118000000D01*
X138430000Y-110490000D02*
X136906000Y-110490000D01*
X137668000Y-119253000D02*
X138430000Y-120015000D01*
X138430000Y-120015000D02*
X155575000Y-120015000D01*
X155575000Y-120015000D02*
X156210000Y-119380000D01*
X156210000Y-119380000D02*
X158115000Y-119380000D01*
X158115000Y-119380000D02*
X158750000Y-120015000D01*
X136144000Y-114808000D02*
X137668000Y-116332000D01*
X158750000Y-120015000D02*
X168455000Y-120015000D01*
%TO.N,/TX4*%
X171000000Y-118000000D02*
X171000000Y-116644000D01*
X171000000Y-116644000D02*
X170180000Y-115824000D01*
X170180000Y-115824000D02*
X139192000Y-115824000D01*
X138430000Y-115062000D02*
X138430000Y-113030000D01*
X139192000Y-115824000D02*
X138430000Y-115062000D01*
D23*
%TO.N,/A4_SDA*%
X166624000Y-95504000D02*
X166624000Y-94488000D01*
D24*
X163020500Y-96567500D02*
X163068000Y-96520000D01*
D23*
X151130000Y-96520000D02*
X162623500Y-96520000D01*
X162623500Y-96520000D02*
X163068000Y-96520000D01*
D24*
X163020500Y-96853500D02*
X163020500Y-96567500D01*
X163020500Y-96821500D02*
X163322000Y-96520000D01*
X163020500Y-97139000D02*
X163020500Y-96821500D01*
X163020500Y-97933000D02*
X163020500Y-97139000D01*
X163020500Y-97139000D02*
X163020500Y-96853500D01*
D23*
X163322000Y-96520000D02*
X165608000Y-96520000D01*
X163068000Y-96520000D02*
X163322000Y-96520000D01*
D24*
X162957000Y-96853500D02*
X162623500Y-96520000D01*
X163020500Y-96853500D02*
X162957000Y-96853500D01*
X165608000Y-96520000D02*
X166528750Y-95599250D01*
X151130000Y-96520000D02*
X165608000Y-96520000D01*
D23*
X166528750Y-95599250D02*
X166624000Y-95504000D01*
D24*
X166528750Y-95599250D02*
X166528750Y-94392750D01*
X166528750Y-94392750D02*
X166560500Y-94361000D01*
X166560500Y-94361000D02*
X166560500Y-94170500D01*
D25*
%TO.N,/A5_SCL*%
X160020000Y-105346500D02*
X157416500Y-105346500D01*
X157416500Y-105346500D02*
X156972000Y-104902000D01*
X156972000Y-104902000D02*
X156972000Y-99885500D01*
X156972000Y-99885500D02*
X157162500Y-99695000D01*
X157162500Y-99695000D02*
X157670500Y-99695000D01*
D24*
X160020000Y-105346500D02*
X160020000Y-107124500D01*
X160020000Y-107124500D02*
X160528000Y-107632500D01*
X160528000Y-107632500D02*
X171577000Y-107632500D01*
X171577000Y-107632500D02*
X172402500Y-108458000D01*
X172402500Y-108458000D02*
X172402500Y-108839000D01*
%TO.N,/RX5*%
X155575000Y-107950000D02*
X156210000Y-108585000D01*
X156210000Y-112395000D02*
X156210000Y-108585000D01*
X155575000Y-107950000D02*
X153670000Y-107950000D01*
D23*
X147320000Y-111389000D02*
X144409000Y-111389000D01*
X144409000Y-111389000D02*
X143510000Y-110490000D01*
D24*
%TO.N,/A5_SCL_3V3*%
X162560000Y-105346500D02*
X169164000Y-105346500D01*
X169164000Y-105346500D02*
X170624500Y-103886000D01*
X170624500Y-103886000D02*
X170624500Y-97155000D01*
X169862500Y-96393000D02*
X168529000Y-96393000D01*
X170624500Y-97155000D02*
X169862500Y-96393000D01*
%TO.N,/A4_SDA_3V3*%
X168529000Y-98933000D02*
X167195500Y-98933000D01*
X167195500Y-98933000D02*
X166433500Y-99695000D01*
X166433500Y-99695000D02*
X166433500Y-102743000D01*
%TD*%
D26*
%TO.N,GND*%
G36*
X134979209Y-78718209D02*
X134953058Y-78750074D01*
X134274133Y-79429000D01*
X133269404Y-79429000D01*
X133114729Y-79364932D01*
X132934089Y-79329000D01*
X132749911Y-79329000D01*
X132569271Y-79364932D01*
X132414596Y-79429000D01*
X128951404Y-79429000D01*
X128796729Y-79364932D01*
X128616089Y-79329000D01*
X128431911Y-79329000D01*
X128251271Y-79364932D01*
X128081111Y-79435414D01*
X127927972Y-79537738D01*
X127797738Y-79667972D01*
X127695414Y-79821111D01*
X127624932Y-79991271D01*
X127589000Y-80171911D01*
X127589000Y-80356089D01*
X127624932Y-80536729D01*
X127695414Y-80706889D01*
X127797738Y-80860028D01*
X127927972Y-80990262D01*
X128081111Y-81092586D01*
X128251271Y-81163068D01*
X128431911Y-81199000D01*
X128616089Y-81199000D01*
X128796729Y-81163068D01*
X128951404Y-81099000D01*
X132414596Y-81099000D01*
X132569271Y-81163068D01*
X132749911Y-81199000D01*
X132934089Y-81199000D01*
X133114729Y-81163068D01*
X133269404Y-81099000D01*
X134578982Y-81099000D01*
X134620000Y-81103040D01*
X134661018Y-81099000D01*
X134661019Y-81099000D01*
X134783689Y-81086918D01*
X134941087Y-81039172D01*
X135086146Y-80961636D01*
X135213291Y-80857291D01*
X135239446Y-80825421D01*
X135918368Y-80146500D01*
X137493632Y-80146500D01*
X136090574Y-81549559D01*
X136058710Y-81575709D01*
X136032562Y-81607571D01*
X135954364Y-81702855D01*
X135876828Y-81847914D01*
X135829082Y-82005312D01*
X135812960Y-82169000D01*
X135817001Y-82210028D01*
X135817000Y-82966132D01*
X133575633Y-85207500D01*
X128470000Y-85207500D01*
X128470000Y-84096405D01*
X128534068Y-83941730D01*
X128570000Y-83761090D01*
X128570000Y-83576912D01*
X128534068Y-83396272D01*
X128463586Y-83226112D01*
X128361262Y-83072973D01*
X128231028Y-82942739D01*
X128077889Y-82840415D01*
X127907729Y-82769933D01*
X127727089Y-82734001D01*
X127542911Y-82734001D01*
X127362271Y-82769933D01*
X127192111Y-82840415D01*
X127038972Y-82942739D01*
X126908738Y-83072973D01*
X126806414Y-83226112D01*
X126735932Y-83396272D01*
X126700000Y-83576912D01*
X126700000Y-83761090D01*
X126735932Y-83941730D01*
X126800001Y-84096407D01*
X126800000Y-85207500D01*
X126140293Y-85207500D01*
X125959634Y-84987366D01*
X125733514Y-84801794D01*
X125475534Y-84663901D01*
X125195611Y-84578987D01*
X124977450Y-84557500D01*
X124831550Y-84557500D01*
X124613389Y-84578987D01*
X124333466Y-84663901D01*
X124075486Y-84801794D01*
X123849366Y-84987366D01*
X123824893Y-85017187D01*
X123804002Y-84948320D01*
X123745037Y-84838006D01*
X123665685Y-84741315D01*
X123568994Y-84661963D01*
X123458680Y-84602998D01*
X123338982Y-84566688D01*
X123214500Y-84554428D01*
X121514500Y-84554428D01*
X121390018Y-84566688D01*
X121270320Y-84602998D01*
X121160006Y-84661963D01*
X121063315Y-84741315D01*
X120983963Y-84838006D01*
X120924998Y-84948320D01*
X120888688Y-85068018D01*
X120876428Y-85192500D01*
X120876428Y-86892500D01*
X120888688Y-87016982D01*
X120924998Y-87136680D01*
X120983963Y-87246994D01*
X121063315Y-87343685D01*
X121160006Y-87423037D01*
X121270320Y-87482002D01*
X121390018Y-87518312D01*
X121514500Y-87530572D01*
X123214500Y-87530572D01*
X123338982Y-87518312D01*
X123458680Y-87482002D01*
X123568994Y-87423037D01*
X123665685Y-87343685D01*
X123745037Y-87246994D01*
X123804002Y-87136680D01*
X123824893Y-87067813D01*
X123849366Y-87097634D01*
X124075486Y-87283206D01*
X124333466Y-87421099D01*
X124613389Y-87506013D01*
X124831550Y-87527500D01*
X124977450Y-87527500D01*
X125195611Y-87506013D01*
X125475534Y-87421099D01*
X125733514Y-87283206D01*
X125959634Y-87097634D01*
X126140293Y-86877500D01*
X127593981Y-86877500D01*
X127635000Y-86881540D01*
X127676018Y-86877500D01*
X133880482Y-86877500D01*
X133921500Y-86881540D01*
X133962518Y-86877500D01*
X133962519Y-86877500D01*
X134085189Y-86865418D01*
X134242587Y-86817672D01*
X134387646Y-86740136D01*
X134514791Y-86635791D01*
X134540946Y-86603921D01*
X137213428Y-83931440D01*
X137245291Y-83905291D01*
X137349636Y-83778146D01*
X137427172Y-83633087D01*
X137474918Y-83475689D01*
X137487000Y-83353019D01*
X137487000Y-83353018D01*
X137491040Y-83312001D01*
X137487000Y-83270982D01*
X137487000Y-82514867D01*
X138480233Y-81521635D01*
X138447931Y-81560995D01*
X138308775Y-81821337D01*
X138223084Y-82103824D01*
X138201400Y-82323982D01*
X138201400Y-82776019D01*
X138223084Y-82996177D01*
X138308775Y-83278664D01*
X138447931Y-83539006D01*
X138490930Y-83591400D01*
X138203981Y-83591400D01*
X137983823Y-83613084D01*
X137701336Y-83698775D01*
X137440994Y-83837931D01*
X137212803Y-84025203D01*
X137025531Y-84253394D01*
X136886375Y-84513736D01*
X136800684Y-84796223D01*
X136771749Y-85090000D01*
X136800684Y-85383777D01*
X136886375Y-85666264D01*
X137025531Y-85926606D01*
X137212803Y-86154797D01*
X137440994Y-86342069D01*
X137474540Y-86360000D01*
X137440994Y-86377931D01*
X137212803Y-86565203D01*
X137025531Y-86793394D01*
X136886375Y-87053736D01*
X136800684Y-87336223D01*
X136771749Y-87630000D01*
X136800684Y-87923777D01*
X136886375Y-88206264D01*
X137025531Y-88466606D01*
X137212803Y-88694797D01*
X137440994Y-88882069D01*
X137474540Y-88900000D01*
X137440994Y-88917931D01*
X137212803Y-89105203D01*
X137025531Y-89333394D01*
X136886375Y-89593736D01*
X136800684Y-89876223D01*
X136771749Y-90170000D01*
X136800684Y-90463777D01*
X136886375Y-90746264D01*
X137025531Y-91006606D01*
X137212803Y-91234797D01*
X137440994Y-91422069D01*
X137480947Y-91443424D01*
X137278271Y-91591514D01*
X137079267Y-91807965D01*
X136926314Y-92059081D01*
X136825291Y-92335211D01*
X136822642Y-92350974D01*
X136943783Y-92583000D01*
X138303000Y-92583000D01*
X138303000Y-92563000D01*
X138557000Y-92563000D01*
X138557000Y-92583000D01*
X139916217Y-92583000D01*
X140037358Y-92350974D01*
X140034709Y-92335211D01*
X139933686Y-92059081D01*
X139780733Y-91807965D01*
X139581729Y-91591514D01*
X139379053Y-91443424D01*
X139419006Y-91422069D01*
X139647197Y-91234797D01*
X139834469Y-91006606D01*
X139973625Y-90746264D01*
X140014223Y-90612429D01*
X140014414Y-90612889D01*
X140116738Y-90766028D01*
X140246972Y-90896262D01*
X140400111Y-90998586D01*
X140570271Y-91069068D01*
X140750911Y-91105000D01*
X140935089Y-91105000D01*
X141115729Y-91069068D01*
X141285889Y-90998586D01*
X141388535Y-90930000D01*
X142329465Y-90930000D01*
X142432111Y-90998586D01*
X142602271Y-91069068D01*
X142782911Y-91105000D01*
X142967089Y-91105000D01*
X143131000Y-91072396D01*
X143131000Y-92799677D01*
X143127324Y-92837000D01*
X143131000Y-92874322D01*
X143131000Y-92874332D01*
X143141997Y-92985985D01*
X143172360Y-93086080D01*
X143185454Y-93129246D01*
X143256026Y-93261276D01*
X143295871Y-93309826D01*
X143350999Y-93377001D01*
X143380003Y-93400804D01*
X144364847Y-94385649D01*
X144388932Y-94506729D01*
X144459414Y-94676889D01*
X144561738Y-94830028D01*
X144691972Y-94960262D01*
X144826275Y-95050000D01*
X143424015Y-95050000D01*
X143382999Y-95045960D01*
X143341983Y-95050000D01*
X143341981Y-95050000D01*
X143219311Y-95062082D01*
X143061913Y-95109828D01*
X142916854Y-95187364D01*
X142789709Y-95291709D01*
X142763561Y-95323571D01*
X141551574Y-96535559D01*
X141519710Y-96561709D01*
X141493562Y-96593571D01*
X141415364Y-96688855D01*
X141337828Y-96833914D01*
X141290082Y-96991312D01*
X141273960Y-97155000D01*
X141278001Y-97196028D01*
X141278000Y-98886595D01*
X141213932Y-99041271D01*
X141178000Y-99221911D01*
X141178000Y-99406089D01*
X141213932Y-99586729D01*
X141284414Y-99756889D01*
X141386738Y-99910028D01*
X141516972Y-100040262D01*
X141670111Y-100142586D01*
X141840271Y-100213068D01*
X142020911Y-100249000D01*
X142205089Y-100249000D01*
X142385729Y-100213068D01*
X142555889Y-100142586D01*
X142709028Y-100040262D01*
X142839262Y-99910028D01*
X142941586Y-99756889D01*
X143012068Y-99586729D01*
X143048000Y-99406089D01*
X143048000Y-99221911D01*
X143012068Y-99041271D01*
X142948000Y-98886596D01*
X142948000Y-97500867D01*
X143728868Y-96720000D01*
X146516982Y-96720000D01*
X146558000Y-96724040D01*
X146599018Y-96720000D01*
X146599019Y-96720000D01*
X146721689Y-96707918D01*
X146879087Y-96660172D01*
X147024146Y-96582636D01*
X147151291Y-96478291D01*
X147177445Y-96446422D01*
X147881433Y-95742436D01*
X147913291Y-95716291D01*
X147942287Y-95680960D01*
X148017636Y-95589146D01*
X148095172Y-95444087D01*
X148122192Y-95355014D01*
X148142918Y-95286689D01*
X148155000Y-95164019D01*
X148155000Y-95164018D01*
X148159040Y-95123000D01*
X148155000Y-95081982D01*
X148155000Y-92910000D01*
X150044739Y-92910000D01*
X149946232Y-93008507D01*
X149779449Y-93258115D01*
X149664566Y-93535466D01*
X149606000Y-93829899D01*
X149606000Y-94130101D01*
X149664566Y-94424534D01*
X149779449Y-94701885D01*
X149946232Y-94951493D01*
X150158507Y-95163768D01*
X150287562Y-95250000D01*
X150158507Y-95336232D01*
X149946232Y-95548507D01*
X149779449Y-95798115D01*
X149664566Y-96075466D01*
X149606000Y-96369899D01*
X149606000Y-96670101D01*
X149664566Y-96964534D01*
X149779449Y-97241885D01*
X149946232Y-97491493D01*
X150158507Y-97703768D01*
X150408115Y-97870551D01*
X150685466Y-97985434D01*
X150979899Y-98044000D01*
X151280101Y-98044000D01*
X151574534Y-97985434D01*
X151851885Y-97870551D01*
X152014518Y-97761883D01*
X152011749Y-97790000D01*
X152040684Y-98083777D01*
X152126375Y-98366264D01*
X152265531Y-98626606D01*
X152452803Y-98854797D01*
X152680994Y-99042069D01*
X152714540Y-99060000D01*
X152680994Y-99077931D01*
X152452803Y-99265203D01*
X152265531Y-99493394D01*
X152126375Y-99753736D01*
X152040684Y-100036223D01*
X152011749Y-100330000D01*
X152040684Y-100623777D01*
X152126375Y-100906264D01*
X152265531Y-101166606D01*
X152452803Y-101394797D01*
X152680994Y-101582069D01*
X152714540Y-101600000D01*
X152680994Y-101617931D01*
X152452803Y-101805203D01*
X152265531Y-102033394D01*
X152126375Y-102293736D01*
X152040684Y-102576223D01*
X152011749Y-102870000D01*
X152040684Y-103163777D01*
X152126375Y-103446264D01*
X152265531Y-103706606D01*
X152452803Y-103934797D01*
X152680994Y-104122069D01*
X152714540Y-104140000D01*
X152680994Y-104157931D01*
X152452803Y-104345203D01*
X152265531Y-104573394D01*
X152126375Y-104833736D01*
X152040684Y-105116223D01*
X152011749Y-105410000D01*
X152040684Y-105703777D01*
X152126375Y-105986264D01*
X152265531Y-106246606D01*
X152452803Y-106474797D01*
X152680994Y-106662069D01*
X152714540Y-106680000D01*
X152680994Y-106697931D01*
X152452803Y-106885203D01*
X152265531Y-107113394D01*
X152126375Y-107373736D01*
X152040684Y-107656223D01*
X152011749Y-107950000D01*
X152040684Y-108243777D01*
X152126375Y-108526264D01*
X152265531Y-108786606D01*
X152452803Y-109014797D01*
X152680994Y-109202069D01*
X152714540Y-109220000D01*
X152680994Y-109237931D01*
X152452803Y-109425203D01*
X152436191Y-109445445D01*
X152420862Y-109416767D01*
X152370558Y-109355472D01*
X152347345Y-109327187D01*
X152347342Y-109327184D01*
X152322764Y-109297236D01*
X152292815Y-109272658D01*
X151409374Y-108389216D01*
X151394068Y-108312271D01*
X151323586Y-108142111D01*
X151221262Y-107988972D01*
X151091028Y-107858738D01*
X150937889Y-107756414D01*
X150767729Y-107685932D01*
X150587089Y-107650000D01*
X150402911Y-107650000D01*
X150222271Y-107685932D01*
X150052111Y-107756414D01*
X149898972Y-107858738D01*
X149768738Y-107988972D01*
X149666414Y-108142111D01*
X149595932Y-108312271D01*
X149560000Y-108492911D01*
X149560000Y-108677089D01*
X149595932Y-108857729D01*
X149666414Y-109027889D01*
X149768738Y-109181028D01*
X149898972Y-109311262D01*
X150052111Y-109413586D01*
X150222271Y-109484068D01*
X150299216Y-109499374D01*
X150980001Y-110180159D01*
X150980000Y-112069843D01*
X150169843Y-112880000D01*
X149733120Y-112880000D01*
X149667889Y-112836414D01*
X149497729Y-112765932D01*
X149317089Y-112730000D01*
X149132911Y-112730000D01*
X148952271Y-112765932D01*
X148782111Y-112836414D01*
X148628972Y-112938738D01*
X148498738Y-113068972D01*
X148396414Y-113222111D01*
X148325932Y-113392271D01*
X148290000Y-113572911D01*
X148290000Y-113757089D01*
X148325932Y-113937729D01*
X148393146Y-114100000D01*
X142585869Y-114100000D01*
X141297000Y-112811133D01*
X141297000Y-110397911D01*
X142575000Y-110397911D01*
X142575000Y-110582089D01*
X142610932Y-110762729D01*
X142681414Y-110932889D01*
X142783738Y-111086028D01*
X142913972Y-111216262D01*
X143067111Y-111318586D01*
X143237271Y-111389068D01*
X143358351Y-111413153D01*
X143845201Y-111900003D01*
X143868999Y-111929001D01*
X143897997Y-111952799D01*
X143984723Y-112023974D01*
X144080032Y-112074918D01*
X144116753Y-112094546D01*
X144260014Y-112138003D01*
X144371667Y-112149000D01*
X144371677Y-112149000D01*
X144409000Y-112152676D01*
X144446322Y-112149000D01*
X146789431Y-112149000D01*
X146877111Y-112207586D01*
X147047271Y-112278068D01*
X147227911Y-112314000D01*
X147412089Y-112314000D01*
X147592729Y-112278068D01*
X147762889Y-112207586D01*
X147916028Y-112105262D01*
X148046262Y-111975028D01*
X148148586Y-111821889D01*
X148219068Y-111651729D01*
X148255000Y-111471089D01*
X148255000Y-111286911D01*
X148219068Y-111106271D01*
X148148586Y-110936111D01*
X148046262Y-110782972D01*
X147916028Y-110652738D01*
X147762889Y-110550414D01*
X147592729Y-110479932D01*
X147412089Y-110444000D01*
X147227911Y-110444000D01*
X147047271Y-110479932D01*
X146877111Y-110550414D01*
X146759498Y-110629000D01*
X144723802Y-110629000D01*
X144433153Y-110338351D01*
X144409068Y-110217271D01*
X144338586Y-110047111D01*
X144236262Y-109893972D01*
X144106028Y-109763738D01*
X143952889Y-109661414D01*
X143782729Y-109590932D01*
X143602089Y-109555000D01*
X143417911Y-109555000D01*
X143237271Y-109590932D01*
X143067111Y-109661414D01*
X142913972Y-109763738D01*
X142783738Y-109893972D01*
X142681414Y-110047111D01*
X142610932Y-110217271D01*
X142575000Y-110397911D01*
X141297000Y-110397911D01*
X141297000Y-104630904D01*
X141361068Y-104476229D01*
X141397000Y-104295589D01*
X141397000Y-104111411D01*
X141361068Y-103930771D01*
X141290586Y-103760611D01*
X141188262Y-103607472D01*
X141058028Y-103477238D01*
X140904889Y-103374914D01*
X140734729Y-103304432D01*
X140613649Y-103280347D01*
X140075681Y-102742380D01*
X140059316Y-102576223D01*
X139973625Y-102293736D01*
X139834469Y-102033394D01*
X139647197Y-101805203D01*
X139419006Y-101617931D01*
X139385460Y-101600000D01*
X139419006Y-101582069D01*
X139647197Y-101394797D01*
X139834469Y-101166606D01*
X139973625Y-100906264D01*
X140059316Y-100623777D01*
X140088251Y-100330000D01*
X140059316Y-100036223D01*
X139973625Y-99753736D01*
X139834469Y-99493394D01*
X139647197Y-99265203D01*
X139419006Y-99077931D01*
X139385460Y-99060000D01*
X139419006Y-99042069D01*
X139647197Y-98854797D01*
X139834469Y-98626606D01*
X139973625Y-98366264D01*
X140059316Y-98083777D01*
X140088251Y-97790000D01*
X140059316Y-97496223D01*
X139973625Y-97213736D01*
X139834469Y-96953394D01*
X139647197Y-96725203D01*
X139419006Y-96537931D01*
X139385460Y-96520000D01*
X139419006Y-96502069D01*
X139647197Y-96314797D01*
X139834469Y-96086606D01*
X139973625Y-95826264D01*
X140059316Y-95543777D01*
X140088251Y-95250000D01*
X140059316Y-94956223D01*
X139973625Y-94673736D01*
X139834469Y-94413394D01*
X139647197Y-94185203D01*
X139419006Y-93997931D01*
X139379053Y-93976576D01*
X139581729Y-93828486D01*
X139780733Y-93612035D01*
X139933686Y-93360919D01*
X140034709Y-93084789D01*
X140037358Y-93069026D01*
X139916217Y-92837000D01*
X138557000Y-92837000D01*
X138557000Y-92857000D01*
X138303000Y-92857000D01*
X138303000Y-92837000D01*
X136943783Y-92837000D01*
X136822642Y-93069026D01*
X136825291Y-93084789D01*
X136926314Y-93360919D01*
X137079267Y-93612035D01*
X137278271Y-93828486D01*
X137480947Y-93976576D01*
X137440994Y-93997931D01*
X137212803Y-94185203D01*
X137025531Y-94413394D01*
X136886375Y-94673736D01*
X136800684Y-94956223D01*
X136771749Y-95250000D01*
X136800684Y-95543777D01*
X136886375Y-95826264D01*
X137025531Y-96086606D01*
X137212803Y-96314797D01*
X137440994Y-96502069D01*
X137474540Y-96520000D01*
X137440994Y-96537931D01*
X137212803Y-96725203D01*
X137025531Y-96953394D01*
X136886375Y-97213736D01*
X136800684Y-97496223D01*
X136771749Y-97790000D01*
X136800684Y-98083777D01*
X136886375Y-98366264D01*
X137025531Y-98626606D01*
X137212803Y-98854797D01*
X137440994Y-99042069D01*
X137474540Y-99060000D01*
X137440994Y-99077931D01*
X137212803Y-99265203D01*
X137025531Y-99493394D01*
X137024673Y-99495000D01*
X136566018Y-99495000D01*
X136525000Y-99490960D01*
X136483982Y-99495000D01*
X136483981Y-99495000D01*
X136361311Y-99507082D01*
X136203913Y-99554828D01*
X136058854Y-99632364D01*
X135966482Y-99708172D01*
X135931709Y-99736709D01*
X135905562Y-99768569D01*
X135328573Y-100345559D01*
X135296710Y-100371709D01*
X135217813Y-100467845D01*
X135192364Y-100498855D01*
X135114828Y-100643914D01*
X135067082Y-100801312D01*
X135050960Y-100965000D01*
X135055001Y-101006029D01*
X135055000Y-110311591D01*
X134982563Y-110384028D01*
X134950699Y-110410178D01*
X134885191Y-110490000D01*
X134846354Y-110537323D01*
X134768818Y-110682382D01*
X134721072Y-110839780D01*
X134704950Y-111003468D01*
X134708990Y-111044487D01*
X134708992Y-115015505D01*
X134704951Y-115056533D01*
X134721073Y-115220221D01*
X134768819Y-115377619D01*
X134846355Y-115522678D01*
X134853208Y-115531028D01*
X134950701Y-115649824D01*
X134982565Y-115675974D01*
X135690001Y-116383411D01*
X135690001Y-116693621D01*
X135689448Y-116693167D01*
X135474900Y-116578489D01*
X135242101Y-116507870D01*
X135000000Y-116484025D01*
X134757898Y-116507870D01*
X134525099Y-116578489D01*
X134310551Y-116693167D01*
X134122498Y-116847498D01*
X134000000Y-116996763D01*
X133877502Y-116847498D01*
X133689448Y-116693167D01*
X133474900Y-116578489D01*
X133242101Y-116507870D01*
X133000000Y-116484025D01*
X132757898Y-116507870D01*
X132525099Y-116578489D01*
X132310551Y-116693167D01*
X132122498Y-116847498D01*
X131999519Y-116997349D01*
X131956307Y-116933275D01*
X131783474Y-116761922D01*
X131580533Y-116627579D01*
X131355282Y-116535409D01*
X131317609Y-116531538D01*
X131127000Y-116656269D01*
X131127000Y-117873000D01*
X131147000Y-117873000D01*
X131147000Y-118127000D01*
X131127000Y-118127000D01*
X131127000Y-119343731D01*
X131317609Y-119468462D01*
X131355282Y-119464591D01*
X131580533Y-119372421D01*
X131783474Y-119238078D01*
X131956307Y-119066725D01*
X131999520Y-119002651D01*
X132122499Y-119152502D01*
X132310552Y-119306833D01*
X132525100Y-119421511D01*
X132757899Y-119492130D01*
X133000000Y-119515975D01*
X133242102Y-119492130D01*
X133474901Y-119421511D01*
X133689449Y-119306833D01*
X133877502Y-119152502D01*
X134000001Y-119003237D01*
X134122499Y-119152502D01*
X134310552Y-119306833D01*
X134525100Y-119421511D01*
X134757899Y-119492130D01*
X135000000Y-119515975D01*
X135242102Y-119492130D01*
X135474901Y-119421511D01*
X135689449Y-119306833D01*
X135690000Y-119306380D01*
X135690000Y-121243981D01*
X135685960Y-121285000D01*
X135690000Y-121326018D01*
X135702082Y-121448688D01*
X135749828Y-121606086D01*
X135827364Y-121751145D01*
X135931709Y-121878291D01*
X135963578Y-121904445D01*
X136374132Y-122315000D01*
X115283737Y-122315000D01*
X113685000Y-120716264D01*
X113685000Y-117374999D01*
X115761928Y-117374999D01*
X115761928Y-118625001D01*
X115778992Y-118798255D01*
X115829528Y-118964851D01*
X115911595Y-119118387D01*
X116022038Y-119252962D01*
X116156613Y-119363405D01*
X116310149Y-119445472D01*
X116476745Y-119496008D01*
X116649999Y-119513072D01*
X117350001Y-119513072D01*
X117523255Y-119496008D01*
X117689851Y-119445472D01*
X117843387Y-119363405D01*
X117977962Y-119252962D01*
X118088405Y-119118387D01*
X118090967Y-119113594D01*
X118216526Y-119238078D01*
X118419467Y-119372421D01*
X118644718Y-119464591D01*
X118682391Y-119468462D01*
X118873000Y-119343731D01*
X118873000Y-118127000D01*
X118853000Y-118127000D01*
X118853000Y-117873000D01*
X118873000Y-117873000D01*
X118873000Y-116656269D01*
X119127000Y-116656269D01*
X119127000Y-117873000D01*
X119147000Y-117873000D01*
X119147000Y-118127000D01*
X119127000Y-118127000D01*
X119127000Y-119343731D01*
X119317609Y-119468462D01*
X119355282Y-119464591D01*
X119580533Y-119372421D01*
X119783474Y-119238078D01*
X119956307Y-119066725D01*
X119999520Y-119002651D01*
X120122499Y-119152502D01*
X120310552Y-119306833D01*
X120525100Y-119421511D01*
X120757899Y-119492130D01*
X121000000Y-119515975D01*
X121242102Y-119492130D01*
X121474901Y-119421511D01*
X121689449Y-119306833D01*
X121877502Y-119152502D01*
X122000001Y-119003237D01*
X122122499Y-119152502D01*
X122310552Y-119306833D01*
X122525100Y-119421511D01*
X122757899Y-119492130D01*
X123000000Y-119515975D01*
X123242102Y-119492130D01*
X123474901Y-119421511D01*
X123689449Y-119306833D01*
X123877502Y-119152502D01*
X124031833Y-118964449D01*
X124146511Y-118749900D01*
X124217130Y-118517101D01*
X124235000Y-118335664D01*
X124235000Y-117664335D01*
X124217130Y-117482898D01*
X124184400Y-117374999D01*
X127761928Y-117374999D01*
X127761928Y-118625001D01*
X127778992Y-118798255D01*
X127829528Y-118964851D01*
X127911595Y-119118387D01*
X128022038Y-119252962D01*
X128156613Y-119363405D01*
X128310149Y-119445472D01*
X128476745Y-119496008D01*
X128649999Y-119513072D01*
X129350001Y-119513072D01*
X129523255Y-119496008D01*
X129689851Y-119445472D01*
X129843387Y-119363405D01*
X129977962Y-119252962D01*
X130088405Y-119118387D01*
X130090967Y-119113594D01*
X130216526Y-119238078D01*
X130419467Y-119372421D01*
X130644718Y-119464591D01*
X130682391Y-119468462D01*
X130873000Y-119343731D01*
X130873000Y-118127000D01*
X130853000Y-118127000D01*
X130853000Y-117873000D01*
X130873000Y-117873000D01*
X130873000Y-116656269D01*
X130682391Y-116531538D01*
X130644718Y-116535409D01*
X130419467Y-116627579D01*
X130216526Y-116761922D01*
X130090967Y-116886406D01*
X130088405Y-116881613D01*
X129977962Y-116747038D01*
X129843387Y-116636595D01*
X129689851Y-116554528D01*
X129523255Y-116503992D01*
X129350001Y-116486928D01*
X128649999Y-116486928D01*
X128476745Y-116503992D01*
X128310149Y-116554528D01*
X128156613Y-116636595D01*
X128022038Y-116747038D01*
X127911595Y-116881613D01*
X127829528Y-117035149D01*
X127778992Y-117201745D01*
X127761928Y-117374999D01*
X124184400Y-117374999D01*
X124146511Y-117250099D01*
X124031833Y-117035551D01*
X123877502Y-116847498D01*
X123689448Y-116693167D01*
X123474900Y-116578489D01*
X123242101Y-116507870D01*
X123000000Y-116484025D01*
X122757898Y-116507870D01*
X122525099Y-116578489D01*
X122310551Y-116693167D01*
X122122498Y-116847498D01*
X122000000Y-116996763D01*
X121877502Y-116847498D01*
X121689448Y-116693167D01*
X121474900Y-116578489D01*
X121242101Y-116507870D01*
X121000000Y-116484025D01*
X120757898Y-116507870D01*
X120525099Y-116578489D01*
X120310551Y-116693167D01*
X120122498Y-116847498D01*
X119999519Y-116997349D01*
X119956307Y-116933275D01*
X119783474Y-116761922D01*
X119580533Y-116627579D01*
X119355282Y-116535409D01*
X119317609Y-116531538D01*
X119127000Y-116656269D01*
X118873000Y-116656269D01*
X118682391Y-116531538D01*
X118644718Y-116535409D01*
X118419467Y-116627579D01*
X118216526Y-116761922D01*
X118090967Y-116886406D01*
X118088405Y-116881613D01*
X117977962Y-116747038D01*
X117843387Y-116636595D01*
X117689851Y-116554528D01*
X117523255Y-116503992D01*
X117350001Y-116486928D01*
X116649999Y-116486928D01*
X116476745Y-116503992D01*
X116310149Y-116554528D01*
X116156613Y-116636595D01*
X116022038Y-116747038D01*
X115911595Y-116881613D01*
X115829528Y-117035149D01*
X115778992Y-117201745D01*
X115761928Y-117374999D01*
X113685000Y-117374999D01*
X113685000Y-109355472D01*
X121971000Y-109355472D01*
X121971000Y-109795728D01*
X122056890Y-110227525D01*
X122225369Y-110634269D01*
X122469962Y-111000329D01*
X122781271Y-111311638D01*
X123147331Y-111556231D01*
X123554075Y-111724710D01*
X123985872Y-111810600D01*
X124426128Y-111810600D01*
X124857925Y-111724710D01*
X125264669Y-111556231D01*
X125630729Y-111311638D01*
X125942038Y-111000329D01*
X126186631Y-110634269D01*
X126355110Y-110227525D01*
X126441000Y-109795728D01*
X126441000Y-109355472D01*
X126355110Y-108923675D01*
X126186631Y-108516931D01*
X125942038Y-108150871D01*
X125630729Y-107839562D01*
X125264669Y-107594969D01*
X124857925Y-107426490D01*
X124426128Y-107340600D01*
X123985872Y-107340600D01*
X123554075Y-107426490D01*
X123147331Y-107594969D01*
X122781271Y-107839562D01*
X122469962Y-108150871D01*
X122225369Y-108516931D01*
X122056890Y-108923675D01*
X121971000Y-109355472D01*
X113685000Y-109355472D01*
X113685000Y-104000000D01*
X122507815Y-104000000D01*
X122536487Y-104291111D01*
X122621401Y-104571034D01*
X122759294Y-104829014D01*
X122944866Y-105055134D01*
X123170986Y-105240706D01*
X123428966Y-105378599D01*
X123708889Y-105463513D01*
X123927050Y-105485000D01*
X124072950Y-105485000D01*
X124291111Y-105463513D01*
X124571034Y-105378599D01*
X124829014Y-105240706D01*
X125055134Y-105055134D01*
X125240706Y-104829014D01*
X125313626Y-104692589D01*
X132092000Y-104692589D01*
X132092000Y-104965411D01*
X132145225Y-105232989D01*
X132249629Y-105485043D01*
X132401201Y-105711886D01*
X132594114Y-105904799D01*
X132820957Y-106056371D01*
X133073011Y-106160775D01*
X133340589Y-106214000D01*
X133613411Y-106214000D01*
X133880989Y-106160775D01*
X134133043Y-106056371D01*
X134359886Y-105904799D01*
X134552799Y-105711886D01*
X134704371Y-105485043D01*
X134808775Y-105232989D01*
X134862000Y-104965411D01*
X134862000Y-104692589D01*
X134808775Y-104425011D01*
X134704371Y-104172957D01*
X134552799Y-103946114D01*
X134359886Y-103753201D01*
X134133043Y-103601629D01*
X133880989Y-103497225D01*
X133613411Y-103444000D01*
X133340589Y-103444000D01*
X133073011Y-103497225D01*
X132820957Y-103601629D01*
X132594114Y-103753201D01*
X132401201Y-103946114D01*
X132249629Y-104172957D01*
X132145225Y-104425011D01*
X132092000Y-104692589D01*
X125313626Y-104692589D01*
X125378599Y-104571034D01*
X125463513Y-104291111D01*
X125492185Y-104000000D01*
X125463513Y-103708889D01*
X125378599Y-103428966D01*
X125240706Y-103170986D01*
X125055134Y-102944866D01*
X125027447Y-102922144D01*
X125035223Y-102920597D01*
X125150785Y-102872730D01*
X125254789Y-102803237D01*
X125343237Y-102714789D01*
X125412730Y-102610785D01*
X125460597Y-102495223D01*
X125485000Y-102372542D01*
X125485000Y-101745750D01*
X125326250Y-101587000D01*
X124127000Y-101587000D01*
X124127000Y-101607000D01*
X123873000Y-101607000D01*
X123873000Y-101587000D01*
X122673750Y-101587000D01*
X122515000Y-101745750D01*
X122515000Y-102372542D01*
X122539403Y-102495223D01*
X122587270Y-102610785D01*
X122656763Y-102714789D01*
X122745211Y-102803237D01*
X122849215Y-102872730D01*
X122964777Y-102920597D01*
X122972553Y-102922144D01*
X122944866Y-102944866D01*
X122759294Y-103170986D01*
X122621401Y-103428966D01*
X122536487Y-103708889D01*
X122507815Y-104000000D01*
X113685000Y-104000000D01*
X113685000Y-100547458D01*
X122515000Y-100547458D01*
X122515000Y-101174250D01*
X122673750Y-101333000D01*
X123873000Y-101333000D01*
X123873000Y-100133750D01*
X124127000Y-100133750D01*
X124127000Y-101333000D01*
X125326250Y-101333000D01*
X125485000Y-101174250D01*
X125485000Y-100547458D01*
X125460597Y-100424777D01*
X125412730Y-100309215D01*
X125343237Y-100205211D01*
X125254789Y-100116763D01*
X125150785Y-100047270D01*
X125035223Y-99999403D01*
X124912542Y-99975000D01*
X124285750Y-99975000D01*
X124127000Y-100133750D01*
X123873000Y-100133750D01*
X123714250Y-99975000D01*
X123087458Y-99975000D01*
X122964777Y-99999403D01*
X122849215Y-100047270D01*
X122745211Y-100116763D01*
X122656763Y-100205211D01*
X122587270Y-100309215D01*
X122539403Y-100424777D01*
X122515000Y-100547458D01*
X113685000Y-100547458D01*
X113685000Y-99812589D01*
X132092000Y-99812589D01*
X132092000Y-100085411D01*
X132145225Y-100352989D01*
X132249629Y-100605043D01*
X132401201Y-100831886D01*
X132594114Y-101024799D01*
X132820957Y-101176371D01*
X133073011Y-101280775D01*
X133340589Y-101334000D01*
X133613411Y-101334000D01*
X133880989Y-101280775D01*
X134133043Y-101176371D01*
X134359886Y-101024799D01*
X134552799Y-100831886D01*
X134704371Y-100605043D01*
X134808775Y-100352989D01*
X134862000Y-100085411D01*
X134862000Y-99812589D01*
X134808775Y-99545011D01*
X134704371Y-99292957D01*
X134552799Y-99066114D01*
X134359886Y-98873201D01*
X134133043Y-98721629D01*
X133880989Y-98617225D01*
X133613411Y-98564000D01*
X133340589Y-98564000D01*
X133073011Y-98617225D01*
X132820957Y-98721629D01*
X132594114Y-98873201D01*
X132401201Y-99066114D01*
X132249629Y-99292957D01*
X132145225Y-99545011D01*
X132092000Y-99812589D01*
X113685000Y-99812589D01*
X113685000Y-89129500D01*
X120876428Y-89129500D01*
X120876428Y-90829500D01*
X120888688Y-90953982D01*
X120924998Y-91073680D01*
X120983963Y-91183994D01*
X121063315Y-91280685D01*
X121160006Y-91360037D01*
X121270320Y-91419002D01*
X121390018Y-91455312D01*
X121514500Y-91467572D01*
X123214500Y-91467572D01*
X123338982Y-91455312D01*
X123458680Y-91419002D01*
X123568994Y-91360037D01*
X123665685Y-91280685D01*
X123745037Y-91183994D01*
X123804002Y-91073680D01*
X123824893Y-91004813D01*
X123849366Y-91034634D01*
X124075486Y-91220206D01*
X124333466Y-91358099D01*
X124613389Y-91443013D01*
X124831550Y-91464500D01*
X124977450Y-91464500D01*
X125195611Y-91443013D01*
X125475534Y-91358099D01*
X125733514Y-91220206D01*
X125959634Y-91034634D01*
X126145206Y-90808514D01*
X126283099Y-90550534D01*
X126368013Y-90270611D01*
X126396685Y-89979500D01*
X126368013Y-89688389D01*
X126283099Y-89408466D01*
X126145206Y-89150486D01*
X125959634Y-88924366D01*
X125733514Y-88738794D01*
X125475534Y-88600901D01*
X125195611Y-88515987D01*
X124977450Y-88494500D01*
X124831550Y-88494500D01*
X124613389Y-88515987D01*
X124333466Y-88600901D01*
X124075486Y-88738794D01*
X123849366Y-88924366D01*
X123824893Y-88954187D01*
X123804002Y-88885320D01*
X123745037Y-88775006D01*
X123665685Y-88678315D01*
X123568994Y-88598963D01*
X123458680Y-88539998D01*
X123338982Y-88503688D01*
X123214500Y-88491428D01*
X121514500Y-88491428D01*
X121390018Y-88503688D01*
X121270320Y-88539998D01*
X121160006Y-88598963D01*
X121063315Y-88678315D01*
X120983963Y-88775006D01*
X120924998Y-88885320D01*
X120888688Y-89005018D01*
X120876428Y-89129500D01*
X113685000Y-89129500D01*
X113685000Y-81517072D01*
X114097000Y-81517072D01*
X114097000Y-81957328D01*
X114182890Y-82389125D01*
X114351369Y-82795869D01*
X114595962Y-83161929D01*
X114907271Y-83473238D01*
X115273331Y-83717831D01*
X115680075Y-83886310D01*
X116111872Y-83972200D01*
X116552128Y-83972200D01*
X116983925Y-83886310D01*
X117390669Y-83717831D01*
X117756729Y-83473238D01*
X118068038Y-83161929D01*
X118312631Y-82795869D01*
X118481110Y-82389125D01*
X118567000Y-81957328D01*
X118567000Y-81517072D01*
X118481110Y-81085275D01*
X118312631Y-80678531D01*
X118068038Y-80312471D01*
X117756729Y-80001162D01*
X117390669Y-79756569D01*
X116983925Y-79588090D01*
X116552128Y-79502200D01*
X116111872Y-79502200D01*
X115680075Y-79588090D01*
X115273331Y-79756569D01*
X114907271Y-80001162D01*
X114595962Y-80312471D01*
X114351369Y-80678531D01*
X114182890Y-81085275D01*
X114097000Y-81517072D01*
X113685000Y-81517072D01*
X113685000Y-80283736D01*
X115283737Y-78685000D01*
X135019674Y-78685000D01*
X134979209Y-78718209D01*
X134979209Y-78718209D01*
G37*
X134979209Y-78718209D02*
X134953058Y-78750074D01*
X134274133Y-79429000D01*
X133269404Y-79429000D01*
X133114729Y-79364932D01*
X132934089Y-79329000D01*
X132749911Y-79329000D01*
X132569271Y-79364932D01*
X132414596Y-79429000D01*
X128951404Y-79429000D01*
X128796729Y-79364932D01*
X128616089Y-79329000D01*
X128431911Y-79329000D01*
X128251271Y-79364932D01*
X128081111Y-79435414D01*
X127927972Y-79537738D01*
X127797738Y-79667972D01*
X127695414Y-79821111D01*
X127624932Y-79991271D01*
X127589000Y-80171911D01*
X127589000Y-80356089D01*
X127624932Y-80536729D01*
X127695414Y-80706889D01*
X127797738Y-80860028D01*
X127927972Y-80990262D01*
X128081111Y-81092586D01*
X128251271Y-81163068D01*
X128431911Y-81199000D01*
X128616089Y-81199000D01*
X128796729Y-81163068D01*
X128951404Y-81099000D01*
X132414596Y-81099000D01*
X132569271Y-81163068D01*
X132749911Y-81199000D01*
X132934089Y-81199000D01*
X133114729Y-81163068D01*
X133269404Y-81099000D01*
X134578982Y-81099000D01*
X134620000Y-81103040D01*
X134661018Y-81099000D01*
X134661019Y-81099000D01*
X134783689Y-81086918D01*
X134941087Y-81039172D01*
X135086146Y-80961636D01*
X135213291Y-80857291D01*
X135239446Y-80825421D01*
X135918368Y-80146500D01*
X137493632Y-80146500D01*
X136090574Y-81549559D01*
X136058710Y-81575709D01*
X136032562Y-81607571D01*
X135954364Y-81702855D01*
X135876828Y-81847914D01*
X135829082Y-82005312D01*
X135812960Y-82169000D01*
X135817001Y-82210028D01*
X135817000Y-82966132D01*
X133575633Y-85207500D01*
X128470000Y-85207500D01*
X128470000Y-84096405D01*
X128534068Y-83941730D01*
X128570000Y-83761090D01*
X128570000Y-83576912D01*
X128534068Y-83396272D01*
X128463586Y-83226112D01*
X128361262Y-83072973D01*
X128231028Y-82942739D01*
X128077889Y-82840415D01*
X127907729Y-82769933D01*
X127727089Y-82734001D01*
X127542911Y-82734001D01*
X127362271Y-82769933D01*
X127192111Y-82840415D01*
X127038972Y-82942739D01*
X126908738Y-83072973D01*
X126806414Y-83226112D01*
X126735932Y-83396272D01*
X126700000Y-83576912D01*
X126700000Y-83761090D01*
X126735932Y-83941730D01*
X126800001Y-84096407D01*
X126800000Y-85207500D01*
X126140293Y-85207500D01*
X125959634Y-84987366D01*
X125733514Y-84801794D01*
X125475534Y-84663901D01*
X125195611Y-84578987D01*
X124977450Y-84557500D01*
X124831550Y-84557500D01*
X124613389Y-84578987D01*
X124333466Y-84663901D01*
X124075486Y-84801794D01*
X123849366Y-84987366D01*
X123824893Y-85017187D01*
X123804002Y-84948320D01*
X123745037Y-84838006D01*
X123665685Y-84741315D01*
X123568994Y-84661963D01*
X123458680Y-84602998D01*
X123338982Y-84566688D01*
X123214500Y-84554428D01*
X121514500Y-84554428D01*
X121390018Y-84566688D01*
X121270320Y-84602998D01*
X121160006Y-84661963D01*
X121063315Y-84741315D01*
X120983963Y-84838006D01*
X120924998Y-84948320D01*
X120888688Y-85068018D01*
X120876428Y-85192500D01*
X120876428Y-86892500D01*
X120888688Y-87016982D01*
X120924998Y-87136680D01*
X120983963Y-87246994D01*
X121063315Y-87343685D01*
X121160006Y-87423037D01*
X121270320Y-87482002D01*
X121390018Y-87518312D01*
X121514500Y-87530572D01*
X123214500Y-87530572D01*
X123338982Y-87518312D01*
X123458680Y-87482002D01*
X123568994Y-87423037D01*
X123665685Y-87343685D01*
X123745037Y-87246994D01*
X123804002Y-87136680D01*
X123824893Y-87067813D01*
X123849366Y-87097634D01*
X124075486Y-87283206D01*
X124333466Y-87421099D01*
X124613389Y-87506013D01*
X124831550Y-87527500D01*
X124977450Y-87527500D01*
X125195611Y-87506013D01*
X125475534Y-87421099D01*
X125733514Y-87283206D01*
X125959634Y-87097634D01*
X126140293Y-86877500D01*
X127593981Y-86877500D01*
X127635000Y-86881540D01*
X127676018Y-86877500D01*
X133880482Y-86877500D01*
X133921500Y-86881540D01*
X133962518Y-86877500D01*
X133962519Y-86877500D01*
X134085189Y-86865418D01*
X134242587Y-86817672D01*
X134387646Y-86740136D01*
X134514791Y-86635791D01*
X134540946Y-86603921D01*
X137213428Y-83931440D01*
X137245291Y-83905291D01*
X137349636Y-83778146D01*
X137427172Y-83633087D01*
X137474918Y-83475689D01*
X137487000Y-83353019D01*
X137487000Y-83353018D01*
X137491040Y-83312001D01*
X137487000Y-83270982D01*
X137487000Y-82514867D01*
X138480233Y-81521635D01*
X138447931Y-81560995D01*
X138308775Y-81821337D01*
X138223084Y-82103824D01*
X138201400Y-82323982D01*
X138201400Y-82776019D01*
X138223084Y-82996177D01*
X138308775Y-83278664D01*
X138447931Y-83539006D01*
X138490930Y-83591400D01*
X138203981Y-83591400D01*
X137983823Y-83613084D01*
X137701336Y-83698775D01*
X137440994Y-83837931D01*
X137212803Y-84025203D01*
X137025531Y-84253394D01*
X136886375Y-84513736D01*
X136800684Y-84796223D01*
X136771749Y-85090000D01*
X136800684Y-85383777D01*
X136886375Y-85666264D01*
X137025531Y-85926606D01*
X137212803Y-86154797D01*
X137440994Y-86342069D01*
X137474540Y-86360000D01*
X137440994Y-86377931D01*
X137212803Y-86565203D01*
X137025531Y-86793394D01*
X136886375Y-87053736D01*
X136800684Y-87336223D01*
X136771749Y-87630000D01*
X136800684Y-87923777D01*
X136886375Y-88206264D01*
X137025531Y-88466606D01*
X137212803Y-88694797D01*
X137440994Y-88882069D01*
X137474540Y-88900000D01*
X137440994Y-88917931D01*
X137212803Y-89105203D01*
X137025531Y-89333394D01*
X136886375Y-89593736D01*
X136800684Y-89876223D01*
X136771749Y-90170000D01*
X136800684Y-90463777D01*
X136886375Y-90746264D01*
X137025531Y-91006606D01*
X137212803Y-91234797D01*
X137440994Y-91422069D01*
X137480947Y-91443424D01*
X137278271Y-91591514D01*
X137079267Y-91807965D01*
X136926314Y-92059081D01*
X136825291Y-92335211D01*
X136822642Y-92350974D01*
X136943783Y-92583000D01*
X138303000Y-92583000D01*
X138303000Y-92563000D01*
X138557000Y-92563000D01*
X138557000Y-92583000D01*
X139916217Y-92583000D01*
X140037358Y-92350974D01*
X140034709Y-92335211D01*
X139933686Y-92059081D01*
X139780733Y-91807965D01*
X139581729Y-91591514D01*
X139379053Y-91443424D01*
X139419006Y-91422069D01*
X139647197Y-91234797D01*
X139834469Y-91006606D01*
X139973625Y-90746264D01*
X140014223Y-90612429D01*
X140014414Y-90612889D01*
X140116738Y-90766028D01*
X140246972Y-90896262D01*
X140400111Y-90998586D01*
X140570271Y-91069068D01*
X140750911Y-91105000D01*
X140935089Y-91105000D01*
X141115729Y-91069068D01*
X141285889Y-90998586D01*
X141388535Y-90930000D01*
X142329465Y-90930000D01*
X142432111Y-90998586D01*
X142602271Y-91069068D01*
X142782911Y-91105000D01*
X142967089Y-91105000D01*
X143131000Y-91072396D01*
X143131000Y-92799677D01*
X143127324Y-92837000D01*
X143131000Y-92874322D01*
X143131000Y-92874332D01*
X143141997Y-92985985D01*
X143172360Y-93086080D01*
X143185454Y-93129246D01*
X143256026Y-93261276D01*
X143295871Y-93309826D01*
X143350999Y-93377001D01*
X143380003Y-93400804D01*
X144364847Y-94385649D01*
X144388932Y-94506729D01*
X144459414Y-94676889D01*
X144561738Y-94830028D01*
X144691972Y-94960262D01*
X144826275Y-95050000D01*
X143424015Y-95050000D01*
X143382999Y-95045960D01*
X143341983Y-95050000D01*
X143341981Y-95050000D01*
X143219311Y-95062082D01*
X143061913Y-95109828D01*
X142916854Y-95187364D01*
X142789709Y-95291709D01*
X142763561Y-95323571D01*
X141551574Y-96535559D01*
X141519710Y-96561709D01*
X141493562Y-96593571D01*
X141415364Y-96688855D01*
X141337828Y-96833914D01*
X141290082Y-96991312D01*
X141273960Y-97155000D01*
X141278001Y-97196028D01*
X141278000Y-98886595D01*
X141213932Y-99041271D01*
X141178000Y-99221911D01*
X141178000Y-99406089D01*
X141213932Y-99586729D01*
X141284414Y-99756889D01*
X141386738Y-99910028D01*
X141516972Y-100040262D01*
X141670111Y-100142586D01*
X141840271Y-100213068D01*
X142020911Y-100249000D01*
X142205089Y-100249000D01*
X142385729Y-100213068D01*
X142555889Y-100142586D01*
X142709028Y-100040262D01*
X142839262Y-99910028D01*
X142941586Y-99756889D01*
X143012068Y-99586729D01*
X143048000Y-99406089D01*
X143048000Y-99221911D01*
X143012068Y-99041271D01*
X142948000Y-98886596D01*
X142948000Y-97500867D01*
X143728868Y-96720000D01*
X146516982Y-96720000D01*
X146558000Y-96724040D01*
X146599018Y-96720000D01*
X146599019Y-96720000D01*
X146721689Y-96707918D01*
X146879087Y-96660172D01*
X147024146Y-96582636D01*
X147151291Y-96478291D01*
X147177445Y-96446422D01*
X147881433Y-95742436D01*
X147913291Y-95716291D01*
X147942287Y-95680960D01*
X148017636Y-95589146D01*
X148095172Y-95444087D01*
X148122192Y-95355014D01*
X148142918Y-95286689D01*
X148155000Y-95164019D01*
X148155000Y-95164018D01*
X148159040Y-95123000D01*
X148155000Y-95081982D01*
X148155000Y-92910000D01*
X150044739Y-92910000D01*
X149946232Y-93008507D01*
X149779449Y-93258115D01*
X149664566Y-93535466D01*
X149606000Y-93829899D01*
X149606000Y-94130101D01*
X149664566Y-94424534D01*
X149779449Y-94701885D01*
X149946232Y-94951493D01*
X150158507Y-95163768D01*
X150287562Y-95250000D01*
X150158507Y-95336232D01*
X149946232Y-95548507D01*
X149779449Y-95798115D01*
X149664566Y-96075466D01*
X149606000Y-96369899D01*
X149606000Y-96670101D01*
X149664566Y-96964534D01*
X149779449Y-97241885D01*
X149946232Y-97491493D01*
X150158507Y-97703768D01*
X150408115Y-97870551D01*
X150685466Y-97985434D01*
X150979899Y-98044000D01*
X151280101Y-98044000D01*
X151574534Y-97985434D01*
X151851885Y-97870551D01*
X152014518Y-97761883D01*
X152011749Y-97790000D01*
X152040684Y-98083777D01*
X152126375Y-98366264D01*
X152265531Y-98626606D01*
X152452803Y-98854797D01*
X152680994Y-99042069D01*
X152714540Y-99060000D01*
X152680994Y-99077931D01*
X152452803Y-99265203D01*
X152265531Y-99493394D01*
X152126375Y-99753736D01*
X152040684Y-100036223D01*
X152011749Y-100330000D01*
X152040684Y-100623777D01*
X152126375Y-100906264D01*
X152265531Y-101166606D01*
X152452803Y-101394797D01*
X152680994Y-101582069D01*
X152714540Y-101600000D01*
X152680994Y-101617931D01*
X152452803Y-101805203D01*
X152265531Y-102033394D01*
X152126375Y-102293736D01*
X152040684Y-102576223D01*
X152011749Y-102870000D01*
X152040684Y-103163777D01*
X152126375Y-103446264D01*
X152265531Y-103706606D01*
X152452803Y-103934797D01*
X152680994Y-104122069D01*
X152714540Y-104140000D01*
X152680994Y-104157931D01*
X152452803Y-104345203D01*
X152265531Y-104573394D01*
X152126375Y-104833736D01*
X152040684Y-105116223D01*
X152011749Y-105410000D01*
X152040684Y-105703777D01*
X152126375Y-105986264D01*
X152265531Y-106246606D01*
X152452803Y-106474797D01*
X152680994Y-106662069D01*
X152714540Y-106680000D01*
X152680994Y-106697931D01*
X152452803Y-106885203D01*
X152265531Y-107113394D01*
X152126375Y-107373736D01*
X152040684Y-107656223D01*
X152011749Y-107950000D01*
X152040684Y-108243777D01*
X152126375Y-108526264D01*
X152265531Y-108786606D01*
X152452803Y-109014797D01*
X152680994Y-109202069D01*
X152714540Y-109220000D01*
X152680994Y-109237931D01*
X152452803Y-109425203D01*
X152436191Y-109445445D01*
X152420862Y-109416767D01*
X152370558Y-109355472D01*
X152347345Y-109327187D01*
X152347342Y-109327184D01*
X152322764Y-109297236D01*
X152292815Y-109272658D01*
X151409374Y-108389216D01*
X151394068Y-108312271D01*
X151323586Y-108142111D01*
X151221262Y-107988972D01*
X151091028Y-107858738D01*
X150937889Y-107756414D01*
X150767729Y-107685932D01*
X150587089Y-107650000D01*
X150402911Y-107650000D01*
X150222271Y-107685932D01*
X150052111Y-107756414D01*
X149898972Y-107858738D01*
X149768738Y-107988972D01*
X149666414Y-108142111D01*
X149595932Y-108312271D01*
X149560000Y-108492911D01*
X149560000Y-108677089D01*
X149595932Y-108857729D01*
X149666414Y-109027889D01*
X149768738Y-109181028D01*
X149898972Y-109311262D01*
X150052111Y-109413586D01*
X150222271Y-109484068D01*
X150299216Y-109499374D01*
X150980001Y-110180159D01*
X150980000Y-112069843D01*
X150169843Y-112880000D01*
X149733120Y-112880000D01*
X149667889Y-112836414D01*
X149497729Y-112765932D01*
X149317089Y-112730000D01*
X149132911Y-112730000D01*
X148952271Y-112765932D01*
X148782111Y-112836414D01*
X148628972Y-112938738D01*
X148498738Y-113068972D01*
X148396414Y-113222111D01*
X148325932Y-113392271D01*
X148290000Y-113572911D01*
X148290000Y-113757089D01*
X148325932Y-113937729D01*
X148393146Y-114100000D01*
X142585869Y-114100000D01*
X141297000Y-112811133D01*
X141297000Y-110397911D01*
X142575000Y-110397911D01*
X142575000Y-110582089D01*
X142610932Y-110762729D01*
X142681414Y-110932889D01*
X142783738Y-111086028D01*
X142913972Y-111216262D01*
X143067111Y-111318586D01*
X143237271Y-111389068D01*
X143358351Y-111413153D01*
X143845201Y-111900003D01*
X143868999Y-111929001D01*
X143897997Y-111952799D01*
X143984723Y-112023974D01*
X144080032Y-112074918D01*
X144116753Y-112094546D01*
X144260014Y-112138003D01*
X144371667Y-112149000D01*
X144371677Y-112149000D01*
X144409000Y-112152676D01*
X144446322Y-112149000D01*
X146789431Y-112149000D01*
X146877111Y-112207586D01*
X147047271Y-112278068D01*
X147227911Y-112314000D01*
X147412089Y-112314000D01*
X147592729Y-112278068D01*
X147762889Y-112207586D01*
X147916028Y-112105262D01*
X148046262Y-111975028D01*
X148148586Y-111821889D01*
X148219068Y-111651729D01*
X148255000Y-111471089D01*
X148255000Y-111286911D01*
X148219068Y-111106271D01*
X148148586Y-110936111D01*
X148046262Y-110782972D01*
X147916028Y-110652738D01*
X147762889Y-110550414D01*
X147592729Y-110479932D01*
X147412089Y-110444000D01*
X147227911Y-110444000D01*
X147047271Y-110479932D01*
X146877111Y-110550414D01*
X146759498Y-110629000D01*
X144723802Y-110629000D01*
X144433153Y-110338351D01*
X144409068Y-110217271D01*
X144338586Y-110047111D01*
X144236262Y-109893972D01*
X144106028Y-109763738D01*
X143952889Y-109661414D01*
X143782729Y-109590932D01*
X143602089Y-109555000D01*
X143417911Y-109555000D01*
X143237271Y-109590932D01*
X143067111Y-109661414D01*
X142913972Y-109763738D01*
X142783738Y-109893972D01*
X142681414Y-110047111D01*
X142610932Y-110217271D01*
X142575000Y-110397911D01*
X141297000Y-110397911D01*
X141297000Y-104630904D01*
X141361068Y-104476229D01*
X141397000Y-104295589D01*
X141397000Y-104111411D01*
X141361068Y-103930771D01*
X141290586Y-103760611D01*
X141188262Y-103607472D01*
X141058028Y-103477238D01*
X140904889Y-103374914D01*
X140734729Y-103304432D01*
X140613649Y-103280347D01*
X140075681Y-102742380D01*
X140059316Y-102576223D01*
X139973625Y-102293736D01*
X139834469Y-102033394D01*
X139647197Y-101805203D01*
X139419006Y-101617931D01*
X139385460Y-101600000D01*
X139419006Y-101582069D01*
X139647197Y-101394797D01*
X139834469Y-101166606D01*
X139973625Y-100906264D01*
X140059316Y-100623777D01*
X140088251Y-100330000D01*
X140059316Y-100036223D01*
X139973625Y-99753736D01*
X139834469Y-99493394D01*
X139647197Y-99265203D01*
X139419006Y-99077931D01*
X139385460Y-99060000D01*
X139419006Y-99042069D01*
X139647197Y-98854797D01*
X139834469Y-98626606D01*
X139973625Y-98366264D01*
X140059316Y-98083777D01*
X140088251Y-97790000D01*
X140059316Y-97496223D01*
X139973625Y-97213736D01*
X139834469Y-96953394D01*
X139647197Y-96725203D01*
X139419006Y-96537931D01*
X139385460Y-96520000D01*
X139419006Y-96502069D01*
X139647197Y-96314797D01*
X139834469Y-96086606D01*
X139973625Y-95826264D01*
X140059316Y-95543777D01*
X140088251Y-95250000D01*
X140059316Y-94956223D01*
X139973625Y-94673736D01*
X139834469Y-94413394D01*
X139647197Y-94185203D01*
X139419006Y-93997931D01*
X139379053Y-93976576D01*
X139581729Y-93828486D01*
X139780733Y-93612035D01*
X139933686Y-93360919D01*
X140034709Y-93084789D01*
X140037358Y-93069026D01*
X139916217Y-92837000D01*
X138557000Y-92837000D01*
X138557000Y-92857000D01*
X138303000Y-92857000D01*
X138303000Y-92837000D01*
X136943783Y-92837000D01*
X136822642Y-93069026D01*
X136825291Y-93084789D01*
X136926314Y-93360919D01*
X137079267Y-93612035D01*
X137278271Y-93828486D01*
X137480947Y-93976576D01*
X137440994Y-93997931D01*
X137212803Y-94185203D01*
X137025531Y-94413394D01*
X136886375Y-94673736D01*
X136800684Y-94956223D01*
X136771749Y-95250000D01*
X136800684Y-95543777D01*
X136886375Y-95826264D01*
X137025531Y-96086606D01*
X137212803Y-96314797D01*
X137440994Y-96502069D01*
X137474540Y-96520000D01*
X137440994Y-96537931D01*
X137212803Y-96725203D01*
X137025531Y-96953394D01*
X136886375Y-97213736D01*
X136800684Y-97496223D01*
X136771749Y-97790000D01*
X136800684Y-98083777D01*
X136886375Y-98366264D01*
X137025531Y-98626606D01*
X137212803Y-98854797D01*
X137440994Y-99042069D01*
X137474540Y-99060000D01*
X137440994Y-99077931D01*
X137212803Y-99265203D01*
X137025531Y-99493394D01*
X137024673Y-99495000D01*
X136566018Y-99495000D01*
X136525000Y-99490960D01*
X136483982Y-99495000D01*
X136483981Y-99495000D01*
X136361311Y-99507082D01*
X136203913Y-99554828D01*
X136058854Y-99632364D01*
X135966482Y-99708172D01*
X135931709Y-99736709D01*
X135905562Y-99768569D01*
X135328573Y-100345559D01*
X135296710Y-100371709D01*
X135217813Y-100467845D01*
X135192364Y-100498855D01*
X135114828Y-100643914D01*
X135067082Y-100801312D01*
X135050960Y-100965000D01*
X135055001Y-101006029D01*
X135055000Y-110311591D01*
X134982563Y-110384028D01*
X134950699Y-110410178D01*
X134885191Y-110490000D01*
X134846354Y-110537323D01*
X134768818Y-110682382D01*
X134721072Y-110839780D01*
X134704950Y-111003468D01*
X134708990Y-111044487D01*
X134708992Y-115015505D01*
X134704951Y-115056533D01*
X134721073Y-115220221D01*
X134768819Y-115377619D01*
X134846355Y-115522678D01*
X134853208Y-115531028D01*
X134950701Y-115649824D01*
X134982565Y-115675974D01*
X135690001Y-116383411D01*
X135690001Y-116693621D01*
X135689448Y-116693167D01*
X135474900Y-116578489D01*
X135242101Y-116507870D01*
X135000000Y-116484025D01*
X134757898Y-116507870D01*
X134525099Y-116578489D01*
X134310551Y-116693167D01*
X134122498Y-116847498D01*
X134000000Y-116996763D01*
X133877502Y-116847498D01*
X133689448Y-116693167D01*
X133474900Y-116578489D01*
X133242101Y-116507870D01*
X133000000Y-116484025D01*
X132757898Y-116507870D01*
X132525099Y-116578489D01*
X132310551Y-116693167D01*
X132122498Y-116847498D01*
X131999519Y-116997349D01*
X131956307Y-116933275D01*
X131783474Y-116761922D01*
X131580533Y-116627579D01*
X131355282Y-116535409D01*
X131317609Y-116531538D01*
X131127000Y-116656269D01*
X131127000Y-117873000D01*
X131147000Y-117873000D01*
X131147000Y-118127000D01*
X131127000Y-118127000D01*
X131127000Y-119343731D01*
X131317609Y-119468462D01*
X131355282Y-119464591D01*
X131580533Y-119372421D01*
X131783474Y-119238078D01*
X131956307Y-119066725D01*
X131999520Y-119002651D01*
X132122499Y-119152502D01*
X132310552Y-119306833D01*
X132525100Y-119421511D01*
X132757899Y-119492130D01*
X133000000Y-119515975D01*
X133242102Y-119492130D01*
X133474901Y-119421511D01*
X133689449Y-119306833D01*
X133877502Y-119152502D01*
X134000001Y-119003237D01*
X134122499Y-119152502D01*
X134310552Y-119306833D01*
X134525100Y-119421511D01*
X134757899Y-119492130D01*
X135000000Y-119515975D01*
X135242102Y-119492130D01*
X135474901Y-119421511D01*
X135689449Y-119306833D01*
X135690000Y-119306380D01*
X135690000Y-121243981D01*
X135685960Y-121285000D01*
X135690000Y-121326018D01*
X135702082Y-121448688D01*
X135749828Y-121606086D01*
X135827364Y-121751145D01*
X135931709Y-121878291D01*
X135963578Y-121904445D01*
X136374132Y-122315000D01*
X115283737Y-122315000D01*
X113685000Y-120716264D01*
X113685000Y-117374999D01*
X115761928Y-117374999D01*
X115761928Y-118625001D01*
X115778992Y-118798255D01*
X115829528Y-118964851D01*
X115911595Y-119118387D01*
X116022038Y-119252962D01*
X116156613Y-119363405D01*
X116310149Y-119445472D01*
X116476745Y-119496008D01*
X116649999Y-119513072D01*
X117350001Y-119513072D01*
X117523255Y-119496008D01*
X117689851Y-119445472D01*
X117843387Y-119363405D01*
X117977962Y-119252962D01*
X118088405Y-119118387D01*
X118090967Y-119113594D01*
X118216526Y-119238078D01*
X118419467Y-119372421D01*
X118644718Y-119464591D01*
X118682391Y-119468462D01*
X118873000Y-119343731D01*
X118873000Y-118127000D01*
X118853000Y-118127000D01*
X118853000Y-117873000D01*
X118873000Y-117873000D01*
X118873000Y-116656269D01*
X119127000Y-116656269D01*
X119127000Y-117873000D01*
X119147000Y-117873000D01*
X119147000Y-118127000D01*
X119127000Y-118127000D01*
X119127000Y-119343731D01*
X119317609Y-119468462D01*
X119355282Y-119464591D01*
X119580533Y-119372421D01*
X119783474Y-119238078D01*
X119956307Y-119066725D01*
X119999520Y-119002651D01*
X120122499Y-119152502D01*
X120310552Y-119306833D01*
X120525100Y-119421511D01*
X120757899Y-119492130D01*
X121000000Y-119515975D01*
X121242102Y-119492130D01*
X121474901Y-119421511D01*
X121689449Y-119306833D01*
X121877502Y-119152502D01*
X122000001Y-119003237D01*
X122122499Y-119152502D01*
X122310552Y-119306833D01*
X122525100Y-119421511D01*
X122757899Y-119492130D01*
X123000000Y-119515975D01*
X123242102Y-119492130D01*
X123474901Y-119421511D01*
X123689449Y-119306833D01*
X123877502Y-119152502D01*
X124031833Y-118964449D01*
X124146511Y-118749900D01*
X124217130Y-118517101D01*
X124235000Y-118335664D01*
X124235000Y-117664335D01*
X124217130Y-117482898D01*
X124184400Y-117374999D01*
X127761928Y-117374999D01*
X127761928Y-118625001D01*
X127778992Y-118798255D01*
X127829528Y-118964851D01*
X127911595Y-119118387D01*
X128022038Y-119252962D01*
X128156613Y-119363405D01*
X128310149Y-119445472D01*
X128476745Y-119496008D01*
X128649999Y-119513072D01*
X129350001Y-119513072D01*
X129523255Y-119496008D01*
X129689851Y-119445472D01*
X129843387Y-119363405D01*
X129977962Y-119252962D01*
X130088405Y-119118387D01*
X130090967Y-119113594D01*
X130216526Y-119238078D01*
X130419467Y-119372421D01*
X130644718Y-119464591D01*
X130682391Y-119468462D01*
X130873000Y-119343731D01*
X130873000Y-118127000D01*
X130853000Y-118127000D01*
X130853000Y-117873000D01*
X130873000Y-117873000D01*
X130873000Y-116656269D01*
X130682391Y-116531538D01*
X130644718Y-116535409D01*
X130419467Y-116627579D01*
X130216526Y-116761922D01*
X130090967Y-116886406D01*
X130088405Y-116881613D01*
X129977962Y-116747038D01*
X129843387Y-116636595D01*
X129689851Y-116554528D01*
X129523255Y-116503992D01*
X129350001Y-116486928D01*
X128649999Y-116486928D01*
X128476745Y-116503992D01*
X128310149Y-116554528D01*
X128156613Y-116636595D01*
X128022038Y-116747038D01*
X127911595Y-116881613D01*
X127829528Y-117035149D01*
X127778992Y-117201745D01*
X127761928Y-117374999D01*
X124184400Y-117374999D01*
X124146511Y-117250099D01*
X124031833Y-117035551D01*
X123877502Y-116847498D01*
X123689448Y-116693167D01*
X123474900Y-116578489D01*
X123242101Y-116507870D01*
X123000000Y-116484025D01*
X122757898Y-116507870D01*
X122525099Y-116578489D01*
X122310551Y-116693167D01*
X122122498Y-116847498D01*
X122000000Y-116996763D01*
X121877502Y-116847498D01*
X121689448Y-116693167D01*
X121474900Y-116578489D01*
X121242101Y-116507870D01*
X121000000Y-116484025D01*
X120757898Y-116507870D01*
X120525099Y-116578489D01*
X120310551Y-116693167D01*
X120122498Y-116847498D01*
X119999519Y-116997349D01*
X119956307Y-116933275D01*
X119783474Y-116761922D01*
X119580533Y-116627579D01*
X119355282Y-116535409D01*
X119317609Y-116531538D01*
X119127000Y-116656269D01*
X118873000Y-116656269D01*
X118682391Y-116531538D01*
X118644718Y-116535409D01*
X118419467Y-116627579D01*
X118216526Y-116761922D01*
X118090967Y-116886406D01*
X118088405Y-116881613D01*
X117977962Y-116747038D01*
X117843387Y-116636595D01*
X117689851Y-116554528D01*
X117523255Y-116503992D01*
X117350001Y-116486928D01*
X116649999Y-116486928D01*
X116476745Y-116503992D01*
X116310149Y-116554528D01*
X116156613Y-116636595D01*
X116022038Y-116747038D01*
X115911595Y-116881613D01*
X115829528Y-117035149D01*
X115778992Y-117201745D01*
X115761928Y-117374999D01*
X113685000Y-117374999D01*
X113685000Y-109355472D01*
X121971000Y-109355472D01*
X121971000Y-109795728D01*
X122056890Y-110227525D01*
X122225369Y-110634269D01*
X122469962Y-111000329D01*
X122781271Y-111311638D01*
X123147331Y-111556231D01*
X123554075Y-111724710D01*
X123985872Y-111810600D01*
X124426128Y-111810600D01*
X124857925Y-111724710D01*
X125264669Y-111556231D01*
X125630729Y-111311638D01*
X125942038Y-111000329D01*
X126186631Y-110634269D01*
X126355110Y-110227525D01*
X126441000Y-109795728D01*
X126441000Y-109355472D01*
X126355110Y-108923675D01*
X126186631Y-108516931D01*
X125942038Y-108150871D01*
X125630729Y-107839562D01*
X125264669Y-107594969D01*
X124857925Y-107426490D01*
X124426128Y-107340600D01*
X123985872Y-107340600D01*
X123554075Y-107426490D01*
X123147331Y-107594969D01*
X122781271Y-107839562D01*
X122469962Y-108150871D01*
X122225369Y-108516931D01*
X122056890Y-108923675D01*
X121971000Y-109355472D01*
X113685000Y-109355472D01*
X113685000Y-104000000D01*
X122507815Y-104000000D01*
X122536487Y-104291111D01*
X122621401Y-104571034D01*
X122759294Y-104829014D01*
X122944866Y-105055134D01*
X123170986Y-105240706D01*
X123428966Y-105378599D01*
X123708889Y-105463513D01*
X123927050Y-105485000D01*
X124072950Y-105485000D01*
X124291111Y-105463513D01*
X124571034Y-105378599D01*
X124829014Y-105240706D01*
X125055134Y-105055134D01*
X125240706Y-104829014D01*
X125313626Y-104692589D01*
X132092000Y-104692589D01*
X132092000Y-104965411D01*
X132145225Y-105232989D01*
X132249629Y-105485043D01*
X132401201Y-105711886D01*
X132594114Y-105904799D01*
X132820957Y-106056371D01*
X133073011Y-106160775D01*
X133340589Y-106214000D01*
X133613411Y-106214000D01*
X133880989Y-106160775D01*
X134133043Y-106056371D01*
X134359886Y-105904799D01*
X134552799Y-105711886D01*
X134704371Y-105485043D01*
X134808775Y-105232989D01*
X134862000Y-104965411D01*
X134862000Y-104692589D01*
X134808775Y-104425011D01*
X134704371Y-104172957D01*
X134552799Y-103946114D01*
X134359886Y-103753201D01*
X134133043Y-103601629D01*
X133880989Y-103497225D01*
X133613411Y-103444000D01*
X133340589Y-103444000D01*
X133073011Y-103497225D01*
X132820957Y-103601629D01*
X132594114Y-103753201D01*
X132401201Y-103946114D01*
X132249629Y-104172957D01*
X132145225Y-104425011D01*
X132092000Y-104692589D01*
X125313626Y-104692589D01*
X125378599Y-104571034D01*
X125463513Y-104291111D01*
X125492185Y-104000000D01*
X125463513Y-103708889D01*
X125378599Y-103428966D01*
X125240706Y-103170986D01*
X125055134Y-102944866D01*
X125027447Y-102922144D01*
X125035223Y-102920597D01*
X125150785Y-102872730D01*
X125254789Y-102803237D01*
X125343237Y-102714789D01*
X125412730Y-102610785D01*
X125460597Y-102495223D01*
X125485000Y-102372542D01*
X125485000Y-101745750D01*
X125326250Y-101587000D01*
X124127000Y-101587000D01*
X124127000Y-101607000D01*
X123873000Y-101607000D01*
X123873000Y-101587000D01*
X122673750Y-101587000D01*
X122515000Y-101745750D01*
X122515000Y-102372542D01*
X122539403Y-102495223D01*
X122587270Y-102610785D01*
X122656763Y-102714789D01*
X122745211Y-102803237D01*
X122849215Y-102872730D01*
X122964777Y-102920597D01*
X122972553Y-102922144D01*
X122944866Y-102944866D01*
X122759294Y-103170986D01*
X122621401Y-103428966D01*
X122536487Y-103708889D01*
X122507815Y-104000000D01*
X113685000Y-104000000D01*
X113685000Y-100547458D01*
X122515000Y-100547458D01*
X122515000Y-101174250D01*
X122673750Y-101333000D01*
X123873000Y-101333000D01*
X123873000Y-100133750D01*
X124127000Y-100133750D01*
X124127000Y-101333000D01*
X125326250Y-101333000D01*
X125485000Y-101174250D01*
X125485000Y-100547458D01*
X125460597Y-100424777D01*
X125412730Y-100309215D01*
X125343237Y-100205211D01*
X125254789Y-100116763D01*
X125150785Y-100047270D01*
X125035223Y-99999403D01*
X124912542Y-99975000D01*
X124285750Y-99975000D01*
X124127000Y-100133750D01*
X123873000Y-100133750D01*
X123714250Y-99975000D01*
X123087458Y-99975000D01*
X122964777Y-99999403D01*
X122849215Y-100047270D01*
X122745211Y-100116763D01*
X122656763Y-100205211D01*
X122587270Y-100309215D01*
X122539403Y-100424777D01*
X122515000Y-100547458D01*
X113685000Y-100547458D01*
X113685000Y-99812589D01*
X132092000Y-99812589D01*
X132092000Y-100085411D01*
X132145225Y-100352989D01*
X132249629Y-100605043D01*
X132401201Y-100831886D01*
X132594114Y-101024799D01*
X132820957Y-101176371D01*
X133073011Y-101280775D01*
X133340589Y-101334000D01*
X133613411Y-101334000D01*
X133880989Y-101280775D01*
X134133043Y-101176371D01*
X134359886Y-101024799D01*
X134552799Y-100831886D01*
X134704371Y-100605043D01*
X134808775Y-100352989D01*
X134862000Y-100085411D01*
X134862000Y-99812589D01*
X134808775Y-99545011D01*
X134704371Y-99292957D01*
X134552799Y-99066114D01*
X134359886Y-98873201D01*
X134133043Y-98721629D01*
X133880989Y-98617225D01*
X133613411Y-98564000D01*
X133340589Y-98564000D01*
X133073011Y-98617225D01*
X132820957Y-98721629D01*
X132594114Y-98873201D01*
X132401201Y-99066114D01*
X132249629Y-99292957D01*
X132145225Y-99545011D01*
X132092000Y-99812589D01*
X113685000Y-99812589D01*
X113685000Y-89129500D01*
X120876428Y-89129500D01*
X120876428Y-90829500D01*
X120888688Y-90953982D01*
X120924998Y-91073680D01*
X120983963Y-91183994D01*
X121063315Y-91280685D01*
X121160006Y-91360037D01*
X121270320Y-91419002D01*
X121390018Y-91455312D01*
X121514500Y-91467572D01*
X123214500Y-91467572D01*
X123338982Y-91455312D01*
X123458680Y-91419002D01*
X123568994Y-91360037D01*
X123665685Y-91280685D01*
X123745037Y-91183994D01*
X123804002Y-91073680D01*
X123824893Y-91004813D01*
X123849366Y-91034634D01*
X124075486Y-91220206D01*
X124333466Y-91358099D01*
X124613389Y-91443013D01*
X124831550Y-91464500D01*
X124977450Y-91464500D01*
X125195611Y-91443013D01*
X125475534Y-91358099D01*
X125733514Y-91220206D01*
X125959634Y-91034634D01*
X126145206Y-90808514D01*
X126283099Y-90550534D01*
X126368013Y-90270611D01*
X126396685Y-89979500D01*
X126368013Y-89688389D01*
X126283099Y-89408466D01*
X126145206Y-89150486D01*
X125959634Y-88924366D01*
X125733514Y-88738794D01*
X125475534Y-88600901D01*
X125195611Y-88515987D01*
X124977450Y-88494500D01*
X124831550Y-88494500D01*
X124613389Y-88515987D01*
X124333466Y-88600901D01*
X124075486Y-88738794D01*
X123849366Y-88924366D01*
X123824893Y-88954187D01*
X123804002Y-88885320D01*
X123745037Y-88775006D01*
X123665685Y-88678315D01*
X123568994Y-88598963D01*
X123458680Y-88539998D01*
X123338982Y-88503688D01*
X123214500Y-88491428D01*
X121514500Y-88491428D01*
X121390018Y-88503688D01*
X121270320Y-88539998D01*
X121160006Y-88598963D01*
X121063315Y-88678315D01*
X120983963Y-88775006D01*
X120924998Y-88885320D01*
X120888688Y-89005018D01*
X120876428Y-89129500D01*
X113685000Y-89129500D01*
X113685000Y-81517072D01*
X114097000Y-81517072D01*
X114097000Y-81957328D01*
X114182890Y-82389125D01*
X114351369Y-82795869D01*
X114595962Y-83161929D01*
X114907271Y-83473238D01*
X115273331Y-83717831D01*
X115680075Y-83886310D01*
X116111872Y-83972200D01*
X116552128Y-83972200D01*
X116983925Y-83886310D01*
X117390669Y-83717831D01*
X117756729Y-83473238D01*
X118068038Y-83161929D01*
X118312631Y-82795869D01*
X118481110Y-82389125D01*
X118567000Y-81957328D01*
X118567000Y-81517072D01*
X118481110Y-81085275D01*
X118312631Y-80678531D01*
X118068038Y-80312471D01*
X117756729Y-80001162D01*
X117390669Y-79756569D01*
X116983925Y-79588090D01*
X116552128Y-79502200D01*
X116111872Y-79502200D01*
X115680075Y-79588090D01*
X115273331Y-79756569D01*
X114907271Y-80001162D01*
X114595962Y-80312471D01*
X114351369Y-80678531D01*
X114182890Y-81085275D01*
X114097000Y-81517072D01*
X113685000Y-81517072D01*
X113685000Y-80283736D01*
X115283737Y-78685000D01*
X135019674Y-78685000D01*
X134979209Y-78718209D01*
G36*
X152022038Y-116747038D02*
X151911595Y-116881613D01*
X151829528Y-117035149D01*
X151778992Y-117201745D01*
X151761928Y-117374999D01*
X151761928Y-118625001D01*
X151778992Y-118798255D01*
X151829528Y-118964851D01*
X151911595Y-119118387D01*
X151962160Y-119180000D01*
X147843996Y-119180000D01*
X147877502Y-119152502D01*
X148031833Y-118964449D01*
X148146511Y-118749900D01*
X148217130Y-118517101D01*
X148235000Y-118335664D01*
X148235000Y-117664335D01*
X148217130Y-117482898D01*
X148146511Y-117250099D01*
X148031833Y-117035551D01*
X147877502Y-116847498D01*
X147689448Y-116693167D01*
X147625526Y-116659000D01*
X152129312Y-116659000D01*
X152022038Y-116747038D01*
X152022038Y-116747038D01*
G37*
X152022038Y-116747038D02*
X151911595Y-116881613D01*
X151829528Y-117035149D01*
X151778992Y-117201745D01*
X151761928Y-117374999D01*
X151761928Y-118625001D01*
X151778992Y-118798255D01*
X151829528Y-118964851D01*
X151911595Y-119118387D01*
X151962160Y-119180000D01*
X147843996Y-119180000D01*
X147877502Y-119152502D01*
X148031833Y-118964449D01*
X148146511Y-118749900D01*
X148217130Y-118517101D01*
X148235000Y-118335664D01*
X148235000Y-117664335D01*
X148217130Y-117482898D01*
X148146511Y-117250099D01*
X148031833Y-117035551D01*
X147877502Y-116847498D01*
X147689448Y-116693167D01*
X147625526Y-116659000D01*
X152129312Y-116659000D01*
X152022038Y-116747038D01*
G36*
X167127000Y-117873000D02*
X167147000Y-117873000D01*
X167147000Y-118127000D01*
X167127000Y-118127000D01*
X167127000Y-118147000D01*
X166873000Y-118147000D01*
X166873000Y-118127000D01*
X166853000Y-118127000D01*
X166853000Y-117873000D01*
X166873000Y-117873000D01*
X166873000Y-117853000D01*
X167127000Y-117853000D01*
X167127000Y-117873000D01*
X167127000Y-117873000D01*
G37*
X167127000Y-117873000D02*
X167147000Y-117873000D01*
X167147000Y-118127000D01*
X167127000Y-118127000D01*
X167127000Y-118147000D01*
X166873000Y-118147000D01*
X166873000Y-118127000D01*
X166853000Y-118127000D01*
X166853000Y-117873000D01*
X166873000Y-117873000D01*
X166873000Y-117853000D01*
X167127000Y-117853000D01*
X167127000Y-117873000D01*
G36*
X143127000Y-117873000D02*
X143147000Y-117873000D01*
X143147000Y-118127000D01*
X143127000Y-118127000D01*
X143127000Y-118147000D01*
X142873000Y-118147000D01*
X142873000Y-118127000D01*
X142853000Y-118127000D01*
X142853000Y-117873000D01*
X142873000Y-117873000D01*
X142873000Y-117853000D01*
X143127000Y-117853000D01*
X143127000Y-117873000D01*
X143127000Y-117873000D01*
G37*
X143127000Y-117873000D02*
X143147000Y-117873000D01*
X143147000Y-118127000D01*
X143127000Y-118127000D01*
X143127000Y-118147000D01*
X142873000Y-118147000D01*
X142873000Y-118127000D01*
X142853000Y-118127000D01*
X142853000Y-117873000D01*
X142873000Y-117873000D01*
X142873000Y-117853000D01*
X143127000Y-117853000D01*
X143127000Y-117873000D01*
G36*
X155127000Y-117873000D02*
X155147000Y-117873000D01*
X155147000Y-118127000D01*
X155127000Y-118127000D01*
X155127000Y-118147000D01*
X154873000Y-118147000D01*
X154873000Y-118127000D01*
X154853000Y-118127000D01*
X154853000Y-117873000D01*
X154873000Y-117873000D01*
X154873000Y-117853000D01*
X155127000Y-117853000D01*
X155127000Y-117873000D01*
X155127000Y-117873000D01*
G37*
X155127000Y-117873000D02*
X155147000Y-117873000D01*
X155147000Y-118127000D01*
X155127000Y-118127000D01*
X155127000Y-118147000D01*
X154873000Y-118147000D01*
X154873000Y-118127000D01*
X154853000Y-118127000D01*
X154853000Y-117873000D01*
X154873000Y-117873000D01*
X154873000Y-117853000D01*
X155127000Y-117853000D01*
X155127000Y-117873000D01*
G36*
X156310551Y-116693167D02*
X156122498Y-116847498D01*
X155999519Y-116997349D01*
X155956307Y-116933275D01*
X155783474Y-116761922D01*
X155627998Y-116659000D01*
X156374473Y-116659000D01*
X156310551Y-116693167D01*
X156310551Y-116693167D01*
G37*
X156310551Y-116693167D02*
X156122498Y-116847498D01*
X155999519Y-116997349D01*
X155956307Y-116933275D01*
X155783474Y-116761922D01*
X155627998Y-116659000D01*
X156374473Y-116659000D01*
X156310551Y-116693167D01*
G36*
X173315001Y-81283737D02*
X173315000Y-108633799D01*
X173301568Y-108566271D01*
X173236804Y-108409916D01*
X173225418Y-108294311D01*
X173177672Y-108136913D01*
X173100136Y-107991854D01*
X172995791Y-107864709D01*
X172963927Y-107838560D01*
X172196446Y-107071079D01*
X172170291Y-107039209D01*
X172043146Y-106934864D01*
X171898087Y-106857328D01*
X171740689Y-106809582D01*
X171618019Y-106797500D01*
X171618018Y-106797500D01*
X171577000Y-106793460D01*
X171535982Y-106797500D01*
X163616276Y-106797500D01*
X163654180Y-106786002D01*
X163764494Y-106727037D01*
X163861185Y-106647685D01*
X163940537Y-106550994D01*
X163999502Y-106440680D01*
X164035812Y-106320982D01*
X164048072Y-106196500D01*
X164048072Y-106181500D01*
X169122982Y-106181500D01*
X169164000Y-106185540D01*
X169205018Y-106181500D01*
X169205019Y-106181500D01*
X169327689Y-106169418D01*
X169485087Y-106121672D01*
X169630146Y-106044136D01*
X169757291Y-105939791D01*
X169783446Y-105907922D01*
X171185933Y-104505436D01*
X171217791Y-104479291D01*
X171262338Y-104425011D01*
X171322136Y-104352146D01*
X171399672Y-104207087D01*
X171447418Y-104049689D01*
X171463540Y-103886000D01*
X171459500Y-103844982D01*
X171459500Y-97196018D01*
X171463540Y-97155000D01*
X171451616Y-97033932D01*
X171447418Y-96991311D01*
X171399672Y-96833913D01*
X171322136Y-96688854D01*
X171283048Y-96641225D01*
X171243939Y-96593570D01*
X171243937Y-96593568D01*
X171217791Y-96561709D01*
X171185931Y-96535563D01*
X170831757Y-96181389D01*
X170849911Y-96185000D01*
X171034089Y-96185000D01*
X171214729Y-96149068D01*
X171384889Y-96078586D01*
X171538028Y-95976262D01*
X171668262Y-95846028D01*
X171770586Y-95692889D01*
X171841068Y-95522729D01*
X171877000Y-95342089D01*
X171877000Y-95157911D01*
X171841068Y-94977271D01*
X171777000Y-94822596D01*
X171777000Y-90465018D01*
X171781040Y-90424000D01*
X171764918Y-90260312D01*
X171762150Y-90251185D01*
X171717172Y-90102913D01*
X171639636Y-89957854D01*
X171535291Y-89830709D01*
X171503426Y-89804558D01*
X171200444Y-89501577D01*
X171174290Y-89469708D01*
X171047145Y-89365363D01*
X170902086Y-89287827D01*
X170744688Y-89240081D01*
X170622018Y-89227999D01*
X170622017Y-89227999D01*
X170580999Y-89223959D01*
X170539981Y-89227999D01*
X165629019Y-89227999D01*
X165588001Y-89223959D01*
X165546983Y-89227999D01*
X165546982Y-89227999D01*
X165424312Y-89240081D01*
X165266914Y-89287827D01*
X165121855Y-89365363D01*
X164994710Y-89469708D01*
X164968559Y-89501573D01*
X164538578Y-89931555D01*
X164506709Y-89957709D01*
X164408063Y-90077911D01*
X164402364Y-90084855D01*
X164324828Y-90229914D01*
X164277082Y-90387312D01*
X164260960Y-90551000D01*
X164265000Y-90592019D01*
X164265001Y-91647594D01*
X164200932Y-91802271D01*
X164165000Y-91982911D01*
X164165000Y-92167089D01*
X164200932Y-92347729D01*
X164271414Y-92517889D01*
X164373738Y-92671028D01*
X164503972Y-92801262D01*
X164657111Y-92903586D01*
X164827271Y-92974068D01*
X165007911Y-93010000D01*
X165192089Y-93010000D01*
X165372729Y-92974068D01*
X165542889Y-92903586D01*
X165696028Y-92801262D01*
X165826262Y-92671028D01*
X165928586Y-92517889D01*
X165999068Y-92347729D01*
X166035000Y-92167089D01*
X166035000Y-91982911D01*
X165999068Y-91802271D01*
X165935000Y-91647596D01*
X165935000Y-90897999D01*
X167103069Y-90897999D01*
X167065487Y-91021889D01*
X167036815Y-91313000D01*
X167065487Y-91604111D01*
X167150401Y-91884034D01*
X167288294Y-92142014D01*
X167473866Y-92368134D01*
X167699986Y-92553706D01*
X167764523Y-92588201D01*
X167647645Y-92657822D01*
X167431412Y-92852731D01*
X167257359Y-93086080D01*
X167132175Y-93348901D01*
X167112235Y-93414642D01*
X167003389Y-93341914D01*
X166833229Y-93271432D01*
X166652589Y-93235500D01*
X166468411Y-93235500D01*
X166287771Y-93271432D01*
X166117611Y-93341914D01*
X165964472Y-93444238D01*
X165834238Y-93574472D01*
X165731914Y-93727611D01*
X165661432Y-93897771D01*
X165625500Y-94078411D01*
X165625500Y-94262589D01*
X165661432Y-94443229D01*
X165693751Y-94521254D01*
X165693750Y-95253382D01*
X165262133Y-95685000D01*
X163363007Y-95685000D01*
X163321999Y-95680961D01*
X163280991Y-95685000D01*
X163109018Y-95685000D01*
X163067999Y-95680960D01*
X163026981Y-95685000D01*
X162664518Y-95685000D01*
X162623500Y-95680960D01*
X162582482Y-95685000D01*
X155256477Y-95685000D01*
X155299316Y-95543777D01*
X155328251Y-95250000D01*
X155299316Y-94956223D01*
X155213625Y-94673736D01*
X155074469Y-94413394D01*
X154887197Y-94185203D01*
X154659006Y-93997931D01*
X154625460Y-93980000D01*
X154659006Y-93962069D01*
X154887197Y-93774797D01*
X155074469Y-93546606D01*
X155213625Y-93286264D01*
X155299316Y-93003777D01*
X155328251Y-92710000D01*
X155299316Y-92416223D01*
X155213625Y-92133736D01*
X155074469Y-91873394D01*
X154887197Y-91645203D01*
X154659006Y-91457931D01*
X154625460Y-91440000D01*
X154659006Y-91422069D01*
X154887197Y-91234797D01*
X155074469Y-91006606D01*
X155213625Y-90746264D01*
X155299316Y-90463777D01*
X155328251Y-90170000D01*
X155299316Y-89876223D01*
X155213625Y-89593736D01*
X155074469Y-89333394D01*
X154887197Y-89105203D01*
X154659006Y-88917931D01*
X154619053Y-88896576D01*
X154821729Y-88748486D01*
X155020733Y-88532035D01*
X155173686Y-88280919D01*
X155203290Y-88200000D01*
X159561928Y-88200000D01*
X159561928Y-89800000D01*
X159574188Y-89924482D01*
X159610498Y-90044180D01*
X159669463Y-90154494D01*
X159748815Y-90251185D01*
X159845506Y-90330537D01*
X159955820Y-90389502D01*
X160075518Y-90425812D01*
X160200000Y-90438072D01*
X161800000Y-90438072D01*
X161924482Y-90425812D01*
X162044180Y-90389502D01*
X162154494Y-90330537D01*
X162251185Y-90251185D01*
X162330537Y-90154494D01*
X162389502Y-90044180D01*
X162425812Y-89924482D01*
X162438072Y-89800000D01*
X162438072Y-88200000D01*
X162425812Y-88075518D01*
X162389502Y-87955820D01*
X162330537Y-87845506D01*
X162251185Y-87748815D01*
X162154494Y-87669463D01*
X162044180Y-87610498D01*
X161924482Y-87574188D01*
X161800000Y-87561928D01*
X160200000Y-87561928D01*
X160075518Y-87574188D01*
X159955820Y-87610498D01*
X159845506Y-87669463D01*
X159748815Y-87748815D01*
X159669463Y-87845506D01*
X159610498Y-87955820D01*
X159574188Y-88075518D01*
X159561928Y-88200000D01*
X155203290Y-88200000D01*
X155274709Y-88004789D01*
X155277358Y-87989026D01*
X155156217Y-87757000D01*
X153797000Y-87757000D01*
X153797000Y-87777000D01*
X153543000Y-87777000D01*
X153543000Y-87757000D01*
X152183783Y-87757000D01*
X152062642Y-87989026D01*
X152065291Y-88004789D01*
X152166314Y-88280919D01*
X152319267Y-88532035D01*
X152518271Y-88748486D01*
X152720947Y-88896576D01*
X152680994Y-88917931D01*
X152452803Y-89105203D01*
X152265531Y-89333394D01*
X152126375Y-89593736D01*
X152040684Y-89876223D01*
X152011749Y-90170000D01*
X152040684Y-90463777D01*
X152126375Y-90746264D01*
X152265531Y-91006606D01*
X152452803Y-91234797D01*
X152680994Y-91422069D01*
X152714540Y-91440000D01*
X152680994Y-91457931D01*
X152452803Y-91645203D01*
X152279807Y-91855999D01*
X152091867Y-91855999D01*
X151749446Y-91513578D01*
X151723291Y-91481709D01*
X151596146Y-91377364D01*
X151451087Y-91299828D01*
X151293689Y-91252082D01*
X151171019Y-91240000D01*
X151171018Y-91240000D01*
X151130000Y-91235960D01*
X151088982Y-91240000D01*
X148155000Y-91240000D01*
X148155000Y-83955327D01*
X148156606Y-83954469D01*
X148384797Y-83767197D01*
X148572069Y-83539006D01*
X148593424Y-83499053D01*
X148741514Y-83701729D01*
X148957965Y-83900733D01*
X149209081Y-84053686D01*
X149485211Y-84154709D01*
X149500974Y-84157358D01*
X149733000Y-84036217D01*
X149733000Y-82677000D01*
X149987000Y-82677000D01*
X149987000Y-84036217D01*
X150219026Y-84157358D01*
X150234789Y-84154709D01*
X150510919Y-84053686D01*
X150762035Y-83900733D01*
X150978486Y-83701729D01*
X151130000Y-83494367D01*
X151281514Y-83701729D01*
X151497965Y-83900733D01*
X151749081Y-84053686D01*
X152025211Y-84154709D01*
X152040974Y-84157358D01*
X152272998Y-84036218D01*
X152272998Y-84201000D01*
X152308530Y-84201000D01*
X152265531Y-84253394D01*
X152126375Y-84513736D01*
X152040684Y-84796223D01*
X152011749Y-85090000D01*
X152040684Y-85383777D01*
X152126375Y-85666264D01*
X152265531Y-85926606D01*
X152452803Y-86154797D01*
X152680994Y-86342069D01*
X152720947Y-86363424D01*
X152518271Y-86511514D01*
X152319267Y-86727965D01*
X152166314Y-86979081D01*
X152065291Y-87255211D01*
X152062642Y-87270974D01*
X152183783Y-87503000D01*
X153543000Y-87503000D01*
X153543000Y-87483000D01*
X153797000Y-87483000D01*
X153797000Y-87503000D01*
X155156217Y-87503000D01*
X155277358Y-87270974D01*
X155274709Y-87255211D01*
X155173686Y-86979081D01*
X155020733Y-86727965D01*
X154821729Y-86511514D01*
X154619053Y-86363424D01*
X154659006Y-86342069D01*
X154887197Y-86154797D01*
X155074469Y-85926606D01*
X155213625Y-85666264D01*
X155299316Y-85383777D01*
X155328251Y-85090000D01*
X155299316Y-84796223D01*
X155213625Y-84513736D01*
X155074469Y-84253394D01*
X154887197Y-84025203D01*
X154659006Y-83837931D01*
X154398664Y-83698775D01*
X154116177Y-83613084D01*
X153896019Y-83591400D01*
X153599101Y-83591400D01*
X153691954Y-83464321D01*
X153815773Y-83197633D01*
X153885185Y-82911914D01*
X153740925Y-82677000D01*
X152527000Y-82677000D01*
X152527000Y-82697000D01*
X152273000Y-82697000D01*
X152273000Y-82677000D01*
X149987000Y-82677000D01*
X149733000Y-82677000D01*
X149713000Y-82677000D01*
X149713000Y-82423000D01*
X149733000Y-82423000D01*
X149733000Y-81063783D01*
X149987000Y-81063783D01*
X149987000Y-82423000D01*
X152273000Y-82423000D01*
X152273000Y-81063783D01*
X152527000Y-81063783D01*
X152527000Y-82423000D01*
X153740925Y-82423000D01*
X153885185Y-82188086D01*
X153815773Y-81902367D01*
X153735301Y-81729040D01*
X159608091Y-81729040D01*
X159702930Y-81993881D01*
X159847615Y-82235131D01*
X160036586Y-82443519D01*
X160262580Y-82611037D01*
X160516913Y-82731246D01*
X160650961Y-82771904D01*
X160873000Y-82649915D01*
X160873000Y-81507000D01*
X161127000Y-81507000D01*
X161127000Y-82649915D01*
X161349039Y-82771904D01*
X161483087Y-82731246D01*
X161737420Y-82611037D01*
X161963414Y-82443519D01*
X162152385Y-82235131D01*
X162297070Y-81993881D01*
X162391909Y-81729040D01*
X162270624Y-81507000D01*
X161127000Y-81507000D01*
X160873000Y-81507000D01*
X159729376Y-81507000D01*
X159608091Y-81729040D01*
X153735301Y-81729040D01*
X153691954Y-81635679D01*
X153518486Y-81398271D01*
X153302035Y-81199267D01*
X153050919Y-81046314D01*
X152774789Y-80945291D01*
X152759026Y-80942642D01*
X152527000Y-81063783D01*
X152273000Y-81063783D01*
X152040974Y-80942642D01*
X152025211Y-80945291D01*
X151749081Y-81046314D01*
X151497965Y-81199267D01*
X151281514Y-81398271D01*
X151130000Y-81605633D01*
X150978486Y-81398271D01*
X150762035Y-81199267D01*
X150510919Y-81046314D01*
X150234789Y-80945291D01*
X150219026Y-80942642D01*
X149987000Y-81063783D01*
X149733000Y-81063783D01*
X149500974Y-80942642D01*
X149485211Y-80945291D01*
X149209081Y-81046314D01*
X148957965Y-81199267D01*
X148741514Y-81398271D01*
X148593424Y-81600947D01*
X148572069Y-81560994D01*
X148384797Y-81332803D01*
X148156605Y-81145531D01*
X148151797Y-81142961D01*
X148142918Y-81052811D01*
X148095172Y-80895413D01*
X148017636Y-80750354D01*
X147966720Y-80688313D01*
X147913291Y-80623209D01*
X147881427Y-80597059D01*
X147430867Y-80146500D01*
X160267791Y-80146500D01*
X160262580Y-80148963D01*
X160036586Y-80316481D01*
X159847615Y-80524869D01*
X159702930Y-80766119D01*
X159608091Y-81030960D01*
X159729376Y-81253000D01*
X160873000Y-81253000D01*
X160873000Y-81233000D01*
X161127000Y-81233000D01*
X161127000Y-81253000D01*
X162270624Y-81253000D01*
X162391909Y-81030960D01*
X162297070Y-80766119D01*
X162152385Y-80524869D01*
X161963414Y-80316481D01*
X161737420Y-80148963D01*
X161732209Y-80146500D01*
X162023633Y-80146500D01*
X164265000Y-82387868D01*
X164265001Y-87030172D01*
X164260960Y-87071200D01*
X164277082Y-87234888D01*
X164324828Y-87392286D01*
X164394817Y-87523225D01*
X164402365Y-87537346D01*
X164506710Y-87664491D01*
X164538574Y-87690641D01*
X165420363Y-88572432D01*
X165446509Y-88604291D01*
X165478368Y-88630437D01*
X165478370Y-88630439D01*
X165573654Y-88708636D01*
X165718713Y-88786172D01*
X165876111Y-88833918D01*
X166039800Y-88850040D01*
X166080818Y-88846000D01*
X168228596Y-88846000D01*
X168383271Y-88910068D01*
X168563911Y-88946000D01*
X168748089Y-88946000D01*
X168928729Y-88910068D01*
X169098889Y-88839586D01*
X169252028Y-88737262D01*
X169382262Y-88607028D01*
X169484586Y-88453889D01*
X169555068Y-88283729D01*
X169591000Y-88103089D01*
X169591000Y-87918911D01*
X169555068Y-87738271D01*
X169484586Y-87568111D01*
X169382262Y-87414972D01*
X169252028Y-87284738D01*
X169098889Y-87182414D01*
X168928729Y-87111932D01*
X168748089Y-87076000D01*
X168563911Y-87076000D01*
X168383271Y-87111932D01*
X168228596Y-87176000D01*
X166385668Y-87176000D01*
X165935000Y-86725332D01*
X165935000Y-82083018D01*
X165939040Y-82041999D01*
X165932370Y-81974272D01*
X167945000Y-81974272D01*
X167945000Y-82414528D01*
X168030890Y-82846325D01*
X168199369Y-83253069D01*
X168443962Y-83619129D01*
X168755271Y-83930438D01*
X169121331Y-84175031D01*
X169528075Y-84343510D01*
X169959872Y-84429400D01*
X170400128Y-84429400D01*
X170831925Y-84343510D01*
X171238669Y-84175031D01*
X171604729Y-83930438D01*
X171916038Y-83619129D01*
X172160631Y-83253069D01*
X172329110Y-82846325D01*
X172415000Y-82414528D01*
X172415000Y-81974272D01*
X172329110Y-81542475D01*
X172160631Y-81135731D01*
X171916038Y-80769671D01*
X171604729Y-80458362D01*
X171238669Y-80213769D01*
X170831925Y-80045290D01*
X170400128Y-79959400D01*
X169959872Y-79959400D01*
X169528075Y-80045290D01*
X169121331Y-80213769D01*
X168755271Y-80458362D01*
X168443962Y-80769671D01*
X168199369Y-81135731D01*
X168030890Y-81542475D01*
X167945000Y-81974272D01*
X165932370Y-81974272D01*
X165922918Y-81878311D01*
X165875172Y-81720913D01*
X165797636Y-81575854D01*
X165794728Y-81572311D01*
X165693291Y-81448709D01*
X165661428Y-81422560D01*
X163102084Y-78863217D01*
X163092536Y-78845354D01*
X162988191Y-78718209D01*
X162947726Y-78685000D01*
X170716264Y-78685000D01*
X173315001Y-81283737D01*
X173315001Y-81283737D01*
G37*
X173315001Y-81283737D02*
X173315000Y-108633799D01*
X173301568Y-108566271D01*
X173236804Y-108409916D01*
X173225418Y-108294311D01*
X173177672Y-108136913D01*
X173100136Y-107991854D01*
X172995791Y-107864709D01*
X172963927Y-107838560D01*
X172196446Y-107071079D01*
X172170291Y-107039209D01*
X172043146Y-106934864D01*
X171898087Y-106857328D01*
X171740689Y-106809582D01*
X171618019Y-106797500D01*
X171618018Y-106797500D01*
X171577000Y-106793460D01*
X171535982Y-106797500D01*
X163616276Y-106797500D01*
X163654180Y-106786002D01*
X163764494Y-106727037D01*
X163861185Y-106647685D01*
X163940537Y-106550994D01*
X163999502Y-106440680D01*
X164035812Y-106320982D01*
X164048072Y-106196500D01*
X164048072Y-106181500D01*
X169122982Y-106181500D01*
X169164000Y-106185540D01*
X169205018Y-106181500D01*
X169205019Y-106181500D01*
X169327689Y-106169418D01*
X169485087Y-106121672D01*
X169630146Y-106044136D01*
X169757291Y-105939791D01*
X169783446Y-105907922D01*
X171185933Y-104505436D01*
X171217791Y-104479291D01*
X171262338Y-104425011D01*
X171322136Y-104352146D01*
X171399672Y-104207087D01*
X171447418Y-104049689D01*
X171463540Y-103886000D01*
X171459500Y-103844982D01*
X171459500Y-97196018D01*
X171463540Y-97155000D01*
X171451616Y-97033932D01*
X171447418Y-96991311D01*
X171399672Y-96833913D01*
X171322136Y-96688854D01*
X171283048Y-96641225D01*
X171243939Y-96593570D01*
X171243937Y-96593568D01*
X171217791Y-96561709D01*
X171185931Y-96535563D01*
X170831757Y-96181389D01*
X170849911Y-96185000D01*
X171034089Y-96185000D01*
X171214729Y-96149068D01*
X171384889Y-96078586D01*
X171538028Y-95976262D01*
X171668262Y-95846028D01*
X171770586Y-95692889D01*
X171841068Y-95522729D01*
X171877000Y-95342089D01*
X171877000Y-95157911D01*
X171841068Y-94977271D01*
X171777000Y-94822596D01*
X171777000Y-90465018D01*
X171781040Y-90424000D01*
X171764918Y-90260312D01*
X171762150Y-90251185D01*
X171717172Y-90102913D01*
X171639636Y-89957854D01*
X171535291Y-89830709D01*
X171503426Y-89804558D01*
X171200444Y-89501577D01*
X171174290Y-89469708D01*
X171047145Y-89365363D01*
X170902086Y-89287827D01*
X170744688Y-89240081D01*
X170622018Y-89227999D01*
X170622017Y-89227999D01*
X170580999Y-89223959D01*
X170539981Y-89227999D01*
X165629019Y-89227999D01*
X165588001Y-89223959D01*
X165546983Y-89227999D01*
X165546982Y-89227999D01*
X165424312Y-89240081D01*
X165266914Y-89287827D01*
X165121855Y-89365363D01*
X164994710Y-89469708D01*
X164968559Y-89501573D01*
X164538578Y-89931555D01*
X164506709Y-89957709D01*
X164408063Y-90077911D01*
X164402364Y-90084855D01*
X164324828Y-90229914D01*
X164277082Y-90387312D01*
X164260960Y-90551000D01*
X164265000Y-90592019D01*
X164265001Y-91647594D01*
X164200932Y-91802271D01*
X164165000Y-91982911D01*
X164165000Y-92167089D01*
X164200932Y-92347729D01*
X164271414Y-92517889D01*
X164373738Y-92671028D01*
X164503972Y-92801262D01*
X164657111Y-92903586D01*
X164827271Y-92974068D01*
X165007911Y-93010000D01*
X165192089Y-93010000D01*
X165372729Y-92974068D01*
X165542889Y-92903586D01*
X165696028Y-92801262D01*
X165826262Y-92671028D01*
X165928586Y-92517889D01*
X165999068Y-92347729D01*
X166035000Y-92167089D01*
X166035000Y-91982911D01*
X165999068Y-91802271D01*
X165935000Y-91647596D01*
X165935000Y-90897999D01*
X167103069Y-90897999D01*
X167065487Y-91021889D01*
X167036815Y-91313000D01*
X167065487Y-91604111D01*
X167150401Y-91884034D01*
X167288294Y-92142014D01*
X167473866Y-92368134D01*
X167699986Y-92553706D01*
X167764523Y-92588201D01*
X167647645Y-92657822D01*
X167431412Y-92852731D01*
X167257359Y-93086080D01*
X167132175Y-93348901D01*
X167112235Y-93414642D01*
X167003389Y-93341914D01*
X166833229Y-93271432D01*
X166652589Y-93235500D01*
X166468411Y-93235500D01*
X166287771Y-93271432D01*
X166117611Y-93341914D01*
X165964472Y-93444238D01*
X165834238Y-93574472D01*
X165731914Y-93727611D01*
X165661432Y-93897771D01*
X165625500Y-94078411D01*
X165625500Y-94262589D01*
X165661432Y-94443229D01*
X165693751Y-94521254D01*
X165693750Y-95253382D01*
X165262133Y-95685000D01*
X163363007Y-95685000D01*
X163321999Y-95680961D01*
X163280991Y-95685000D01*
X163109018Y-95685000D01*
X163067999Y-95680960D01*
X163026981Y-95685000D01*
X162664518Y-95685000D01*
X162623500Y-95680960D01*
X162582482Y-95685000D01*
X155256477Y-95685000D01*
X155299316Y-95543777D01*
X155328251Y-95250000D01*
X155299316Y-94956223D01*
X155213625Y-94673736D01*
X155074469Y-94413394D01*
X154887197Y-94185203D01*
X154659006Y-93997931D01*
X154625460Y-93980000D01*
X154659006Y-93962069D01*
X154887197Y-93774797D01*
X155074469Y-93546606D01*
X155213625Y-93286264D01*
X155299316Y-93003777D01*
X155328251Y-92710000D01*
X155299316Y-92416223D01*
X155213625Y-92133736D01*
X155074469Y-91873394D01*
X154887197Y-91645203D01*
X154659006Y-91457931D01*
X154625460Y-91440000D01*
X154659006Y-91422069D01*
X154887197Y-91234797D01*
X155074469Y-91006606D01*
X155213625Y-90746264D01*
X155299316Y-90463777D01*
X155328251Y-90170000D01*
X155299316Y-89876223D01*
X155213625Y-89593736D01*
X155074469Y-89333394D01*
X154887197Y-89105203D01*
X154659006Y-88917931D01*
X154619053Y-88896576D01*
X154821729Y-88748486D01*
X155020733Y-88532035D01*
X155173686Y-88280919D01*
X155203290Y-88200000D01*
X159561928Y-88200000D01*
X159561928Y-89800000D01*
X159574188Y-89924482D01*
X159610498Y-90044180D01*
X159669463Y-90154494D01*
X159748815Y-90251185D01*
X159845506Y-90330537D01*
X159955820Y-90389502D01*
X160075518Y-90425812D01*
X160200000Y-90438072D01*
X161800000Y-90438072D01*
X161924482Y-90425812D01*
X162044180Y-90389502D01*
X162154494Y-90330537D01*
X162251185Y-90251185D01*
X162330537Y-90154494D01*
X162389502Y-90044180D01*
X162425812Y-89924482D01*
X162438072Y-89800000D01*
X162438072Y-88200000D01*
X162425812Y-88075518D01*
X162389502Y-87955820D01*
X162330537Y-87845506D01*
X162251185Y-87748815D01*
X162154494Y-87669463D01*
X162044180Y-87610498D01*
X161924482Y-87574188D01*
X161800000Y-87561928D01*
X160200000Y-87561928D01*
X160075518Y-87574188D01*
X159955820Y-87610498D01*
X159845506Y-87669463D01*
X159748815Y-87748815D01*
X159669463Y-87845506D01*
X159610498Y-87955820D01*
X159574188Y-88075518D01*
X159561928Y-88200000D01*
X155203290Y-88200000D01*
X155274709Y-88004789D01*
X155277358Y-87989026D01*
X155156217Y-87757000D01*
X153797000Y-87757000D01*
X153797000Y-87777000D01*
X153543000Y-87777000D01*
X153543000Y-87757000D01*
X152183783Y-87757000D01*
X152062642Y-87989026D01*
X152065291Y-88004789D01*
X152166314Y-88280919D01*
X152319267Y-88532035D01*
X152518271Y-88748486D01*
X152720947Y-88896576D01*
X152680994Y-88917931D01*
X152452803Y-89105203D01*
X152265531Y-89333394D01*
X152126375Y-89593736D01*
X152040684Y-89876223D01*
X152011749Y-90170000D01*
X152040684Y-90463777D01*
X152126375Y-90746264D01*
X152265531Y-91006606D01*
X152452803Y-91234797D01*
X152680994Y-91422069D01*
X152714540Y-91440000D01*
X152680994Y-91457931D01*
X152452803Y-91645203D01*
X152279807Y-91855999D01*
X152091867Y-91855999D01*
X151749446Y-91513578D01*
X151723291Y-91481709D01*
X151596146Y-91377364D01*
X151451087Y-91299828D01*
X151293689Y-91252082D01*
X151171019Y-91240000D01*
X151171018Y-91240000D01*
X151130000Y-91235960D01*
X151088982Y-91240000D01*
X148155000Y-91240000D01*
X148155000Y-83955327D01*
X148156606Y-83954469D01*
X148384797Y-83767197D01*
X148572069Y-83539006D01*
X148593424Y-83499053D01*
X148741514Y-83701729D01*
X148957965Y-83900733D01*
X149209081Y-84053686D01*
X149485211Y-84154709D01*
X149500974Y-84157358D01*
X149733000Y-84036217D01*
X149733000Y-82677000D01*
X149987000Y-82677000D01*
X149987000Y-84036217D01*
X150219026Y-84157358D01*
X150234789Y-84154709D01*
X150510919Y-84053686D01*
X150762035Y-83900733D01*
X150978486Y-83701729D01*
X151130000Y-83494367D01*
X151281514Y-83701729D01*
X151497965Y-83900733D01*
X151749081Y-84053686D01*
X152025211Y-84154709D01*
X152040974Y-84157358D01*
X152272998Y-84036218D01*
X152272998Y-84201000D01*
X152308530Y-84201000D01*
X152265531Y-84253394D01*
X152126375Y-84513736D01*
X152040684Y-84796223D01*
X152011749Y-85090000D01*
X152040684Y-85383777D01*
X152126375Y-85666264D01*
X152265531Y-85926606D01*
X152452803Y-86154797D01*
X152680994Y-86342069D01*
X152720947Y-86363424D01*
X152518271Y-86511514D01*
X152319267Y-86727965D01*
X152166314Y-86979081D01*
X152065291Y-87255211D01*
X152062642Y-87270974D01*
X152183783Y-87503000D01*
X153543000Y-87503000D01*
X153543000Y-87483000D01*
X153797000Y-87483000D01*
X153797000Y-87503000D01*
X155156217Y-87503000D01*
X155277358Y-87270974D01*
X155274709Y-87255211D01*
X155173686Y-86979081D01*
X155020733Y-86727965D01*
X154821729Y-86511514D01*
X154619053Y-86363424D01*
X154659006Y-86342069D01*
X154887197Y-86154797D01*
X155074469Y-85926606D01*
X155213625Y-85666264D01*
X155299316Y-85383777D01*
X155328251Y-85090000D01*
X155299316Y-84796223D01*
X155213625Y-84513736D01*
X155074469Y-84253394D01*
X154887197Y-84025203D01*
X154659006Y-83837931D01*
X154398664Y-83698775D01*
X154116177Y-83613084D01*
X153896019Y-83591400D01*
X153599101Y-83591400D01*
X153691954Y-83464321D01*
X153815773Y-83197633D01*
X153885185Y-82911914D01*
X153740925Y-82677000D01*
X152527000Y-82677000D01*
X152527000Y-82697000D01*
X152273000Y-82697000D01*
X152273000Y-82677000D01*
X149987000Y-82677000D01*
X149733000Y-82677000D01*
X149713000Y-82677000D01*
X149713000Y-82423000D01*
X149733000Y-82423000D01*
X149733000Y-81063783D01*
X149987000Y-81063783D01*
X149987000Y-82423000D01*
X152273000Y-82423000D01*
X152273000Y-81063783D01*
X152527000Y-81063783D01*
X152527000Y-82423000D01*
X153740925Y-82423000D01*
X153885185Y-82188086D01*
X153815773Y-81902367D01*
X153735301Y-81729040D01*
X159608091Y-81729040D01*
X159702930Y-81993881D01*
X159847615Y-82235131D01*
X160036586Y-82443519D01*
X160262580Y-82611037D01*
X160516913Y-82731246D01*
X160650961Y-82771904D01*
X160873000Y-82649915D01*
X160873000Y-81507000D01*
X161127000Y-81507000D01*
X161127000Y-82649915D01*
X161349039Y-82771904D01*
X161483087Y-82731246D01*
X161737420Y-82611037D01*
X161963414Y-82443519D01*
X162152385Y-82235131D01*
X162297070Y-81993881D01*
X162391909Y-81729040D01*
X162270624Y-81507000D01*
X161127000Y-81507000D01*
X160873000Y-81507000D01*
X159729376Y-81507000D01*
X159608091Y-81729040D01*
X153735301Y-81729040D01*
X153691954Y-81635679D01*
X153518486Y-81398271D01*
X153302035Y-81199267D01*
X153050919Y-81046314D01*
X152774789Y-80945291D01*
X152759026Y-80942642D01*
X152527000Y-81063783D01*
X152273000Y-81063783D01*
X152040974Y-80942642D01*
X152025211Y-80945291D01*
X151749081Y-81046314D01*
X151497965Y-81199267D01*
X151281514Y-81398271D01*
X151130000Y-81605633D01*
X150978486Y-81398271D01*
X150762035Y-81199267D01*
X150510919Y-81046314D01*
X150234789Y-80945291D01*
X150219026Y-80942642D01*
X149987000Y-81063783D01*
X149733000Y-81063783D01*
X149500974Y-80942642D01*
X149485211Y-80945291D01*
X149209081Y-81046314D01*
X148957965Y-81199267D01*
X148741514Y-81398271D01*
X148593424Y-81600947D01*
X148572069Y-81560994D01*
X148384797Y-81332803D01*
X148156605Y-81145531D01*
X148151797Y-81142961D01*
X148142918Y-81052811D01*
X148095172Y-80895413D01*
X148017636Y-80750354D01*
X147966720Y-80688313D01*
X147913291Y-80623209D01*
X147881427Y-80597059D01*
X147430867Y-80146500D01*
X160267791Y-80146500D01*
X160262580Y-80148963D01*
X160036586Y-80316481D01*
X159847615Y-80524869D01*
X159702930Y-80766119D01*
X159608091Y-81030960D01*
X159729376Y-81253000D01*
X160873000Y-81253000D01*
X160873000Y-81233000D01*
X161127000Y-81233000D01*
X161127000Y-81253000D01*
X162270624Y-81253000D01*
X162391909Y-81030960D01*
X162297070Y-80766119D01*
X162152385Y-80524869D01*
X161963414Y-80316481D01*
X161737420Y-80148963D01*
X161732209Y-80146500D01*
X162023633Y-80146500D01*
X164265000Y-82387868D01*
X164265001Y-87030172D01*
X164260960Y-87071200D01*
X164277082Y-87234888D01*
X164324828Y-87392286D01*
X164394817Y-87523225D01*
X164402365Y-87537346D01*
X164506710Y-87664491D01*
X164538574Y-87690641D01*
X165420363Y-88572432D01*
X165446509Y-88604291D01*
X165478368Y-88630437D01*
X165478370Y-88630439D01*
X165573654Y-88708636D01*
X165718713Y-88786172D01*
X165876111Y-88833918D01*
X166039800Y-88850040D01*
X166080818Y-88846000D01*
X168228596Y-88846000D01*
X168383271Y-88910068D01*
X168563911Y-88946000D01*
X168748089Y-88946000D01*
X168928729Y-88910068D01*
X169098889Y-88839586D01*
X169252028Y-88737262D01*
X169382262Y-88607028D01*
X169484586Y-88453889D01*
X169555068Y-88283729D01*
X169591000Y-88103089D01*
X169591000Y-87918911D01*
X169555068Y-87738271D01*
X169484586Y-87568111D01*
X169382262Y-87414972D01*
X169252028Y-87284738D01*
X169098889Y-87182414D01*
X168928729Y-87111932D01*
X168748089Y-87076000D01*
X168563911Y-87076000D01*
X168383271Y-87111932D01*
X168228596Y-87176000D01*
X166385668Y-87176000D01*
X165935000Y-86725332D01*
X165935000Y-82083018D01*
X165939040Y-82041999D01*
X165932370Y-81974272D01*
X167945000Y-81974272D01*
X167945000Y-82414528D01*
X168030890Y-82846325D01*
X168199369Y-83253069D01*
X168443962Y-83619129D01*
X168755271Y-83930438D01*
X169121331Y-84175031D01*
X169528075Y-84343510D01*
X169959872Y-84429400D01*
X170400128Y-84429400D01*
X170831925Y-84343510D01*
X171238669Y-84175031D01*
X171604729Y-83930438D01*
X171916038Y-83619129D01*
X172160631Y-83253069D01*
X172329110Y-82846325D01*
X172415000Y-82414528D01*
X172415000Y-81974272D01*
X172329110Y-81542475D01*
X172160631Y-81135731D01*
X171916038Y-80769671D01*
X171604729Y-80458362D01*
X171238669Y-80213769D01*
X170831925Y-80045290D01*
X170400128Y-79959400D01*
X169959872Y-79959400D01*
X169528075Y-80045290D01*
X169121331Y-80213769D01*
X168755271Y-80458362D01*
X168443962Y-80769671D01*
X168199369Y-81135731D01*
X168030890Y-81542475D01*
X167945000Y-81974272D01*
X165932370Y-81974272D01*
X165922918Y-81878311D01*
X165875172Y-81720913D01*
X165797636Y-81575854D01*
X165794728Y-81572311D01*
X165693291Y-81448709D01*
X165661428Y-81422560D01*
X163102084Y-78863217D01*
X163092536Y-78845354D01*
X162988191Y-78718209D01*
X162947726Y-78685000D01*
X170716264Y-78685000D01*
X173315001Y-81283737D01*
G36*
X170107000Y-94822596D02*
X170042932Y-94977271D01*
X170007000Y-95157911D01*
X170007000Y-95342089D01*
X170042932Y-95522729D01*
X170067771Y-95582696D01*
X170026189Y-95570082D01*
X169903519Y-95558000D01*
X169903518Y-95558000D01*
X169862500Y-95553960D01*
X169821482Y-95558000D01*
X169764793Y-95558000D01*
X169584134Y-95337866D01*
X169358014Y-95152294D01*
X169293477Y-95117799D01*
X169410355Y-95048178D01*
X169626588Y-94853269D01*
X169800641Y-94619920D01*
X169925825Y-94357099D01*
X169970476Y-94209890D01*
X169849155Y-93980000D01*
X168656000Y-93980000D01*
X168656000Y-94000000D01*
X168402000Y-94000000D01*
X168402000Y-93980000D01*
X168382000Y-93980000D01*
X168382000Y-93726000D01*
X168402000Y-93726000D01*
X168402000Y-93706000D01*
X168656000Y-93706000D01*
X168656000Y-93726000D01*
X169849155Y-93726000D01*
X169970476Y-93496110D01*
X169925825Y-93348901D01*
X169800641Y-93086080D01*
X169626588Y-92852731D01*
X169410355Y-92657822D01*
X169293477Y-92588201D01*
X169358014Y-92553706D01*
X169584134Y-92368134D01*
X169769706Y-92142014D01*
X169907599Y-91884034D01*
X169992513Y-91604111D01*
X170021185Y-91313000D01*
X169992513Y-91021889D01*
X169954931Y-90897999D01*
X170107001Y-90897999D01*
X170107000Y-94822596D01*
X170107000Y-94822596D01*
G37*
X170107000Y-94822596D02*
X170042932Y-94977271D01*
X170007000Y-95157911D01*
X170007000Y-95342089D01*
X170042932Y-95522729D01*
X170067771Y-95582696D01*
X170026189Y-95570082D01*
X169903519Y-95558000D01*
X169903518Y-95558000D01*
X169862500Y-95553960D01*
X169821482Y-95558000D01*
X169764793Y-95558000D01*
X169584134Y-95337866D01*
X169358014Y-95152294D01*
X169293477Y-95117799D01*
X169410355Y-95048178D01*
X169626588Y-94853269D01*
X169800641Y-94619920D01*
X169925825Y-94357099D01*
X169970476Y-94209890D01*
X169849155Y-93980000D01*
X168656000Y-93980000D01*
X168656000Y-94000000D01*
X168402000Y-94000000D01*
X168402000Y-93980000D01*
X168382000Y-93980000D01*
X168382000Y-93726000D01*
X168402000Y-93726000D01*
X168402000Y-93706000D01*
X168656000Y-93706000D01*
X168656000Y-93726000D01*
X169849155Y-93726000D01*
X169970476Y-93496110D01*
X169925825Y-93348901D01*
X169800641Y-93086080D01*
X169626588Y-92852731D01*
X169410355Y-92657822D01*
X169293477Y-92588201D01*
X169358014Y-92553706D01*
X169584134Y-92368134D01*
X169769706Y-92142014D01*
X169907599Y-91884034D01*
X169992513Y-91604111D01*
X170021185Y-91313000D01*
X169992513Y-91021889D01*
X169954931Y-90897999D01*
X170107001Y-90897999D01*
X170107000Y-94822596D01*
%TD*%
M02*
