%TF.GenerationSoftware,KiCad,Pcbnew,(5.0.0)*%
%TF.CreationDate,2021-11-23T11:21:32+01:00*%
%TF.ProjectId,PlacaSlave3AGesinen,506C616361536C617665334147657369,rev?*%
%TF.SameCoordinates,Original*%
%TF.FileFunction,Legend,Top*%
%TF.FilePolarity,Positive*%
%FSLAX46Y46*%
G04 Gerber Fmt 4.6, Leading zero omitted, Abs format (unit mm)*
G04 Created by KiCad (PCBNEW (5.0.0)) date 11/23/21 11:21:32*
%MOMM*%
%LPD*%
G01*
G04 APERTURE LIST*
%ADD10C,0.250000*%
%ADD11C,0.150000*%
%ADD12C,0.120000*%
%ADD13C,0.010000*%
G04 APERTURE END LIST*
D10*
X114625428Y-89719047D02*
X114625428Y-90052380D01*
X114101619Y-90195238D02*
X114101619Y-89719047D01*
X115101619Y-89719047D01*
X115101619Y-90195238D01*
X114768285Y-90623809D02*
X114101619Y-90623809D01*
X114673047Y-90623809D02*
X114720666Y-90671428D01*
X114768285Y-90766666D01*
X114768285Y-90909523D01*
X114720666Y-91004761D01*
X114625428Y-91052380D01*
X114101619Y-91052380D01*
X114768285Y-91433333D02*
X114101619Y-91671428D01*
X114768285Y-91909523D01*
X114101619Y-92290476D02*
X114768285Y-92290476D01*
X115101619Y-92290476D02*
X115054000Y-92242857D01*
X115006380Y-92290476D01*
X115054000Y-92338095D01*
X115101619Y-92290476D01*
X115006380Y-92290476D01*
X114101619Y-92766666D02*
X114768285Y-92766666D01*
X114577809Y-92766666D02*
X114673047Y-92814285D01*
X114720666Y-92861904D01*
X114768285Y-92957142D01*
X114768285Y-93052380D01*
X114101619Y-93528571D02*
X114149238Y-93433333D01*
X114196857Y-93385714D01*
X114292095Y-93338095D01*
X114577809Y-93338095D01*
X114673047Y-93385714D01*
X114720666Y-93433333D01*
X114768285Y-93528571D01*
X114768285Y-93671428D01*
X114720666Y-93766666D01*
X114673047Y-93814285D01*
X114577809Y-93861904D01*
X114292095Y-93861904D01*
X114196857Y-93814285D01*
X114149238Y-93766666D01*
X114101619Y-93671428D01*
X114101619Y-93528571D01*
X114101619Y-94290476D02*
X114768285Y-94290476D01*
X114673047Y-94290476D02*
X114720666Y-94338095D01*
X114768285Y-94433333D01*
X114768285Y-94576190D01*
X114720666Y-94671428D01*
X114625428Y-94719047D01*
X114101619Y-94719047D01*
X114625428Y-94719047D02*
X114720666Y-94766666D01*
X114768285Y-94861904D01*
X114768285Y-95004761D01*
X114720666Y-95099999D01*
X114625428Y-95147619D01*
X114101619Y-95147619D01*
X114149238Y-96004761D02*
X114101619Y-95909523D01*
X114101619Y-95719047D01*
X114149238Y-95623809D01*
X114244476Y-95576190D01*
X114625428Y-95576190D01*
X114720666Y-95623809D01*
X114768285Y-95719047D01*
X114768285Y-95909523D01*
X114720666Y-96004761D01*
X114625428Y-96052380D01*
X114530190Y-96052380D01*
X114434952Y-95576190D01*
X114768285Y-96480952D02*
X114101619Y-96480952D01*
X114673047Y-96480952D02*
X114720666Y-96528571D01*
X114768285Y-96623809D01*
X114768285Y-96766666D01*
X114720666Y-96861904D01*
X114625428Y-96909523D01*
X114101619Y-96909523D01*
X114768285Y-97242857D02*
X114768285Y-97623809D01*
X115101619Y-97385714D02*
X114244476Y-97385714D01*
X114149238Y-97433333D01*
X114101619Y-97528571D01*
X114101619Y-97623809D01*
X114101619Y-98385714D02*
X114625428Y-98385714D01*
X114720666Y-98338095D01*
X114768285Y-98242857D01*
X114768285Y-98052380D01*
X114720666Y-97957142D01*
X114149238Y-98385714D02*
X114101619Y-98290476D01*
X114101619Y-98052380D01*
X114149238Y-97957142D01*
X114244476Y-97909523D01*
X114339714Y-97909523D01*
X114434952Y-97957142D01*
X114482571Y-98052380D01*
X114482571Y-98290476D01*
X114530190Y-98385714D01*
X114101619Y-99004761D02*
X114149238Y-98909523D01*
X114244476Y-98861904D01*
X115101619Y-98861904D01*
X114149238Y-100099999D02*
X114101619Y-100242857D01*
X114101619Y-100480952D01*
X114149238Y-100576190D01*
X114196857Y-100623809D01*
X114292095Y-100671428D01*
X114387333Y-100671428D01*
X114482571Y-100623809D01*
X114530190Y-100576190D01*
X114577809Y-100480952D01*
X114625428Y-100290476D01*
X114673047Y-100195238D01*
X114720666Y-100147619D01*
X114815904Y-100099999D01*
X114911142Y-100099999D01*
X115006380Y-100147619D01*
X115054000Y-100195238D01*
X115101619Y-100290476D01*
X115101619Y-100528571D01*
X115054000Y-100671428D01*
X114149238Y-101480952D02*
X114101619Y-101385714D01*
X114101619Y-101195238D01*
X114149238Y-101099999D01*
X114244476Y-101052380D01*
X114625428Y-101052380D01*
X114720666Y-101099999D01*
X114768285Y-101195238D01*
X114768285Y-101385714D01*
X114720666Y-101480952D01*
X114625428Y-101528571D01*
X114530190Y-101528571D01*
X114434952Y-101052380D01*
X114768285Y-101957142D02*
X114101619Y-101957142D01*
X114673047Y-101957142D02*
X114720666Y-102004761D01*
X114768285Y-102099999D01*
X114768285Y-102242857D01*
X114720666Y-102338095D01*
X114625428Y-102385714D01*
X114101619Y-102385714D01*
X114149238Y-102814285D02*
X114101619Y-102909523D01*
X114101619Y-103099999D01*
X114149238Y-103195238D01*
X114244476Y-103242857D01*
X114292095Y-103242857D01*
X114387333Y-103195238D01*
X114434952Y-103099999D01*
X114434952Y-102957142D01*
X114482571Y-102861904D01*
X114577809Y-102814285D01*
X114625428Y-102814285D01*
X114720666Y-102861904D01*
X114768285Y-102957142D01*
X114768285Y-103099999D01*
X114720666Y-103195238D01*
X114101619Y-103814285D02*
X114149238Y-103719047D01*
X114196857Y-103671428D01*
X114292095Y-103623809D01*
X114577809Y-103623809D01*
X114673047Y-103671428D01*
X114720666Y-103719047D01*
X114768285Y-103814285D01*
X114768285Y-103957142D01*
X114720666Y-104052380D01*
X114673047Y-104099999D01*
X114577809Y-104147619D01*
X114292095Y-104147619D01*
X114196857Y-104099999D01*
X114149238Y-104052380D01*
X114101619Y-103957142D01*
X114101619Y-103814285D01*
X114101619Y-104576190D02*
X114768285Y-104576190D01*
X114577809Y-104576190D02*
X114673047Y-104623809D01*
X114720666Y-104671428D01*
X114768285Y-104766666D01*
X114768285Y-104861904D01*
X114149238Y-105909523D02*
X114101619Y-106052380D01*
X114101619Y-106290476D01*
X114149238Y-106385714D01*
X114196857Y-106433333D01*
X114292095Y-106480952D01*
X114387333Y-106480952D01*
X114482571Y-106433333D01*
X114530190Y-106385714D01*
X114577809Y-106290476D01*
X114625428Y-106099999D01*
X114673047Y-106004761D01*
X114720666Y-105957142D01*
X114815904Y-105909523D01*
X114911142Y-105909523D01*
X115006380Y-105957142D01*
X115054000Y-106004761D01*
X115101619Y-106099999D01*
X115101619Y-106338095D01*
X115054000Y-106480952D01*
X114101619Y-107052380D02*
X114149238Y-106957142D01*
X114244476Y-106909523D01*
X115101619Y-106909523D01*
X114101619Y-107861904D02*
X114625428Y-107861904D01*
X114720666Y-107814285D01*
X114768285Y-107719047D01*
X114768285Y-107528571D01*
X114720666Y-107433333D01*
X114149238Y-107861904D02*
X114101619Y-107766666D01*
X114101619Y-107528571D01*
X114149238Y-107433333D01*
X114244476Y-107385714D01*
X114339714Y-107385714D01*
X114434952Y-107433333D01*
X114482571Y-107528571D01*
X114482571Y-107766666D01*
X114530190Y-107861904D01*
X114768285Y-108242857D02*
X114101619Y-108480952D01*
X114768285Y-108719047D01*
X114149238Y-109480952D02*
X114101619Y-109385714D01*
X114101619Y-109195238D01*
X114149238Y-109099999D01*
X114244476Y-109052380D01*
X114625428Y-109052380D01*
X114720666Y-109099999D01*
X114768285Y-109195238D01*
X114768285Y-109385714D01*
X114720666Y-109480952D01*
X114625428Y-109528571D01*
X114530190Y-109528571D01*
X114434952Y-109052380D01*
X115101619Y-110576190D02*
X114101619Y-110909523D01*
X115101619Y-111242857D01*
X114101619Y-112099999D02*
X114101619Y-111528571D01*
X114101619Y-111814285D02*
X115101619Y-111814285D01*
X114958761Y-111719047D01*
X114863523Y-111623809D01*
X114815904Y-111528571D01*
X114196857Y-112528571D02*
X114149238Y-112576190D01*
X114101619Y-112528571D01*
X114149238Y-112480952D01*
X114196857Y-112528571D01*
X114101619Y-112528571D01*
X115101619Y-113195238D02*
X115101619Y-113290476D01*
X115054000Y-113385714D01*
X115006380Y-113433333D01*
X114911142Y-113480952D01*
X114720666Y-113528571D01*
X114482571Y-113528571D01*
X114292095Y-113480952D01*
X114196857Y-113433333D01*
X114149238Y-113385714D01*
X114101619Y-113290476D01*
X114101619Y-113195238D01*
X114149238Y-113099999D01*
X114196857Y-113052380D01*
X114292095Y-113004761D01*
X114482571Y-112957142D01*
X114720666Y-112957142D01*
X114911142Y-113004761D01*
X115006380Y-113052380D01*
X115054000Y-113099999D01*
X115101619Y-113195238D01*
D11*
%TO.C,P3*%
X152400000Y-97790000D02*
X149860000Y-97790000D01*
X152400000Y-95250000D02*
X152400000Y-97790000D01*
X149860000Y-95250000D02*
X152400000Y-95250000D01*
X149860000Y-97790000D02*
X149860000Y-95250000D01*
X149860000Y-92710000D02*
X149860000Y-95250000D01*
X152400000Y-92710000D02*
X149860000Y-92710000D01*
X152400000Y-95250000D02*
X152400000Y-92710000D01*
%TO.C,P1*%
X137160000Y-86360000D02*
X139700000Y-86360000D01*
X139700000Y-114300000D02*
X139700000Y-86360000D01*
X137160000Y-114300000D02*
X139700000Y-114300000D01*
X137160000Y-86360000D02*
X137160000Y-114300000D01*
X137160000Y-83820000D02*
X137160000Y-86360000D01*
X139700000Y-83820000D02*
X137160000Y-83820000D01*
X139700000Y-86360000D02*
X139700000Y-83820000D01*
%TO.C,P2*%
X140970000Y-83820000D02*
X140970000Y-81280000D01*
X153670000Y-81280000D02*
X140970000Y-81280000D01*
X153670000Y-83820000D02*
X153670000Y-81280000D01*
X140970000Y-83820000D02*
X153670000Y-83820000D01*
X138430000Y-83820000D02*
X140970000Y-83820000D01*
X138430000Y-81280000D02*
X138430000Y-83820000D01*
X140970000Y-81280000D02*
X138430000Y-81280000D01*
%TO.C,P4*%
X152400000Y-86360000D02*
X154940000Y-86360000D01*
X154940000Y-114300000D02*
X154940000Y-86360000D01*
X152400000Y-114300000D02*
X154940000Y-114300000D01*
X152400000Y-86360000D02*
X152400000Y-114300000D01*
X152400000Y-83820000D02*
X152400000Y-86360000D01*
X154940000Y-83820000D02*
X152400000Y-83820000D01*
X154940000Y-86360000D02*
X154940000Y-83820000D01*
D12*
%TO.C,C1*%
X131805000Y-81530436D02*
X131805000Y-82734564D01*
X133625000Y-81530436D02*
X133625000Y-82734564D01*
%TO.C,C2*%
X145865436Y-112755000D02*
X147069564Y-112755000D01*
X145865436Y-114575000D02*
X147069564Y-114575000D01*
%TO.C,C3*%
X124820000Y-94865436D02*
X124820000Y-96069564D01*
X126640000Y-94865436D02*
X126640000Y-96069564D01*
%TO.C,C4*%
X122830000Y-94865436D02*
X122830000Y-96069564D01*
X121010000Y-94865436D02*
X121010000Y-96069564D01*
%TO.C,D1*%
X133675000Y-93465000D02*
X133675000Y-90605000D01*
X133675000Y-90605000D02*
X131755000Y-90605000D01*
X131755000Y-90605000D02*
X131755000Y-93465000D01*
%TO.C,D2*%
X170525000Y-107625000D02*
X167665000Y-107625000D01*
X170525000Y-109545000D02*
X170525000Y-107625000D01*
X167665000Y-109545000D02*
X170525000Y-109545000D01*
%TO.C,J1*%
X124000000Y-100130000D02*
X125330000Y-100130000D01*
X125330000Y-100130000D02*
X125330000Y-101460000D01*
X125330000Y-102730000D02*
X125330000Y-105330000D01*
X122670000Y-105330000D02*
X125330000Y-105330000D01*
X122670000Y-102730000D02*
X122670000Y-105330000D01*
X122670000Y-102730000D02*
X125330000Y-102730000D01*
%TO.C,JP1*%
X123634500Y-87372500D02*
X123634500Y-84712500D01*
X123634500Y-87372500D02*
X126234500Y-87372500D01*
X126234500Y-87372500D02*
X126234500Y-84712500D01*
X123634500Y-84712500D02*
X126234500Y-84712500D01*
X121034500Y-84712500D02*
X122364500Y-84712500D01*
X121034500Y-86042500D02*
X121034500Y-84712500D01*
%TO.C,JP2*%
X121034500Y-89979500D02*
X121034500Y-88649500D01*
X121034500Y-88649500D02*
X122364500Y-88649500D01*
X123634500Y-88649500D02*
X126234500Y-88649500D01*
X126234500Y-91309500D02*
X126234500Y-88649500D01*
X123634500Y-91309500D02*
X126234500Y-91309500D01*
X123634500Y-91309500D02*
X123634500Y-88649500D01*
%TO.C,R1*%
X133425000Y-88136252D02*
X133425000Y-87613748D01*
X132005000Y-88136252D02*
X132005000Y-87613748D01*
%TO.C,R2*%
X161850000Y-92838748D02*
X161850000Y-93361252D01*
X163270000Y-92838748D02*
X163270000Y-93361252D01*
%TO.C,R3*%
X160730000Y-92838748D02*
X160730000Y-93361252D01*
X159310000Y-92838748D02*
X159310000Y-93361252D01*
%TO.C,R4*%
X128398748Y-81840000D02*
X128921252Y-81840000D01*
X128398748Y-83260000D02*
X128921252Y-83260000D01*
%TO.C,R5*%
X168917252Y-110542000D02*
X168394748Y-110542000D01*
X168917252Y-111962000D02*
X168394748Y-111962000D01*
%TO.C,S1*%
X114940000Y-116190000D02*
X114940000Y-120910000D01*
X114940000Y-120910000D02*
X125060000Y-120910000D01*
X125060000Y-120910000D02*
X125060000Y-116190000D01*
X125060000Y-116190000D02*
X114940000Y-116190000D01*
X116700000Y-116190000D02*
X116700000Y-115990000D01*
X116700000Y-115990000D02*
X116400000Y-115990000D01*
X116400000Y-115990000D02*
X116400000Y-116190000D01*
X116700000Y-116090000D02*
X116400000Y-116090000D01*
X117500000Y-116190000D02*
X117500000Y-116800000D01*
X117500000Y-116800000D02*
X115550000Y-116800000D01*
X115550000Y-116800000D02*
X115550000Y-120300000D01*
X115550000Y-120300000D02*
X124450000Y-120300000D01*
X124450000Y-120300000D02*
X124450000Y-116800000D01*
X124450000Y-116800000D02*
X122500000Y-116800000D01*
X122500000Y-116800000D02*
X122500000Y-116190000D01*
X114940000Y-117500000D02*
X115550000Y-117500000D01*
X114940000Y-118800000D02*
X115550000Y-118800000D01*
X125060000Y-117500000D02*
X124450000Y-117500000D01*
X125060000Y-118800000D02*
X124450000Y-118800000D01*
X117900000Y-120300000D02*
X117900000Y-119800000D01*
X117900000Y-119800000D02*
X118100000Y-119800000D01*
X118100000Y-119800000D02*
X118100000Y-120300000D01*
X118000000Y-120300000D02*
X118000000Y-119800000D01*
X119900000Y-120300000D02*
X119900000Y-119800000D01*
X119900000Y-119800000D02*
X120100000Y-119800000D01*
X120100000Y-119800000D02*
X120100000Y-120300000D01*
X120000000Y-120300000D02*
X120000000Y-119800000D01*
X121900000Y-120300000D02*
X121900000Y-119800000D01*
X121900000Y-119800000D02*
X122100000Y-119800000D01*
X122100000Y-119800000D02*
X122100000Y-120300000D01*
X122000000Y-120300000D02*
X122000000Y-119800000D01*
X115890000Y-115890000D02*
X114640000Y-115890000D01*
X114640000Y-115890000D02*
X114640000Y-117140000D01*
%TO.C,S3*%
X150640000Y-115890000D02*
X150640000Y-117140000D01*
X151890000Y-115890000D02*
X150640000Y-115890000D01*
X158000000Y-120300000D02*
X158000000Y-119800000D01*
X158100000Y-119800000D02*
X158100000Y-120300000D01*
X157900000Y-119800000D02*
X158100000Y-119800000D01*
X157900000Y-120300000D02*
X157900000Y-119800000D01*
X156000000Y-120300000D02*
X156000000Y-119800000D01*
X156100000Y-119800000D02*
X156100000Y-120300000D01*
X155900000Y-119800000D02*
X156100000Y-119800000D01*
X155900000Y-120300000D02*
X155900000Y-119800000D01*
X154000000Y-120300000D02*
X154000000Y-119800000D01*
X154100000Y-119800000D02*
X154100000Y-120300000D01*
X153900000Y-119800000D02*
X154100000Y-119800000D01*
X153900000Y-120300000D02*
X153900000Y-119800000D01*
X161060000Y-118800000D02*
X160450000Y-118800000D01*
X161060000Y-117500000D02*
X160450000Y-117500000D01*
X150940000Y-118800000D02*
X151550000Y-118800000D01*
X150940000Y-117500000D02*
X151550000Y-117500000D01*
X158500000Y-116800000D02*
X158500000Y-116190000D01*
X160450000Y-116800000D02*
X158500000Y-116800000D01*
X160450000Y-120300000D02*
X160450000Y-116800000D01*
X151550000Y-120300000D02*
X160450000Y-120300000D01*
X151550000Y-116800000D02*
X151550000Y-120300000D01*
X153500000Y-116800000D02*
X151550000Y-116800000D01*
X153500000Y-116190000D02*
X153500000Y-116800000D01*
X152700000Y-116090000D02*
X152400000Y-116090000D01*
X152400000Y-115990000D02*
X152400000Y-116190000D01*
X152700000Y-115990000D02*
X152400000Y-115990000D01*
X152700000Y-116190000D02*
X152700000Y-115990000D01*
X161060000Y-116190000D02*
X150940000Y-116190000D01*
X161060000Y-120910000D02*
X161060000Y-116190000D01*
X150940000Y-120910000D02*
X161060000Y-120910000D01*
X150940000Y-116190000D02*
X150940000Y-120910000D01*
%TO.C,S4*%
X126640000Y-115890000D02*
X126640000Y-117140000D01*
X127890000Y-115890000D02*
X126640000Y-115890000D01*
X134000000Y-120300000D02*
X134000000Y-119800000D01*
X134100000Y-119800000D02*
X134100000Y-120300000D01*
X133900000Y-119800000D02*
X134100000Y-119800000D01*
X133900000Y-120300000D02*
X133900000Y-119800000D01*
X132000000Y-120300000D02*
X132000000Y-119800000D01*
X132100000Y-119800000D02*
X132100000Y-120300000D01*
X131900000Y-119800000D02*
X132100000Y-119800000D01*
X131900000Y-120300000D02*
X131900000Y-119800000D01*
X130000000Y-120300000D02*
X130000000Y-119800000D01*
X130100000Y-119800000D02*
X130100000Y-120300000D01*
X129900000Y-119800000D02*
X130100000Y-119800000D01*
X129900000Y-120300000D02*
X129900000Y-119800000D01*
X137060000Y-118800000D02*
X136450000Y-118800000D01*
X137060000Y-117500000D02*
X136450000Y-117500000D01*
X126940000Y-118800000D02*
X127550000Y-118800000D01*
X126940000Y-117500000D02*
X127550000Y-117500000D01*
X134500000Y-116800000D02*
X134500000Y-116190000D01*
X136450000Y-116800000D02*
X134500000Y-116800000D01*
X136450000Y-120300000D02*
X136450000Y-116800000D01*
X127550000Y-120300000D02*
X136450000Y-120300000D01*
X127550000Y-116800000D02*
X127550000Y-120300000D01*
X129500000Y-116800000D02*
X127550000Y-116800000D01*
X129500000Y-116190000D02*
X129500000Y-116800000D01*
X128700000Y-116090000D02*
X128400000Y-116090000D01*
X128400000Y-115990000D02*
X128400000Y-116190000D01*
X128700000Y-115990000D02*
X128400000Y-115990000D01*
X128700000Y-116190000D02*
X128700000Y-115990000D01*
X137060000Y-116190000D02*
X126940000Y-116190000D01*
X137060000Y-120910000D02*
X137060000Y-116190000D01*
X126940000Y-120910000D02*
X137060000Y-120910000D01*
X126940000Y-116190000D02*
X126940000Y-120910000D01*
%TO.C,S5*%
X162940000Y-116190000D02*
X162940000Y-120910000D01*
X162940000Y-120910000D02*
X173060000Y-120910000D01*
X173060000Y-120910000D02*
X173060000Y-116190000D01*
X173060000Y-116190000D02*
X162940000Y-116190000D01*
X164700000Y-116190000D02*
X164700000Y-115990000D01*
X164700000Y-115990000D02*
X164400000Y-115990000D01*
X164400000Y-115990000D02*
X164400000Y-116190000D01*
X164700000Y-116090000D02*
X164400000Y-116090000D01*
X165500000Y-116190000D02*
X165500000Y-116800000D01*
X165500000Y-116800000D02*
X163550000Y-116800000D01*
X163550000Y-116800000D02*
X163550000Y-120300000D01*
X163550000Y-120300000D02*
X172450000Y-120300000D01*
X172450000Y-120300000D02*
X172450000Y-116800000D01*
X172450000Y-116800000D02*
X170500000Y-116800000D01*
X170500000Y-116800000D02*
X170500000Y-116190000D01*
X162940000Y-117500000D02*
X163550000Y-117500000D01*
X162940000Y-118800000D02*
X163550000Y-118800000D01*
X173060000Y-117500000D02*
X172450000Y-117500000D01*
X173060000Y-118800000D02*
X172450000Y-118800000D01*
X165900000Y-120300000D02*
X165900000Y-119800000D01*
X165900000Y-119800000D02*
X166100000Y-119800000D01*
X166100000Y-119800000D02*
X166100000Y-120300000D01*
X166000000Y-120300000D02*
X166000000Y-119800000D01*
X167900000Y-120300000D02*
X167900000Y-119800000D01*
X167900000Y-119800000D02*
X168100000Y-119800000D01*
X168100000Y-119800000D02*
X168100000Y-120300000D01*
X168000000Y-120300000D02*
X168000000Y-119800000D01*
X169900000Y-120300000D02*
X169900000Y-119800000D01*
X169900000Y-119800000D02*
X170100000Y-119800000D01*
X170100000Y-119800000D02*
X170100000Y-120300000D01*
X170000000Y-120300000D02*
X170000000Y-119800000D01*
X163890000Y-115890000D02*
X162640000Y-115890000D01*
X162640000Y-115890000D02*
X162640000Y-117140000D01*
%TO.C,S6*%
X138640000Y-115890000D02*
X138640000Y-117140000D01*
X139890000Y-115890000D02*
X138640000Y-115890000D01*
X146000000Y-120300000D02*
X146000000Y-119800000D01*
X146100000Y-119800000D02*
X146100000Y-120300000D01*
X145900000Y-119800000D02*
X146100000Y-119800000D01*
X145900000Y-120300000D02*
X145900000Y-119800000D01*
X144000000Y-120300000D02*
X144000000Y-119800000D01*
X144100000Y-119800000D02*
X144100000Y-120300000D01*
X143900000Y-119800000D02*
X144100000Y-119800000D01*
X143900000Y-120300000D02*
X143900000Y-119800000D01*
X142000000Y-120300000D02*
X142000000Y-119800000D01*
X142100000Y-119800000D02*
X142100000Y-120300000D01*
X141900000Y-119800000D02*
X142100000Y-119800000D01*
X141900000Y-120300000D02*
X141900000Y-119800000D01*
X149060000Y-118800000D02*
X148450000Y-118800000D01*
X149060000Y-117500000D02*
X148450000Y-117500000D01*
X138940000Y-118800000D02*
X139550000Y-118800000D01*
X138940000Y-117500000D02*
X139550000Y-117500000D01*
X146500000Y-116800000D02*
X146500000Y-116190000D01*
X148450000Y-116800000D02*
X146500000Y-116800000D01*
X148450000Y-120300000D02*
X148450000Y-116800000D01*
X139550000Y-120300000D02*
X148450000Y-120300000D01*
X139550000Y-116800000D02*
X139550000Y-120300000D01*
X141500000Y-116800000D02*
X139550000Y-116800000D01*
X141500000Y-116190000D02*
X141500000Y-116800000D01*
X140700000Y-116090000D02*
X140400000Y-116090000D01*
X140400000Y-115990000D02*
X140400000Y-116190000D01*
X140700000Y-115990000D02*
X140400000Y-115990000D01*
X140700000Y-116190000D02*
X140700000Y-115990000D01*
X149060000Y-116190000D02*
X138940000Y-116190000D01*
X149060000Y-120910000D02*
X149060000Y-116190000D01*
X138940000Y-120910000D02*
X149060000Y-120910000D01*
X138940000Y-116190000D02*
X138940000Y-120910000D01*
%TO.C,Y1*%
X130952000Y-99189000D02*
X130952000Y-105589000D01*
X136002000Y-99189000D02*
X136002000Y-105589000D01*
X130952000Y-99189000D02*
G75*
G02X136002000Y-99189000I2525000J0D01*
G01*
X130952000Y-105589000D02*
G75*
G03X136002000Y-105589000I2525000J0D01*
G01*
%TO.C,JP3*%
X163890000Y-104016500D02*
X163890000Y-105346500D01*
X162560000Y-104016500D02*
X163890000Y-104016500D01*
X161290000Y-104016500D02*
X161290000Y-106676500D01*
X161290000Y-106676500D02*
X158690000Y-106676500D01*
X161290000Y-104016500D02*
X158690000Y-104016500D01*
X158690000Y-104016500D02*
X158690000Y-106676500D01*
%TO.C,JP4*%
X158880500Y-108525000D02*
X158880500Y-111185000D01*
X161480500Y-108525000D02*
X158880500Y-108525000D01*
X161480500Y-111185000D02*
X158880500Y-111185000D01*
X161480500Y-108525000D02*
X161480500Y-111185000D01*
X162750500Y-108525000D02*
X164080500Y-108525000D01*
X164080500Y-108525000D02*
X164080500Y-109855000D01*
%TO.C,Q1*%
X158926500Y-98051500D02*
X158926500Y-98981500D01*
X158926500Y-101211500D02*
X158926500Y-100281500D01*
X158926500Y-101211500D02*
X161086500Y-101211500D01*
X158926500Y-98051500D02*
X160386500Y-98051500D01*
%TO.C,Q2*%
X163260500Y-98432500D02*
X164720500Y-98432500D01*
X163260500Y-101592500D02*
X165420500Y-101592500D01*
X163260500Y-101592500D02*
X163260500Y-100662500D01*
X163260500Y-98432500D02*
X163260500Y-99362500D01*
%TO.C,R6*%
X173049000Y-105012748D02*
X173049000Y-105535252D01*
X171629000Y-105012748D02*
X171629000Y-105535252D01*
%TO.C,R7*%
X171565500Y-100473252D02*
X171565500Y-99950748D01*
X172985500Y-100473252D02*
X172985500Y-99950748D01*
%TO.C,R8*%
X173049000Y-111268252D02*
X173049000Y-110745748D01*
X171629000Y-111268252D02*
X171629000Y-110745748D01*
%TO.C,R9*%
X173049000Y-95329752D02*
X173049000Y-94807248D01*
X171629000Y-95329752D02*
X171629000Y-94807248D01*
%TO.C,S2*%
X169859000Y-102803000D02*
X168529000Y-102803000D01*
X169859000Y-101473000D02*
X169859000Y-102803000D01*
X169859000Y-100203000D02*
X167199000Y-100203000D01*
X167199000Y-100203000D02*
X167199000Y-89983000D01*
X169859000Y-100203000D02*
X169859000Y-89983000D01*
X169859000Y-89983000D02*
X167199000Y-89983000D01*
D13*
%TO.C,MH4*%
G36*
X120358244Y-89211333D02*
X120223398Y-89240884D01*
X120195113Y-89231087D01*
X119992662Y-89163845D01*
X119941113Y-89154000D01*
X119890002Y-89057588D01*
X119908431Y-88864650D01*
X119972667Y-88730666D01*
X120183828Y-88638760D01*
X120347170Y-88758759D01*
X120396000Y-88977087D01*
X120358244Y-89211333D01*
X120358244Y-89211333D01*
G37*
X120358244Y-89211333D02*
X120223398Y-89240884D01*
X120195113Y-89231087D01*
X119992662Y-89163845D01*
X119941113Y-89154000D01*
X119890002Y-89057588D01*
X119908431Y-88864650D01*
X119972667Y-88730666D01*
X120183828Y-88638760D01*
X120347170Y-88758759D01*
X120396000Y-88977087D01*
X120358244Y-89211333D01*
G36*
X120327570Y-88349717D02*
X120175209Y-88368103D01*
X119969657Y-88250045D01*
X119907347Y-88066992D01*
X119996906Y-87917150D01*
X120132688Y-87884000D01*
X120349813Y-87967673D01*
X120396000Y-88147312D01*
X120327570Y-88349717D01*
X120327570Y-88349717D01*
G37*
X120327570Y-88349717D02*
X120175209Y-88368103D01*
X119969657Y-88250045D01*
X119907347Y-88066992D01*
X119996906Y-87917150D01*
X120132688Y-87884000D01*
X120349813Y-87967673D01*
X120396000Y-88147312D01*
X120327570Y-88349717D01*
G36*
X120306198Y-87461256D02*
X120142000Y-87503000D01*
X119931824Y-87411541D01*
X119893486Y-87209835D01*
X119972667Y-87079666D01*
X120188121Y-86992255D01*
X120359581Y-87103183D01*
X120396000Y-87249000D01*
X120306198Y-87461256D01*
X120306198Y-87461256D01*
G37*
X120306198Y-87461256D02*
X120142000Y-87503000D01*
X119931824Y-87411541D01*
X119893486Y-87209835D01*
X119972667Y-87079666D01*
X120188121Y-86992255D01*
X120359581Y-87103183D01*
X120396000Y-87249000D01*
X120306198Y-87461256D01*
G36*
X119634000Y-111252000D02*
X119634000Y-109787514D01*
X119640470Y-109128228D01*
X119663027Y-108683374D01*
X119706394Y-108413637D01*
X119775294Y-108279702D01*
X119818419Y-108252260D01*
X120000744Y-108216583D01*
X120127495Y-108294658D01*
X120208048Y-108518663D01*
X120251776Y-108920778D01*
X120268054Y-109533182D01*
X120269000Y-109798995D01*
X120269000Y-111252000D01*
X119634000Y-111252000D01*
X119634000Y-111252000D01*
G37*
X119634000Y-111252000D02*
X119634000Y-109787514D01*
X119640470Y-109128228D01*
X119663027Y-108683374D01*
X119706394Y-108413637D01*
X119775294Y-108279702D01*
X119818419Y-108252260D01*
X120000744Y-108216583D01*
X120127495Y-108294658D01*
X120208048Y-108518663D01*
X120251776Y-108920778D01*
X120268054Y-109533182D01*
X120269000Y-109798995D01*
X120269000Y-111252000D01*
X119634000Y-111252000D01*
G36*
X120375311Y-90017452D02*
X120372081Y-90063929D01*
X120335814Y-90407231D01*
X120243553Y-90572320D01*
X120021453Y-90634356D01*
X119792750Y-90653552D01*
X119429247Y-90654309D01*
X119269562Y-90580092D01*
X119253000Y-90515968D01*
X119307160Y-90297102D01*
X119337667Y-90254666D01*
X119525203Y-90181010D01*
X119646334Y-90170000D01*
X119846681Y-90059105D01*
X119910918Y-89885547D01*
X120033251Y-89642927D01*
X120181581Y-89557227D01*
X120323291Y-89564300D01*
X120380449Y-89697975D01*
X120375311Y-90017452D01*
X120375311Y-90017452D01*
G37*
X120375311Y-90017452D02*
X120372081Y-90063929D01*
X120335814Y-90407231D01*
X120243553Y-90572320D01*
X120021453Y-90634356D01*
X119792750Y-90653552D01*
X119429247Y-90654309D01*
X119269562Y-90580092D01*
X119253000Y-90515968D01*
X119307160Y-90297102D01*
X119337667Y-90254666D01*
X119525203Y-90181010D01*
X119646334Y-90170000D01*
X119846681Y-90059105D01*
X119910918Y-89885547D01*
X120033251Y-89642927D01*
X120181581Y-89557227D01*
X120323291Y-89564300D01*
X120380449Y-89697975D01*
X120375311Y-90017452D01*
G36*
X120332832Y-86704678D02*
X120200994Y-86722205D01*
X120181581Y-86718772D01*
X119983339Y-86572527D01*
X119910918Y-86390452D01*
X119850164Y-86211459D01*
X119687749Y-86128019D01*
X119351533Y-86106115D01*
X119307668Y-86106000D01*
X118954642Y-86089278D01*
X118789002Y-86018919D01*
X118745205Y-85864630D01*
X118745000Y-85845939D01*
X118767262Y-85704699D01*
X118872414Y-85631503D01*
X119118008Y-85610236D01*
X119538750Y-85623689D01*
X120332500Y-85661500D01*
X120372081Y-86212070D01*
X120382442Y-86554366D01*
X120332832Y-86704678D01*
X120332832Y-86704678D01*
G37*
X120332832Y-86704678D02*
X120200994Y-86722205D01*
X120181581Y-86718772D01*
X119983339Y-86572527D01*
X119910918Y-86390452D01*
X119850164Y-86211459D01*
X119687749Y-86128019D01*
X119351533Y-86106115D01*
X119307668Y-86106000D01*
X118954642Y-86089278D01*
X118789002Y-86018919D01*
X118745205Y-85864630D01*
X118745000Y-85845939D01*
X118767262Y-85704699D01*
X118872414Y-85631503D01*
X119118008Y-85610236D01*
X119538750Y-85623689D01*
X120332500Y-85661500D01*
X120372081Y-86212070D01*
X120382442Y-86554366D01*
X120332832Y-86704678D01*
G36*
X118936374Y-90631409D02*
X118723198Y-90655082D01*
X118468911Y-90549990D01*
X118385288Y-90375827D01*
X118446021Y-90257312D01*
X118674937Y-90158638D01*
X118897045Y-90227676D01*
X118998966Y-90428440D01*
X118999000Y-90432832D01*
X118936374Y-90631409D01*
X118936374Y-90631409D01*
G37*
X118936374Y-90631409D02*
X118723198Y-90655082D01*
X118468911Y-90549990D01*
X118385288Y-90375827D01*
X118446021Y-90257312D01*
X118674937Y-90158638D01*
X118897045Y-90227676D01*
X118998966Y-90428440D01*
X118999000Y-90432832D01*
X118936374Y-90631409D01*
G36*
X118361430Y-110020432D02*
X118344579Y-110354409D01*
X118299734Y-110532463D01*
X118213184Y-110603634D01*
X118071217Y-110616959D01*
X118046500Y-110617000D01*
X117896410Y-110607946D01*
X117803123Y-110548257D01*
X117753133Y-110389139D01*
X117732934Y-110081798D01*
X117729018Y-109577441D01*
X117729000Y-109470014D01*
X117738826Y-108889488D01*
X117772574Y-108520057D01*
X117836650Y-108319421D01*
X117913419Y-108252260D01*
X118113013Y-108219829D01*
X118246039Y-108325442D01*
X118324151Y-108600893D01*
X118359004Y-109077975D01*
X118364000Y-109481495D01*
X118361430Y-110020432D01*
X118361430Y-110020432D01*
G37*
X118361430Y-110020432D02*
X118344579Y-110354409D01*
X118299734Y-110532463D01*
X118213184Y-110603634D01*
X118071217Y-110616959D01*
X118046500Y-110617000D01*
X117896410Y-110607946D01*
X117803123Y-110548257D01*
X117753133Y-110389139D01*
X117732934Y-110081798D01*
X117729018Y-109577441D01*
X117729000Y-109470014D01*
X117738826Y-108889488D01*
X117772574Y-108520057D01*
X117836650Y-108319421D01*
X117913419Y-108252260D01*
X118113013Y-108219829D01*
X118246039Y-108325442D01*
X118324151Y-108600893D01*
X118359004Y-109077975D01*
X118364000Y-109481495D01*
X118361430Y-110020432D01*
G36*
X118020198Y-90636256D02*
X117856000Y-90678000D01*
X117643744Y-90588197D01*
X117602000Y-90424000D01*
X117691803Y-90211743D01*
X117856000Y-90170000D01*
X118068257Y-90259802D01*
X118110000Y-90424000D01*
X118020198Y-90636256D01*
X118020198Y-90636256D01*
G37*
X118020198Y-90636256D02*
X117856000Y-90678000D01*
X117643744Y-90588197D01*
X117602000Y-90424000D01*
X117691803Y-90211743D01*
X117856000Y-90170000D01*
X118068257Y-90259802D01*
X118110000Y-90424000D01*
X118020198Y-90636256D01*
G36*
X117176394Y-90588294D02*
X116998750Y-90655082D01*
X116775854Y-90631589D01*
X116713068Y-90435366D01*
X116713000Y-90424000D01*
X116771009Y-90220327D01*
X116986784Y-90191281D01*
X116998750Y-90192917D01*
X117222163Y-90296717D01*
X117284500Y-90424000D01*
X117176394Y-90588294D01*
X117176394Y-90588294D01*
G37*
X117176394Y-90588294D02*
X116998750Y-90655082D01*
X116775854Y-90631589D01*
X116713068Y-90435366D01*
X116713000Y-90424000D01*
X116771009Y-90220327D01*
X116986784Y-90191281D01*
X116998750Y-90192917D01*
X117222163Y-90296717D01*
X117284500Y-90424000D01*
X117176394Y-90588294D01*
G36*
X119611875Y-89147492D02*
X119584741Y-89448102D01*
X119531419Y-89629718D01*
X119447200Y-89737246D01*
X119423380Y-89755917D01*
X119195954Y-89827854D01*
X118784045Y-89879044D01*
X118256374Y-89908853D01*
X117681661Y-89916644D01*
X117128626Y-89901785D01*
X116665989Y-89863641D01*
X116362471Y-89801578D01*
X116323651Y-89784531D01*
X116120028Y-89538889D01*
X116078000Y-89280062D01*
X116107790Y-89047827D01*
X116236087Y-88880682D01*
X116521288Y-88719147D01*
X116711939Y-88634347D01*
X117394303Y-88219267D01*
X117985416Y-87630673D01*
X118408739Y-86946939D01*
X118446073Y-86858615D01*
X118592268Y-86538878D01*
X118744276Y-86398621D01*
X118988344Y-86376395D01*
X119110715Y-86385065D01*
X119570500Y-86423500D01*
X119606404Y-88009667D01*
X119617527Y-88682983D01*
X119611875Y-89147492D01*
X119611875Y-89147492D01*
G37*
X119611875Y-89147492D02*
X119584741Y-89448102D01*
X119531419Y-89629718D01*
X119447200Y-89737246D01*
X119423380Y-89755917D01*
X119195954Y-89827854D01*
X118784045Y-89879044D01*
X118256374Y-89908853D01*
X117681661Y-89916644D01*
X117128626Y-89901785D01*
X116665989Y-89863641D01*
X116362471Y-89801578D01*
X116323651Y-89784531D01*
X116120028Y-89538889D01*
X116078000Y-89280062D01*
X116107790Y-89047827D01*
X116236087Y-88880682D01*
X116521288Y-88719147D01*
X116711939Y-88634347D01*
X117394303Y-88219267D01*
X117985416Y-87630673D01*
X118408739Y-86946939D01*
X118446073Y-86858615D01*
X118592268Y-86538878D01*
X118744276Y-86398621D01*
X118988344Y-86376395D01*
X119110715Y-86385065D01*
X119570500Y-86423500D01*
X119606404Y-88009667D01*
X119617527Y-88682983D01*
X119611875Y-89147492D01*
G36*
X119022281Y-113931839D02*
X118758781Y-114325983D01*
X118391561Y-114736973D01*
X116885531Y-114740736D01*
X115379500Y-114744500D01*
X115339315Y-114395250D01*
X115299129Y-114046000D01*
X116291815Y-114038681D01*
X116850507Y-114023247D01*
X117381992Y-113989579D01*
X117776098Y-113944775D01*
X117792500Y-113941971D01*
X118122462Y-113862229D01*
X118277745Y-113730213D01*
X118336799Y-113472636D01*
X118341183Y-113429410D01*
X118340915Y-113067852D01*
X118236731Y-112814389D01*
X117995131Y-112651257D01*
X117582619Y-112560697D01*
X116965695Y-112524945D01*
X116629817Y-112522000D01*
X116041680Y-112519951D01*
X115661956Y-112506777D01*
X115445056Y-112471931D01*
X115345394Y-112404868D01*
X115317383Y-112295043D01*
X115316000Y-112218087D01*
X115390929Y-111953025D01*
X115516888Y-111837087D01*
X115716447Y-111807439D01*
X116113301Y-111783076D01*
X116650758Y-111766449D01*
X117272130Y-111760010D01*
X117298873Y-111760000D01*
X117971312Y-111764443D01*
X118431530Y-111781243D01*
X118721204Y-111815601D01*
X118882015Y-111872723D01*
X118955638Y-111957810D01*
X118959530Y-111967323D01*
X118967120Y-112247381D01*
X118915667Y-112380073D01*
X118872262Y-112677311D01*
X118957252Y-112903000D01*
X119115480Y-113431463D01*
X119022281Y-113931839D01*
X119022281Y-113931839D01*
G37*
X119022281Y-113931839D02*
X118758781Y-114325983D01*
X118391561Y-114736973D01*
X116885531Y-114740736D01*
X115379500Y-114744500D01*
X115339315Y-114395250D01*
X115299129Y-114046000D01*
X116291815Y-114038681D01*
X116850507Y-114023247D01*
X117381992Y-113989579D01*
X117776098Y-113944775D01*
X117792500Y-113941971D01*
X118122462Y-113862229D01*
X118277745Y-113730213D01*
X118336799Y-113472636D01*
X118341183Y-113429410D01*
X118340915Y-113067852D01*
X118236731Y-112814389D01*
X117995131Y-112651257D01*
X117582619Y-112560697D01*
X116965695Y-112524945D01*
X116629817Y-112522000D01*
X116041680Y-112519951D01*
X115661956Y-112506777D01*
X115445056Y-112471931D01*
X115345394Y-112404868D01*
X115317383Y-112295043D01*
X115316000Y-112218087D01*
X115390929Y-111953025D01*
X115516888Y-111837087D01*
X115716447Y-111807439D01*
X116113301Y-111783076D01*
X116650758Y-111766449D01*
X117272130Y-111760010D01*
X117298873Y-111760000D01*
X117971312Y-111764443D01*
X118431530Y-111781243D01*
X118721204Y-111815601D01*
X118882015Y-111872723D01*
X118955638Y-111957810D01*
X118959530Y-111967323D01*
X118967120Y-112247381D01*
X118915667Y-112380073D01*
X118872262Y-112677311D01*
X118957252Y-112903000D01*
X119115480Y-113431463D01*
X119022281Y-113931839D01*
G36*
X115316000Y-111252000D02*
X115316000Y-109800058D01*
X115319318Y-109171108D01*
X115334281Y-108750574D01*
X115368407Y-108492905D01*
X115429215Y-108352549D01*
X115524220Y-108283956D01*
X115568864Y-108267860D01*
X115833064Y-108236196D01*
X115949864Y-108266797D01*
X116004002Y-108422600D01*
X116045841Y-108786662D01*
X116071569Y-109313382D01*
X116078000Y-109798995D01*
X116078000Y-111252000D01*
X115316000Y-111252000D01*
X115316000Y-111252000D01*
G37*
X115316000Y-111252000D02*
X115316000Y-109800058D01*
X115319318Y-109171108D01*
X115334281Y-108750574D01*
X115368407Y-108492905D01*
X115429215Y-108352549D01*
X115524220Y-108283956D01*
X115568864Y-108267860D01*
X115833064Y-108236196D01*
X115949864Y-108266797D01*
X116004002Y-108422600D01*
X116045841Y-108786662D01*
X116071569Y-109313382D01*
X116078000Y-109798995D01*
X116078000Y-111252000D01*
X115316000Y-111252000D01*
G36*
X119053179Y-106635826D02*
X118754770Y-107070769D01*
X118591456Y-107226476D01*
X118435889Y-107331120D01*
X118235772Y-107394848D01*
X117938808Y-107427807D01*
X117492700Y-107440142D01*
X116845149Y-107441999D01*
X116841334Y-107442000D01*
X115299129Y-107442000D01*
X115339315Y-107092750D01*
X115379500Y-106743500D01*
X116705666Y-106707037D01*
X117273779Y-106679208D01*
X117754788Y-106633035D01*
X118086925Y-106575731D01*
X118197916Y-106532737D01*
X118335291Y-106276646D01*
X118349259Y-105921366D01*
X118243669Y-105587532D01*
X118164429Y-105482571D01*
X118009796Y-105387038D01*
X117744529Y-105325996D01*
X117322150Y-105293360D01*
X116696182Y-105283043D01*
X116640429Y-105283000D01*
X116049411Y-105280828D01*
X115666999Y-105267542D01*
X115447803Y-105232986D01*
X115346431Y-105167004D01*
X115317492Y-105059440D01*
X115316000Y-104986666D01*
X115348829Y-104719952D01*
X115400667Y-104605666D01*
X115552045Y-104574913D01*
X115908713Y-104549149D01*
X116421979Y-104530612D01*
X117043147Y-104521540D01*
X117242167Y-104521000D01*
X118999000Y-104521000D01*
X118999000Y-104827916D01*
X118950052Y-105080517D01*
X118864378Y-105179707D01*
X118816047Y-105314756D01*
X118927096Y-105603040D01*
X119111575Y-106150916D01*
X119053179Y-106635826D01*
X119053179Y-106635826D01*
G37*
X119053179Y-106635826D02*
X118754770Y-107070769D01*
X118591456Y-107226476D01*
X118435889Y-107331120D01*
X118235772Y-107394848D01*
X117938808Y-107427807D01*
X117492700Y-107440142D01*
X116845149Y-107441999D01*
X116841334Y-107442000D01*
X115299129Y-107442000D01*
X115339315Y-107092750D01*
X115379500Y-106743500D01*
X116705666Y-106707037D01*
X117273779Y-106679208D01*
X117754788Y-106633035D01*
X118086925Y-106575731D01*
X118197916Y-106532737D01*
X118335291Y-106276646D01*
X118349259Y-105921366D01*
X118243669Y-105587532D01*
X118164429Y-105482571D01*
X118009796Y-105387038D01*
X117744529Y-105325996D01*
X117322150Y-105293360D01*
X116696182Y-105283043D01*
X116640429Y-105283000D01*
X116049411Y-105280828D01*
X115666999Y-105267542D01*
X115447803Y-105232986D01*
X115346431Y-105167004D01*
X115317492Y-105059440D01*
X115316000Y-104986666D01*
X115348829Y-104719952D01*
X115400667Y-104605666D01*
X115552045Y-104574913D01*
X115908713Y-104549149D01*
X116421979Y-104530612D01*
X117043147Y-104521540D01*
X117242167Y-104521000D01*
X118999000Y-104521000D01*
X118999000Y-104827916D01*
X118950052Y-105080517D01*
X118864378Y-105179707D01*
X118816047Y-105314756D01*
X118927096Y-105603040D01*
X119111575Y-106150916D01*
X119053179Y-106635826D01*
G36*
X115316000Y-103632000D02*
X115316000Y-103335666D01*
X115348829Y-103068952D01*
X115400667Y-102954666D01*
X115548637Y-102928092D01*
X115909550Y-102904936D01*
X116442360Y-102886599D01*
X117106018Y-102874487D01*
X117859477Y-102870002D01*
X117877167Y-102870000D01*
X120269000Y-102870000D01*
X120269000Y-103632000D01*
X115316000Y-103632000D01*
X115316000Y-103632000D01*
G37*
X115316000Y-103632000D02*
X115316000Y-103335666D01*
X115348829Y-103068952D01*
X115400667Y-102954666D01*
X115548637Y-102928092D01*
X115909550Y-102904936D01*
X116442360Y-102886599D01*
X117106018Y-102874487D01*
X117859477Y-102870002D01*
X117877167Y-102870000D01*
X120269000Y-102870000D01*
X120269000Y-103632000D01*
X115316000Y-103632000D01*
G36*
X119080930Y-101209881D02*
X119002753Y-101525131D01*
X118823488Y-101876778D01*
X118623481Y-101998005D01*
X118441753Y-101905260D01*
X118317326Y-101614993D01*
X118285820Y-101222921D01*
X118271744Y-100848043D01*
X118190827Y-100661943D01*
X118084499Y-100611562D01*
X117901763Y-100673066D01*
X117689736Y-100943833D01*
X117538082Y-101219825D01*
X117181387Y-101734473D01*
X116767102Y-102045433D01*
X116338117Y-102159839D01*
X115937317Y-102084825D01*
X115607590Y-101827525D01*
X115391823Y-101395075D01*
X115330733Y-100852622D01*
X115352356Y-100444576D01*
X115389179Y-100115630D01*
X115404970Y-100036850D01*
X115541514Y-99864614D01*
X115802988Y-99846350D01*
X116048805Y-99918539D01*
X116110626Y-100105477D01*
X116102567Y-100203000D01*
X116046326Y-100728287D01*
X116041053Y-101053655D01*
X116095710Y-101229686D01*
X116219258Y-101306964D01*
X116301029Y-101323185D01*
X116548101Y-101281600D01*
X116758730Y-101045284D01*
X116809029Y-100957929D01*
X117157158Y-100390538D01*
X117480084Y-100035219D01*
X117816286Y-99858157D01*
X118101607Y-99822000D01*
X118570545Y-99928796D01*
X118904226Y-100222447D01*
X119081428Y-100662844D01*
X119080930Y-101209881D01*
X119080930Y-101209881D01*
G37*
X119080930Y-101209881D02*
X119002753Y-101525131D01*
X118823488Y-101876778D01*
X118623481Y-101998005D01*
X118441753Y-101905260D01*
X118317326Y-101614993D01*
X118285820Y-101222921D01*
X118271744Y-100848043D01*
X118190827Y-100661943D01*
X118084499Y-100611562D01*
X117901763Y-100673066D01*
X117689736Y-100943833D01*
X117538082Y-101219825D01*
X117181387Y-101734473D01*
X116767102Y-102045433D01*
X116338117Y-102159839D01*
X115937317Y-102084825D01*
X115607590Y-101827525D01*
X115391823Y-101395075D01*
X115330733Y-100852622D01*
X115352356Y-100444576D01*
X115389179Y-100115630D01*
X115404970Y-100036850D01*
X115541514Y-99864614D01*
X115802988Y-99846350D01*
X116048805Y-99918539D01*
X116110626Y-100105477D01*
X116102567Y-100203000D01*
X116046326Y-100728287D01*
X116041053Y-101053655D01*
X116095710Y-101229686D01*
X116219258Y-101306964D01*
X116301029Y-101323185D01*
X116548101Y-101281600D01*
X116758730Y-101045284D01*
X116809029Y-100957929D01*
X117157158Y-100390538D01*
X117480084Y-100035219D01*
X117816286Y-99858157D01*
X118101607Y-99822000D01*
X118570545Y-99928796D01*
X118904226Y-100222447D01*
X119081428Y-100662844D01*
X119080930Y-101209881D01*
G36*
X119044975Y-98311628D02*
X118960399Y-98590822D01*
X118760773Y-98842237D01*
X118588116Y-99006258D01*
X118220341Y-99293673D01*
X117879948Y-99420612D01*
X117603866Y-99441000D01*
X117094000Y-99441000D01*
X117094000Y-98171000D01*
X117090684Y-97593351D01*
X117074452Y-97223612D01*
X117035883Y-97015718D01*
X116965553Y-96923601D01*
X116854041Y-96901196D01*
X116834228Y-96901000D01*
X116520714Y-97008456D01*
X116216669Y-97273258D01*
X116003168Y-97609052D01*
X115951000Y-97841751D01*
X116005385Y-98204145D01*
X116102530Y-98491619D01*
X116189023Y-98753005D01*
X116124939Y-98900760D01*
X116070780Y-98940150D01*
X115832742Y-99044270D01*
X115749136Y-99058055D01*
X115576851Y-98943432D01*
X115434435Y-98633419D01*
X115341513Y-98186421D01*
X115316000Y-97769083D01*
X115336557Y-97365990D01*
X115430872Y-97079955D01*
X115647909Y-96798058D01*
X115809059Y-96632058D01*
X116095837Y-96361890D01*
X116333397Y-96214748D01*
X116619210Y-96154052D01*
X117050746Y-96143221D01*
X117110809Y-96143500D01*
X117720661Y-96180215D01*
X117748218Y-96187974D01*
X117748218Y-96955487D01*
X117724368Y-96967362D01*
X117652013Y-97126344D01*
X117611045Y-97441176D01*
X117600244Y-97832695D01*
X117618391Y-98221740D01*
X117664265Y-98529147D01*
X117736646Y-98675754D01*
X117750750Y-98679000D01*
X118030207Y-98565550D01*
X118253394Y-98279376D01*
X118361349Y-97901740D01*
X118364000Y-97833816D01*
X118299956Y-97503737D01*
X118141901Y-97201161D01*
X117940950Y-96995331D01*
X117748218Y-96955487D01*
X117748218Y-96187974D01*
X118161404Y-96304318D01*
X118512029Y-96548781D01*
X118766083Y-96834395D01*
X118964623Y-97172174D01*
X119051325Y-97583748D01*
X119062500Y-97891903D01*
X119044975Y-98311628D01*
X119044975Y-98311628D01*
G37*
X119044975Y-98311628D02*
X118960399Y-98590822D01*
X118760773Y-98842237D01*
X118588116Y-99006258D01*
X118220341Y-99293673D01*
X117879948Y-99420612D01*
X117603866Y-99441000D01*
X117094000Y-99441000D01*
X117094000Y-98171000D01*
X117090684Y-97593351D01*
X117074452Y-97223612D01*
X117035883Y-97015718D01*
X116965553Y-96923601D01*
X116854041Y-96901196D01*
X116834228Y-96901000D01*
X116520714Y-97008456D01*
X116216669Y-97273258D01*
X116003168Y-97609052D01*
X115951000Y-97841751D01*
X116005385Y-98204145D01*
X116102530Y-98491619D01*
X116189023Y-98753005D01*
X116124939Y-98900760D01*
X116070780Y-98940150D01*
X115832742Y-99044270D01*
X115749136Y-99058055D01*
X115576851Y-98943432D01*
X115434435Y-98633419D01*
X115341513Y-98186421D01*
X115316000Y-97769083D01*
X115336557Y-97365990D01*
X115430872Y-97079955D01*
X115647909Y-96798058D01*
X115809059Y-96632058D01*
X116095837Y-96361890D01*
X116333397Y-96214748D01*
X116619210Y-96154052D01*
X117050746Y-96143221D01*
X117110809Y-96143500D01*
X117720661Y-96180215D01*
X117748218Y-96187974D01*
X117748218Y-96955487D01*
X117724368Y-96967362D01*
X117652013Y-97126344D01*
X117611045Y-97441176D01*
X117600244Y-97832695D01*
X117618391Y-98221740D01*
X117664265Y-98529147D01*
X117736646Y-98675754D01*
X117750750Y-98679000D01*
X118030207Y-98565550D01*
X118253394Y-98279376D01*
X118361349Y-97901740D01*
X118364000Y-97833816D01*
X118299956Y-97503737D01*
X118141901Y-97201161D01*
X117940950Y-96995331D01*
X117748218Y-96955487D01*
X117748218Y-96187974D01*
X118161404Y-96304318D01*
X118512029Y-96548781D01*
X118766083Y-96834395D01*
X118964623Y-97172174D01*
X119051325Y-97583748D01*
X119062500Y-97891903D01*
X119044975Y-98311628D01*
G36*
X120368351Y-94184702D02*
X120271280Y-94759206D01*
X120095926Y-95095707D01*
X119843696Y-95192392D01*
X119638967Y-95125657D01*
X119440675Y-94944037D01*
X119454204Y-94764010D01*
X119575560Y-94304886D01*
X119601740Y-93778812D01*
X119526195Y-93330560D01*
X119519829Y-93313308D01*
X119222533Y-92870118D01*
X118733103Y-92592868D01*
X118051819Y-92481684D01*
X117703435Y-92484790D01*
X117191133Y-92529077D01*
X116850242Y-92615754D01*
X116598841Y-92768809D01*
X116532371Y-92827727D01*
X116182383Y-93282646D01*
X116022130Y-93778956D01*
X116070811Y-94249707D01*
X116102803Y-94325642D01*
X116260046Y-94562703D01*
X116489137Y-94662108D01*
X116772486Y-94678500D01*
X117108125Y-94654464D01*
X117274998Y-94551790D01*
X117348000Y-94361000D01*
X117498685Y-94098830D01*
X117671226Y-94043500D01*
X117814953Y-94078200D01*
X117897675Y-94220947D01*
X117942125Y-94529705D01*
X117957588Y-94773750D01*
X117995676Y-95504000D01*
X116912766Y-95504000D01*
X116383172Y-95499326D01*
X116046308Y-95474696D01*
X115840932Y-95414193D01*
X115705808Y-95301902D01*
X115607604Y-95164799D01*
X115432737Y-94730367D01*
X115343851Y-94156156D01*
X115343567Y-93542319D01*
X115434504Y-92989010D01*
X115543368Y-92710000D01*
X115969478Y-92185768D01*
X116580954Y-91833592D01*
X117375216Y-91654672D01*
X117865275Y-91630500D01*
X118399120Y-91643329D01*
X118770637Y-91695818D01*
X119070812Y-91808965D01*
X119342139Y-91971370D01*
X119891303Y-92479443D01*
X120241961Y-93128377D01*
X120376975Y-93881204D01*
X120368351Y-94184702D01*
X120368351Y-94184702D01*
G37*
X120368351Y-94184702D02*
X120271280Y-94759206D01*
X120095926Y-95095707D01*
X119843696Y-95192392D01*
X119638967Y-95125657D01*
X119440675Y-94944037D01*
X119454204Y-94764010D01*
X119575560Y-94304886D01*
X119601740Y-93778812D01*
X119526195Y-93330560D01*
X119519829Y-93313308D01*
X119222533Y-92870118D01*
X118733103Y-92592868D01*
X118051819Y-92481684D01*
X117703435Y-92484790D01*
X117191133Y-92529077D01*
X116850242Y-92615754D01*
X116598841Y-92768809D01*
X116532371Y-92827727D01*
X116182383Y-93282646D01*
X116022130Y-93778956D01*
X116070811Y-94249707D01*
X116102803Y-94325642D01*
X116260046Y-94562703D01*
X116489137Y-94662108D01*
X116772486Y-94678500D01*
X117108125Y-94654464D01*
X117274998Y-94551790D01*
X117348000Y-94361000D01*
X117498685Y-94098830D01*
X117671226Y-94043500D01*
X117814953Y-94078200D01*
X117897675Y-94220947D01*
X117942125Y-94529705D01*
X117957588Y-94773750D01*
X117995676Y-95504000D01*
X116912766Y-95504000D01*
X116383172Y-95499326D01*
X116046308Y-95474696D01*
X115840932Y-95414193D01*
X115705808Y-95301902D01*
X115607604Y-95164799D01*
X115432737Y-94730367D01*
X115343851Y-94156156D01*
X115343567Y-93542319D01*
X115434504Y-92989010D01*
X115543368Y-92710000D01*
X115969478Y-92185768D01*
X116580954Y-91833592D01*
X117375216Y-91654672D01*
X117865275Y-91630500D01*
X118399120Y-91643329D01*
X118770637Y-91695818D01*
X119070812Y-91808965D01*
X119342139Y-91971370D01*
X119891303Y-92479443D01*
X120241961Y-93128377D01*
X120376975Y-93881204D01*
X120368351Y-94184702D01*
G36*
X116429700Y-90605290D02*
X116296025Y-90662448D01*
X115976548Y-90657310D01*
X115930071Y-90654080D01*
X115379500Y-90614500D01*
X115341709Y-89746774D01*
X115328419Y-89288705D01*
X115346633Y-89032590D01*
X115408203Y-88927144D01*
X115524980Y-88921082D01*
X115532209Y-88922416D01*
X115684970Y-89018791D01*
X115768992Y-89271873D01*
X115798884Y-89559928D01*
X115841785Y-89932521D01*
X115930282Y-90120068D01*
X116098646Y-90191272D01*
X116115086Y-90193786D01*
X116354685Y-90317709D01*
X116436773Y-90463580D01*
X116429700Y-90605290D01*
X116429700Y-90605290D01*
G37*
X116429700Y-90605290D02*
X116296025Y-90662448D01*
X115976548Y-90657310D01*
X115930071Y-90654080D01*
X115379500Y-90614500D01*
X115341709Y-89746774D01*
X115328419Y-89288705D01*
X115346633Y-89032590D01*
X115408203Y-88927144D01*
X115524980Y-88921082D01*
X115532209Y-88922416D01*
X115684970Y-89018791D01*
X115768992Y-89271873D01*
X115798884Y-89559928D01*
X115841785Y-89932521D01*
X115930282Y-90120068D01*
X116098646Y-90191272D01*
X116115086Y-90193786D01*
X116354685Y-90317709D01*
X116436773Y-90463580D01*
X116429700Y-90605290D01*
G36*
X118307991Y-86316628D02*
X118141523Y-86752551D01*
X117886419Y-87209781D01*
X117557729Y-87642190D01*
X117406564Y-87800260D01*
X116853194Y-88208928D01*
X116288184Y-88456746D01*
X115802027Y-88589894D01*
X115508550Y-88632374D01*
X115362069Y-88581258D01*
X115316900Y-88433616D01*
X115316000Y-88394419D01*
X115421946Y-88168113D01*
X115665250Y-88066596D01*
X116452670Y-87782153D01*
X117087319Y-87318999D01*
X117541040Y-86702832D01*
X117741670Y-86171798D01*
X117868525Y-85792514D01*
X118018682Y-85620782D01*
X118125077Y-85598000D01*
X118314818Y-85693224D01*
X118370772Y-85948143D01*
X118307991Y-86316628D01*
X118307991Y-86316628D01*
G37*
X118307991Y-86316628D02*
X118141523Y-86752551D01*
X117886419Y-87209781D01*
X117557729Y-87642190D01*
X117406564Y-87800260D01*
X116853194Y-88208928D01*
X116288184Y-88456746D01*
X115802027Y-88589894D01*
X115508550Y-88632374D01*
X115362069Y-88581258D01*
X115316900Y-88433616D01*
X115316000Y-88394419D01*
X115421946Y-88168113D01*
X115665250Y-88066596D01*
X116452670Y-87782153D01*
X117087319Y-87318999D01*
X117541040Y-86702832D01*
X117741670Y-86171798D01*
X117868525Y-85792514D01*
X118018682Y-85620782D01*
X118125077Y-85598000D01*
X118314818Y-85693224D01*
X118370772Y-85948143D01*
X118307991Y-86316628D01*
G36*
X117358666Y-86440098D02*
X117046480Y-86938596D01*
X116593673Y-87359100D01*
X116055472Y-87643407D01*
X115772306Y-87716185D01*
X115468936Y-87747034D01*
X115340578Y-87685667D01*
X115316000Y-87529466D01*
X115410122Y-87304214D01*
X115717125Y-87136737D01*
X115756344Y-87123371D01*
X116210012Y-86871166D01*
X116614336Y-86472256D01*
X116881726Y-86018509D01*
X116917305Y-85905711D01*
X117058595Y-85656461D01*
X117254774Y-85588532D01*
X117420865Y-85699470D01*
X117475000Y-85921806D01*
X117358666Y-86440098D01*
X117358666Y-86440098D01*
G37*
X117358666Y-86440098D02*
X117046480Y-86938596D01*
X116593673Y-87359100D01*
X116055472Y-87643407D01*
X115772306Y-87716185D01*
X115468936Y-87747034D01*
X115340578Y-87685667D01*
X115316000Y-87529466D01*
X115410122Y-87304214D01*
X115717125Y-87136737D01*
X115756344Y-87123371D01*
X116210012Y-86871166D01*
X116614336Y-86472256D01*
X116881726Y-86018509D01*
X116917305Y-85905711D01*
X117058595Y-85656461D01*
X117254774Y-85588532D01*
X117420865Y-85699470D01*
X117475000Y-85921806D01*
X117358666Y-86440098D01*
G36*
X116485373Y-86148571D02*
X116237643Y-86465418D01*
X115924037Y-86731085D01*
X115625781Y-86864343D01*
X115579770Y-86868000D01*
X115362729Y-86789706D01*
X115311750Y-86611793D01*
X115418923Y-86419709D01*
X115631566Y-86308333D01*
X115928451Y-86114825D01*
X116026334Y-85913565D01*
X116162258Y-85676699D01*
X116357502Y-85591185D01*
X116526615Y-85664930D01*
X116586000Y-85861769D01*
X116485373Y-86148571D01*
X116485373Y-86148571D01*
G37*
X116485373Y-86148571D02*
X116237643Y-86465418D01*
X115924037Y-86731085D01*
X115625781Y-86864343D01*
X115579770Y-86868000D01*
X115362729Y-86789706D01*
X115311750Y-86611793D01*
X115418923Y-86419709D01*
X115631566Y-86308333D01*
X115928451Y-86114825D01*
X116026334Y-85913565D01*
X116162258Y-85676699D01*
X116357502Y-85591185D01*
X116526615Y-85664930D01*
X116586000Y-85861769D01*
X116485373Y-86148571D01*
G36*
X115783517Y-85816285D02*
X115671600Y-85953599D01*
X115455406Y-86096689D01*
X115335754Y-86008792D01*
X115316000Y-85852000D01*
X115405803Y-85639743D01*
X115570000Y-85598000D01*
X115791106Y-85654859D01*
X115783517Y-85816285D01*
X115783517Y-85816285D01*
G37*
X115783517Y-85816285D02*
X115671600Y-85953599D01*
X115455406Y-86096689D01*
X115335754Y-86008792D01*
X115316000Y-85852000D01*
X115405803Y-85639743D01*
X115570000Y-85598000D01*
X115791106Y-85654859D01*
X115783517Y-85816285D01*
D12*
%TO.C,U1*%
X122027000Y-81439000D02*
X122027000Y-83889000D01*
X125247000Y-83239000D02*
X125247000Y-81439000D01*
D11*
%TO.C,U2*%
X145763901Y-98791575D02*
X144756274Y-97783948D01*
X151049524Y-103759000D02*
X150819714Y-103529190D01*
X145923000Y-108885524D02*
X145693190Y-108655714D01*
X140796476Y-103759000D02*
X141026286Y-103988810D01*
X145923000Y-98632476D02*
X146152810Y-98862286D01*
X140796476Y-103759000D02*
X141026286Y-103529190D01*
X145923000Y-108885524D02*
X146152810Y-108655714D01*
X151049524Y-103759000D02*
X150819714Y-103988810D01*
X145923000Y-98632476D02*
X145763901Y-98791575D01*
D12*
%TO.C,SW1*%
X160365000Y-85793333D02*
X161635000Y-85793333D01*
X161565000Y-87000000D02*
X161565000Y-85793333D01*
X161445000Y-87000000D02*
X161445000Y-85793333D01*
X161325000Y-87000000D02*
X161325000Y-85793333D01*
X161205000Y-87000000D02*
X161205000Y-85793333D01*
X161085000Y-87000000D02*
X161085000Y-85793333D01*
X160965000Y-87000000D02*
X160965000Y-85793333D01*
X160845000Y-87000000D02*
X160845000Y-85793333D01*
X160725000Y-87000000D02*
X160725000Y-85793333D01*
X160605000Y-87000000D02*
X160605000Y-85793333D01*
X160485000Y-87000000D02*
X160485000Y-85793333D01*
X160365000Y-83380000D02*
X160365000Y-87000000D01*
X161635000Y-83380000D02*
X160365000Y-83380000D01*
X161635000Y-87000000D02*
X161635000Y-83380000D01*
X160365000Y-87000000D02*
X161635000Y-87000000D01*
X158650000Y-88840000D02*
X159960000Y-88840000D01*
X158650000Y-88840000D02*
X158650000Y-87457000D01*
X161990000Y-81779000D02*
X163110000Y-81779000D01*
X158890000Y-81779000D02*
X160010000Y-81779000D01*
X162040000Y-88600000D02*
X163110000Y-88600000D01*
X158890000Y-88600000D02*
X159960000Y-88600000D01*
X163110000Y-88600000D02*
X163110000Y-81779000D01*
X158890000Y-88600000D02*
X158890000Y-81779000D01*
%TO.C,P3*%
D11*
X149042380Y-94718095D02*
X148042380Y-94718095D01*
X148042380Y-94337142D01*
X148090000Y-94241904D01*
X148137619Y-94194285D01*
X148232857Y-94146666D01*
X148375714Y-94146666D01*
X148470952Y-94194285D01*
X148518571Y-94241904D01*
X148566190Y-94337142D01*
X148566190Y-94718095D01*
X148042380Y-93813333D02*
X148042380Y-93194285D01*
X148423333Y-93527619D01*
X148423333Y-93384761D01*
X148470952Y-93289523D01*
X148518571Y-93241904D01*
X148613809Y-93194285D01*
X148851904Y-93194285D01*
X148947142Y-93241904D01*
X148994761Y-93289523D01*
X149042380Y-93384761D01*
X149042380Y-93670476D01*
X148994761Y-93765714D01*
X148947142Y-93813333D01*
%TO.C,P1*%
X141676380Y-99798095D02*
X140676380Y-99798095D01*
X140676380Y-99417142D01*
X140724000Y-99321904D01*
X140771619Y-99274285D01*
X140866857Y-99226666D01*
X141009714Y-99226666D01*
X141104952Y-99274285D01*
X141152571Y-99321904D01*
X141200190Y-99417142D01*
X141200190Y-99798095D01*
X141676380Y-98274285D02*
X141676380Y-98845714D01*
X141676380Y-98560000D02*
X140676380Y-98560000D01*
X140819238Y-98655238D01*
X140914476Y-98750476D01*
X140962095Y-98845714D01*
%TO.C,P2*%
X145311904Y-85542380D02*
X145311904Y-84542380D01*
X145692857Y-84542380D01*
X145788095Y-84590000D01*
X145835714Y-84637619D01*
X145883333Y-84732857D01*
X145883333Y-84875714D01*
X145835714Y-84970952D01*
X145788095Y-85018571D01*
X145692857Y-85066190D01*
X145311904Y-85066190D01*
X146264285Y-84637619D02*
X146311904Y-84590000D01*
X146407142Y-84542380D01*
X146645238Y-84542380D01*
X146740476Y-84590000D01*
X146788095Y-84637619D01*
X146835714Y-84732857D01*
X146835714Y-84828095D01*
X146788095Y-84970952D01*
X146216666Y-85542380D01*
X146835714Y-85542380D01*
%TO.C,P4*%
X151836380Y-86844095D02*
X150836380Y-86844095D01*
X150836380Y-86463142D01*
X150884000Y-86367904D01*
X150931619Y-86320285D01*
X151026857Y-86272666D01*
X151169714Y-86272666D01*
X151264952Y-86320285D01*
X151312571Y-86367904D01*
X151360190Y-86463142D01*
X151360190Y-86844095D01*
X151169714Y-85415523D02*
X151836380Y-85415523D01*
X150788761Y-85653619D02*
X151503047Y-85891714D01*
X151503047Y-85272666D01*
%TO.C,C1*%
X134892142Y-82299166D02*
X134939761Y-82346785D01*
X134987380Y-82489642D01*
X134987380Y-82584880D01*
X134939761Y-82727738D01*
X134844523Y-82822976D01*
X134749285Y-82870595D01*
X134558809Y-82918214D01*
X134415952Y-82918214D01*
X134225476Y-82870595D01*
X134130238Y-82822976D01*
X134035000Y-82727738D01*
X133987380Y-82584880D01*
X133987380Y-82489642D01*
X134035000Y-82346785D01*
X134082619Y-82299166D01*
X134987380Y-81346785D02*
X134987380Y-81918214D01*
X134987380Y-81632500D02*
X133987380Y-81632500D01*
X134130238Y-81727738D01*
X134225476Y-81822976D01*
X134273095Y-81918214D01*
%TO.C,C2*%
X146300833Y-112202142D02*
X146253214Y-112249761D01*
X146110357Y-112297380D01*
X146015119Y-112297380D01*
X145872261Y-112249761D01*
X145777023Y-112154523D01*
X145729404Y-112059285D01*
X145681785Y-111868809D01*
X145681785Y-111725952D01*
X145729404Y-111535476D01*
X145777023Y-111440238D01*
X145872261Y-111345000D01*
X146015119Y-111297380D01*
X146110357Y-111297380D01*
X146253214Y-111345000D01*
X146300833Y-111392619D01*
X146681785Y-111392619D02*
X146729404Y-111345000D01*
X146824642Y-111297380D01*
X147062738Y-111297380D01*
X147157976Y-111345000D01*
X147205595Y-111392619D01*
X147253214Y-111487857D01*
X147253214Y-111583095D01*
X147205595Y-111725952D01*
X146634166Y-112297380D01*
X147253214Y-112297380D01*
%TO.C,C3*%
X127907142Y-95634166D02*
X127954761Y-95681785D01*
X128002380Y-95824642D01*
X128002380Y-95919880D01*
X127954761Y-96062738D01*
X127859523Y-96157976D01*
X127764285Y-96205595D01*
X127573809Y-96253214D01*
X127430952Y-96253214D01*
X127240476Y-96205595D01*
X127145238Y-96157976D01*
X127050000Y-96062738D01*
X127002380Y-95919880D01*
X127002380Y-95824642D01*
X127050000Y-95681785D01*
X127097619Y-95634166D01*
X127002380Y-95300833D02*
X127002380Y-94681785D01*
X127383333Y-95015119D01*
X127383333Y-94872261D01*
X127430952Y-94777023D01*
X127478571Y-94729404D01*
X127573809Y-94681785D01*
X127811904Y-94681785D01*
X127907142Y-94729404D01*
X127954761Y-94777023D01*
X128002380Y-94872261D01*
X128002380Y-95157976D01*
X127954761Y-95253214D01*
X127907142Y-95300833D01*
%TO.C,C4*%
X124097142Y-95634166D02*
X124144761Y-95681785D01*
X124192380Y-95824642D01*
X124192380Y-95919880D01*
X124144761Y-96062738D01*
X124049523Y-96157976D01*
X123954285Y-96205595D01*
X123763809Y-96253214D01*
X123620952Y-96253214D01*
X123430476Y-96205595D01*
X123335238Y-96157976D01*
X123240000Y-96062738D01*
X123192380Y-95919880D01*
X123192380Y-95824642D01*
X123240000Y-95681785D01*
X123287619Y-95634166D01*
X123525714Y-94777023D02*
X124192380Y-94777023D01*
X123144761Y-95015119D02*
X123859047Y-95253214D01*
X123859047Y-94634166D01*
%TO.C,D1*%
X134817380Y-93203095D02*
X133817380Y-93203095D01*
X133817380Y-92965000D01*
X133865000Y-92822142D01*
X133960238Y-92726904D01*
X134055476Y-92679285D01*
X134245952Y-92631666D01*
X134388809Y-92631666D01*
X134579285Y-92679285D01*
X134674523Y-92726904D01*
X134769761Y-92822142D01*
X134817380Y-92965000D01*
X134817380Y-93203095D01*
X134817380Y-91679285D02*
X134817380Y-92250714D01*
X134817380Y-91965000D02*
X133817380Y-91965000D01*
X133960238Y-92060238D01*
X134055476Y-92155476D01*
X134103095Y-92250714D01*
%TO.C,D2*%
X164869904Y-109164380D02*
X164869904Y-108164380D01*
X165108000Y-108164380D01*
X165250857Y-108212000D01*
X165346095Y-108307238D01*
X165393714Y-108402476D01*
X165441333Y-108592952D01*
X165441333Y-108735809D01*
X165393714Y-108926285D01*
X165346095Y-109021523D01*
X165250857Y-109116761D01*
X165108000Y-109164380D01*
X164869904Y-109164380D01*
X165822285Y-108259619D02*
X165869904Y-108212000D01*
X165965142Y-108164380D01*
X166203238Y-108164380D01*
X166298476Y-108212000D01*
X166346095Y-108259619D01*
X166393714Y-108354857D01*
X166393714Y-108450095D01*
X166346095Y-108592952D01*
X165774666Y-109164380D01*
X166393714Y-109164380D01*
%TO.C,J1*%
X123666666Y-98142380D02*
X123666666Y-98856666D01*
X123619047Y-98999523D01*
X123523809Y-99094761D01*
X123380952Y-99142380D01*
X123285714Y-99142380D01*
X124666666Y-99142380D02*
X124095238Y-99142380D01*
X124380952Y-99142380D02*
X124380952Y-98142380D01*
X124285714Y-98285238D01*
X124190476Y-98380476D01*
X124095238Y-98428095D01*
%TO.C,JP1*%
X126674666Y-85431380D02*
X126674666Y-86145666D01*
X126627047Y-86288523D01*
X126531809Y-86383761D01*
X126388952Y-86431380D01*
X126293714Y-86431380D01*
X127150857Y-86431380D02*
X127150857Y-85431380D01*
X127531809Y-85431380D01*
X127627047Y-85479000D01*
X127674666Y-85526619D01*
X127722285Y-85621857D01*
X127722285Y-85764714D01*
X127674666Y-85859952D01*
X127627047Y-85907571D01*
X127531809Y-85955190D01*
X127150857Y-85955190D01*
X128674666Y-86431380D02*
X128103238Y-86431380D01*
X128388952Y-86431380D02*
X128388952Y-85431380D01*
X128293714Y-85574238D01*
X128198476Y-85669476D01*
X128103238Y-85717095D01*
%TO.C,JP2*%
X119046880Y-90812833D02*
X119761166Y-90812833D01*
X119904023Y-90860452D01*
X119999261Y-90955690D01*
X120046880Y-91098547D01*
X120046880Y-91193785D01*
X120046880Y-90336642D02*
X119046880Y-90336642D01*
X119046880Y-89955690D01*
X119094500Y-89860452D01*
X119142119Y-89812833D01*
X119237357Y-89765214D01*
X119380214Y-89765214D01*
X119475452Y-89812833D01*
X119523071Y-89860452D01*
X119570690Y-89955690D01*
X119570690Y-90336642D01*
X119142119Y-89384261D02*
X119094500Y-89336642D01*
X119046880Y-89241404D01*
X119046880Y-89003309D01*
X119094500Y-88908071D01*
X119142119Y-88860452D01*
X119237357Y-88812833D01*
X119332595Y-88812833D01*
X119475452Y-88860452D01*
X120046880Y-89431880D01*
X120046880Y-88812833D01*
%TO.C,R1*%
X131517380Y-88041666D02*
X131041190Y-88375000D01*
X131517380Y-88613095D02*
X130517380Y-88613095D01*
X130517380Y-88232142D01*
X130565000Y-88136904D01*
X130612619Y-88089285D01*
X130707857Y-88041666D01*
X130850714Y-88041666D01*
X130945952Y-88089285D01*
X130993571Y-88136904D01*
X131041190Y-88232142D01*
X131041190Y-88613095D01*
X131517380Y-87089285D02*
X131517380Y-87660714D01*
X131517380Y-87375000D02*
X130517380Y-87375000D01*
X130660238Y-87470238D01*
X130755476Y-87565476D01*
X130803095Y-87660714D01*
%TO.C,R2*%
X163012380Y-90336666D02*
X162536190Y-90670000D01*
X163012380Y-90908095D02*
X162012380Y-90908095D01*
X162012380Y-90527142D01*
X162060000Y-90431904D01*
X162107619Y-90384285D01*
X162202857Y-90336666D01*
X162345714Y-90336666D01*
X162440952Y-90384285D01*
X162488571Y-90431904D01*
X162536190Y-90527142D01*
X162536190Y-90908095D01*
X162107619Y-89955714D02*
X162060000Y-89908095D01*
X162012380Y-89812857D01*
X162012380Y-89574761D01*
X162060000Y-89479523D01*
X162107619Y-89431904D01*
X162202857Y-89384285D01*
X162298095Y-89384285D01*
X162440952Y-89431904D01*
X163012380Y-90003333D01*
X163012380Y-89384285D01*
%TO.C,R3*%
X160472380Y-90336666D02*
X159996190Y-90670000D01*
X160472380Y-90908095D02*
X159472380Y-90908095D01*
X159472380Y-90527142D01*
X159520000Y-90431904D01*
X159567619Y-90384285D01*
X159662857Y-90336666D01*
X159805714Y-90336666D01*
X159900952Y-90384285D01*
X159948571Y-90431904D01*
X159996190Y-90527142D01*
X159996190Y-90908095D01*
X159472380Y-90003333D02*
X159472380Y-89384285D01*
X159853333Y-89717619D01*
X159853333Y-89574761D01*
X159900952Y-89479523D01*
X159948571Y-89431904D01*
X160043809Y-89384285D01*
X160281904Y-89384285D01*
X160377142Y-89431904D01*
X160424761Y-89479523D01*
X160472380Y-89574761D01*
X160472380Y-89860476D01*
X160424761Y-89955714D01*
X160377142Y-90003333D01*
%TO.C,R4*%
X128493333Y-81352380D02*
X128160000Y-80876190D01*
X127921904Y-81352380D02*
X127921904Y-80352380D01*
X128302857Y-80352380D01*
X128398095Y-80400000D01*
X128445714Y-80447619D01*
X128493333Y-80542857D01*
X128493333Y-80685714D01*
X128445714Y-80780952D01*
X128398095Y-80828571D01*
X128302857Y-80876190D01*
X127921904Y-80876190D01*
X129350476Y-80685714D02*
X129350476Y-81352380D01*
X129112380Y-80304761D02*
X128874285Y-81019047D01*
X129493333Y-81019047D01*
%TO.C,R5*%
X165441333Y-111704380D02*
X165108000Y-111228190D01*
X164869904Y-111704380D02*
X164869904Y-110704380D01*
X165250857Y-110704380D01*
X165346095Y-110752000D01*
X165393714Y-110799619D01*
X165441333Y-110894857D01*
X165441333Y-111037714D01*
X165393714Y-111132952D01*
X165346095Y-111180571D01*
X165250857Y-111228190D01*
X164869904Y-111228190D01*
X166346095Y-110704380D02*
X165869904Y-110704380D01*
X165822285Y-111180571D01*
X165869904Y-111132952D01*
X165965142Y-111085333D01*
X166203238Y-111085333D01*
X166298476Y-111132952D01*
X166346095Y-111180571D01*
X166393714Y-111275809D01*
X166393714Y-111513904D01*
X166346095Y-111609142D01*
X166298476Y-111656761D01*
X166203238Y-111704380D01*
X165965142Y-111704380D01*
X165869904Y-111656761D01*
X165822285Y-111609142D01*
%TO.C,S1*%
X119238095Y-122324761D02*
X119380952Y-122372380D01*
X119619047Y-122372380D01*
X119714285Y-122324761D01*
X119761904Y-122277142D01*
X119809523Y-122181904D01*
X119809523Y-122086666D01*
X119761904Y-121991428D01*
X119714285Y-121943809D01*
X119619047Y-121896190D01*
X119428571Y-121848571D01*
X119333333Y-121800952D01*
X119285714Y-121753333D01*
X119238095Y-121658095D01*
X119238095Y-121562857D01*
X119285714Y-121467619D01*
X119333333Y-121420000D01*
X119428571Y-121372380D01*
X119666666Y-121372380D01*
X119809523Y-121420000D01*
X120761904Y-122372380D02*
X120190476Y-122372380D01*
X120476190Y-122372380D02*
X120476190Y-121372380D01*
X120380952Y-121515238D01*
X120285714Y-121610476D01*
X120190476Y-121658095D01*
%TO.C,S3*%
X155238095Y-122324761D02*
X155380952Y-122372380D01*
X155619047Y-122372380D01*
X155714285Y-122324761D01*
X155761904Y-122277142D01*
X155809523Y-122181904D01*
X155809523Y-122086666D01*
X155761904Y-121991428D01*
X155714285Y-121943809D01*
X155619047Y-121896190D01*
X155428571Y-121848571D01*
X155333333Y-121800952D01*
X155285714Y-121753333D01*
X155238095Y-121658095D01*
X155238095Y-121562857D01*
X155285714Y-121467619D01*
X155333333Y-121420000D01*
X155428571Y-121372380D01*
X155666666Y-121372380D01*
X155809523Y-121420000D01*
X156142857Y-121372380D02*
X156761904Y-121372380D01*
X156428571Y-121753333D01*
X156571428Y-121753333D01*
X156666666Y-121800952D01*
X156714285Y-121848571D01*
X156761904Y-121943809D01*
X156761904Y-122181904D01*
X156714285Y-122277142D01*
X156666666Y-122324761D01*
X156571428Y-122372380D01*
X156285714Y-122372380D01*
X156190476Y-122324761D01*
X156142857Y-122277142D01*
%TO.C,S4*%
X131318095Y-122324761D02*
X131460952Y-122372380D01*
X131699047Y-122372380D01*
X131794285Y-122324761D01*
X131841904Y-122277142D01*
X131889523Y-122181904D01*
X131889523Y-122086666D01*
X131841904Y-121991428D01*
X131794285Y-121943809D01*
X131699047Y-121896190D01*
X131508571Y-121848571D01*
X131413333Y-121800952D01*
X131365714Y-121753333D01*
X131318095Y-121658095D01*
X131318095Y-121562857D01*
X131365714Y-121467619D01*
X131413333Y-121420000D01*
X131508571Y-121372380D01*
X131746666Y-121372380D01*
X131889523Y-121420000D01*
X132746666Y-121705714D02*
X132746666Y-122372380D01*
X132508571Y-121324761D02*
X132270476Y-122039047D01*
X132889523Y-122039047D01*
%TO.C,S5*%
X166878095Y-122324761D02*
X167020952Y-122372380D01*
X167259047Y-122372380D01*
X167354285Y-122324761D01*
X167401904Y-122277142D01*
X167449523Y-122181904D01*
X167449523Y-122086666D01*
X167401904Y-121991428D01*
X167354285Y-121943809D01*
X167259047Y-121896190D01*
X167068571Y-121848571D01*
X166973333Y-121800952D01*
X166925714Y-121753333D01*
X166878095Y-121658095D01*
X166878095Y-121562857D01*
X166925714Y-121467619D01*
X166973333Y-121420000D01*
X167068571Y-121372380D01*
X167306666Y-121372380D01*
X167449523Y-121420000D01*
X168354285Y-121372380D02*
X167878095Y-121372380D01*
X167830476Y-121848571D01*
X167878095Y-121800952D01*
X167973333Y-121753333D01*
X168211428Y-121753333D01*
X168306666Y-121800952D01*
X168354285Y-121848571D01*
X168401904Y-121943809D01*
X168401904Y-122181904D01*
X168354285Y-122277142D01*
X168306666Y-122324761D01*
X168211428Y-122372380D01*
X167973333Y-122372380D01*
X167878095Y-122324761D01*
X167830476Y-122277142D01*
%TO.C,S6*%
X143383095Y-122324761D02*
X143525952Y-122372380D01*
X143764047Y-122372380D01*
X143859285Y-122324761D01*
X143906904Y-122277142D01*
X143954523Y-122181904D01*
X143954523Y-122086666D01*
X143906904Y-121991428D01*
X143859285Y-121943809D01*
X143764047Y-121896190D01*
X143573571Y-121848571D01*
X143478333Y-121800952D01*
X143430714Y-121753333D01*
X143383095Y-121658095D01*
X143383095Y-121562857D01*
X143430714Y-121467619D01*
X143478333Y-121420000D01*
X143573571Y-121372380D01*
X143811666Y-121372380D01*
X143954523Y-121420000D01*
X144811666Y-121372380D02*
X144621190Y-121372380D01*
X144525952Y-121420000D01*
X144478333Y-121467619D01*
X144383095Y-121610476D01*
X144335476Y-121800952D01*
X144335476Y-122181904D01*
X144383095Y-122277142D01*
X144430714Y-122324761D01*
X144525952Y-122372380D01*
X144716428Y-122372380D01*
X144811666Y-122324761D01*
X144859285Y-122277142D01*
X144906904Y-122181904D01*
X144906904Y-121943809D01*
X144859285Y-121848571D01*
X144811666Y-121800952D01*
X144716428Y-121753333D01*
X144525952Y-121753333D01*
X144430714Y-121800952D01*
X144383095Y-121848571D01*
X144335476Y-121943809D01*
%TO.C,Y1*%
X136978190Y-102865190D02*
X137454380Y-102865190D01*
X136454380Y-103198523D02*
X136978190Y-102865190D01*
X136454380Y-102531857D01*
X137454380Y-101674714D02*
X137454380Y-102246142D01*
X137454380Y-101960428D02*
X136454380Y-101960428D01*
X136597238Y-102055666D01*
X136692476Y-102150904D01*
X136740095Y-102246142D01*
%TO.C,JP3*%
X164342380Y-106179833D02*
X165056666Y-106179833D01*
X165199523Y-106227452D01*
X165294761Y-106322690D01*
X165342380Y-106465547D01*
X165342380Y-106560785D01*
X165342380Y-105703642D02*
X164342380Y-105703642D01*
X164342380Y-105322690D01*
X164390000Y-105227452D01*
X164437619Y-105179833D01*
X164532857Y-105132214D01*
X164675714Y-105132214D01*
X164770952Y-105179833D01*
X164818571Y-105227452D01*
X164866190Y-105322690D01*
X164866190Y-105703642D01*
X164342380Y-104798880D02*
X164342380Y-104179833D01*
X164723333Y-104513166D01*
X164723333Y-104370309D01*
X164770952Y-104275071D01*
X164818571Y-104227452D01*
X164913809Y-104179833D01*
X165151904Y-104179833D01*
X165247142Y-104227452D01*
X165294761Y-104275071D01*
X165342380Y-104370309D01*
X165342380Y-104656023D01*
X165294761Y-104751261D01*
X165247142Y-104798880D01*
%TO.C,JP4*%
X164532880Y-110688333D02*
X165247166Y-110688333D01*
X165390023Y-110735952D01*
X165485261Y-110831190D01*
X165532880Y-110974047D01*
X165532880Y-111069285D01*
X165532880Y-110212142D02*
X164532880Y-110212142D01*
X164532880Y-109831190D01*
X164580500Y-109735952D01*
X164628119Y-109688333D01*
X164723357Y-109640714D01*
X164866214Y-109640714D01*
X164961452Y-109688333D01*
X165009071Y-109735952D01*
X165056690Y-109831190D01*
X165056690Y-110212142D01*
X164866214Y-108783571D02*
X165532880Y-108783571D01*
X164485261Y-109021666D02*
X165199547Y-109259761D01*
X165199547Y-108640714D01*
%TO.C,Q1*%
X159591261Y-102679119D02*
X159496023Y-102631500D01*
X159400785Y-102536261D01*
X159257928Y-102393404D01*
X159162690Y-102345785D01*
X159067452Y-102345785D01*
X159115071Y-102583880D02*
X159019833Y-102536261D01*
X158924595Y-102441023D01*
X158876976Y-102250547D01*
X158876976Y-101917214D01*
X158924595Y-101726738D01*
X159019833Y-101631500D01*
X159115071Y-101583880D01*
X159305547Y-101583880D01*
X159400785Y-101631500D01*
X159496023Y-101726738D01*
X159543642Y-101917214D01*
X159543642Y-102250547D01*
X159496023Y-102441023D01*
X159400785Y-102536261D01*
X159305547Y-102583880D01*
X159115071Y-102583880D01*
X160496023Y-102583880D02*
X159924595Y-102583880D01*
X160210309Y-102583880D02*
X160210309Y-101583880D01*
X160115071Y-101726738D01*
X160019833Y-101821976D01*
X159924595Y-101869595D01*
%TO.C,Q2*%
X163925261Y-103060119D02*
X163830023Y-103012500D01*
X163734785Y-102917261D01*
X163591928Y-102774404D01*
X163496690Y-102726785D01*
X163401452Y-102726785D01*
X163449071Y-102964880D02*
X163353833Y-102917261D01*
X163258595Y-102822023D01*
X163210976Y-102631547D01*
X163210976Y-102298214D01*
X163258595Y-102107738D01*
X163353833Y-102012500D01*
X163449071Y-101964880D01*
X163639547Y-101964880D01*
X163734785Y-102012500D01*
X163830023Y-102107738D01*
X163877642Y-102298214D01*
X163877642Y-102631547D01*
X163830023Y-102822023D01*
X163734785Y-102917261D01*
X163639547Y-102964880D01*
X163449071Y-102964880D01*
X164258595Y-102060119D02*
X164306214Y-102012500D01*
X164401452Y-101964880D01*
X164639547Y-101964880D01*
X164734785Y-102012500D01*
X164782404Y-102060119D01*
X164830023Y-102155357D01*
X164830023Y-102250595D01*
X164782404Y-102393452D01*
X164210976Y-102964880D01*
X164830023Y-102964880D01*
%TO.C,R6*%
X174441380Y-105440666D02*
X173965190Y-105774000D01*
X174441380Y-106012095D02*
X173441380Y-106012095D01*
X173441380Y-105631142D01*
X173489000Y-105535904D01*
X173536619Y-105488285D01*
X173631857Y-105440666D01*
X173774714Y-105440666D01*
X173869952Y-105488285D01*
X173917571Y-105535904D01*
X173965190Y-105631142D01*
X173965190Y-106012095D01*
X173441380Y-104583523D02*
X173441380Y-104774000D01*
X173489000Y-104869238D01*
X173536619Y-104916857D01*
X173679476Y-105012095D01*
X173869952Y-105059714D01*
X174250904Y-105059714D01*
X174346142Y-105012095D01*
X174393761Y-104964476D01*
X174441380Y-104869238D01*
X174441380Y-104678761D01*
X174393761Y-104583523D01*
X174346142Y-104535904D01*
X174250904Y-104488285D01*
X174012809Y-104488285D01*
X173917571Y-104535904D01*
X173869952Y-104583523D01*
X173822333Y-104678761D01*
X173822333Y-104869238D01*
X173869952Y-104964476D01*
X173917571Y-105012095D01*
X174012809Y-105059714D01*
%TO.C,R7*%
X171077880Y-100378666D02*
X170601690Y-100712000D01*
X171077880Y-100950095D02*
X170077880Y-100950095D01*
X170077880Y-100569142D01*
X170125500Y-100473904D01*
X170173119Y-100426285D01*
X170268357Y-100378666D01*
X170411214Y-100378666D01*
X170506452Y-100426285D01*
X170554071Y-100473904D01*
X170601690Y-100569142D01*
X170601690Y-100950095D01*
X170077880Y-100045333D02*
X170077880Y-99378666D01*
X171077880Y-99807238D01*
%TO.C,R8*%
X171141380Y-111173666D02*
X170665190Y-111507000D01*
X171141380Y-111745095D02*
X170141380Y-111745095D01*
X170141380Y-111364142D01*
X170189000Y-111268904D01*
X170236619Y-111221285D01*
X170331857Y-111173666D01*
X170474714Y-111173666D01*
X170569952Y-111221285D01*
X170617571Y-111268904D01*
X170665190Y-111364142D01*
X170665190Y-111745095D01*
X170569952Y-110602238D02*
X170522333Y-110697476D01*
X170474714Y-110745095D01*
X170379476Y-110792714D01*
X170331857Y-110792714D01*
X170236619Y-110745095D01*
X170189000Y-110697476D01*
X170141380Y-110602238D01*
X170141380Y-110411761D01*
X170189000Y-110316523D01*
X170236619Y-110268904D01*
X170331857Y-110221285D01*
X170379476Y-110221285D01*
X170474714Y-110268904D01*
X170522333Y-110316523D01*
X170569952Y-110411761D01*
X170569952Y-110602238D01*
X170617571Y-110697476D01*
X170665190Y-110745095D01*
X170760428Y-110792714D01*
X170950904Y-110792714D01*
X171046142Y-110745095D01*
X171093761Y-110697476D01*
X171141380Y-110602238D01*
X171141380Y-110411761D01*
X171093761Y-110316523D01*
X171046142Y-110268904D01*
X170950904Y-110221285D01*
X170760428Y-110221285D01*
X170665190Y-110268904D01*
X170617571Y-110316523D01*
X170569952Y-110411761D01*
%TO.C,R9*%
X171141380Y-95235166D02*
X170665190Y-95568500D01*
X171141380Y-95806595D02*
X170141380Y-95806595D01*
X170141380Y-95425642D01*
X170189000Y-95330404D01*
X170236619Y-95282785D01*
X170331857Y-95235166D01*
X170474714Y-95235166D01*
X170569952Y-95282785D01*
X170617571Y-95330404D01*
X170665190Y-95425642D01*
X170665190Y-95806595D01*
X171141380Y-94758976D02*
X171141380Y-94568500D01*
X171093761Y-94473261D01*
X171046142Y-94425642D01*
X170903285Y-94330404D01*
X170712809Y-94282785D01*
X170331857Y-94282785D01*
X170236619Y-94330404D01*
X170189000Y-94378023D01*
X170141380Y-94473261D01*
X170141380Y-94663738D01*
X170189000Y-94758976D01*
X170236619Y-94806595D01*
X170331857Y-94854214D01*
X170569952Y-94854214D01*
X170665190Y-94806595D01*
X170712809Y-94758976D01*
X170760428Y-94663738D01*
X170760428Y-94473261D01*
X170712809Y-94378023D01*
X170665190Y-94330404D01*
X170569952Y-94282785D01*
%TO.C,S2*%
X167767095Y-104207761D02*
X167909952Y-104255380D01*
X168148047Y-104255380D01*
X168243285Y-104207761D01*
X168290904Y-104160142D01*
X168338523Y-104064904D01*
X168338523Y-103969666D01*
X168290904Y-103874428D01*
X168243285Y-103826809D01*
X168148047Y-103779190D01*
X167957571Y-103731571D01*
X167862333Y-103683952D01*
X167814714Y-103636333D01*
X167767095Y-103541095D01*
X167767095Y-103445857D01*
X167814714Y-103350619D01*
X167862333Y-103303000D01*
X167957571Y-103255380D01*
X168195666Y-103255380D01*
X168338523Y-103303000D01*
X168719476Y-103350619D02*
X168767095Y-103303000D01*
X168862333Y-103255380D01*
X169100428Y-103255380D01*
X169195666Y-103303000D01*
X169243285Y-103350619D01*
X169290904Y-103445857D01*
X169290904Y-103541095D01*
X169243285Y-103683952D01*
X168671857Y-104255380D01*
X169290904Y-104255380D01*
%TO.C,U1*%
X120189380Y-83100904D02*
X120998904Y-83100904D01*
X121094142Y-83053285D01*
X121141761Y-83005666D01*
X121189380Y-82910428D01*
X121189380Y-82719952D01*
X121141761Y-82624714D01*
X121094142Y-82577095D01*
X120998904Y-82529476D01*
X120189380Y-82529476D01*
X121189380Y-81529476D02*
X121189380Y-82100904D01*
X121189380Y-81815190D02*
X120189380Y-81815190D01*
X120332238Y-81910428D01*
X120427476Y-82005666D01*
X120475095Y-82100904D01*
%TO.C,U2*%
X150049473Y-98555030D02*
X149477053Y-99127450D01*
X149443381Y-99228465D01*
X149443381Y-99295809D01*
X149477053Y-99396824D01*
X149611740Y-99531511D01*
X149712755Y-99565183D01*
X149780099Y-99565183D01*
X149881114Y-99531511D01*
X150453534Y-98959091D01*
X150689236Y-99329481D02*
X150756579Y-99329481D01*
X150857595Y-99363152D01*
X151025953Y-99531511D01*
X151059625Y-99632526D01*
X151059625Y-99699870D01*
X151025953Y-99800885D01*
X150958610Y-99868229D01*
X150823923Y-99935572D01*
X150015801Y-99935572D01*
X150453534Y-100373305D01*
%TO.C,SW1*%
X158294761Y-86523333D02*
X158342380Y-86380476D01*
X158342380Y-86142380D01*
X158294761Y-86047142D01*
X158247142Y-85999523D01*
X158151904Y-85951904D01*
X158056666Y-85951904D01*
X157961428Y-85999523D01*
X157913809Y-86047142D01*
X157866190Y-86142380D01*
X157818571Y-86332857D01*
X157770952Y-86428095D01*
X157723333Y-86475714D01*
X157628095Y-86523333D01*
X157532857Y-86523333D01*
X157437619Y-86475714D01*
X157390000Y-86428095D01*
X157342380Y-86332857D01*
X157342380Y-86094761D01*
X157390000Y-85951904D01*
X157342380Y-85618571D02*
X158342380Y-85380476D01*
X157628095Y-85190000D01*
X158342380Y-84999523D01*
X157342380Y-84761428D01*
X158342380Y-83856666D02*
X158342380Y-84428095D01*
X158342380Y-84142380D02*
X157342380Y-84142380D01*
X157485238Y-84237619D01*
X157580476Y-84332857D01*
X157628095Y-84428095D01*
%TD*%
M02*
