%TF.GenerationSoftware,KiCad,Pcbnew,(5.0.0)*%
%TF.CreationDate,2021-11-23T11:21:32+01:00*%
%TF.ProjectId,PlacaSlave3AGesinen,506C616361536C617665334147657369,rev?*%
%TF.SameCoordinates,Original*%
%TF.FileFunction,Soldermask,Bot*%
%TF.FilePolarity,Negative*%
%FSLAX46Y46*%
G04 Gerber Fmt 4.6, Leading zero omitted, Abs format (unit mm)*
G04 Created by KiCad (PCBNEW (5.0.0)) date 11/23/21 11:21:32*
%MOMM*%
%LPD*%
G01*
G04 APERTURE LIST*
%ADD10C,1.878000*%
%ADD11O,2.132000X1.827200*%
%ADD12O,1.827200X2.132000*%
%ADD13R,1.800000X1.800000*%
%ADD14O,1.800000X1.800000*%
%ADD15O,1.300000X1.850000*%
%ADD16C,0.100000*%
%ADD17C,1.300000*%
%ADD18C,1.600000*%
%ADD19C,3.300000*%
%ADD20R,1.700000X1.700000*%
%ADD21O,1.700000X1.700000*%
G04 APERTURE END LIST*
D10*
%TO.C,P3*%
X151130000Y-93980000D03*
X151130000Y-96520000D03*
%TD*%
D11*
%TO.C,P1*%
X138430000Y-85090000D03*
X138430000Y-87630000D03*
X138430000Y-90170000D03*
X138430000Y-92710000D03*
X138430000Y-95250000D03*
X138430000Y-97790000D03*
X138430000Y-100330000D03*
X138430000Y-102870000D03*
X138430000Y-105410000D03*
X138430000Y-107950000D03*
X138430000Y-110490000D03*
X138430000Y-113030000D03*
%TD*%
D12*
%TO.C,P2*%
X139700000Y-82550000D03*
X142240000Y-82550000D03*
X144780000Y-82550000D03*
X147320000Y-82550000D03*
X149860000Y-82550000D03*
X152400000Y-82550000D03*
%TD*%
D11*
%TO.C,P4*%
X153670000Y-85090000D03*
X153670000Y-87630000D03*
X153670000Y-90170000D03*
X153670000Y-92710000D03*
X153670000Y-95250000D03*
X153670000Y-97790000D03*
X153670000Y-100330000D03*
X153670000Y-102870000D03*
X153670000Y-105410000D03*
X153670000Y-107950000D03*
X153670000Y-110490000D03*
X153670000Y-113030000D03*
%TD*%
D13*
%TO.C,J1*%
X124000000Y-101460000D03*
D14*
X124000000Y-104000000D03*
%TD*%
%TO.C,JP1*%
X124904500Y-86042500D03*
D13*
X122364500Y-86042500D03*
%TD*%
%TO.C,JP2*%
X122364500Y-89979500D03*
D14*
X124904500Y-89979500D03*
%TD*%
D15*
%TO.C,S1*%
X123000000Y-118000000D03*
X121000000Y-118000000D03*
X119000000Y-118000000D03*
D16*
G36*
X117405714Y-117076304D02*
X117432005Y-117080204D01*
X117457786Y-117086662D01*
X117482811Y-117095616D01*
X117506837Y-117106980D01*
X117529634Y-117120643D01*
X117550982Y-117136476D01*
X117570675Y-117154325D01*
X117588524Y-117174018D01*
X117604357Y-117195366D01*
X117618020Y-117218163D01*
X117629384Y-117242189D01*
X117638338Y-117267214D01*
X117644796Y-117292995D01*
X117648696Y-117319286D01*
X117650000Y-117345832D01*
X117650000Y-118654168D01*
X117648696Y-118680714D01*
X117644796Y-118707005D01*
X117638338Y-118732786D01*
X117629384Y-118757811D01*
X117618020Y-118781837D01*
X117604357Y-118804634D01*
X117588524Y-118825982D01*
X117570675Y-118845675D01*
X117550982Y-118863524D01*
X117529634Y-118879357D01*
X117506837Y-118893020D01*
X117482811Y-118904384D01*
X117457786Y-118913338D01*
X117432005Y-118919796D01*
X117405714Y-118923696D01*
X117379168Y-118925000D01*
X116620832Y-118925000D01*
X116594286Y-118923696D01*
X116567995Y-118919796D01*
X116542214Y-118913338D01*
X116517189Y-118904384D01*
X116493163Y-118893020D01*
X116470366Y-118879357D01*
X116449018Y-118863524D01*
X116429325Y-118845675D01*
X116411476Y-118825982D01*
X116395643Y-118804634D01*
X116381980Y-118781837D01*
X116370616Y-118757811D01*
X116361662Y-118732786D01*
X116355204Y-118707005D01*
X116351304Y-118680714D01*
X116350000Y-118654168D01*
X116350000Y-117345832D01*
X116351304Y-117319286D01*
X116355204Y-117292995D01*
X116361662Y-117267214D01*
X116370616Y-117242189D01*
X116381980Y-117218163D01*
X116395643Y-117195366D01*
X116411476Y-117174018D01*
X116429325Y-117154325D01*
X116449018Y-117136476D01*
X116470366Y-117120643D01*
X116493163Y-117106980D01*
X116517189Y-117095616D01*
X116542214Y-117086662D01*
X116567995Y-117080204D01*
X116594286Y-117076304D01*
X116620832Y-117075000D01*
X117379168Y-117075000D01*
X117405714Y-117076304D01*
X117405714Y-117076304D01*
G37*
D17*
X117000000Y-118000000D03*
%TD*%
D16*
%TO.C,S3*%
G36*
X153405714Y-117076304D02*
X153432005Y-117080204D01*
X153457786Y-117086662D01*
X153482811Y-117095616D01*
X153506837Y-117106980D01*
X153529634Y-117120643D01*
X153550982Y-117136476D01*
X153570675Y-117154325D01*
X153588524Y-117174018D01*
X153604357Y-117195366D01*
X153618020Y-117218163D01*
X153629384Y-117242189D01*
X153638338Y-117267214D01*
X153644796Y-117292995D01*
X153648696Y-117319286D01*
X153650000Y-117345832D01*
X153650000Y-118654168D01*
X153648696Y-118680714D01*
X153644796Y-118707005D01*
X153638338Y-118732786D01*
X153629384Y-118757811D01*
X153618020Y-118781837D01*
X153604357Y-118804634D01*
X153588524Y-118825982D01*
X153570675Y-118845675D01*
X153550982Y-118863524D01*
X153529634Y-118879357D01*
X153506837Y-118893020D01*
X153482811Y-118904384D01*
X153457786Y-118913338D01*
X153432005Y-118919796D01*
X153405714Y-118923696D01*
X153379168Y-118925000D01*
X152620832Y-118925000D01*
X152594286Y-118923696D01*
X152567995Y-118919796D01*
X152542214Y-118913338D01*
X152517189Y-118904384D01*
X152493163Y-118893020D01*
X152470366Y-118879357D01*
X152449018Y-118863524D01*
X152429325Y-118845675D01*
X152411476Y-118825982D01*
X152395643Y-118804634D01*
X152381980Y-118781837D01*
X152370616Y-118757811D01*
X152361662Y-118732786D01*
X152355204Y-118707005D01*
X152351304Y-118680714D01*
X152350000Y-118654168D01*
X152350000Y-117345832D01*
X152351304Y-117319286D01*
X152355204Y-117292995D01*
X152361662Y-117267214D01*
X152370616Y-117242189D01*
X152381980Y-117218163D01*
X152395643Y-117195366D01*
X152411476Y-117174018D01*
X152429325Y-117154325D01*
X152449018Y-117136476D01*
X152470366Y-117120643D01*
X152493163Y-117106980D01*
X152517189Y-117095616D01*
X152542214Y-117086662D01*
X152567995Y-117080204D01*
X152594286Y-117076304D01*
X152620832Y-117075000D01*
X153379168Y-117075000D01*
X153405714Y-117076304D01*
X153405714Y-117076304D01*
G37*
D17*
X153000000Y-118000000D03*
D15*
X155000000Y-118000000D03*
X157000000Y-118000000D03*
X159000000Y-118000000D03*
%TD*%
D16*
%TO.C,S4*%
G36*
X129405714Y-117076304D02*
X129432005Y-117080204D01*
X129457786Y-117086662D01*
X129482811Y-117095616D01*
X129506837Y-117106980D01*
X129529634Y-117120643D01*
X129550982Y-117136476D01*
X129570675Y-117154325D01*
X129588524Y-117174018D01*
X129604357Y-117195366D01*
X129618020Y-117218163D01*
X129629384Y-117242189D01*
X129638338Y-117267214D01*
X129644796Y-117292995D01*
X129648696Y-117319286D01*
X129650000Y-117345832D01*
X129650000Y-118654168D01*
X129648696Y-118680714D01*
X129644796Y-118707005D01*
X129638338Y-118732786D01*
X129629384Y-118757811D01*
X129618020Y-118781837D01*
X129604357Y-118804634D01*
X129588524Y-118825982D01*
X129570675Y-118845675D01*
X129550982Y-118863524D01*
X129529634Y-118879357D01*
X129506837Y-118893020D01*
X129482811Y-118904384D01*
X129457786Y-118913338D01*
X129432005Y-118919796D01*
X129405714Y-118923696D01*
X129379168Y-118925000D01*
X128620832Y-118925000D01*
X128594286Y-118923696D01*
X128567995Y-118919796D01*
X128542214Y-118913338D01*
X128517189Y-118904384D01*
X128493163Y-118893020D01*
X128470366Y-118879357D01*
X128449018Y-118863524D01*
X128429325Y-118845675D01*
X128411476Y-118825982D01*
X128395643Y-118804634D01*
X128381980Y-118781837D01*
X128370616Y-118757811D01*
X128361662Y-118732786D01*
X128355204Y-118707005D01*
X128351304Y-118680714D01*
X128350000Y-118654168D01*
X128350000Y-117345832D01*
X128351304Y-117319286D01*
X128355204Y-117292995D01*
X128361662Y-117267214D01*
X128370616Y-117242189D01*
X128381980Y-117218163D01*
X128395643Y-117195366D01*
X128411476Y-117174018D01*
X128429325Y-117154325D01*
X128449018Y-117136476D01*
X128470366Y-117120643D01*
X128493163Y-117106980D01*
X128517189Y-117095616D01*
X128542214Y-117086662D01*
X128567995Y-117080204D01*
X128594286Y-117076304D01*
X128620832Y-117075000D01*
X129379168Y-117075000D01*
X129405714Y-117076304D01*
X129405714Y-117076304D01*
G37*
D17*
X129000000Y-118000000D03*
D15*
X131000000Y-118000000D03*
X133000000Y-118000000D03*
X135000000Y-118000000D03*
%TD*%
%TO.C,S5*%
X171000000Y-118000000D03*
X169000000Y-118000000D03*
X167000000Y-118000000D03*
D16*
G36*
X165405714Y-117076304D02*
X165432005Y-117080204D01*
X165457786Y-117086662D01*
X165482811Y-117095616D01*
X165506837Y-117106980D01*
X165529634Y-117120643D01*
X165550982Y-117136476D01*
X165570675Y-117154325D01*
X165588524Y-117174018D01*
X165604357Y-117195366D01*
X165618020Y-117218163D01*
X165629384Y-117242189D01*
X165638338Y-117267214D01*
X165644796Y-117292995D01*
X165648696Y-117319286D01*
X165650000Y-117345832D01*
X165650000Y-118654168D01*
X165648696Y-118680714D01*
X165644796Y-118707005D01*
X165638338Y-118732786D01*
X165629384Y-118757811D01*
X165618020Y-118781837D01*
X165604357Y-118804634D01*
X165588524Y-118825982D01*
X165570675Y-118845675D01*
X165550982Y-118863524D01*
X165529634Y-118879357D01*
X165506837Y-118893020D01*
X165482811Y-118904384D01*
X165457786Y-118913338D01*
X165432005Y-118919796D01*
X165405714Y-118923696D01*
X165379168Y-118925000D01*
X164620832Y-118925000D01*
X164594286Y-118923696D01*
X164567995Y-118919796D01*
X164542214Y-118913338D01*
X164517189Y-118904384D01*
X164493163Y-118893020D01*
X164470366Y-118879357D01*
X164449018Y-118863524D01*
X164429325Y-118845675D01*
X164411476Y-118825982D01*
X164395643Y-118804634D01*
X164381980Y-118781837D01*
X164370616Y-118757811D01*
X164361662Y-118732786D01*
X164355204Y-118707005D01*
X164351304Y-118680714D01*
X164350000Y-118654168D01*
X164350000Y-117345832D01*
X164351304Y-117319286D01*
X164355204Y-117292995D01*
X164361662Y-117267214D01*
X164370616Y-117242189D01*
X164381980Y-117218163D01*
X164395643Y-117195366D01*
X164411476Y-117174018D01*
X164429325Y-117154325D01*
X164449018Y-117136476D01*
X164470366Y-117120643D01*
X164493163Y-117106980D01*
X164517189Y-117095616D01*
X164542214Y-117086662D01*
X164567995Y-117080204D01*
X164594286Y-117076304D01*
X164620832Y-117075000D01*
X165379168Y-117075000D01*
X165405714Y-117076304D01*
X165405714Y-117076304D01*
G37*
D17*
X165000000Y-118000000D03*
%TD*%
D16*
%TO.C,S6*%
G36*
X141405714Y-117076304D02*
X141432005Y-117080204D01*
X141457786Y-117086662D01*
X141482811Y-117095616D01*
X141506837Y-117106980D01*
X141529634Y-117120643D01*
X141550982Y-117136476D01*
X141570675Y-117154325D01*
X141588524Y-117174018D01*
X141604357Y-117195366D01*
X141618020Y-117218163D01*
X141629384Y-117242189D01*
X141638338Y-117267214D01*
X141644796Y-117292995D01*
X141648696Y-117319286D01*
X141650000Y-117345832D01*
X141650000Y-118654168D01*
X141648696Y-118680714D01*
X141644796Y-118707005D01*
X141638338Y-118732786D01*
X141629384Y-118757811D01*
X141618020Y-118781837D01*
X141604357Y-118804634D01*
X141588524Y-118825982D01*
X141570675Y-118845675D01*
X141550982Y-118863524D01*
X141529634Y-118879357D01*
X141506837Y-118893020D01*
X141482811Y-118904384D01*
X141457786Y-118913338D01*
X141432005Y-118919796D01*
X141405714Y-118923696D01*
X141379168Y-118925000D01*
X140620832Y-118925000D01*
X140594286Y-118923696D01*
X140567995Y-118919796D01*
X140542214Y-118913338D01*
X140517189Y-118904384D01*
X140493163Y-118893020D01*
X140470366Y-118879357D01*
X140449018Y-118863524D01*
X140429325Y-118845675D01*
X140411476Y-118825982D01*
X140395643Y-118804634D01*
X140381980Y-118781837D01*
X140370616Y-118757811D01*
X140361662Y-118732786D01*
X140355204Y-118707005D01*
X140351304Y-118680714D01*
X140350000Y-118654168D01*
X140350000Y-117345832D01*
X140351304Y-117319286D01*
X140355204Y-117292995D01*
X140361662Y-117267214D01*
X140370616Y-117242189D01*
X140381980Y-117218163D01*
X140395643Y-117195366D01*
X140411476Y-117174018D01*
X140429325Y-117154325D01*
X140449018Y-117136476D01*
X140470366Y-117120643D01*
X140493163Y-117106980D01*
X140517189Y-117095616D01*
X140542214Y-117086662D01*
X140567995Y-117080204D01*
X140594286Y-117076304D01*
X140620832Y-117075000D01*
X141379168Y-117075000D01*
X141405714Y-117076304D01*
X141405714Y-117076304D01*
G37*
D17*
X141000000Y-118000000D03*
D15*
X143000000Y-118000000D03*
X145000000Y-118000000D03*
X147000000Y-118000000D03*
%TD*%
D18*
%TO.C,Y1*%
X133477000Y-99949000D03*
X133477000Y-104829000D03*
%TD*%
D13*
%TO.C,JP3*%
X162560000Y-105346500D03*
D14*
X160020000Y-105346500D03*
%TD*%
%TO.C,JP4*%
X160210500Y-109855000D03*
D13*
X162750500Y-109855000D03*
%TD*%
%TO.C,S2*%
X168529000Y-101473000D03*
D14*
X168529000Y-98933000D03*
X168529000Y-96393000D03*
X168529000Y-93853000D03*
X168529000Y-91313000D03*
%TD*%
D19*
%TO.C,MH1*%
X116332000Y-81737200D03*
%TD*%
%TO.C,MH2*%
X170180000Y-82194400D03*
%TD*%
%TO.C,MH3*%
X124206000Y-109575600D03*
%TD*%
D20*
%TO.C,SW1*%
X161000000Y-89000000D03*
D21*
X161000000Y-81380000D03*
%TD*%
M02*
