M48
;DRILL file {KiCad (5.0.0)} date 11/23/21 11:21:23
;FORMAT={-:-/ absolute / inch / decimal}
FMAT,2
INCH,TZ
T1C0.0157
T2C0.0295
T3C0.0315
T4C0.0394
T5C0.0400
%
G90
G05
M72
T1
X5.025Y-3.2941
X5.06Y-3.16
X5.23Y-3.16
X5.27Y-3.295
X5.53Y-4.1025
X5.545Y-3.385
X5.545Y-3.55
X5.595Y-3.91
X5.625Y-3.55
X5.65Y-4.35
X5.6625Y-4.025
X5.675Y-4.475
X5.7025Y-3.985
X5.72Y-3.71
X5.8Y-4.385
X5.85Y-4.3
X5.875Y-4.475
X5.925Y-4.275
X6.15Y-4.425
X6.175Y-4.7474
X6.2075Y-3.925
X6.25Y-4.525
X6.4181Y-3.8556
X6.5Y-3.625
X6.5525Y-4.045
X6.5575Y-3.7075
X6.64Y-3.465
X6.73Y-3.75
X6.7875Y-4.285
T2
X5.0787Y-4.6457
X5.1575Y-4.6457
X5.2362Y-4.6457
X5.315Y-4.6457
X5.5512Y-4.6457
X5.6299Y-4.6457
X5.7087Y-4.6457
X5.7874Y-4.6457
X4.6063Y-4.6457
X4.685Y-4.6457
X4.7638Y-4.6457
X4.8425Y-4.6457
X6.4961Y-4.6457
X6.5748Y-4.6457
X6.6535Y-4.6457
X6.7323Y-4.6457
X6.0236Y-4.6457
X6.1024Y-4.6457
X6.1811Y-4.6457
X6.2598Y-4.6457
T3
X6.3386Y-3.2039
X6.3386Y-3.5039
X5.255Y-3.935
X5.255Y-4.1271
T4
X4.8175Y-3.5425
X4.9175Y-3.5425
X6.3Y-4.1475
X6.4Y-4.1475
X4.8175Y-3.3875
X4.9175Y-3.3875
X4.8819Y-3.9945
X4.8819Y-4.0945
X6.635Y-3.595
X6.635Y-3.695
X6.635Y-3.795
X6.635Y-3.895
X6.635Y-3.995
X6.3075Y-4.325
X6.4075Y-4.325
T5
X5.5Y-3.25
X5.6Y-3.25
X5.7Y-3.25
X5.8Y-3.25
X5.9Y-3.25
X6.Y-3.25
X5.45Y-3.35
X5.45Y-3.45
X5.45Y-3.55
X5.45Y-3.65
X5.45Y-3.75
X5.45Y-3.85
X5.45Y-3.95
X5.45Y-4.05
X5.45Y-4.15
X5.45Y-4.25
X5.45Y-4.35
X5.45Y-4.45
X5.95Y-3.7
X5.95Y-3.8
X6.05Y-3.35
X6.05Y-3.45
X6.05Y-3.55
X6.05Y-3.65
X6.05Y-3.75
X6.05Y-3.85
X6.05Y-3.95
X6.05Y-4.05
X6.05Y-4.15
X6.05Y-4.25
X6.05Y-4.35
X6.05Y-4.45
T0
M30
