%TF.GenerationSoftware,KiCad,Pcbnew,(5.0.0)*%
%TF.CreationDate,2021-11-23T11:21:32+01:00*%
%TF.ProjectId,PlacaSlave3AGesinen,506C616361536C617665334147657369,rev?*%
%TF.SameCoordinates,Original*%
%TF.FileFunction,Soldermask,Top*%
%TF.FilePolarity,Negative*%
%FSLAX46Y46*%
G04 Gerber Fmt 4.6, Leading zero omitted, Abs format (unit mm)*
G04 Created by KiCad (PCBNEW (5.0.0)) date 11/23/21 11:21:32*
%MOMM*%
%LPD*%
G01*
G04 APERTURE LIST*
%ADD10C,1.878000*%
%ADD11O,2.132000X1.827200*%
%ADD12O,1.827200X2.132000*%
%ADD13C,0.100000*%
%ADD14C,1.525000*%
%ADD15C,1.250000*%
%ADD16R,1.800000X1.800000*%
%ADD17O,1.800000X1.800000*%
%ADD18O,1.300000X1.850000*%
%ADD19C,1.300000*%
%ADD20C,1.600000*%
%ADD21R,1.000000X0.900000*%
%ADD22C,3.300000*%
%ADD23R,0.750000X1.160000*%
%ADD24C,0.650000*%
%ADD25R,1.700000X1.700000*%
%ADD26O,1.700000X1.700000*%
G04 APERTURE END LIST*
D10*
%TO.C,P3*%
X151130000Y-93980000D03*
X151130000Y-96520000D03*
%TD*%
D11*
%TO.C,P1*%
X138430000Y-85090000D03*
X138430000Y-87630000D03*
X138430000Y-90170000D03*
X138430000Y-92710000D03*
X138430000Y-95250000D03*
X138430000Y-97790000D03*
X138430000Y-100330000D03*
X138430000Y-102870000D03*
X138430000Y-105410000D03*
X138430000Y-107950000D03*
X138430000Y-110490000D03*
X138430000Y-113030000D03*
%TD*%
D12*
%TO.C,P2*%
X139700000Y-82550000D03*
X142240000Y-82550000D03*
X144780000Y-82550000D03*
X147320000Y-82550000D03*
X149860000Y-82550000D03*
X152400000Y-82550000D03*
%TD*%
D11*
%TO.C,P4*%
X153670000Y-85090000D03*
X153670000Y-87630000D03*
X153670000Y-90170000D03*
X153670000Y-92710000D03*
X153670000Y-95250000D03*
X153670000Y-97790000D03*
X153670000Y-100330000D03*
X153670000Y-102870000D03*
X153670000Y-105410000D03*
X153670000Y-107950000D03*
X153670000Y-110490000D03*
X153670000Y-113030000D03*
%TD*%
D13*
%TO.C,C1*%
G36*
X133398680Y-79883788D02*
X133424651Y-79887641D01*
X133450120Y-79894020D01*
X133474841Y-79902866D01*
X133498575Y-79914091D01*
X133521095Y-79927589D01*
X133542184Y-79943230D01*
X133561638Y-79960862D01*
X133579270Y-79980316D01*
X133594911Y-80001405D01*
X133608409Y-80023925D01*
X133619634Y-80047659D01*
X133628480Y-80072380D01*
X133634859Y-80097849D01*
X133638712Y-80123820D01*
X133640000Y-80150044D01*
X133640000Y-81139956D01*
X133638712Y-81166180D01*
X133634859Y-81192151D01*
X133628480Y-81217620D01*
X133619634Y-81242341D01*
X133608409Y-81266075D01*
X133594911Y-81288595D01*
X133579270Y-81309684D01*
X133561638Y-81329138D01*
X133542184Y-81346770D01*
X133521095Y-81362411D01*
X133498575Y-81375909D01*
X133474841Y-81387134D01*
X133450120Y-81395980D01*
X133424651Y-81402359D01*
X133398680Y-81406212D01*
X133372456Y-81407500D01*
X132057544Y-81407500D01*
X132031320Y-81406212D01*
X132005349Y-81402359D01*
X131979880Y-81395980D01*
X131955159Y-81387134D01*
X131931425Y-81375909D01*
X131908905Y-81362411D01*
X131887816Y-81346770D01*
X131868362Y-81329138D01*
X131850730Y-81309684D01*
X131835089Y-81288595D01*
X131821591Y-81266075D01*
X131810366Y-81242341D01*
X131801520Y-81217620D01*
X131795141Y-81192151D01*
X131791288Y-81166180D01*
X131790000Y-81139956D01*
X131790000Y-80150044D01*
X131791288Y-80123820D01*
X131795141Y-80097849D01*
X131801520Y-80072380D01*
X131810366Y-80047659D01*
X131821591Y-80023925D01*
X131835089Y-80001405D01*
X131850730Y-79980316D01*
X131868362Y-79960862D01*
X131887816Y-79943230D01*
X131908905Y-79927589D01*
X131931425Y-79914091D01*
X131955159Y-79902866D01*
X131979880Y-79894020D01*
X132005349Y-79887641D01*
X132031320Y-79883788D01*
X132057544Y-79882500D01*
X133372456Y-79882500D01*
X133398680Y-79883788D01*
X133398680Y-79883788D01*
G37*
D14*
X132715000Y-80645000D03*
D13*
G36*
X133398680Y-82858788D02*
X133424651Y-82862641D01*
X133450120Y-82869020D01*
X133474841Y-82877866D01*
X133498575Y-82889091D01*
X133521095Y-82902589D01*
X133542184Y-82918230D01*
X133561638Y-82935862D01*
X133579270Y-82955316D01*
X133594911Y-82976405D01*
X133608409Y-82998925D01*
X133619634Y-83022659D01*
X133628480Y-83047380D01*
X133634859Y-83072849D01*
X133638712Y-83098820D01*
X133640000Y-83125044D01*
X133640000Y-84114956D01*
X133638712Y-84141180D01*
X133634859Y-84167151D01*
X133628480Y-84192620D01*
X133619634Y-84217341D01*
X133608409Y-84241075D01*
X133594911Y-84263595D01*
X133579270Y-84284684D01*
X133561638Y-84304138D01*
X133542184Y-84321770D01*
X133521095Y-84337411D01*
X133498575Y-84350909D01*
X133474841Y-84362134D01*
X133450120Y-84370980D01*
X133424651Y-84377359D01*
X133398680Y-84381212D01*
X133372456Y-84382500D01*
X132057544Y-84382500D01*
X132031320Y-84381212D01*
X132005349Y-84377359D01*
X131979880Y-84370980D01*
X131955159Y-84362134D01*
X131931425Y-84350909D01*
X131908905Y-84337411D01*
X131887816Y-84321770D01*
X131868362Y-84304138D01*
X131850730Y-84284684D01*
X131835089Y-84263595D01*
X131821591Y-84241075D01*
X131810366Y-84217341D01*
X131801520Y-84192620D01*
X131795141Y-84167151D01*
X131791288Y-84141180D01*
X131790000Y-84114956D01*
X131790000Y-83125044D01*
X131791288Y-83098820D01*
X131795141Y-83072849D01*
X131801520Y-83047380D01*
X131810366Y-83022659D01*
X131821591Y-82998925D01*
X131835089Y-82976405D01*
X131850730Y-82955316D01*
X131868362Y-82935862D01*
X131887816Y-82918230D01*
X131908905Y-82902589D01*
X131931425Y-82889091D01*
X131955159Y-82877866D01*
X131979880Y-82869020D01*
X132005349Y-82862641D01*
X132031320Y-82858788D01*
X132057544Y-82857500D01*
X133372456Y-82857500D01*
X133398680Y-82858788D01*
X133398680Y-82858788D01*
G37*
D14*
X132715000Y-83620000D03*
%TD*%
D13*
%TO.C,C2*%
G36*
X148476180Y-112741288D02*
X148502151Y-112745141D01*
X148527620Y-112751520D01*
X148552341Y-112760366D01*
X148576075Y-112771591D01*
X148598595Y-112785089D01*
X148619684Y-112800730D01*
X148639138Y-112818362D01*
X148656770Y-112837816D01*
X148672411Y-112858905D01*
X148685909Y-112881425D01*
X148697134Y-112905159D01*
X148705980Y-112929880D01*
X148712359Y-112955349D01*
X148716212Y-112981320D01*
X148717500Y-113007544D01*
X148717500Y-114322456D01*
X148716212Y-114348680D01*
X148712359Y-114374651D01*
X148705980Y-114400120D01*
X148697134Y-114424841D01*
X148685909Y-114448575D01*
X148672411Y-114471095D01*
X148656770Y-114492184D01*
X148639138Y-114511638D01*
X148619684Y-114529270D01*
X148598595Y-114544911D01*
X148576075Y-114558409D01*
X148552341Y-114569634D01*
X148527620Y-114578480D01*
X148502151Y-114584859D01*
X148476180Y-114588712D01*
X148449956Y-114590000D01*
X147460044Y-114590000D01*
X147433820Y-114588712D01*
X147407849Y-114584859D01*
X147382380Y-114578480D01*
X147357659Y-114569634D01*
X147333925Y-114558409D01*
X147311405Y-114544911D01*
X147290316Y-114529270D01*
X147270862Y-114511638D01*
X147253230Y-114492184D01*
X147237589Y-114471095D01*
X147224091Y-114448575D01*
X147212866Y-114424841D01*
X147204020Y-114400120D01*
X147197641Y-114374651D01*
X147193788Y-114348680D01*
X147192500Y-114322456D01*
X147192500Y-113007544D01*
X147193788Y-112981320D01*
X147197641Y-112955349D01*
X147204020Y-112929880D01*
X147212866Y-112905159D01*
X147224091Y-112881425D01*
X147237589Y-112858905D01*
X147253230Y-112837816D01*
X147270862Y-112818362D01*
X147290316Y-112800730D01*
X147311405Y-112785089D01*
X147333925Y-112771591D01*
X147357659Y-112760366D01*
X147382380Y-112751520D01*
X147407849Y-112745141D01*
X147433820Y-112741288D01*
X147460044Y-112740000D01*
X148449956Y-112740000D01*
X148476180Y-112741288D01*
X148476180Y-112741288D01*
G37*
D14*
X147955000Y-113665000D03*
D13*
G36*
X145501180Y-112741288D02*
X145527151Y-112745141D01*
X145552620Y-112751520D01*
X145577341Y-112760366D01*
X145601075Y-112771591D01*
X145623595Y-112785089D01*
X145644684Y-112800730D01*
X145664138Y-112818362D01*
X145681770Y-112837816D01*
X145697411Y-112858905D01*
X145710909Y-112881425D01*
X145722134Y-112905159D01*
X145730980Y-112929880D01*
X145737359Y-112955349D01*
X145741212Y-112981320D01*
X145742500Y-113007544D01*
X145742500Y-114322456D01*
X145741212Y-114348680D01*
X145737359Y-114374651D01*
X145730980Y-114400120D01*
X145722134Y-114424841D01*
X145710909Y-114448575D01*
X145697411Y-114471095D01*
X145681770Y-114492184D01*
X145664138Y-114511638D01*
X145644684Y-114529270D01*
X145623595Y-114544911D01*
X145601075Y-114558409D01*
X145577341Y-114569634D01*
X145552620Y-114578480D01*
X145527151Y-114584859D01*
X145501180Y-114588712D01*
X145474956Y-114590000D01*
X144485044Y-114590000D01*
X144458820Y-114588712D01*
X144432849Y-114584859D01*
X144407380Y-114578480D01*
X144382659Y-114569634D01*
X144358925Y-114558409D01*
X144336405Y-114544911D01*
X144315316Y-114529270D01*
X144295862Y-114511638D01*
X144278230Y-114492184D01*
X144262589Y-114471095D01*
X144249091Y-114448575D01*
X144237866Y-114424841D01*
X144229020Y-114400120D01*
X144222641Y-114374651D01*
X144218788Y-114348680D01*
X144217500Y-114322456D01*
X144217500Y-113007544D01*
X144218788Y-112981320D01*
X144222641Y-112955349D01*
X144229020Y-112929880D01*
X144237866Y-112905159D01*
X144249091Y-112881425D01*
X144262589Y-112858905D01*
X144278230Y-112837816D01*
X144295862Y-112818362D01*
X144315316Y-112800730D01*
X144336405Y-112785089D01*
X144358925Y-112771591D01*
X144382659Y-112760366D01*
X144407380Y-112751520D01*
X144432849Y-112745141D01*
X144458820Y-112741288D01*
X144485044Y-112740000D01*
X145474956Y-112740000D01*
X145501180Y-112741288D01*
X145501180Y-112741288D01*
G37*
D14*
X144980000Y-113665000D03*
%TD*%
D13*
%TO.C,C3*%
G36*
X126413680Y-93218788D02*
X126439651Y-93222641D01*
X126465120Y-93229020D01*
X126489841Y-93237866D01*
X126513575Y-93249091D01*
X126536095Y-93262589D01*
X126557184Y-93278230D01*
X126576638Y-93295862D01*
X126594270Y-93315316D01*
X126609911Y-93336405D01*
X126623409Y-93358925D01*
X126634634Y-93382659D01*
X126643480Y-93407380D01*
X126649859Y-93432849D01*
X126653712Y-93458820D01*
X126655000Y-93485044D01*
X126655000Y-94474956D01*
X126653712Y-94501180D01*
X126649859Y-94527151D01*
X126643480Y-94552620D01*
X126634634Y-94577341D01*
X126623409Y-94601075D01*
X126609911Y-94623595D01*
X126594270Y-94644684D01*
X126576638Y-94664138D01*
X126557184Y-94681770D01*
X126536095Y-94697411D01*
X126513575Y-94710909D01*
X126489841Y-94722134D01*
X126465120Y-94730980D01*
X126439651Y-94737359D01*
X126413680Y-94741212D01*
X126387456Y-94742500D01*
X125072544Y-94742500D01*
X125046320Y-94741212D01*
X125020349Y-94737359D01*
X124994880Y-94730980D01*
X124970159Y-94722134D01*
X124946425Y-94710909D01*
X124923905Y-94697411D01*
X124902816Y-94681770D01*
X124883362Y-94664138D01*
X124865730Y-94644684D01*
X124850089Y-94623595D01*
X124836591Y-94601075D01*
X124825366Y-94577341D01*
X124816520Y-94552620D01*
X124810141Y-94527151D01*
X124806288Y-94501180D01*
X124805000Y-94474956D01*
X124805000Y-93485044D01*
X124806288Y-93458820D01*
X124810141Y-93432849D01*
X124816520Y-93407380D01*
X124825366Y-93382659D01*
X124836591Y-93358925D01*
X124850089Y-93336405D01*
X124865730Y-93315316D01*
X124883362Y-93295862D01*
X124902816Y-93278230D01*
X124923905Y-93262589D01*
X124946425Y-93249091D01*
X124970159Y-93237866D01*
X124994880Y-93229020D01*
X125020349Y-93222641D01*
X125046320Y-93218788D01*
X125072544Y-93217500D01*
X126387456Y-93217500D01*
X126413680Y-93218788D01*
X126413680Y-93218788D01*
G37*
D14*
X125730000Y-93980000D03*
D13*
G36*
X126413680Y-96193788D02*
X126439651Y-96197641D01*
X126465120Y-96204020D01*
X126489841Y-96212866D01*
X126513575Y-96224091D01*
X126536095Y-96237589D01*
X126557184Y-96253230D01*
X126576638Y-96270862D01*
X126594270Y-96290316D01*
X126609911Y-96311405D01*
X126623409Y-96333925D01*
X126634634Y-96357659D01*
X126643480Y-96382380D01*
X126649859Y-96407849D01*
X126653712Y-96433820D01*
X126655000Y-96460044D01*
X126655000Y-97449956D01*
X126653712Y-97476180D01*
X126649859Y-97502151D01*
X126643480Y-97527620D01*
X126634634Y-97552341D01*
X126623409Y-97576075D01*
X126609911Y-97598595D01*
X126594270Y-97619684D01*
X126576638Y-97639138D01*
X126557184Y-97656770D01*
X126536095Y-97672411D01*
X126513575Y-97685909D01*
X126489841Y-97697134D01*
X126465120Y-97705980D01*
X126439651Y-97712359D01*
X126413680Y-97716212D01*
X126387456Y-97717500D01*
X125072544Y-97717500D01*
X125046320Y-97716212D01*
X125020349Y-97712359D01*
X124994880Y-97705980D01*
X124970159Y-97697134D01*
X124946425Y-97685909D01*
X124923905Y-97672411D01*
X124902816Y-97656770D01*
X124883362Y-97639138D01*
X124865730Y-97619684D01*
X124850089Y-97598595D01*
X124836591Y-97576075D01*
X124825366Y-97552341D01*
X124816520Y-97527620D01*
X124810141Y-97502151D01*
X124806288Y-97476180D01*
X124805000Y-97449956D01*
X124805000Y-96460044D01*
X124806288Y-96433820D01*
X124810141Y-96407849D01*
X124816520Y-96382380D01*
X124825366Y-96357659D01*
X124836591Y-96333925D01*
X124850089Y-96311405D01*
X124865730Y-96290316D01*
X124883362Y-96270862D01*
X124902816Y-96253230D01*
X124923905Y-96237589D01*
X124946425Y-96224091D01*
X124970159Y-96212866D01*
X124994880Y-96204020D01*
X125020349Y-96197641D01*
X125046320Y-96193788D01*
X125072544Y-96192500D01*
X126387456Y-96192500D01*
X126413680Y-96193788D01*
X126413680Y-96193788D01*
G37*
D14*
X125730000Y-96955000D03*
%TD*%
D13*
%TO.C,C4*%
G36*
X122603680Y-96193788D02*
X122629651Y-96197641D01*
X122655120Y-96204020D01*
X122679841Y-96212866D01*
X122703575Y-96224091D01*
X122726095Y-96237589D01*
X122747184Y-96253230D01*
X122766638Y-96270862D01*
X122784270Y-96290316D01*
X122799911Y-96311405D01*
X122813409Y-96333925D01*
X122824634Y-96357659D01*
X122833480Y-96382380D01*
X122839859Y-96407849D01*
X122843712Y-96433820D01*
X122845000Y-96460044D01*
X122845000Y-97449956D01*
X122843712Y-97476180D01*
X122839859Y-97502151D01*
X122833480Y-97527620D01*
X122824634Y-97552341D01*
X122813409Y-97576075D01*
X122799911Y-97598595D01*
X122784270Y-97619684D01*
X122766638Y-97639138D01*
X122747184Y-97656770D01*
X122726095Y-97672411D01*
X122703575Y-97685909D01*
X122679841Y-97697134D01*
X122655120Y-97705980D01*
X122629651Y-97712359D01*
X122603680Y-97716212D01*
X122577456Y-97717500D01*
X121262544Y-97717500D01*
X121236320Y-97716212D01*
X121210349Y-97712359D01*
X121184880Y-97705980D01*
X121160159Y-97697134D01*
X121136425Y-97685909D01*
X121113905Y-97672411D01*
X121092816Y-97656770D01*
X121073362Y-97639138D01*
X121055730Y-97619684D01*
X121040089Y-97598595D01*
X121026591Y-97576075D01*
X121015366Y-97552341D01*
X121006520Y-97527620D01*
X121000141Y-97502151D01*
X120996288Y-97476180D01*
X120995000Y-97449956D01*
X120995000Y-96460044D01*
X120996288Y-96433820D01*
X121000141Y-96407849D01*
X121006520Y-96382380D01*
X121015366Y-96357659D01*
X121026591Y-96333925D01*
X121040089Y-96311405D01*
X121055730Y-96290316D01*
X121073362Y-96270862D01*
X121092816Y-96253230D01*
X121113905Y-96237589D01*
X121136425Y-96224091D01*
X121160159Y-96212866D01*
X121184880Y-96204020D01*
X121210349Y-96197641D01*
X121236320Y-96193788D01*
X121262544Y-96192500D01*
X122577456Y-96192500D01*
X122603680Y-96193788D01*
X122603680Y-96193788D01*
G37*
D14*
X121920000Y-96955000D03*
D13*
G36*
X122603680Y-93218788D02*
X122629651Y-93222641D01*
X122655120Y-93229020D01*
X122679841Y-93237866D01*
X122703575Y-93249091D01*
X122726095Y-93262589D01*
X122747184Y-93278230D01*
X122766638Y-93295862D01*
X122784270Y-93315316D01*
X122799911Y-93336405D01*
X122813409Y-93358925D01*
X122824634Y-93382659D01*
X122833480Y-93407380D01*
X122839859Y-93432849D01*
X122843712Y-93458820D01*
X122845000Y-93485044D01*
X122845000Y-94474956D01*
X122843712Y-94501180D01*
X122839859Y-94527151D01*
X122833480Y-94552620D01*
X122824634Y-94577341D01*
X122813409Y-94601075D01*
X122799911Y-94623595D01*
X122784270Y-94644684D01*
X122766638Y-94664138D01*
X122747184Y-94681770D01*
X122726095Y-94697411D01*
X122703575Y-94710909D01*
X122679841Y-94722134D01*
X122655120Y-94730980D01*
X122629651Y-94737359D01*
X122603680Y-94741212D01*
X122577456Y-94742500D01*
X121262544Y-94742500D01*
X121236320Y-94741212D01*
X121210349Y-94737359D01*
X121184880Y-94730980D01*
X121160159Y-94722134D01*
X121136425Y-94710909D01*
X121113905Y-94697411D01*
X121092816Y-94681770D01*
X121073362Y-94664138D01*
X121055730Y-94644684D01*
X121040089Y-94623595D01*
X121026591Y-94601075D01*
X121015366Y-94577341D01*
X121006520Y-94552620D01*
X121000141Y-94527151D01*
X120996288Y-94501180D01*
X120995000Y-94474956D01*
X120995000Y-93485044D01*
X120996288Y-93458820D01*
X121000141Y-93432849D01*
X121006520Y-93407380D01*
X121015366Y-93382659D01*
X121026591Y-93358925D01*
X121040089Y-93336405D01*
X121055730Y-93315316D01*
X121073362Y-93295862D01*
X121092816Y-93278230D01*
X121113905Y-93262589D01*
X121136425Y-93249091D01*
X121160159Y-93237866D01*
X121184880Y-93229020D01*
X121210349Y-93222641D01*
X121236320Y-93218788D01*
X121262544Y-93217500D01*
X122577456Y-93217500D01*
X122603680Y-93218788D01*
X122603680Y-93218788D01*
G37*
D14*
X121920000Y-93980000D03*
%TD*%
D13*
%TO.C,D1*%
G36*
X133219897Y-92866308D02*
X133246275Y-92870221D01*
X133272143Y-92876701D01*
X133297252Y-92885685D01*
X133321358Y-92897086D01*
X133344232Y-92910796D01*
X133365651Y-92926682D01*
X133385410Y-92944590D01*
X133403318Y-92964349D01*
X133419204Y-92985768D01*
X133432914Y-93008642D01*
X133444315Y-93032748D01*
X133453299Y-93057857D01*
X133459779Y-93083725D01*
X133463692Y-93110103D01*
X133465000Y-93136738D01*
X133465000Y-93843262D01*
X133463692Y-93869897D01*
X133459779Y-93896275D01*
X133453299Y-93922143D01*
X133444315Y-93947252D01*
X133432914Y-93971358D01*
X133419204Y-93994232D01*
X133403318Y-94015651D01*
X133385410Y-94035410D01*
X133365651Y-94053318D01*
X133344232Y-94069204D01*
X133321358Y-94082914D01*
X133297252Y-94094315D01*
X133272143Y-94103299D01*
X133246275Y-94109779D01*
X133219897Y-94113692D01*
X133193262Y-94115000D01*
X132236738Y-94115000D01*
X132210103Y-94113692D01*
X132183725Y-94109779D01*
X132157857Y-94103299D01*
X132132748Y-94094315D01*
X132108642Y-94082914D01*
X132085768Y-94069204D01*
X132064349Y-94053318D01*
X132044590Y-94035410D01*
X132026682Y-94015651D01*
X132010796Y-93994232D01*
X131997086Y-93971358D01*
X131985685Y-93947252D01*
X131976701Y-93922143D01*
X131970221Y-93896275D01*
X131966308Y-93869897D01*
X131965000Y-93843262D01*
X131965000Y-93136738D01*
X131966308Y-93110103D01*
X131970221Y-93083725D01*
X131976701Y-93057857D01*
X131985685Y-93032748D01*
X131997086Y-93008642D01*
X132010796Y-92985768D01*
X132026682Y-92964349D01*
X132044590Y-92944590D01*
X132064349Y-92926682D01*
X132085768Y-92910796D01*
X132108642Y-92897086D01*
X132132748Y-92885685D01*
X132157857Y-92876701D01*
X132183725Y-92870221D01*
X132210103Y-92866308D01*
X132236738Y-92865000D01*
X133193262Y-92865000D01*
X133219897Y-92866308D01*
X133219897Y-92866308D01*
G37*
D15*
X132715000Y-93490000D03*
D13*
G36*
X133219897Y-90816308D02*
X133246275Y-90820221D01*
X133272143Y-90826701D01*
X133297252Y-90835685D01*
X133321358Y-90847086D01*
X133344232Y-90860796D01*
X133365651Y-90876682D01*
X133385410Y-90894590D01*
X133403318Y-90914349D01*
X133419204Y-90935768D01*
X133432914Y-90958642D01*
X133444315Y-90982748D01*
X133453299Y-91007857D01*
X133459779Y-91033725D01*
X133463692Y-91060103D01*
X133465000Y-91086738D01*
X133465000Y-91793262D01*
X133463692Y-91819897D01*
X133459779Y-91846275D01*
X133453299Y-91872143D01*
X133444315Y-91897252D01*
X133432914Y-91921358D01*
X133419204Y-91944232D01*
X133403318Y-91965651D01*
X133385410Y-91985410D01*
X133365651Y-92003318D01*
X133344232Y-92019204D01*
X133321358Y-92032914D01*
X133297252Y-92044315D01*
X133272143Y-92053299D01*
X133246275Y-92059779D01*
X133219897Y-92063692D01*
X133193262Y-92065000D01*
X132236738Y-92065000D01*
X132210103Y-92063692D01*
X132183725Y-92059779D01*
X132157857Y-92053299D01*
X132132748Y-92044315D01*
X132108642Y-92032914D01*
X132085768Y-92019204D01*
X132064349Y-92003318D01*
X132044590Y-91985410D01*
X132026682Y-91965651D01*
X132010796Y-91944232D01*
X131997086Y-91921358D01*
X131985685Y-91897252D01*
X131976701Y-91872143D01*
X131970221Y-91846275D01*
X131966308Y-91819897D01*
X131965000Y-91793262D01*
X131965000Y-91086738D01*
X131966308Y-91060103D01*
X131970221Y-91033725D01*
X131976701Y-91007857D01*
X131985685Y-90982748D01*
X131997086Y-90958642D01*
X132010796Y-90935768D01*
X132026682Y-90914349D01*
X132044590Y-90894590D01*
X132064349Y-90876682D01*
X132085768Y-90860796D01*
X132108642Y-90847086D01*
X132132748Y-90835685D01*
X132157857Y-90826701D01*
X132183725Y-90820221D01*
X132210103Y-90816308D01*
X132236738Y-90815000D01*
X133193262Y-90815000D01*
X133219897Y-90816308D01*
X133219897Y-90816308D01*
G37*
D15*
X132715000Y-91440000D03*
%TD*%
D13*
%TO.C,D2*%
G36*
X170069897Y-107836308D02*
X170096275Y-107840221D01*
X170122143Y-107846701D01*
X170147252Y-107855685D01*
X170171358Y-107867086D01*
X170194232Y-107880796D01*
X170215651Y-107896682D01*
X170235410Y-107914590D01*
X170253318Y-107934349D01*
X170269204Y-107955768D01*
X170282914Y-107978642D01*
X170294315Y-108002748D01*
X170303299Y-108027857D01*
X170309779Y-108053725D01*
X170313692Y-108080103D01*
X170315000Y-108106738D01*
X170315000Y-109063262D01*
X170313692Y-109089897D01*
X170309779Y-109116275D01*
X170303299Y-109142143D01*
X170294315Y-109167252D01*
X170282914Y-109191358D01*
X170269204Y-109214232D01*
X170253318Y-109235651D01*
X170235410Y-109255410D01*
X170215651Y-109273318D01*
X170194232Y-109289204D01*
X170171358Y-109302914D01*
X170147252Y-109314315D01*
X170122143Y-109323299D01*
X170096275Y-109329779D01*
X170069897Y-109333692D01*
X170043262Y-109335000D01*
X169336738Y-109335000D01*
X169310103Y-109333692D01*
X169283725Y-109329779D01*
X169257857Y-109323299D01*
X169232748Y-109314315D01*
X169208642Y-109302914D01*
X169185768Y-109289204D01*
X169164349Y-109273318D01*
X169144590Y-109255410D01*
X169126682Y-109235651D01*
X169110796Y-109214232D01*
X169097086Y-109191358D01*
X169085685Y-109167252D01*
X169076701Y-109142143D01*
X169070221Y-109116275D01*
X169066308Y-109089897D01*
X169065000Y-109063262D01*
X169065000Y-108106738D01*
X169066308Y-108080103D01*
X169070221Y-108053725D01*
X169076701Y-108027857D01*
X169085685Y-108002748D01*
X169097086Y-107978642D01*
X169110796Y-107955768D01*
X169126682Y-107934349D01*
X169144590Y-107914590D01*
X169164349Y-107896682D01*
X169185768Y-107880796D01*
X169208642Y-107867086D01*
X169232748Y-107855685D01*
X169257857Y-107846701D01*
X169283725Y-107840221D01*
X169310103Y-107836308D01*
X169336738Y-107835000D01*
X170043262Y-107835000D01*
X170069897Y-107836308D01*
X170069897Y-107836308D01*
G37*
D15*
X169690000Y-108585000D03*
D13*
G36*
X168019897Y-107836308D02*
X168046275Y-107840221D01*
X168072143Y-107846701D01*
X168097252Y-107855685D01*
X168121358Y-107867086D01*
X168144232Y-107880796D01*
X168165651Y-107896682D01*
X168185410Y-107914590D01*
X168203318Y-107934349D01*
X168219204Y-107955768D01*
X168232914Y-107978642D01*
X168244315Y-108002748D01*
X168253299Y-108027857D01*
X168259779Y-108053725D01*
X168263692Y-108080103D01*
X168265000Y-108106738D01*
X168265000Y-109063262D01*
X168263692Y-109089897D01*
X168259779Y-109116275D01*
X168253299Y-109142143D01*
X168244315Y-109167252D01*
X168232914Y-109191358D01*
X168219204Y-109214232D01*
X168203318Y-109235651D01*
X168185410Y-109255410D01*
X168165651Y-109273318D01*
X168144232Y-109289204D01*
X168121358Y-109302914D01*
X168097252Y-109314315D01*
X168072143Y-109323299D01*
X168046275Y-109329779D01*
X168019897Y-109333692D01*
X167993262Y-109335000D01*
X167286738Y-109335000D01*
X167260103Y-109333692D01*
X167233725Y-109329779D01*
X167207857Y-109323299D01*
X167182748Y-109314315D01*
X167158642Y-109302914D01*
X167135768Y-109289204D01*
X167114349Y-109273318D01*
X167094590Y-109255410D01*
X167076682Y-109235651D01*
X167060796Y-109214232D01*
X167047086Y-109191358D01*
X167035685Y-109167252D01*
X167026701Y-109142143D01*
X167020221Y-109116275D01*
X167016308Y-109089897D01*
X167015000Y-109063262D01*
X167015000Y-108106738D01*
X167016308Y-108080103D01*
X167020221Y-108053725D01*
X167026701Y-108027857D01*
X167035685Y-108002748D01*
X167047086Y-107978642D01*
X167060796Y-107955768D01*
X167076682Y-107934349D01*
X167094590Y-107914590D01*
X167114349Y-107896682D01*
X167135768Y-107880796D01*
X167158642Y-107867086D01*
X167182748Y-107855685D01*
X167207857Y-107846701D01*
X167233725Y-107840221D01*
X167260103Y-107836308D01*
X167286738Y-107835000D01*
X167993262Y-107835000D01*
X168019897Y-107836308D01*
X168019897Y-107836308D01*
G37*
D15*
X167640000Y-108585000D03*
%TD*%
D16*
%TO.C,J1*%
X124000000Y-101460000D03*
D17*
X124000000Y-104000000D03*
%TD*%
%TO.C,JP1*%
X124904500Y-86042500D03*
D16*
X122364500Y-86042500D03*
%TD*%
%TO.C,JP2*%
X122364500Y-89979500D03*
D17*
X124904500Y-89979500D03*
%TD*%
D13*
%TO.C,R1*%
G36*
X133219897Y-88276308D02*
X133246275Y-88280221D01*
X133272143Y-88286701D01*
X133297252Y-88295685D01*
X133321358Y-88307086D01*
X133344232Y-88320796D01*
X133365651Y-88336682D01*
X133385410Y-88354590D01*
X133403318Y-88374349D01*
X133419204Y-88395768D01*
X133432914Y-88418642D01*
X133444315Y-88442748D01*
X133453299Y-88467857D01*
X133459779Y-88493725D01*
X133463692Y-88520103D01*
X133465000Y-88546738D01*
X133465000Y-89253262D01*
X133463692Y-89279897D01*
X133459779Y-89306275D01*
X133453299Y-89332143D01*
X133444315Y-89357252D01*
X133432914Y-89381358D01*
X133419204Y-89404232D01*
X133403318Y-89425651D01*
X133385410Y-89445410D01*
X133365651Y-89463318D01*
X133344232Y-89479204D01*
X133321358Y-89492914D01*
X133297252Y-89504315D01*
X133272143Y-89513299D01*
X133246275Y-89519779D01*
X133219897Y-89523692D01*
X133193262Y-89525000D01*
X132236738Y-89525000D01*
X132210103Y-89523692D01*
X132183725Y-89519779D01*
X132157857Y-89513299D01*
X132132748Y-89504315D01*
X132108642Y-89492914D01*
X132085768Y-89479204D01*
X132064349Y-89463318D01*
X132044590Y-89445410D01*
X132026682Y-89425651D01*
X132010796Y-89404232D01*
X131997086Y-89381358D01*
X131985685Y-89357252D01*
X131976701Y-89332143D01*
X131970221Y-89306275D01*
X131966308Y-89279897D01*
X131965000Y-89253262D01*
X131965000Y-88546738D01*
X131966308Y-88520103D01*
X131970221Y-88493725D01*
X131976701Y-88467857D01*
X131985685Y-88442748D01*
X131997086Y-88418642D01*
X132010796Y-88395768D01*
X132026682Y-88374349D01*
X132044590Y-88354590D01*
X132064349Y-88336682D01*
X132085768Y-88320796D01*
X132108642Y-88307086D01*
X132132748Y-88295685D01*
X132157857Y-88286701D01*
X132183725Y-88280221D01*
X132210103Y-88276308D01*
X132236738Y-88275000D01*
X133193262Y-88275000D01*
X133219897Y-88276308D01*
X133219897Y-88276308D01*
G37*
D15*
X132715000Y-88900000D03*
D13*
G36*
X133219897Y-86226308D02*
X133246275Y-86230221D01*
X133272143Y-86236701D01*
X133297252Y-86245685D01*
X133321358Y-86257086D01*
X133344232Y-86270796D01*
X133365651Y-86286682D01*
X133385410Y-86304590D01*
X133403318Y-86324349D01*
X133419204Y-86345768D01*
X133432914Y-86368642D01*
X133444315Y-86392748D01*
X133453299Y-86417857D01*
X133459779Y-86443725D01*
X133463692Y-86470103D01*
X133465000Y-86496738D01*
X133465000Y-87203262D01*
X133463692Y-87229897D01*
X133459779Y-87256275D01*
X133453299Y-87282143D01*
X133444315Y-87307252D01*
X133432914Y-87331358D01*
X133419204Y-87354232D01*
X133403318Y-87375651D01*
X133385410Y-87395410D01*
X133365651Y-87413318D01*
X133344232Y-87429204D01*
X133321358Y-87442914D01*
X133297252Y-87454315D01*
X133272143Y-87463299D01*
X133246275Y-87469779D01*
X133219897Y-87473692D01*
X133193262Y-87475000D01*
X132236738Y-87475000D01*
X132210103Y-87473692D01*
X132183725Y-87469779D01*
X132157857Y-87463299D01*
X132132748Y-87454315D01*
X132108642Y-87442914D01*
X132085768Y-87429204D01*
X132064349Y-87413318D01*
X132044590Y-87395410D01*
X132026682Y-87375651D01*
X132010796Y-87354232D01*
X131997086Y-87331358D01*
X131985685Y-87307252D01*
X131976701Y-87282143D01*
X131970221Y-87256275D01*
X131966308Y-87229897D01*
X131965000Y-87203262D01*
X131965000Y-86496738D01*
X131966308Y-86470103D01*
X131970221Y-86443725D01*
X131976701Y-86417857D01*
X131985685Y-86392748D01*
X131997086Y-86368642D01*
X132010796Y-86345768D01*
X132026682Y-86324349D01*
X132044590Y-86304590D01*
X132064349Y-86286682D01*
X132085768Y-86270796D01*
X132108642Y-86257086D01*
X132132748Y-86245685D01*
X132157857Y-86236701D01*
X132183725Y-86230221D01*
X132210103Y-86226308D01*
X132236738Y-86225000D01*
X133193262Y-86225000D01*
X133219897Y-86226308D01*
X133219897Y-86226308D01*
G37*
D15*
X132715000Y-86850000D03*
%TD*%
D13*
%TO.C,R2*%
G36*
X163064897Y-91451308D02*
X163091275Y-91455221D01*
X163117143Y-91461701D01*
X163142252Y-91470685D01*
X163166358Y-91482086D01*
X163189232Y-91495796D01*
X163210651Y-91511682D01*
X163230410Y-91529590D01*
X163248318Y-91549349D01*
X163264204Y-91570768D01*
X163277914Y-91593642D01*
X163289315Y-91617748D01*
X163298299Y-91642857D01*
X163304779Y-91668725D01*
X163308692Y-91695103D01*
X163310000Y-91721738D01*
X163310000Y-92428262D01*
X163308692Y-92454897D01*
X163304779Y-92481275D01*
X163298299Y-92507143D01*
X163289315Y-92532252D01*
X163277914Y-92556358D01*
X163264204Y-92579232D01*
X163248318Y-92600651D01*
X163230410Y-92620410D01*
X163210651Y-92638318D01*
X163189232Y-92654204D01*
X163166358Y-92667914D01*
X163142252Y-92679315D01*
X163117143Y-92688299D01*
X163091275Y-92694779D01*
X163064897Y-92698692D01*
X163038262Y-92700000D01*
X162081738Y-92700000D01*
X162055103Y-92698692D01*
X162028725Y-92694779D01*
X162002857Y-92688299D01*
X161977748Y-92679315D01*
X161953642Y-92667914D01*
X161930768Y-92654204D01*
X161909349Y-92638318D01*
X161889590Y-92620410D01*
X161871682Y-92600651D01*
X161855796Y-92579232D01*
X161842086Y-92556358D01*
X161830685Y-92532252D01*
X161821701Y-92507143D01*
X161815221Y-92481275D01*
X161811308Y-92454897D01*
X161810000Y-92428262D01*
X161810000Y-91721738D01*
X161811308Y-91695103D01*
X161815221Y-91668725D01*
X161821701Y-91642857D01*
X161830685Y-91617748D01*
X161842086Y-91593642D01*
X161855796Y-91570768D01*
X161871682Y-91549349D01*
X161889590Y-91529590D01*
X161909349Y-91511682D01*
X161930768Y-91495796D01*
X161953642Y-91482086D01*
X161977748Y-91470685D01*
X162002857Y-91461701D01*
X162028725Y-91455221D01*
X162055103Y-91451308D01*
X162081738Y-91450000D01*
X163038262Y-91450000D01*
X163064897Y-91451308D01*
X163064897Y-91451308D01*
G37*
D15*
X162560000Y-92075000D03*
D13*
G36*
X163064897Y-93501308D02*
X163091275Y-93505221D01*
X163117143Y-93511701D01*
X163142252Y-93520685D01*
X163166358Y-93532086D01*
X163189232Y-93545796D01*
X163210651Y-93561682D01*
X163230410Y-93579590D01*
X163248318Y-93599349D01*
X163264204Y-93620768D01*
X163277914Y-93643642D01*
X163289315Y-93667748D01*
X163298299Y-93692857D01*
X163304779Y-93718725D01*
X163308692Y-93745103D01*
X163310000Y-93771738D01*
X163310000Y-94478262D01*
X163308692Y-94504897D01*
X163304779Y-94531275D01*
X163298299Y-94557143D01*
X163289315Y-94582252D01*
X163277914Y-94606358D01*
X163264204Y-94629232D01*
X163248318Y-94650651D01*
X163230410Y-94670410D01*
X163210651Y-94688318D01*
X163189232Y-94704204D01*
X163166358Y-94717914D01*
X163142252Y-94729315D01*
X163117143Y-94738299D01*
X163091275Y-94744779D01*
X163064897Y-94748692D01*
X163038262Y-94750000D01*
X162081738Y-94750000D01*
X162055103Y-94748692D01*
X162028725Y-94744779D01*
X162002857Y-94738299D01*
X161977748Y-94729315D01*
X161953642Y-94717914D01*
X161930768Y-94704204D01*
X161909349Y-94688318D01*
X161889590Y-94670410D01*
X161871682Y-94650651D01*
X161855796Y-94629232D01*
X161842086Y-94606358D01*
X161830685Y-94582252D01*
X161821701Y-94557143D01*
X161815221Y-94531275D01*
X161811308Y-94504897D01*
X161810000Y-94478262D01*
X161810000Y-93771738D01*
X161811308Y-93745103D01*
X161815221Y-93718725D01*
X161821701Y-93692857D01*
X161830685Y-93667748D01*
X161842086Y-93643642D01*
X161855796Y-93620768D01*
X161871682Y-93599349D01*
X161889590Y-93579590D01*
X161909349Y-93561682D01*
X161930768Y-93545796D01*
X161953642Y-93532086D01*
X161977748Y-93520685D01*
X162002857Y-93511701D01*
X162028725Y-93505221D01*
X162055103Y-93501308D01*
X162081738Y-93500000D01*
X163038262Y-93500000D01*
X163064897Y-93501308D01*
X163064897Y-93501308D01*
G37*
D15*
X162560000Y-94125000D03*
%TD*%
D13*
%TO.C,R3*%
G36*
X160524897Y-93501308D02*
X160551275Y-93505221D01*
X160577143Y-93511701D01*
X160602252Y-93520685D01*
X160626358Y-93532086D01*
X160649232Y-93545796D01*
X160670651Y-93561682D01*
X160690410Y-93579590D01*
X160708318Y-93599349D01*
X160724204Y-93620768D01*
X160737914Y-93643642D01*
X160749315Y-93667748D01*
X160758299Y-93692857D01*
X160764779Y-93718725D01*
X160768692Y-93745103D01*
X160770000Y-93771738D01*
X160770000Y-94478262D01*
X160768692Y-94504897D01*
X160764779Y-94531275D01*
X160758299Y-94557143D01*
X160749315Y-94582252D01*
X160737914Y-94606358D01*
X160724204Y-94629232D01*
X160708318Y-94650651D01*
X160690410Y-94670410D01*
X160670651Y-94688318D01*
X160649232Y-94704204D01*
X160626358Y-94717914D01*
X160602252Y-94729315D01*
X160577143Y-94738299D01*
X160551275Y-94744779D01*
X160524897Y-94748692D01*
X160498262Y-94750000D01*
X159541738Y-94750000D01*
X159515103Y-94748692D01*
X159488725Y-94744779D01*
X159462857Y-94738299D01*
X159437748Y-94729315D01*
X159413642Y-94717914D01*
X159390768Y-94704204D01*
X159369349Y-94688318D01*
X159349590Y-94670410D01*
X159331682Y-94650651D01*
X159315796Y-94629232D01*
X159302086Y-94606358D01*
X159290685Y-94582252D01*
X159281701Y-94557143D01*
X159275221Y-94531275D01*
X159271308Y-94504897D01*
X159270000Y-94478262D01*
X159270000Y-93771738D01*
X159271308Y-93745103D01*
X159275221Y-93718725D01*
X159281701Y-93692857D01*
X159290685Y-93667748D01*
X159302086Y-93643642D01*
X159315796Y-93620768D01*
X159331682Y-93599349D01*
X159349590Y-93579590D01*
X159369349Y-93561682D01*
X159390768Y-93545796D01*
X159413642Y-93532086D01*
X159437748Y-93520685D01*
X159462857Y-93511701D01*
X159488725Y-93505221D01*
X159515103Y-93501308D01*
X159541738Y-93500000D01*
X160498262Y-93500000D01*
X160524897Y-93501308D01*
X160524897Y-93501308D01*
G37*
D15*
X160020000Y-94125000D03*
D13*
G36*
X160524897Y-91451308D02*
X160551275Y-91455221D01*
X160577143Y-91461701D01*
X160602252Y-91470685D01*
X160626358Y-91482086D01*
X160649232Y-91495796D01*
X160670651Y-91511682D01*
X160690410Y-91529590D01*
X160708318Y-91549349D01*
X160724204Y-91570768D01*
X160737914Y-91593642D01*
X160749315Y-91617748D01*
X160758299Y-91642857D01*
X160764779Y-91668725D01*
X160768692Y-91695103D01*
X160770000Y-91721738D01*
X160770000Y-92428262D01*
X160768692Y-92454897D01*
X160764779Y-92481275D01*
X160758299Y-92507143D01*
X160749315Y-92532252D01*
X160737914Y-92556358D01*
X160724204Y-92579232D01*
X160708318Y-92600651D01*
X160690410Y-92620410D01*
X160670651Y-92638318D01*
X160649232Y-92654204D01*
X160626358Y-92667914D01*
X160602252Y-92679315D01*
X160577143Y-92688299D01*
X160551275Y-92694779D01*
X160524897Y-92698692D01*
X160498262Y-92700000D01*
X159541738Y-92700000D01*
X159515103Y-92698692D01*
X159488725Y-92694779D01*
X159462857Y-92688299D01*
X159437748Y-92679315D01*
X159413642Y-92667914D01*
X159390768Y-92654204D01*
X159369349Y-92638318D01*
X159349590Y-92620410D01*
X159331682Y-92600651D01*
X159315796Y-92579232D01*
X159302086Y-92556358D01*
X159290685Y-92532252D01*
X159281701Y-92507143D01*
X159275221Y-92481275D01*
X159271308Y-92454897D01*
X159270000Y-92428262D01*
X159270000Y-91721738D01*
X159271308Y-91695103D01*
X159275221Y-91668725D01*
X159281701Y-91642857D01*
X159290685Y-91617748D01*
X159302086Y-91593642D01*
X159315796Y-91570768D01*
X159331682Y-91549349D01*
X159349590Y-91529590D01*
X159369349Y-91511682D01*
X159390768Y-91495796D01*
X159413642Y-91482086D01*
X159437748Y-91470685D01*
X159462857Y-91461701D01*
X159488725Y-91455221D01*
X159515103Y-91451308D01*
X159541738Y-91450000D01*
X160498262Y-91450000D01*
X160524897Y-91451308D01*
X160524897Y-91451308D01*
G37*
D15*
X160020000Y-92075000D03*
%TD*%
D13*
%TO.C,R4*%
G36*
X130064897Y-81801308D02*
X130091275Y-81805221D01*
X130117143Y-81811701D01*
X130142252Y-81820685D01*
X130166358Y-81832086D01*
X130189232Y-81845796D01*
X130210651Y-81861682D01*
X130230410Y-81879590D01*
X130248318Y-81899349D01*
X130264204Y-81920768D01*
X130277914Y-81943642D01*
X130289315Y-81967748D01*
X130298299Y-81992857D01*
X130304779Y-82018725D01*
X130308692Y-82045103D01*
X130310000Y-82071738D01*
X130310000Y-83028262D01*
X130308692Y-83054897D01*
X130304779Y-83081275D01*
X130298299Y-83107143D01*
X130289315Y-83132252D01*
X130277914Y-83156358D01*
X130264204Y-83179232D01*
X130248318Y-83200651D01*
X130230410Y-83220410D01*
X130210651Y-83238318D01*
X130189232Y-83254204D01*
X130166358Y-83267914D01*
X130142252Y-83279315D01*
X130117143Y-83288299D01*
X130091275Y-83294779D01*
X130064897Y-83298692D01*
X130038262Y-83300000D01*
X129331738Y-83300000D01*
X129305103Y-83298692D01*
X129278725Y-83294779D01*
X129252857Y-83288299D01*
X129227748Y-83279315D01*
X129203642Y-83267914D01*
X129180768Y-83254204D01*
X129159349Y-83238318D01*
X129139590Y-83220410D01*
X129121682Y-83200651D01*
X129105796Y-83179232D01*
X129092086Y-83156358D01*
X129080685Y-83132252D01*
X129071701Y-83107143D01*
X129065221Y-83081275D01*
X129061308Y-83054897D01*
X129060000Y-83028262D01*
X129060000Y-82071738D01*
X129061308Y-82045103D01*
X129065221Y-82018725D01*
X129071701Y-81992857D01*
X129080685Y-81967748D01*
X129092086Y-81943642D01*
X129105796Y-81920768D01*
X129121682Y-81899349D01*
X129139590Y-81879590D01*
X129159349Y-81861682D01*
X129180768Y-81845796D01*
X129203642Y-81832086D01*
X129227748Y-81820685D01*
X129252857Y-81811701D01*
X129278725Y-81805221D01*
X129305103Y-81801308D01*
X129331738Y-81800000D01*
X130038262Y-81800000D01*
X130064897Y-81801308D01*
X130064897Y-81801308D01*
G37*
D15*
X129685000Y-82550000D03*
D13*
G36*
X128014897Y-81801308D02*
X128041275Y-81805221D01*
X128067143Y-81811701D01*
X128092252Y-81820685D01*
X128116358Y-81832086D01*
X128139232Y-81845796D01*
X128160651Y-81861682D01*
X128180410Y-81879590D01*
X128198318Y-81899349D01*
X128214204Y-81920768D01*
X128227914Y-81943642D01*
X128239315Y-81967748D01*
X128248299Y-81992857D01*
X128254779Y-82018725D01*
X128258692Y-82045103D01*
X128260000Y-82071738D01*
X128260000Y-83028262D01*
X128258692Y-83054897D01*
X128254779Y-83081275D01*
X128248299Y-83107143D01*
X128239315Y-83132252D01*
X128227914Y-83156358D01*
X128214204Y-83179232D01*
X128198318Y-83200651D01*
X128180410Y-83220410D01*
X128160651Y-83238318D01*
X128139232Y-83254204D01*
X128116358Y-83267914D01*
X128092252Y-83279315D01*
X128067143Y-83288299D01*
X128041275Y-83294779D01*
X128014897Y-83298692D01*
X127988262Y-83300000D01*
X127281738Y-83300000D01*
X127255103Y-83298692D01*
X127228725Y-83294779D01*
X127202857Y-83288299D01*
X127177748Y-83279315D01*
X127153642Y-83267914D01*
X127130768Y-83254204D01*
X127109349Y-83238318D01*
X127089590Y-83220410D01*
X127071682Y-83200651D01*
X127055796Y-83179232D01*
X127042086Y-83156358D01*
X127030685Y-83132252D01*
X127021701Y-83107143D01*
X127015221Y-83081275D01*
X127011308Y-83054897D01*
X127010000Y-83028262D01*
X127010000Y-82071738D01*
X127011308Y-82045103D01*
X127015221Y-82018725D01*
X127021701Y-81992857D01*
X127030685Y-81967748D01*
X127042086Y-81943642D01*
X127055796Y-81920768D01*
X127071682Y-81899349D01*
X127089590Y-81879590D01*
X127109349Y-81861682D01*
X127130768Y-81845796D01*
X127153642Y-81832086D01*
X127177748Y-81820685D01*
X127202857Y-81811701D01*
X127228725Y-81805221D01*
X127255103Y-81801308D01*
X127281738Y-81800000D01*
X127988262Y-81800000D01*
X128014897Y-81801308D01*
X128014897Y-81801308D01*
G37*
D15*
X127635000Y-82550000D03*
%TD*%
D13*
%TO.C,R5*%
G36*
X170060897Y-110503308D02*
X170087275Y-110507221D01*
X170113143Y-110513701D01*
X170138252Y-110522685D01*
X170162358Y-110534086D01*
X170185232Y-110547796D01*
X170206651Y-110563682D01*
X170226410Y-110581590D01*
X170244318Y-110601349D01*
X170260204Y-110622768D01*
X170273914Y-110645642D01*
X170285315Y-110669748D01*
X170294299Y-110694857D01*
X170300779Y-110720725D01*
X170304692Y-110747103D01*
X170306000Y-110773738D01*
X170306000Y-111730262D01*
X170304692Y-111756897D01*
X170300779Y-111783275D01*
X170294299Y-111809143D01*
X170285315Y-111834252D01*
X170273914Y-111858358D01*
X170260204Y-111881232D01*
X170244318Y-111902651D01*
X170226410Y-111922410D01*
X170206651Y-111940318D01*
X170185232Y-111956204D01*
X170162358Y-111969914D01*
X170138252Y-111981315D01*
X170113143Y-111990299D01*
X170087275Y-111996779D01*
X170060897Y-112000692D01*
X170034262Y-112002000D01*
X169327738Y-112002000D01*
X169301103Y-112000692D01*
X169274725Y-111996779D01*
X169248857Y-111990299D01*
X169223748Y-111981315D01*
X169199642Y-111969914D01*
X169176768Y-111956204D01*
X169155349Y-111940318D01*
X169135590Y-111922410D01*
X169117682Y-111902651D01*
X169101796Y-111881232D01*
X169088086Y-111858358D01*
X169076685Y-111834252D01*
X169067701Y-111809143D01*
X169061221Y-111783275D01*
X169057308Y-111756897D01*
X169056000Y-111730262D01*
X169056000Y-110773738D01*
X169057308Y-110747103D01*
X169061221Y-110720725D01*
X169067701Y-110694857D01*
X169076685Y-110669748D01*
X169088086Y-110645642D01*
X169101796Y-110622768D01*
X169117682Y-110601349D01*
X169135590Y-110581590D01*
X169155349Y-110563682D01*
X169176768Y-110547796D01*
X169199642Y-110534086D01*
X169223748Y-110522685D01*
X169248857Y-110513701D01*
X169274725Y-110507221D01*
X169301103Y-110503308D01*
X169327738Y-110502000D01*
X170034262Y-110502000D01*
X170060897Y-110503308D01*
X170060897Y-110503308D01*
G37*
D15*
X169681000Y-111252000D03*
D13*
G36*
X168010897Y-110503308D02*
X168037275Y-110507221D01*
X168063143Y-110513701D01*
X168088252Y-110522685D01*
X168112358Y-110534086D01*
X168135232Y-110547796D01*
X168156651Y-110563682D01*
X168176410Y-110581590D01*
X168194318Y-110601349D01*
X168210204Y-110622768D01*
X168223914Y-110645642D01*
X168235315Y-110669748D01*
X168244299Y-110694857D01*
X168250779Y-110720725D01*
X168254692Y-110747103D01*
X168256000Y-110773738D01*
X168256000Y-111730262D01*
X168254692Y-111756897D01*
X168250779Y-111783275D01*
X168244299Y-111809143D01*
X168235315Y-111834252D01*
X168223914Y-111858358D01*
X168210204Y-111881232D01*
X168194318Y-111902651D01*
X168176410Y-111922410D01*
X168156651Y-111940318D01*
X168135232Y-111956204D01*
X168112358Y-111969914D01*
X168088252Y-111981315D01*
X168063143Y-111990299D01*
X168037275Y-111996779D01*
X168010897Y-112000692D01*
X167984262Y-112002000D01*
X167277738Y-112002000D01*
X167251103Y-112000692D01*
X167224725Y-111996779D01*
X167198857Y-111990299D01*
X167173748Y-111981315D01*
X167149642Y-111969914D01*
X167126768Y-111956204D01*
X167105349Y-111940318D01*
X167085590Y-111922410D01*
X167067682Y-111902651D01*
X167051796Y-111881232D01*
X167038086Y-111858358D01*
X167026685Y-111834252D01*
X167017701Y-111809143D01*
X167011221Y-111783275D01*
X167007308Y-111756897D01*
X167006000Y-111730262D01*
X167006000Y-110773738D01*
X167007308Y-110747103D01*
X167011221Y-110720725D01*
X167017701Y-110694857D01*
X167026685Y-110669748D01*
X167038086Y-110645642D01*
X167051796Y-110622768D01*
X167067682Y-110601349D01*
X167085590Y-110581590D01*
X167105349Y-110563682D01*
X167126768Y-110547796D01*
X167149642Y-110534086D01*
X167173748Y-110522685D01*
X167198857Y-110513701D01*
X167224725Y-110507221D01*
X167251103Y-110503308D01*
X167277738Y-110502000D01*
X167984262Y-110502000D01*
X168010897Y-110503308D01*
X168010897Y-110503308D01*
G37*
D15*
X167631000Y-111252000D03*
%TD*%
D18*
%TO.C,S1*%
X123000000Y-118000000D03*
X121000000Y-118000000D03*
X119000000Y-118000000D03*
D13*
G36*
X117405714Y-117076304D02*
X117432005Y-117080204D01*
X117457786Y-117086662D01*
X117482811Y-117095616D01*
X117506837Y-117106980D01*
X117529634Y-117120643D01*
X117550982Y-117136476D01*
X117570675Y-117154325D01*
X117588524Y-117174018D01*
X117604357Y-117195366D01*
X117618020Y-117218163D01*
X117629384Y-117242189D01*
X117638338Y-117267214D01*
X117644796Y-117292995D01*
X117648696Y-117319286D01*
X117650000Y-117345832D01*
X117650000Y-118654168D01*
X117648696Y-118680714D01*
X117644796Y-118707005D01*
X117638338Y-118732786D01*
X117629384Y-118757811D01*
X117618020Y-118781837D01*
X117604357Y-118804634D01*
X117588524Y-118825982D01*
X117570675Y-118845675D01*
X117550982Y-118863524D01*
X117529634Y-118879357D01*
X117506837Y-118893020D01*
X117482811Y-118904384D01*
X117457786Y-118913338D01*
X117432005Y-118919796D01*
X117405714Y-118923696D01*
X117379168Y-118925000D01*
X116620832Y-118925000D01*
X116594286Y-118923696D01*
X116567995Y-118919796D01*
X116542214Y-118913338D01*
X116517189Y-118904384D01*
X116493163Y-118893020D01*
X116470366Y-118879357D01*
X116449018Y-118863524D01*
X116429325Y-118845675D01*
X116411476Y-118825982D01*
X116395643Y-118804634D01*
X116381980Y-118781837D01*
X116370616Y-118757811D01*
X116361662Y-118732786D01*
X116355204Y-118707005D01*
X116351304Y-118680714D01*
X116350000Y-118654168D01*
X116350000Y-117345832D01*
X116351304Y-117319286D01*
X116355204Y-117292995D01*
X116361662Y-117267214D01*
X116370616Y-117242189D01*
X116381980Y-117218163D01*
X116395643Y-117195366D01*
X116411476Y-117174018D01*
X116429325Y-117154325D01*
X116449018Y-117136476D01*
X116470366Y-117120643D01*
X116493163Y-117106980D01*
X116517189Y-117095616D01*
X116542214Y-117086662D01*
X116567995Y-117080204D01*
X116594286Y-117076304D01*
X116620832Y-117075000D01*
X117379168Y-117075000D01*
X117405714Y-117076304D01*
X117405714Y-117076304D01*
G37*
D19*
X117000000Y-118000000D03*
%TD*%
D13*
%TO.C,S3*%
G36*
X153405714Y-117076304D02*
X153432005Y-117080204D01*
X153457786Y-117086662D01*
X153482811Y-117095616D01*
X153506837Y-117106980D01*
X153529634Y-117120643D01*
X153550982Y-117136476D01*
X153570675Y-117154325D01*
X153588524Y-117174018D01*
X153604357Y-117195366D01*
X153618020Y-117218163D01*
X153629384Y-117242189D01*
X153638338Y-117267214D01*
X153644796Y-117292995D01*
X153648696Y-117319286D01*
X153650000Y-117345832D01*
X153650000Y-118654168D01*
X153648696Y-118680714D01*
X153644796Y-118707005D01*
X153638338Y-118732786D01*
X153629384Y-118757811D01*
X153618020Y-118781837D01*
X153604357Y-118804634D01*
X153588524Y-118825982D01*
X153570675Y-118845675D01*
X153550982Y-118863524D01*
X153529634Y-118879357D01*
X153506837Y-118893020D01*
X153482811Y-118904384D01*
X153457786Y-118913338D01*
X153432005Y-118919796D01*
X153405714Y-118923696D01*
X153379168Y-118925000D01*
X152620832Y-118925000D01*
X152594286Y-118923696D01*
X152567995Y-118919796D01*
X152542214Y-118913338D01*
X152517189Y-118904384D01*
X152493163Y-118893020D01*
X152470366Y-118879357D01*
X152449018Y-118863524D01*
X152429325Y-118845675D01*
X152411476Y-118825982D01*
X152395643Y-118804634D01*
X152381980Y-118781837D01*
X152370616Y-118757811D01*
X152361662Y-118732786D01*
X152355204Y-118707005D01*
X152351304Y-118680714D01*
X152350000Y-118654168D01*
X152350000Y-117345832D01*
X152351304Y-117319286D01*
X152355204Y-117292995D01*
X152361662Y-117267214D01*
X152370616Y-117242189D01*
X152381980Y-117218163D01*
X152395643Y-117195366D01*
X152411476Y-117174018D01*
X152429325Y-117154325D01*
X152449018Y-117136476D01*
X152470366Y-117120643D01*
X152493163Y-117106980D01*
X152517189Y-117095616D01*
X152542214Y-117086662D01*
X152567995Y-117080204D01*
X152594286Y-117076304D01*
X152620832Y-117075000D01*
X153379168Y-117075000D01*
X153405714Y-117076304D01*
X153405714Y-117076304D01*
G37*
D19*
X153000000Y-118000000D03*
D18*
X155000000Y-118000000D03*
X157000000Y-118000000D03*
X159000000Y-118000000D03*
%TD*%
D13*
%TO.C,S4*%
G36*
X129405714Y-117076304D02*
X129432005Y-117080204D01*
X129457786Y-117086662D01*
X129482811Y-117095616D01*
X129506837Y-117106980D01*
X129529634Y-117120643D01*
X129550982Y-117136476D01*
X129570675Y-117154325D01*
X129588524Y-117174018D01*
X129604357Y-117195366D01*
X129618020Y-117218163D01*
X129629384Y-117242189D01*
X129638338Y-117267214D01*
X129644796Y-117292995D01*
X129648696Y-117319286D01*
X129650000Y-117345832D01*
X129650000Y-118654168D01*
X129648696Y-118680714D01*
X129644796Y-118707005D01*
X129638338Y-118732786D01*
X129629384Y-118757811D01*
X129618020Y-118781837D01*
X129604357Y-118804634D01*
X129588524Y-118825982D01*
X129570675Y-118845675D01*
X129550982Y-118863524D01*
X129529634Y-118879357D01*
X129506837Y-118893020D01*
X129482811Y-118904384D01*
X129457786Y-118913338D01*
X129432005Y-118919796D01*
X129405714Y-118923696D01*
X129379168Y-118925000D01*
X128620832Y-118925000D01*
X128594286Y-118923696D01*
X128567995Y-118919796D01*
X128542214Y-118913338D01*
X128517189Y-118904384D01*
X128493163Y-118893020D01*
X128470366Y-118879357D01*
X128449018Y-118863524D01*
X128429325Y-118845675D01*
X128411476Y-118825982D01*
X128395643Y-118804634D01*
X128381980Y-118781837D01*
X128370616Y-118757811D01*
X128361662Y-118732786D01*
X128355204Y-118707005D01*
X128351304Y-118680714D01*
X128350000Y-118654168D01*
X128350000Y-117345832D01*
X128351304Y-117319286D01*
X128355204Y-117292995D01*
X128361662Y-117267214D01*
X128370616Y-117242189D01*
X128381980Y-117218163D01*
X128395643Y-117195366D01*
X128411476Y-117174018D01*
X128429325Y-117154325D01*
X128449018Y-117136476D01*
X128470366Y-117120643D01*
X128493163Y-117106980D01*
X128517189Y-117095616D01*
X128542214Y-117086662D01*
X128567995Y-117080204D01*
X128594286Y-117076304D01*
X128620832Y-117075000D01*
X129379168Y-117075000D01*
X129405714Y-117076304D01*
X129405714Y-117076304D01*
G37*
D19*
X129000000Y-118000000D03*
D18*
X131000000Y-118000000D03*
X133000000Y-118000000D03*
X135000000Y-118000000D03*
%TD*%
%TO.C,S5*%
X171000000Y-118000000D03*
X169000000Y-118000000D03*
X167000000Y-118000000D03*
D13*
G36*
X165405714Y-117076304D02*
X165432005Y-117080204D01*
X165457786Y-117086662D01*
X165482811Y-117095616D01*
X165506837Y-117106980D01*
X165529634Y-117120643D01*
X165550982Y-117136476D01*
X165570675Y-117154325D01*
X165588524Y-117174018D01*
X165604357Y-117195366D01*
X165618020Y-117218163D01*
X165629384Y-117242189D01*
X165638338Y-117267214D01*
X165644796Y-117292995D01*
X165648696Y-117319286D01*
X165650000Y-117345832D01*
X165650000Y-118654168D01*
X165648696Y-118680714D01*
X165644796Y-118707005D01*
X165638338Y-118732786D01*
X165629384Y-118757811D01*
X165618020Y-118781837D01*
X165604357Y-118804634D01*
X165588524Y-118825982D01*
X165570675Y-118845675D01*
X165550982Y-118863524D01*
X165529634Y-118879357D01*
X165506837Y-118893020D01*
X165482811Y-118904384D01*
X165457786Y-118913338D01*
X165432005Y-118919796D01*
X165405714Y-118923696D01*
X165379168Y-118925000D01*
X164620832Y-118925000D01*
X164594286Y-118923696D01*
X164567995Y-118919796D01*
X164542214Y-118913338D01*
X164517189Y-118904384D01*
X164493163Y-118893020D01*
X164470366Y-118879357D01*
X164449018Y-118863524D01*
X164429325Y-118845675D01*
X164411476Y-118825982D01*
X164395643Y-118804634D01*
X164381980Y-118781837D01*
X164370616Y-118757811D01*
X164361662Y-118732786D01*
X164355204Y-118707005D01*
X164351304Y-118680714D01*
X164350000Y-118654168D01*
X164350000Y-117345832D01*
X164351304Y-117319286D01*
X164355204Y-117292995D01*
X164361662Y-117267214D01*
X164370616Y-117242189D01*
X164381980Y-117218163D01*
X164395643Y-117195366D01*
X164411476Y-117174018D01*
X164429325Y-117154325D01*
X164449018Y-117136476D01*
X164470366Y-117120643D01*
X164493163Y-117106980D01*
X164517189Y-117095616D01*
X164542214Y-117086662D01*
X164567995Y-117080204D01*
X164594286Y-117076304D01*
X164620832Y-117075000D01*
X165379168Y-117075000D01*
X165405714Y-117076304D01*
X165405714Y-117076304D01*
G37*
D19*
X165000000Y-118000000D03*
%TD*%
D13*
%TO.C,S6*%
G36*
X141405714Y-117076304D02*
X141432005Y-117080204D01*
X141457786Y-117086662D01*
X141482811Y-117095616D01*
X141506837Y-117106980D01*
X141529634Y-117120643D01*
X141550982Y-117136476D01*
X141570675Y-117154325D01*
X141588524Y-117174018D01*
X141604357Y-117195366D01*
X141618020Y-117218163D01*
X141629384Y-117242189D01*
X141638338Y-117267214D01*
X141644796Y-117292995D01*
X141648696Y-117319286D01*
X141650000Y-117345832D01*
X141650000Y-118654168D01*
X141648696Y-118680714D01*
X141644796Y-118707005D01*
X141638338Y-118732786D01*
X141629384Y-118757811D01*
X141618020Y-118781837D01*
X141604357Y-118804634D01*
X141588524Y-118825982D01*
X141570675Y-118845675D01*
X141550982Y-118863524D01*
X141529634Y-118879357D01*
X141506837Y-118893020D01*
X141482811Y-118904384D01*
X141457786Y-118913338D01*
X141432005Y-118919796D01*
X141405714Y-118923696D01*
X141379168Y-118925000D01*
X140620832Y-118925000D01*
X140594286Y-118923696D01*
X140567995Y-118919796D01*
X140542214Y-118913338D01*
X140517189Y-118904384D01*
X140493163Y-118893020D01*
X140470366Y-118879357D01*
X140449018Y-118863524D01*
X140429325Y-118845675D01*
X140411476Y-118825982D01*
X140395643Y-118804634D01*
X140381980Y-118781837D01*
X140370616Y-118757811D01*
X140361662Y-118732786D01*
X140355204Y-118707005D01*
X140351304Y-118680714D01*
X140350000Y-118654168D01*
X140350000Y-117345832D01*
X140351304Y-117319286D01*
X140355204Y-117292995D01*
X140361662Y-117267214D01*
X140370616Y-117242189D01*
X140381980Y-117218163D01*
X140395643Y-117195366D01*
X140411476Y-117174018D01*
X140429325Y-117154325D01*
X140449018Y-117136476D01*
X140470366Y-117120643D01*
X140493163Y-117106980D01*
X140517189Y-117095616D01*
X140542214Y-117086662D01*
X140567995Y-117080204D01*
X140594286Y-117076304D01*
X140620832Y-117075000D01*
X141379168Y-117075000D01*
X141405714Y-117076304D01*
X141405714Y-117076304D01*
G37*
D19*
X141000000Y-118000000D03*
D18*
X143000000Y-118000000D03*
X145000000Y-118000000D03*
X147000000Y-118000000D03*
%TD*%
D20*
%TO.C,Y1*%
X133477000Y-99949000D03*
X133477000Y-104829000D03*
%TD*%
D16*
%TO.C,JP3*%
X162560000Y-105346500D03*
D17*
X160020000Y-105346500D03*
%TD*%
%TO.C,JP4*%
X160210500Y-109855000D03*
D16*
X162750500Y-109855000D03*
%TD*%
D21*
%TO.C,Q1*%
X158686500Y-99631500D03*
X160686500Y-98681500D03*
X160686500Y-100581500D03*
%TD*%
%TO.C,Q2*%
X165020500Y-100962500D03*
X165020500Y-99062500D03*
X163020500Y-100012500D03*
%TD*%
D13*
%TO.C,R6*%
G36*
X172843897Y-105675308D02*
X172870275Y-105679221D01*
X172896143Y-105685701D01*
X172921252Y-105694685D01*
X172945358Y-105706086D01*
X172968232Y-105719796D01*
X172989651Y-105735682D01*
X173009410Y-105753590D01*
X173027318Y-105773349D01*
X173043204Y-105794768D01*
X173056914Y-105817642D01*
X173068315Y-105841748D01*
X173077299Y-105866857D01*
X173083779Y-105892725D01*
X173087692Y-105919103D01*
X173089000Y-105945738D01*
X173089000Y-106652262D01*
X173087692Y-106678897D01*
X173083779Y-106705275D01*
X173077299Y-106731143D01*
X173068315Y-106756252D01*
X173056914Y-106780358D01*
X173043204Y-106803232D01*
X173027318Y-106824651D01*
X173009410Y-106844410D01*
X172989651Y-106862318D01*
X172968232Y-106878204D01*
X172945358Y-106891914D01*
X172921252Y-106903315D01*
X172896143Y-106912299D01*
X172870275Y-106918779D01*
X172843897Y-106922692D01*
X172817262Y-106924000D01*
X171860738Y-106924000D01*
X171834103Y-106922692D01*
X171807725Y-106918779D01*
X171781857Y-106912299D01*
X171756748Y-106903315D01*
X171732642Y-106891914D01*
X171709768Y-106878204D01*
X171688349Y-106862318D01*
X171668590Y-106844410D01*
X171650682Y-106824651D01*
X171634796Y-106803232D01*
X171621086Y-106780358D01*
X171609685Y-106756252D01*
X171600701Y-106731143D01*
X171594221Y-106705275D01*
X171590308Y-106678897D01*
X171589000Y-106652262D01*
X171589000Y-105945738D01*
X171590308Y-105919103D01*
X171594221Y-105892725D01*
X171600701Y-105866857D01*
X171609685Y-105841748D01*
X171621086Y-105817642D01*
X171634796Y-105794768D01*
X171650682Y-105773349D01*
X171668590Y-105753590D01*
X171688349Y-105735682D01*
X171709768Y-105719796D01*
X171732642Y-105706086D01*
X171756748Y-105694685D01*
X171781857Y-105685701D01*
X171807725Y-105679221D01*
X171834103Y-105675308D01*
X171860738Y-105674000D01*
X172817262Y-105674000D01*
X172843897Y-105675308D01*
X172843897Y-105675308D01*
G37*
D15*
X172339000Y-106299000D03*
D13*
G36*
X172843897Y-103625308D02*
X172870275Y-103629221D01*
X172896143Y-103635701D01*
X172921252Y-103644685D01*
X172945358Y-103656086D01*
X172968232Y-103669796D01*
X172989651Y-103685682D01*
X173009410Y-103703590D01*
X173027318Y-103723349D01*
X173043204Y-103744768D01*
X173056914Y-103767642D01*
X173068315Y-103791748D01*
X173077299Y-103816857D01*
X173083779Y-103842725D01*
X173087692Y-103869103D01*
X173089000Y-103895738D01*
X173089000Y-104602262D01*
X173087692Y-104628897D01*
X173083779Y-104655275D01*
X173077299Y-104681143D01*
X173068315Y-104706252D01*
X173056914Y-104730358D01*
X173043204Y-104753232D01*
X173027318Y-104774651D01*
X173009410Y-104794410D01*
X172989651Y-104812318D01*
X172968232Y-104828204D01*
X172945358Y-104841914D01*
X172921252Y-104853315D01*
X172896143Y-104862299D01*
X172870275Y-104868779D01*
X172843897Y-104872692D01*
X172817262Y-104874000D01*
X171860738Y-104874000D01*
X171834103Y-104872692D01*
X171807725Y-104868779D01*
X171781857Y-104862299D01*
X171756748Y-104853315D01*
X171732642Y-104841914D01*
X171709768Y-104828204D01*
X171688349Y-104812318D01*
X171668590Y-104794410D01*
X171650682Y-104774651D01*
X171634796Y-104753232D01*
X171621086Y-104730358D01*
X171609685Y-104706252D01*
X171600701Y-104681143D01*
X171594221Y-104655275D01*
X171590308Y-104628897D01*
X171589000Y-104602262D01*
X171589000Y-103895738D01*
X171590308Y-103869103D01*
X171594221Y-103842725D01*
X171600701Y-103816857D01*
X171609685Y-103791748D01*
X171621086Y-103767642D01*
X171634796Y-103744768D01*
X171650682Y-103723349D01*
X171668590Y-103703590D01*
X171688349Y-103685682D01*
X171709768Y-103669796D01*
X171732642Y-103656086D01*
X171756748Y-103644685D01*
X171781857Y-103635701D01*
X171807725Y-103629221D01*
X171834103Y-103625308D01*
X171860738Y-103624000D01*
X172817262Y-103624000D01*
X172843897Y-103625308D01*
X172843897Y-103625308D01*
G37*
D15*
X172339000Y-104249000D03*
%TD*%
D13*
%TO.C,R7*%
G36*
X172780397Y-98563308D02*
X172806775Y-98567221D01*
X172832643Y-98573701D01*
X172857752Y-98582685D01*
X172881858Y-98594086D01*
X172904732Y-98607796D01*
X172926151Y-98623682D01*
X172945910Y-98641590D01*
X172963818Y-98661349D01*
X172979704Y-98682768D01*
X172993414Y-98705642D01*
X173004815Y-98729748D01*
X173013799Y-98754857D01*
X173020279Y-98780725D01*
X173024192Y-98807103D01*
X173025500Y-98833738D01*
X173025500Y-99540262D01*
X173024192Y-99566897D01*
X173020279Y-99593275D01*
X173013799Y-99619143D01*
X173004815Y-99644252D01*
X172993414Y-99668358D01*
X172979704Y-99691232D01*
X172963818Y-99712651D01*
X172945910Y-99732410D01*
X172926151Y-99750318D01*
X172904732Y-99766204D01*
X172881858Y-99779914D01*
X172857752Y-99791315D01*
X172832643Y-99800299D01*
X172806775Y-99806779D01*
X172780397Y-99810692D01*
X172753762Y-99812000D01*
X171797238Y-99812000D01*
X171770603Y-99810692D01*
X171744225Y-99806779D01*
X171718357Y-99800299D01*
X171693248Y-99791315D01*
X171669142Y-99779914D01*
X171646268Y-99766204D01*
X171624849Y-99750318D01*
X171605090Y-99732410D01*
X171587182Y-99712651D01*
X171571296Y-99691232D01*
X171557586Y-99668358D01*
X171546185Y-99644252D01*
X171537201Y-99619143D01*
X171530721Y-99593275D01*
X171526808Y-99566897D01*
X171525500Y-99540262D01*
X171525500Y-98833738D01*
X171526808Y-98807103D01*
X171530721Y-98780725D01*
X171537201Y-98754857D01*
X171546185Y-98729748D01*
X171557586Y-98705642D01*
X171571296Y-98682768D01*
X171587182Y-98661349D01*
X171605090Y-98641590D01*
X171624849Y-98623682D01*
X171646268Y-98607796D01*
X171669142Y-98594086D01*
X171693248Y-98582685D01*
X171718357Y-98573701D01*
X171744225Y-98567221D01*
X171770603Y-98563308D01*
X171797238Y-98562000D01*
X172753762Y-98562000D01*
X172780397Y-98563308D01*
X172780397Y-98563308D01*
G37*
D15*
X172275500Y-99187000D03*
D13*
G36*
X172780397Y-100613308D02*
X172806775Y-100617221D01*
X172832643Y-100623701D01*
X172857752Y-100632685D01*
X172881858Y-100644086D01*
X172904732Y-100657796D01*
X172926151Y-100673682D01*
X172945910Y-100691590D01*
X172963818Y-100711349D01*
X172979704Y-100732768D01*
X172993414Y-100755642D01*
X173004815Y-100779748D01*
X173013799Y-100804857D01*
X173020279Y-100830725D01*
X173024192Y-100857103D01*
X173025500Y-100883738D01*
X173025500Y-101590262D01*
X173024192Y-101616897D01*
X173020279Y-101643275D01*
X173013799Y-101669143D01*
X173004815Y-101694252D01*
X172993414Y-101718358D01*
X172979704Y-101741232D01*
X172963818Y-101762651D01*
X172945910Y-101782410D01*
X172926151Y-101800318D01*
X172904732Y-101816204D01*
X172881858Y-101829914D01*
X172857752Y-101841315D01*
X172832643Y-101850299D01*
X172806775Y-101856779D01*
X172780397Y-101860692D01*
X172753762Y-101862000D01*
X171797238Y-101862000D01*
X171770603Y-101860692D01*
X171744225Y-101856779D01*
X171718357Y-101850299D01*
X171693248Y-101841315D01*
X171669142Y-101829914D01*
X171646268Y-101816204D01*
X171624849Y-101800318D01*
X171605090Y-101782410D01*
X171587182Y-101762651D01*
X171571296Y-101741232D01*
X171557586Y-101718358D01*
X171546185Y-101694252D01*
X171537201Y-101669143D01*
X171530721Y-101643275D01*
X171526808Y-101616897D01*
X171525500Y-101590262D01*
X171525500Y-100883738D01*
X171526808Y-100857103D01*
X171530721Y-100830725D01*
X171537201Y-100804857D01*
X171546185Y-100779748D01*
X171557586Y-100755642D01*
X171571296Y-100732768D01*
X171587182Y-100711349D01*
X171605090Y-100691590D01*
X171624849Y-100673682D01*
X171646268Y-100657796D01*
X171669142Y-100644086D01*
X171693248Y-100632685D01*
X171718357Y-100623701D01*
X171744225Y-100617221D01*
X171770603Y-100613308D01*
X171797238Y-100612000D01*
X172753762Y-100612000D01*
X172780397Y-100613308D01*
X172780397Y-100613308D01*
G37*
D15*
X172275500Y-101237000D03*
%TD*%
D13*
%TO.C,R8*%
G36*
X172843897Y-111408308D02*
X172870275Y-111412221D01*
X172896143Y-111418701D01*
X172921252Y-111427685D01*
X172945358Y-111439086D01*
X172968232Y-111452796D01*
X172989651Y-111468682D01*
X173009410Y-111486590D01*
X173027318Y-111506349D01*
X173043204Y-111527768D01*
X173056914Y-111550642D01*
X173068315Y-111574748D01*
X173077299Y-111599857D01*
X173083779Y-111625725D01*
X173087692Y-111652103D01*
X173089000Y-111678738D01*
X173089000Y-112385262D01*
X173087692Y-112411897D01*
X173083779Y-112438275D01*
X173077299Y-112464143D01*
X173068315Y-112489252D01*
X173056914Y-112513358D01*
X173043204Y-112536232D01*
X173027318Y-112557651D01*
X173009410Y-112577410D01*
X172989651Y-112595318D01*
X172968232Y-112611204D01*
X172945358Y-112624914D01*
X172921252Y-112636315D01*
X172896143Y-112645299D01*
X172870275Y-112651779D01*
X172843897Y-112655692D01*
X172817262Y-112657000D01*
X171860738Y-112657000D01*
X171834103Y-112655692D01*
X171807725Y-112651779D01*
X171781857Y-112645299D01*
X171756748Y-112636315D01*
X171732642Y-112624914D01*
X171709768Y-112611204D01*
X171688349Y-112595318D01*
X171668590Y-112577410D01*
X171650682Y-112557651D01*
X171634796Y-112536232D01*
X171621086Y-112513358D01*
X171609685Y-112489252D01*
X171600701Y-112464143D01*
X171594221Y-112438275D01*
X171590308Y-112411897D01*
X171589000Y-112385262D01*
X171589000Y-111678738D01*
X171590308Y-111652103D01*
X171594221Y-111625725D01*
X171600701Y-111599857D01*
X171609685Y-111574748D01*
X171621086Y-111550642D01*
X171634796Y-111527768D01*
X171650682Y-111506349D01*
X171668590Y-111486590D01*
X171688349Y-111468682D01*
X171709768Y-111452796D01*
X171732642Y-111439086D01*
X171756748Y-111427685D01*
X171781857Y-111418701D01*
X171807725Y-111412221D01*
X171834103Y-111408308D01*
X171860738Y-111407000D01*
X172817262Y-111407000D01*
X172843897Y-111408308D01*
X172843897Y-111408308D01*
G37*
D15*
X172339000Y-112032000D03*
D13*
G36*
X172843897Y-109358308D02*
X172870275Y-109362221D01*
X172896143Y-109368701D01*
X172921252Y-109377685D01*
X172945358Y-109389086D01*
X172968232Y-109402796D01*
X172989651Y-109418682D01*
X173009410Y-109436590D01*
X173027318Y-109456349D01*
X173043204Y-109477768D01*
X173056914Y-109500642D01*
X173068315Y-109524748D01*
X173077299Y-109549857D01*
X173083779Y-109575725D01*
X173087692Y-109602103D01*
X173089000Y-109628738D01*
X173089000Y-110335262D01*
X173087692Y-110361897D01*
X173083779Y-110388275D01*
X173077299Y-110414143D01*
X173068315Y-110439252D01*
X173056914Y-110463358D01*
X173043204Y-110486232D01*
X173027318Y-110507651D01*
X173009410Y-110527410D01*
X172989651Y-110545318D01*
X172968232Y-110561204D01*
X172945358Y-110574914D01*
X172921252Y-110586315D01*
X172896143Y-110595299D01*
X172870275Y-110601779D01*
X172843897Y-110605692D01*
X172817262Y-110607000D01*
X171860738Y-110607000D01*
X171834103Y-110605692D01*
X171807725Y-110601779D01*
X171781857Y-110595299D01*
X171756748Y-110586315D01*
X171732642Y-110574914D01*
X171709768Y-110561204D01*
X171688349Y-110545318D01*
X171668590Y-110527410D01*
X171650682Y-110507651D01*
X171634796Y-110486232D01*
X171621086Y-110463358D01*
X171609685Y-110439252D01*
X171600701Y-110414143D01*
X171594221Y-110388275D01*
X171590308Y-110361897D01*
X171589000Y-110335262D01*
X171589000Y-109628738D01*
X171590308Y-109602103D01*
X171594221Y-109575725D01*
X171600701Y-109549857D01*
X171609685Y-109524748D01*
X171621086Y-109500642D01*
X171634796Y-109477768D01*
X171650682Y-109456349D01*
X171668590Y-109436590D01*
X171688349Y-109418682D01*
X171709768Y-109402796D01*
X171732642Y-109389086D01*
X171756748Y-109377685D01*
X171781857Y-109368701D01*
X171807725Y-109362221D01*
X171834103Y-109358308D01*
X171860738Y-109357000D01*
X172817262Y-109357000D01*
X172843897Y-109358308D01*
X172843897Y-109358308D01*
G37*
D15*
X172339000Y-109982000D03*
%TD*%
D13*
%TO.C,R9*%
G36*
X172843897Y-95469808D02*
X172870275Y-95473721D01*
X172896143Y-95480201D01*
X172921252Y-95489185D01*
X172945358Y-95500586D01*
X172968232Y-95514296D01*
X172989651Y-95530182D01*
X173009410Y-95548090D01*
X173027318Y-95567849D01*
X173043204Y-95589268D01*
X173056914Y-95612142D01*
X173068315Y-95636248D01*
X173077299Y-95661357D01*
X173083779Y-95687225D01*
X173087692Y-95713603D01*
X173089000Y-95740238D01*
X173089000Y-96446762D01*
X173087692Y-96473397D01*
X173083779Y-96499775D01*
X173077299Y-96525643D01*
X173068315Y-96550752D01*
X173056914Y-96574858D01*
X173043204Y-96597732D01*
X173027318Y-96619151D01*
X173009410Y-96638910D01*
X172989651Y-96656818D01*
X172968232Y-96672704D01*
X172945358Y-96686414D01*
X172921252Y-96697815D01*
X172896143Y-96706799D01*
X172870275Y-96713279D01*
X172843897Y-96717192D01*
X172817262Y-96718500D01*
X171860738Y-96718500D01*
X171834103Y-96717192D01*
X171807725Y-96713279D01*
X171781857Y-96706799D01*
X171756748Y-96697815D01*
X171732642Y-96686414D01*
X171709768Y-96672704D01*
X171688349Y-96656818D01*
X171668590Y-96638910D01*
X171650682Y-96619151D01*
X171634796Y-96597732D01*
X171621086Y-96574858D01*
X171609685Y-96550752D01*
X171600701Y-96525643D01*
X171594221Y-96499775D01*
X171590308Y-96473397D01*
X171589000Y-96446762D01*
X171589000Y-95740238D01*
X171590308Y-95713603D01*
X171594221Y-95687225D01*
X171600701Y-95661357D01*
X171609685Y-95636248D01*
X171621086Y-95612142D01*
X171634796Y-95589268D01*
X171650682Y-95567849D01*
X171668590Y-95548090D01*
X171688349Y-95530182D01*
X171709768Y-95514296D01*
X171732642Y-95500586D01*
X171756748Y-95489185D01*
X171781857Y-95480201D01*
X171807725Y-95473721D01*
X171834103Y-95469808D01*
X171860738Y-95468500D01*
X172817262Y-95468500D01*
X172843897Y-95469808D01*
X172843897Y-95469808D01*
G37*
D15*
X172339000Y-96093500D03*
D13*
G36*
X172843897Y-93419808D02*
X172870275Y-93423721D01*
X172896143Y-93430201D01*
X172921252Y-93439185D01*
X172945358Y-93450586D01*
X172968232Y-93464296D01*
X172989651Y-93480182D01*
X173009410Y-93498090D01*
X173027318Y-93517849D01*
X173043204Y-93539268D01*
X173056914Y-93562142D01*
X173068315Y-93586248D01*
X173077299Y-93611357D01*
X173083779Y-93637225D01*
X173087692Y-93663603D01*
X173089000Y-93690238D01*
X173089000Y-94396762D01*
X173087692Y-94423397D01*
X173083779Y-94449775D01*
X173077299Y-94475643D01*
X173068315Y-94500752D01*
X173056914Y-94524858D01*
X173043204Y-94547732D01*
X173027318Y-94569151D01*
X173009410Y-94588910D01*
X172989651Y-94606818D01*
X172968232Y-94622704D01*
X172945358Y-94636414D01*
X172921252Y-94647815D01*
X172896143Y-94656799D01*
X172870275Y-94663279D01*
X172843897Y-94667192D01*
X172817262Y-94668500D01*
X171860738Y-94668500D01*
X171834103Y-94667192D01*
X171807725Y-94663279D01*
X171781857Y-94656799D01*
X171756748Y-94647815D01*
X171732642Y-94636414D01*
X171709768Y-94622704D01*
X171688349Y-94606818D01*
X171668590Y-94588910D01*
X171650682Y-94569151D01*
X171634796Y-94547732D01*
X171621086Y-94524858D01*
X171609685Y-94500752D01*
X171600701Y-94475643D01*
X171594221Y-94449775D01*
X171590308Y-94423397D01*
X171589000Y-94396762D01*
X171589000Y-93690238D01*
X171590308Y-93663603D01*
X171594221Y-93637225D01*
X171600701Y-93611357D01*
X171609685Y-93586248D01*
X171621086Y-93562142D01*
X171634796Y-93539268D01*
X171650682Y-93517849D01*
X171668590Y-93498090D01*
X171688349Y-93480182D01*
X171709768Y-93464296D01*
X171732642Y-93450586D01*
X171756748Y-93439185D01*
X171781857Y-93430201D01*
X171807725Y-93423721D01*
X171834103Y-93419808D01*
X171860738Y-93418500D01*
X172817262Y-93418500D01*
X172843897Y-93419808D01*
X172843897Y-93419808D01*
G37*
D15*
X172339000Y-94043500D03*
%TD*%
D16*
%TO.C,S2*%
X168529000Y-101473000D03*
D17*
X168529000Y-98933000D03*
X168529000Y-96393000D03*
X168529000Y-93853000D03*
X168529000Y-91313000D03*
%TD*%
D22*
%TO.C,MH1*%
X116332000Y-81737200D03*
%TD*%
%TO.C,MH2*%
X170180000Y-82194400D03*
%TD*%
%TO.C,MH3*%
X124206000Y-109575600D03*
%TD*%
D23*
%TO.C,U1*%
X122687000Y-83439000D03*
X123637000Y-83439000D03*
X124587000Y-83439000D03*
X124587000Y-81239000D03*
X122687000Y-81239000D03*
%TD*%
D24*
%TO.C,U2*%
X144897695Y-98773897D03*
D13*
G36*
X144066845Y-98402666D02*
X144526464Y-97943047D01*
X145728545Y-99145128D01*
X145268926Y-99604747D01*
X144066845Y-98402666D01*
X144066845Y-98402666D01*
G37*
D24*
X144332010Y-99339583D03*
D13*
G36*
X143501160Y-98968352D02*
X143960779Y-98508733D01*
X145162860Y-99710814D01*
X144703241Y-100170433D01*
X143501160Y-98968352D01*
X143501160Y-98968352D01*
G37*
D24*
X143766324Y-99905268D03*
D13*
G36*
X142935474Y-99534037D02*
X143395093Y-99074418D01*
X144597174Y-100276499D01*
X144137555Y-100736118D01*
X142935474Y-99534037D01*
X142935474Y-99534037D01*
G37*
D24*
X143200639Y-100470953D03*
D13*
G36*
X142369789Y-100099722D02*
X142829408Y-99640103D01*
X144031489Y-100842184D01*
X143571870Y-101301803D01*
X142369789Y-100099722D01*
X142369789Y-100099722D01*
G37*
D24*
X142634953Y-101036639D03*
D13*
G36*
X141804103Y-100665408D02*
X142263722Y-100205789D01*
X143465803Y-101407870D01*
X143006184Y-101867489D01*
X141804103Y-100665408D01*
X141804103Y-100665408D01*
G37*
D24*
X142069268Y-101602324D03*
D13*
G36*
X141238418Y-101231093D02*
X141698037Y-100771474D01*
X142900118Y-101973555D01*
X142440499Y-102433174D01*
X141238418Y-101231093D01*
X141238418Y-101231093D01*
G37*
D24*
X141503583Y-102168010D03*
D13*
G36*
X140672733Y-101796779D02*
X141132352Y-101337160D01*
X142334433Y-102539241D01*
X141874814Y-102998860D01*
X140672733Y-101796779D01*
X140672733Y-101796779D01*
G37*
D24*
X140937897Y-102733695D03*
D13*
G36*
X140107047Y-102362464D02*
X140566666Y-101902845D01*
X141768747Y-103104926D01*
X141309128Y-103564545D01*
X140107047Y-102362464D01*
X140107047Y-102362464D01*
G37*
D24*
X140937897Y-104784305D03*
D13*
G36*
X140566666Y-105615155D02*
X140107047Y-105155536D01*
X141309128Y-103953455D01*
X141768747Y-104413074D01*
X140566666Y-105615155D01*
X140566666Y-105615155D01*
G37*
D24*
X141503583Y-105349990D03*
D13*
G36*
X141132352Y-106180840D02*
X140672733Y-105721221D01*
X141874814Y-104519140D01*
X142334433Y-104978759D01*
X141132352Y-106180840D01*
X141132352Y-106180840D01*
G37*
D24*
X142069268Y-105915676D03*
D13*
G36*
X141698037Y-106746526D02*
X141238418Y-106286907D01*
X142440499Y-105084826D01*
X142900118Y-105544445D01*
X141698037Y-106746526D01*
X141698037Y-106746526D01*
G37*
D24*
X142634953Y-106481361D03*
D13*
G36*
X142263722Y-107312211D02*
X141804103Y-106852592D01*
X143006184Y-105650511D01*
X143465803Y-106110130D01*
X142263722Y-107312211D01*
X142263722Y-107312211D01*
G37*
D24*
X143200639Y-107047047D03*
D13*
G36*
X142829408Y-107877897D02*
X142369789Y-107418278D01*
X143571870Y-106216197D01*
X144031489Y-106675816D01*
X142829408Y-107877897D01*
X142829408Y-107877897D01*
G37*
D24*
X143766324Y-107612732D03*
D13*
G36*
X143395093Y-108443582D02*
X142935474Y-107983963D01*
X144137555Y-106781882D01*
X144597174Y-107241501D01*
X143395093Y-108443582D01*
X143395093Y-108443582D01*
G37*
D24*
X144332010Y-108178417D03*
D13*
G36*
X143960779Y-109009267D02*
X143501160Y-108549648D01*
X144703241Y-107347567D01*
X145162860Y-107807186D01*
X143960779Y-109009267D01*
X143960779Y-109009267D01*
G37*
D24*
X144897695Y-108744103D03*
D13*
G36*
X144526464Y-109574953D02*
X144066845Y-109115334D01*
X145268926Y-107913253D01*
X145728545Y-108372872D01*
X144526464Y-109574953D01*
X144526464Y-109574953D01*
G37*
D24*
X146948305Y-108744103D03*
D13*
G36*
X146117455Y-108372872D02*
X146577074Y-107913253D01*
X147779155Y-109115334D01*
X147319536Y-109574953D01*
X146117455Y-108372872D01*
X146117455Y-108372872D01*
G37*
D24*
X147513990Y-108178417D03*
D13*
G36*
X146683140Y-107807186D02*
X147142759Y-107347567D01*
X148344840Y-108549648D01*
X147885221Y-109009267D01*
X146683140Y-107807186D01*
X146683140Y-107807186D01*
G37*
D24*
X148079676Y-107612732D03*
D13*
G36*
X147248826Y-107241501D02*
X147708445Y-106781882D01*
X148910526Y-107983963D01*
X148450907Y-108443582D01*
X147248826Y-107241501D01*
X147248826Y-107241501D01*
G37*
D24*
X148645361Y-107047047D03*
D13*
G36*
X147814511Y-106675816D02*
X148274130Y-106216197D01*
X149476211Y-107418278D01*
X149016592Y-107877897D01*
X147814511Y-106675816D01*
X147814511Y-106675816D01*
G37*
D24*
X149211047Y-106481361D03*
D13*
G36*
X148380197Y-106110130D02*
X148839816Y-105650511D01*
X150041897Y-106852592D01*
X149582278Y-107312211D01*
X148380197Y-106110130D01*
X148380197Y-106110130D01*
G37*
D24*
X149776732Y-105915676D03*
D13*
G36*
X148945882Y-105544445D02*
X149405501Y-105084826D01*
X150607582Y-106286907D01*
X150147963Y-106746526D01*
X148945882Y-105544445D01*
X148945882Y-105544445D01*
G37*
D24*
X150342417Y-105349990D03*
D13*
G36*
X149511567Y-104978759D02*
X149971186Y-104519140D01*
X151173267Y-105721221D01*
X150713648Y-106180840D01*
X149511567Y-104978759D01*
X149511567Y-104978759D01*
G37*
D24*
X150908103Y-104784305D03*
D13*
G36*
X150077253Y-104413074D02*
X150536872Y-103953455D01*
X151738953Y-105155536D01*
X151279334Y-105615155D01*
X150077253Y-104413074D01*
X150077253Y-104413074D01*
G37*
D24*
X150908103Y-102733695D03*
D13*
G36*
X150536872Y-103564545D02*
X150077253Y-103104926D01*
X151279334Y-101902845D01*
X151738953Y-102362464D01*
X150536872Y-103564545D01*
X150536872Y-103564545D01*
G37*
D24*
X150342417Y-102168010D03*
D13*
G36*
X149971186Y-102998860D02*
X149511567Y-102539241D01*
X150713648Y-101337160D01*
X151173267Y-101796779D01*
X149971186Y-102998860D01*
X149971186Y-102998860D01*
G37*
D24*
X149776732Y-101602324D03*
D13*
G36*
X149405501Y-102433174D02*
X148945882Y-101973555D01*
X150147963Y-100771474D01*
X150607582Y-101231093D01*
X149405501Y-102433174D01*
X149405501Y-102433174D01*
G37*
D24*
X149211047Y-101036639D03*
D13*
G36*
X148839816Y-101867489D02*
X148380197Y-101407870D01*
X149582278Y-100205789D01*
X150041897Y-100665408D01*
X148839816Y-101867489D01*
X148839816Y-101867489D01*
G37*
D24*
X148645361Y-100470953D03*
D13*
G36*
X148274130Y-101301803D02*
X147814511Y-100842184D01*
X149016592Y-99640103D01*
X149476211Y-100099722D01*
X148274130Y-101301803D01*
X148274130Y-101301803D01*
G37*
D24*
X148079676Y-99905268D03*
D13*
G36*
X147708445Y-100736118D02*
X147248826Y-100276499D01*
X148450907Y-99074418D01*
X148910526Y-99534037D01*
X147708445Y-100736118D01*
X147708445Y-100736118D01*
G37*
D24*
X147513990Y-99339583D03*
D13*
G36*
X147142759Y-100170433D02*
X146683140Y-99710814D01*
X147885221Y-98508733D01*
X148344840Y-98968352D01*
X147142759Y-100170433D01*
X147142759Y-100170433D01*
G37*
D24*
X146948305Y-98773897D03*
D13*
G36*
X146577074Y-99604747D02*
X146117455Y-99145128D01*
X147319536Y-97943047D01*
X147779155Y-98402666D01*
X146577074Y-99604747D01*
X146577074Y-99604747D01*
G37*
%TD*%
D25*
%TO.C,SW1*%
X161000000Y-89000000D03*
D26*
X161000000Y-81380000D03*
%TD*%
M02*
