%TF.GenerationSoftware,KiCad,Pcbnew,(5.0.0)*%
%TF.CreationDate,2021-11-24T17:07:04+01:00*%
%TF.ProjectId,Master3A__2,4D617374657233415F5F322E6B696361,rev?*%
%TF.SameCoordinates,Original*%
%TF.FileFunction,Legend,Top*%
%TF.FilePolarity,Positive*%
%FSLAX46Y46*%
G04 Gerber Fmt 4.6, Leading zero omitted, Abs format (unit mm)*
G04 Created by KiCad (PCBNEW (5.0.0)) date 11/24/21 17:07:04*
%MOMM*%
%LPD*%
G01*
G04 APERTURE LIST*
%ADD10C,0.120000*%
%ADD11C,0.150000*%
%ADD12C,0.300000*%
%ADD13C,0.225000*%
%ADD14C,0.010000*%
G04 APERTURE END LIST*
D10*
X260477000Y-97155000D02*
X260477000Y-98425000D01*
D11*
X257004523Y-135507380D02*
X256671190Y-135031190D01*
X256433095Y-135507380D02*
X256433095Y-134507380D01*
X256814047Y-134507380D01*
X256909285Y-134555000D01*
X256956904Y-134602619D01*
X257004523Y-134697857D01*
X257004523Y-134840714D01*
X256956904Y-134935952D01*
X256909285Y-134983571D01*
X256814047Y-135031190D01*
X256433095Y-135031190D01*
X256409285Y-128959761D02*
X256552142Y-129007380D01*
X256790238Y-129007380D01*
X256885476Y-128959761D01*
X256933095Y-128912142D01*
X256980714Y-128816904D01*
X256980714Y-128721666D01*
X256933095Y-128626428D01*
X256885476Y-128578809D01*
X256790238Y-128531190D01*
X256599761Y-128483571D01*
X256504523Y-128435952D01*
X256456904Y-128388333D01*
X256409285Y-128293095D01*
X256409285Y-128197857D01*
X256456904Y-128102619D01*
X256504523Y-128055000D01*
X256599761Y-128007380D01*
X256837857Y-128007380D01*
X256980714Y-128055000D01*
X254861666Y-122007380D02*
X255433095Y-122007380D01*
X255147380Y-123007380D02*
X255147380Y-122007380D01*
X256480714Y-121959761D02*
X255623571Y-123245476D01*
X256814047Y-123007380D02*
X256814047Y-122007380D01*
X256814047Y-122483571D02*
X257385476Y-122483571D01*
X257385476Y-123007380D02*
X257385476Y-122007380D01*
X258789333Y-119409333D02*
X258856000Y-119442666D01*
X258989333Y-119442666D01*
X259056000Y-119409333D01*
X259089333Y-119342666D01*
X259089333Y-119309333D01*
X259056000Y-119242666D01*
X258989333Y-119209333D01*
X258889333Y-119209333D01*
X258822666Y-119176000D01*
X258789333Y-119109333D01*
X258789333Y-119076000D01*
X258822666Y-119009333D01*
X258889333Y-118976000D01*
X258989333Y-118976000D01*
X259056000Y-119009333D01*
X259689333Y-119409333D02*
X259622666Y-119442666D01*
X259489333Y-119442666D01*
X259422666Y-119409333D01*
X259389333Y-119376000D01*
X259356000Y-119309333D01*
X259356000Y-119109333D01*
X259389333Y-119042666D01*
X259422666Y-119009333D01*
X259489333Y-118976000D01*
X259622666Y-118976000D01*
X259689333Y-119009333D01*
X260089333Y-119442666D02*
X260022666Y-119409333D01*
X259989333Y-119342666D01*
X259989333Y-118742666D01*
X260856000Y-119409333D02*
X260922666Y-119442666D01*
X261056000Y-119442666D01*
X261122666Y-119409333D01*
X261156000Y-119342666D01*
X261156000Y-119309333D01*
X261122666Y-119242666D01*
X261056000Y-119209333D01*
X260956000Y-119209333D01*
X260889333Y-119176000D01*
X260856000Y-119109333D01*
X260856000Y-119076000D01*
X260889333Y-119009333D01*
X260956000Y-118976000D01*
X261056000Y-118976000D01*
X261122666Y-119009333D01*
X261756000Y-119442666D02*
X261756000Y-118742666D01*
X261756000Y-119409333D02*
X261689333Y-119442666D01*
X261556000Y-119442666D01*
X261489333Y-119409333D01*
X261456000Y-119376000D01*
X261422666Y-119309333D01*
X261422666Y-119109333D01*
X261456000Y-119042666D01*
X261489333Y-119009333D01*
X261556000Y-118976000D01*
X261689333Y-118976000D01*
X261756000Y-119009333D01*
X262389333Y-119442666D02*
X262389333Y-119076000D01*
X262356000Y-119009333D01*
X262289333Y-118976000D01*
X262156000Y-118976000D01*
X262089333Y-119009333D01*
X262389333Y-119409333D02*
X262322666Y-119442666D01*
X262156000Y-119442666D01*
X262089333Y-119409333D01*
X262056000Y-119342666D01*
X262056000Y-119276000D01*
X262089333Y-119209333D01*
X262156000Y-119176000D01*
X262322666Y-119176000D01*
X262389333Y-119142666D01*
X263256000Y-119176000D02*
X263789333Y-119176000D01*
X265522666Y-118742666D02*
X265189333Y-118742666D01*
X265156000Y-119076000D01*
X265189333Y-119042666D01*
X265256000Y-119009333D01*
X265422666Y-119009333D01*
X265489333Y-119042666D01*
X265522666Y-119076000D01*
X265556000Y-119142666D01*
X265556000Y-119309333D01*
X265522666Y-119376000D01*
X265489333Y-119409333D01*
X265422666Y-119442666D01*
X265256000Y-119442666D01*
X265189333Y-119409333D01*
X265156000Y-119376000D01*
X265789333Y-118976000D02*
X265956000Y-119442666D01*
X266122666Y-118976000D01*
X267389333Y-118742666D02*
X267822666Y-118742666D01*
X267589333Y-119009333D01*
X267689333Y-119009333D01*
X267756000Y-119042666D01*
X267789333Y-119076000D01*
X267822666Y-119142666D01*
X267822666Y-119309333D01*
X267789333Y-119376000D01*
X267756000Y-119409333D01*
X267689333Y-119442666D01*
X267489333Y-119442666D01*
X267422666Y-119409333D01*
X267389333Y-119376000D01*
X268056000Y-118976000D02*
X268222666Y-119442666D01*
X268389333Y-118976000D01*
X268589333Y-118742666D02*
X269022666Y-118742666D01*
X268789333Y-119009333D01*
X268889333Y-119009333D01*
X268956000Y-119042666D01*
X268989333Y-119076000D01*
X269022666Y-119142666D01*
X269022666Y-119309333D01*
X268989333Y-119376000D01*
X268956000Y-119409333D01*
X268889333Y-119442666D01*
X268689333Y-119442666D01*
X268622666Y-119409333D01*
X268589333Y-119376000D01*
D12*
X217409142Y-113626428D02*
X217409142Y-114126428D01*
X216623428Y-114340714D02*
X216623428Y-113626428D01*
X218123428Y-113626428D01*
X218123428Y-114340714D01*
X217623428Y-114983571D02*
X216623428Y-114983571D01*
X217480571Y-114983571D02*
X217552000Y-115055000D01*
X217623428Y-115197857D01*
X217623428Y-115412142D01*
X217552000Y-115555000D01*
X217409142Y-115626428D01*
X216623428Y-115626428D01*
X217623428Y-116197857D02*
X216623428Y-116555000D01*
X217623428Y-116912142D01*
X216623428Y-117483571D02*
X217623428Y-117483571D01*
X218123428Y-117483571D02*
X218052000Y-117412142D01*
X217980571Y-117483571D01*
X218052000Y-117555000D01*
X218123428Y-117483571D01*
X217980571Y-117483571D01*
X216623428Y-118197857D02*
X217623428Y-118197857D01*
X217337714Y-118197857D02*
X217480571Y-118269285D01*
X217552000Y-118340714D01*
X217623428Y-118483571D01*
X217623428Y-118626428D01*
X216623428Y-119340714D02*
X216694857Y-119197857D01*
X216766285Y-119126428D01*
X216909142Y-119055000D01*
X217337714Y-119055000D01*
X217480571Y-119126428D01*
X217552000Y-119197857D01*
X217623428Y-119340714D01*
X217623428Y-119555000D01*
X217552000Y-119697857D01*
X217480571Y-119769285D01*
X217337714Y-119840714D01*
X216909142Y-119840714D01*
X216766285Y-119769285D01*
X216694857Y-119697857D01*
X216623428Y-119555000D01*
X216623428Y-119340714D01*
X217623428Y-120483571D02*
X216623428Y-120483571D01*
X217480571Y-120483571D02*
X217552000Y-120555000D01*
X217623428Y-120697857D01*
X217623428Y-120912142D01*
X217552000Y-121055000D01*
X217409142Y-121126428D01*
X216623428Y-121126428D01*
X216623428Y-121840714D02*
X217623428Y-121840714D01*
X217480571Y-121840714D02*
X217552000Y-121912142D01*
X217623428Y-122055000D01*
X217623428Y-122269285D01*
X217552000Y-122412142D01*
X217409142Y-122483571D01*
X216623428Y-122483571D01*
X217409142Y-122483571D02*
X217552000Y-122555000D01*
X217623428Y-122697857D01*
X217623428Y-122912142D01*
X217552000Y-123055000D01*
X217409142Y-123126428D01*
X216623428Y-123126428D01*
X216694857Y-124412142D02*
X216623428Y-124269285D01*
X216623428Y-123983571D01*
X216694857Y-123840714D01*
X216837714Y-123769285D01*
X217409142Y-123769285D01*
X217552000Y-123840714D01*
X217623428Y-123983571D01*
X217623428Y-124269285D01*
X217552000Y-124412142D01*
X217409142Y-124483571D01*
X217266285Y-124483571D01*
X217123428Y-123769285D01*
X217623428Y-125126428D02*
X216623428Y-125126428D01*
X217480571Y-125126428D02*
X217552000Y-125197857D01*
X217623428Y-125340714D01*
X217623428Y-125555000D01*
X217552000Y-125697857D01*
X217409142Y-125769285D01*
X216623428Y-125769285D01*
X217623428Y-126269285D02*
X217623428Y-126840714D01*
X218123428Y-126483571D02*
X216837714Y-126483571D01*
X216694857Y-126555000D01*
X216623428Y-126697857D01*
X216623428Y-126840714D01*
X216623428Y-127983571D02*
X217409142Y-127983571D01*
X217552000Y-127912142D01*
X217623428Y-127769285D01*
X217623428Y-127483571D01*
X217552000Y-127340714D01*
X216694857Y-127983571D02*
X216623428Y-127840714D01*
X216623428Y-127483571D01*
X216694857Y-127340714D01*
X216837714Y-127269285D01*
X216980571Y-127269285D01*
X217123428Y-127340714D01*
X217194857Y-127483571D01*
X217194857Y-127840714D01*
X217266285Y-127983571D01*
X216623428Y-128912142D02*
X216694857Y-128769285D01*
X216837714Y-128697857D01*
X218123428Y-128697857D01*
X216694857Y-130555000D02*
X216623428Y-130769285D01*
X216623428Y-131126428D01*
X216694857Y-131269285D01*
X216766285Y-131340714D01*
X216909142Y-131412142D01*
X217052000Y-131412142D01*
X217194857Y-131340714D01*
X217266285Y-131269285D01*
X217337714Y-131126428D01*
X217409142Y-130840714D01*
X217480571Y-130697857D01*
X217552000Y-130626428D01*
X217694857Y-130555000D01*
X217837714Y-130555000D01*
X217980571Y-130626428D01*
X218052000Y-130697857D01*
X218123428Y-130840714D01*
X218123428Y-131197857D01*
X218052000Y-131412142D01*
X216694857Y-132626428D02*
X216623428Y-132483571D01*
X216623428Y-132197857D01*
X216694857Y-132055000D01*
X216837714Y-131983571D01*
X217409142Y-131983571D01*
X217552000Y-132055000D01*
X217623428Y-132197857D01*
X217623428Y-132483571D01*
X217552000Y-132626428D01*
X217409142Y-132697857D01*
X217266285Y-132697857D01*
X217123428Y-131983571D01*
X217623428Y-133340714D02*
X216623428Y-133340714D01*
X217480571Y-133340714D02*
X217552000Y-133412142D01*
X217623428Y-133555000D01*
X217623428Y-133769285D01*
X217552000Y-133912142D01*
X217409142Y-133983571D01*
X216623428Y-133983571D01*
X216694857Y-134626428D02*
X216623428Y-134769285D01*
X216623428Y-135055000D01*
X216694857Y-135197857D01*
X216837714Y-135269285D01*
X216909142Y-135269285D01*
X217052000Y-135197857D01*
X217123428Y-135055000D01*
X217123428Y-134840714D01*
X217194857Y-134697857D01*
X217337714Y-134626428D01*
X217409142Y-134626428D01*
X217552000Y-134697857D01*
X217623428Y-134840714D01*
X217623428Y-135055000D01*
X217552000Y-135197857D01*
X216623428Y-136126428D02*
X216694857Y-135983571D01*
X216766285Y-135912142D01*
X216909142Y-135840714D01*
X217337714Y-135840714D01*
X217480571Y-135912142D01*
X217552000Y-135983571D01*
X217623428Y-136126428D01*
X217623428Y-136340714D01*
X217552000Y-136483571D01*
X217480571Y-136555000D01*
X217337714Y-136626428D01*
X216909142Y-136626428D01*
X216766285Y-136555000D01*
X216694857Y-136483571D01*
X216623428Y-136340714D01*
X216623428Y-136126428D01*
X216623428Y-137269285D02*
X217623428Y-137269285D01*
X217337714Y-137269285D02*
X217480571Y-137340714D01*
X217552000Y-137412142D01*
X217623428Y-137555000D01*
X217623428Y-137697857D01*
X215573428Y-123269285D02*
X214073428Y-123769285D01*
X215573428Y-124269285D01*
X214073428Y-125555000D02*
X214073428Y-124697857D01*
X214073428Y-125126428D02*
X215573428Y-125126428D01*
X215359142Y-124983571D01*
X215216285Y-124840714D01*
X215144857Y-124697857D01*
X214216285Y-126197857D02*
X214144857Y-126269285D01*
X214073428Y-126197857D01*
X214144857Y-126126428D01*
X214216285Y-126197857D01*
X214073428Y-126197857D01*
X215573428Y-127197857D02*
X215573428Y-127340714D01*
X215502000Y-127483571D01*
X215430571Y-127555000D01*
X215287714Y-127626428D01*
X215002000Y-127697857D01*
X214644857Y-127697857D01*
X214359142Y-127626428D01*
X214216285Y-127555000D01*
X214144857Y-127483571D01*
X214073428Y-127340714D01*
X214073428Y-127197857D01*
X214144857Y-127055000D01*
X214216285Y-126983571D01*
X214359142Y-126912142D01*
X214644857Y-126840714D01*
X215002000Y-126840714D01*
X215287714Y-126912142D01*
X215430571Y-126983571D01*
X215502000Y-127055000D01*
X215573428Y-127197857D01*
D13*
X254793285Y-98408285D02*
X254921857Y-98451142D01*
X255136142Y-98451142D01*
X255221857Y-98408285D01*
X255264714Y-98365428D01*
X255307571Y-98279714D01*
X255307571Y-98194000D01*
X255264714Y-98108285D01*
X255221857Y-98065428D01*
X255136142Y-98022571D01*
X254964714Y-97979714D01*
X254879000Y-97936857D01*
X254836142Y-97894000D01*
X254793285Y-97808285D01*
X254793285Y-97722571D01*
X254836142Y-97636857D01*
X254879000Y-97594000D01*
X254964714Y-97551142D01*
X255179000Y-97551142D01*
X255307571Y-97594000D01*
X255693285Y-98451142D02*
X255693285Y-97551142D01*
X255907571Y-97551142D01*
X256036142Y-97594000D01*
X256121857Y-97679714D01*
X256164714Y-97765428D01*
X256207571Y-97936857D01*
X256207571Y-98065428D01*
X256164714Y-98236857D01*
X256121857Y-98322571D01*
X256036142Y-98408285D01*
X255907571Y-98451142D01*
X255693285Y-98451142D01*
X256550428Y-98194000D02*
X256979000Y-98194000D01*
X256464714Y-98451142D02*
X256764714Y-97551142D01*
X257064714Y-98451142D01*
X257964714Y-97551142D02*
X258521857Y-97551142D01*
X258221857Y-97894000D01*
X258350428Y-97894000D01*
X258436142Y-97936857D01*
X258479000Y-97979714D01*
X258521857Y-98065428D01*
X258521857Y-98279714D01*
X258479000Y-98365428D01*
X258436142Y-98408285D01*
X258350428Y-98451142D01*
X258093285Y-98451142D01*
X258007571Y-98408285D01*
X257964714Y-98365428D01*
X258821857Y-97851142D02*
X259036142Y-98451142D01*
X259250428Y-97851142D01*
X259507571Y-97551142D02*
X260064714Y-97551142D01*
X259764714Y-97894000D01*
X259893285Y-97894000D01*
X259979000Y-97936857D01*
X260021857Y-97979714D01*
X260064714Y-98065428D01*
X260064714Y-98279714D01*
X260021857Y-98365428D01*
X259979000Y-98408285D01*
X259893285Y-98451142D01*
X259636142Y-98451142D01*
X259550428Y-98408285D01*
X259507571Y-98365428D01*
X260809857Y-98281285D02*
X260938428Y-98324142D01*
X261152714Y-98324142D01*
X261238428Y-98281285D01*
X261281285Y-98238428D01*
X261324142Y-98152714D01*
X261324142Y-98067000D01*
X261281285Y-97981285D01*
X261238428Y-97938428D01*
X261152714Y-97895571D01*
X260981285Y-97852714D01*
X260895571Y-97809857D01*
X260852714Y-97767000D01*
X260809857Y-97681285D01*
X260809857Y-97595571D01*
X260852714Y-97509857D01*
X260895571Y-97467000D01*
X260981285Y-97424142D01*
X261195571Y-97424142D01*
X261324142Y-97467000D01*
X261709857Y-98324142D02*
X261709857Y-97424142D01*
X261924142Y-97424142D01*
X262052714Y-97467000D01*
X262138428Y-97552714D01*
X262181285Y-97638428D01*
X262224142Y-97809857D01*
X262224142Y-97938428D01*
X262181285Y-98109857D01*
X262138428Y-98195571D01*
X262052714Y-98281285D01*
X261924142Y-98324142D01*
X261709857Y-98324142D01*
X262567000Y-98067000D02*
X262995571Y-98067000D01*
X262481285Y-98324142D02*
X262781285Y-97424142D01*
X263081285Y-98324142D01*
X264495571Y-97424142D02*
X264067000Y-97424142D01*
X264024142Y-97852714D01*
X264067000Y-97809857D01*
X264152714Y-97767000D01*
X264367000Y-97767000D01*
X264452714Y-97809857D01*
X264495571Y-97852714D01*
X264538428Y-97938428D01*
X264538428Y-98152714D01*
X264495571Y-98238428D01*
X264452714Y-98281285D01*
X264367000Y-98324142D01*
X264152714Y-98324142D01*
X264067000Y-98281285D01*
X264024142Y-98238428D01*
X264838428Y-97724142D02*
X265052714Y-98324142D01*
X265267000Y-97724142D01*
D10*
%TO.C,J8*%
X270157000Y-124238000D02*
X270157000Y-119518000D01*
X270157000Y-119518000D02*
X258037000Y-119518000D01*
X258037000Y-119518000D02*
X258037000Y-124238000D01*
X258037000Y-124238000D02*
X270157000Y-124238000D01*
X268397000Y-124238000D02*
X268397000Y-124438000D01*
X268397000Y-124438000D02*
X268697000Y-124438000D01*
X268697000Y-124438000D02*
X268697000Y-124238000D01*
X268397000Y-124338000D02*
X268697000Y-124338000D01*
X267597000Y-124238000D02*
X267597000Y-123628000D01*
X267597000Y-123628000D02*
X269547000Y-123628000D01*
X269547000Y-123628000D02*
X269547000Y-120128000D01*
X269547000Y-120128000D02*
X258647000Y-120128000D01*
X258647000Y-120128000D02*
X258647000Y-123628000D01*
X258647000Y-123628000D02*
X260597000Y-123628000D01*
X260597000Y-123628000D02*
X260597000Y-124238000D01*
X270157000Y-122928000D02*
X269547000Y-122928000D01*
X270157000Y-121628000D02*
X269547000Y-121628000D01*
X258037000Y-122928000D02*
X258647000Y-122928000D01*
X258037000Y-121628000D02*
X258647000Y-121628000D01*
X267197000Y-120128000D02*
X267197000Y-120628000D01*
X267197000Y-120628000D02*
X266997000Y-120628000D01*
X266997000Y-120628000D02*
X266997000Y-120128000D01*
X267097000Y-120128000D02*
X267097000Y-120628000D01*
X265197000Y-120128000D02*
X265197000Y-120628000D01*
X265197000Y-120628000D02*
X264997000Y-120628000D01*
X264997000Y-120628000D02*
X264997000Y-120128000D01*
X265097000Y-120128000D02*
X265097000Y-120628000D01*
X263197000Y-120128000D02*
X263197000Y-120628000D01*
X263197000Y-120628000D02*
X262997000Y-120628000D01*
X262997000Y-120628000D02*
X262997000Y-120128000D01*
X263097000Y-120128000D02*
X263097000Y-120628000D01*
X261197000Y-120128000D02*
X261197000Y-120628000D01*
X261197000Y-120628000D02*
X260997000Y-120628000D01*
X260997000Y-120628000D02*
X260997000Y-120128000D01*
X261097000Y-120128000D02*
X261097000Y-120628000D01*
X269207000Y-124538000D02*
X270457000Y-124538000D01*
X270457000Y-124538000D02*
X270457000Y-123288000D01*
%TO.C,J9*%
X246457000Y-123965000D02*
X245127000Y-123965000D01*
X245127000Y-123965000D02*
X245127000Y-122635000D01*
X245127000Y-121365000D02*
X245127000Y-111145000D01*
X247787000Y-111145000D02*
X245127000Y-111145000D01*
X247787000Y-121365000D02*
X247787000Y-111145000D01*
X247787000Y-121365000D02*
X245127000Y-121365000D01*
%TO.C,J10*%
X221127000Y-92075000D02*
X223787000Y-92075000D01*
X221127000Y-92075000D02*
X221127000Y-102295000D01*
X221127000Y-102295000D02*
X223787000Y-102295000D01*
X223787000Y-92075000D02*
X223787000Y-102295000D01*
X223787000Y-89475000D02*
X223787000Y-90805000D01*
X222457000Y-89475000D02*
X223787000Y-89475000D01*
%TO.C,C1*%
X255367000Y-91157064D02*
X255367000Y-89952936D01*
X253547000Y-91157064D02*
X253547000Y-89952936D01*
%TO.C,C2*%
X237039564Y-115845000D02*
X235835436Y-115845000D01*
X237039564Y-114025000D02*
X235835436Y-114025000D01*
%TO.C,C3*%
X236890564Y-110977000D02*
X235686436Y-110977000D01*
X236890564Y-112797000D02*
X235686436Y-112797000D01*
%TO.C,D1*%
X275292000Y-82595000D02*
X272432000Y-82595000D01*
X275292000Y-84515000D02*
X275292000Y-82595000D01*
X272432000Y-84515000D02*
X275292000Y-84515000D01*
%TO.C,J1*%
X264127000Y-75145000D02*
X265457000Y-75145000D01*
X264127000Y-76475000D02*
X264127000Y-75145000D01*
X264127000Y-77745000D02*
X266787000Y-77745000D01*
X266787000Y-77745000D02*
X266787000Y-82885000D01*
X264127000Y-77745000D02*
X264127000Y-82885000D01*
X264127000Y-82885000D02*
X266787000Y-82885000D01*
%TO.C,J2*%
X231526000Y-87531000D02*
X231526000Y-86201000D01*
X232856000Y-87531000D02*
X231526000Y-87531000D01*
X234126000Y-87531000D02*
X234126000Y-84871000D01*
X234126000Y-84871000D02*
X241806000Y-84871000D01*
X234126000Y-87531000D02*
X241806000Y-87531000D01*
X241806000Y-87531000D02*
X241806000Y-84871000D01*
%TO.C,J3*%
X256787000Y-81425000D02*
X255457000Y-81425000D01*
X256787000Y-80095000D02*
X256787000Y-81425000D01*
X256787000Y-78825000D02*
X254127000Y-78825000D01*
X254127000Y-78825000D02*
X254127000Y-76225000D01*
X256787000Y-78825000D02*
X256787000Y-76225000D01*
X256787000Y-76225000D02*
X254127000Y-76225000D01*
%TO.C,JP1*%
X262950000Y-101660000D02*
X262950000Y-99000000D01*
X260350000Y-101660000D02*
X262950000Y-101660000D01*
X260350000Y-99000000D02*
X262950000Y-99000000D01*
X260350000Y-101660000D02*
X260350000Y-99000000D01*
X259080000Y-101660000D02*
X257750000Y-101660000D01*
X257750000Y-101660000D02*
X257750000Y-100330000D01*
%TO.C,JP2*%
X267193000Y-101533000D02*
X267193000Y-100203000D01*
X268523000Y-101533000D02*
X267193000Y-101533000D01*
X269793000Y-101533000D02*
X269793000Y-98873000D01*
X269793000Y-98873000D02*
X272393000Y-98873000D01*
X269793000Y-101533000D02*
X272393000Y-101533000D01*
X272393000Y-101533000D02*
X272393000Y-98873000D01*
%TO.C,Q1*%
X265283000Y-95025000D02*
X265283000Y-94095000D01*
X265283000Y-91865000D02*
X265283000Y-92795000D01*
X265283000Y-91865000D02*
X263123000Y-91865000D01*
X265283000Y-95025000D02*
X263823000Y-95025000D01*
%TO.C,Q2*%
X257827000Y-87315000D02*
X257827000Y-85855000D01*
X260987000Y-87315000D02*
X260987000Y-85155000D01*
X260987000Y-87315000D02*
X260057000Y-87315000D01*
X257827000Y-87315000D02*
X258757000Y-87315000D01*
%TO.C,R1*%
X241986000Y-104837252D02*
X241986000Y-104314748D01*
X240566000Y-104837252D02*
X240566000Y-104314748D01*
%TO.C,R2*%
X229378252Y-109907000D02*
X228855748Y-109907000D01*
X229378252Y-111327000D02*
X228855748Y-111327000D01*
%TO.C,R3*%
X244486000Y-104837252D02*
X244486000Y-104314748D01*
X243066000Y-104837252D02*
X243066000Y-104314748D01*
%TO.C,R4*%
X229566000Y-104837252D02*
X229566000Y-104314748D01*
X230986000Y-104837252D02*
X230986000Y-104314748D01*
%TO.C,R5*%
X273693252Y-85845000D02*
X273170748Y-85845000D01*
X273693252Y-87265000D02*
X273170748Y-87265000D01*
%TO.C,R6*%
X238986000Y-107387252D02*
X238986000Y-106864748D01*
X237566000Y-107387252D02*
X237566000Y-106864748D01*
%TO.C,R7*%
X234986000Y-106864748D02*
X234986000Y-107387252D01*
X233566000Y-106864748D02*
X233566000Y-107387252D01*
%TO.C,R8*%
X237562252Y-123311000D02*
X237039748Y-123311000D01*
X237562252Y-121891000D02*
X237039748Y-121891000D01*
%TO.C,R9*%
X260233000Y-93158748D02*
X260233000Y-93681252D01*
X258813000Y-93158748D02*
X258813000Y-93681252D01*
%TO.C,R10*%
X273693252Y-93845000D02*
X273170748Y-93845000D01*
X273693252Y-95265000D02*
X273170748Y-95265000D01*
%TO.C,R11*%
X255167000Y-84841252D02*
X255167000Y-84318748D01*
X253747000Y-84841252D02*
X253747000Y-84318748D01*
%TO.C,R12*%
X273693252Y-91265000D02*
X273170748Y-91265000D01*
X273693252Y-89845000D02*
X273170748Y-89845000D01*
%TO.C,R13*%
X266167000Y-87791252D02*
X266167000Y-87268748D01*
X264747000Y-87791252D02*
X264747000Y-87268748D01*
%TO.C,R14*%
X261747000Y-87791252D02*
X261747000Y-87268748D01*
X263167000Y-87791252D02*
X263167000Y-87268748D01*
%TO.C,SW1*%
X259127000Y-81425000D02*
X261787000Y-81425000D01*
X259127000Y-78825000D02*
X259127000Y-81425000D01*
X261787000Y-78825000D02*
X261787000Y-81425000D01*
X259127000Y-78825000D02*
X261787000Y-78825000D01*
X259127000Y-77555000D02*
X259127000Y-76225000D01*
X259127000Y-76225000D02*
X260457000Y-76225000D01*
%TO.C,U2*%
X239106000Y-91451000D02*
X239106000Y-89801000D01*
X239366000Y-91451000D02*
X239106000Y-91451000D01*
X239366000Y-94201000D02*
X239366000Y-91451000D01*
X239366000Y-96951000D02*
X239106000Y-96951000D01*
X239366000Y-94201000D02*
X239366000Y-96951000D01*
X233916000Y-91451000D02*
X234176000Y-91451000D01*
X233916000Y-94201000D02*
X233916000Y-91451000D01*
X233916000Y-96951000D02*
X234176000Y-96951000D01*
X233916000Y-94201000D02*
X233916000Y-96951000D01*
%TO.C,J11*%
X241806000Y-128171000D02*
X241806000Y-125511000D01*
X234126000Y-128171000D02*
X241806000Y-128171000D01*
X234126000Y-125511000D02*
X241806000Y-125511000D01*
X234126000Y-128171000D02*
X234126000Y-125511000D01*
X232856000Y-128171000D02*
X231526000Y-128171000D01*
X231526000Y-128171000D02*
X231526000Y-126841000D01*
%TO.C,J4*%
X239266000Y-119836001D02*
X239266000Y-117176001D01*
X236666000Y-119836001D02*
X239266000Y-119836001D01*
X236666000Y-117176001D02*
X239266000Y-117176001D01*
X236666000Y-119836001D02*
X236666000Y-117176001D01*
X235396000Y-119836001D02*
X234066000Y-119836001D01*
X234066000Y-119836001D02*
X234066000Y-118506001D01*
%TO.C,AE1*%
X275342000Y-112205000D02*
X275342000Y-114905000D01*
X272622000Y-112795000D02*
X271992000Y-112795000D01*
X272622000Y-114955000D02*
X272622000Y-114315000D01*
X272622000Y-112155000D02*
X272622000Y-112795000D01*
%TO.C,U1*%
X253357000Y-102455000D02*
X269557000Y-102455000D01*
X269557000Y-102455000D02*
X269557000Y-102855000D01*
X253357000Y-118255000D02*
X253357000Y-118655000D01*
X253357000Y-118655000D02*
X269557000Y-118655000D01*
X269557000Y-118655000D02*
X269557000Y-118255000D01*
X253357000Y-102455000D02*
X253357000Y-102805000D01*
X253357000Y-102805000D02*
X252457000Y-102805000D01*
D14*
%TO.C,H1*%
G36*
X214335517Y-83403285D02*
X214223600Y-83540599D01*
X214007406Y-83683689D01*
X213887754Y-83595792D01*
X213868000Y-83439000D01*
X213957803Y-83226743D01*
X214122000Y-83185000D01*
X214343106Y-83241859D01*
X214335517Y-83403285D01*
X214335517Y-83403285D01*
G37*
X214335517Y-83403285D02*
X214223600Y-83540599D01*
X214007406Y-83683689D01*
X213887754Y-83595792D01*
X213868000Y-83439000D01*
X213957803Y-83226743D01*
X214122000Y-83185000D01*
X214343106Y-83241859D01*
X214335517Y-83403285D01*
G36*
X215037373Y-83735571D02*
X214789643Y-84052418D01*
X214476037Y-84318085D01*
X214177781Y-84451343D01*
X214131770Y-84455000D01*
X213914729Y-84376706D01*
X213863750Y-84198793D01*
X213970923Y-84006709D01*
X214183566Y-83895333D01*
X214480451Y-83701825D01*
X214578334Y-83500565D01*
X214714258Y-83263699D01*
X214909502Y-83178185D01*
X215078615Y-83251930D01*
X215138000Y-83448769D01*
X215037373Y-83735571D01*
X215037373Y-83735571D01*
G37*
X215037373Y-83735571D02*
X214789643Y-84052418D01*
X214476037Y-84318085D01*
X214177781Y-84451343D01*
X214131770Y-84455000D01*
X213914729Y-84376706D01*
X213863750Y-84198793D01*
X213970923Y-84006709D01*
X214183566Y-83895333D01*
X214480451Y-83701825D01*
X214578334Y-83500565D01*
X214714258Y-83263699D01*
X214909502Y-83178185D01*
X215078615Y-83251930D01*
X215138000Y-83448769D01*
X215037373Y-83735571D01*
G36*
X215910666Y-84027098D02*
X215598480Y-84525596D01*
X215145673Y-84946100D01*
X214607472Y-85230407D01*
X214324306Y-85303185D01*
X214020936Y-85334034D01*
X213892578Y-85272667D01*
X213868000Y-85116466D01*
X213962122Y-84891214D01*
X214269125Y-84723737D01*
X214308344Y-84710371D01*
X214762012Y-84458166D01*
X215166336Y-84059256D01*
X215433726Y-83605509D01*
X215469305Y-83492711D01*
X215610595Y-83243461D01*
X215806774Y-83175532D01*
X215972865Y-83286470D01*
X216027000Y-83508806D01*
X215910666Y-84027098D01*
X215910666Y-84027098D01*
G37*
X215910666Y-84027098D02*
X215598480Y-84525596D01*
X215145673Y-84946100D01*
X214607472Y-85230407D01*
X214324306Y-85303185D01*
X214020936Y-85334034D01*
X213892578Y-85272667D01*
X213868000Y-85116466D01*
X213962122Y-84891214D01*
X214269125Y-84723737D01*
X214308344Y-84710371D01*
X214762012Y-84458166D01*
X215166336Y-84059256D01*
X215433726Y-83605509D01*
X215469305Y-83492711D01*
X215610595Y-83243461D01*
X215806774Y-83175532D01*
X215972865Y-83286470D01*
X216027000Y-83508806D01*
X215910666Y-84027098D01*
G36*
X216859991Y-83903628D02*
X216693523Y-84339551D01*
X216438419Y-84796781D01*
X216109729Y-85229190D01*
X215958564Y-85387260D01*
X215405194Y-85795928D01*
X214840184Y-86043746D01*
X214354027Y-86176894D01*
X214060550Y-86219374D01*
X213914069Y-86168258D01*
X213868900Y-86020616D01*
X213868000Y-85981419D01*
X213973946Y-85755113D01*
X214217250Y-85653596D01*
X215004670Y-85369153D01*
X215639319Y-84905999D01*
X216093040Y-84289832D01*
X216293670Y-83758798D01*
X216420525Y-83379514D01*
X216570682Y-83207782D01*
X216677077Y-83185000D01*
X216866818Y-83280224D01*
X216922772Y-83535143D01*
X216859991Y-83903628D01*
X216859991Y-83903628D01*
G37*
X216859991Y-83903628D02*
X216693523Y-84339551D01*
X216438419Y-84796781D01*
X216109729Y-85229190D01*
X215958564Y-85387260D01*
X215405194Y-85795928D01*
X214840184Y-86043746D01*
X214354027Y-86176894D01*
X214060550Y-86219374D01*
X213914069Y-86168258D01*
X213868900Y-86020616D01*
X213868000Y-85981419D01*
X213973946Y-85755113D01*
X214217250Y-85653596D01*
X215004670Y-85369153D01*
X215639319Y-84905999D01*
X216093040Y-84289832D01*
X216293670Y-83758798D01*
X216420525Y-83379514D01*
X216570682Y-83207782D01*
X216677077Y-83185000D01*
X216866818Y-83280224D01*
X216922772Y-83535143D01*
X216859991Y-83903628D01*
G36*
X214981700Y-88192290D02*
X214848025Y-88249448D01*
X214528548Y-88244310D01*
X214482071Y-88241080D01*
X213931500Y-88201500D01*
X213893709Y-87333774D01*
X213880419Y-86875705D01*
X213898633Y-86619590D01*
X213960203Y-86514144D01*
X214076980Y-86508082D01*
X214084209Y-86509416D01*
X214236970Y-86605791D01*
X214320992Y-86858873D01*
X214350884Y-87146928D01*
X214393785Y-87519521D01*
X214482282Y-87707068D01*
X214650646Y-87778272D01*
X214667086Y-87780786D01*
X214906685Y-87904709D01*
X214988773Y-88050580D01*
X214981700Y-88192290D01*
X214981700Y-88192290D01*
G37*
X214981700Y-88192290D02*
X214848025Y-88249448D01*
X214528548Y-88244310D01*
X214482071Y-88241080D01*
X213931500Y-88201500D01*
X213893709Y-87333774D01*
X213880419Y-86875705D01*
X213898633Y-86619590D01*
X213960203Y-86514144D01*
X214076980Y-86508082D01*
X214084209Y-86509416D01*
X214236970Y-86605791D01*
X214320992Y-86858873D01*
X214350884Y-87146928D01*
X214393785Y-87519521D01*
X214482282Y-87707068D01*
X214650646Y-87778272D01*
X214667086Y-87780786D01*
X214906685Y-87904709D01*
X214988773Y-88050580D01*
X214981700Y-88192290D01*
G36*
X218920351Y-91771702D02*
X218823280Y-92346206D01*
X218647926Y-92682707D01*
X218395696Y-92779392D01*
X218190967Y-92712657D01*
X217992675Y-92531037D01*
X218006204Y-92351010D01*
X218127560Y-91891886D01*
X218153740Y-91365812D01*
X218078195Y-90917560D01*
X218071829Y-90900308D01*
X217774533Y-90457118D01*
X217285103Y-90179868D01*
X216603819Y-90068684D01*
X216255435Y-90071790D01*
X215743133Y-90116077D01*
X215402242Y-90202754D01*
X215150841Y-90355809D01*
X215084371Y-90414727D01*
X214734383Y-90869646D01*
X214574130Y-91365956D01*
X214622811Y-91836707D01*
X214654803Y-91912642D01*
X214812046Y-92149703D01*
X215041137Y-92249108D01*
X215324486Y-92265500D01*
X215660125Y-92241464D01*
X215826998Y-92138790D01*
X215900000Y-91948000D01*
X216050685Y-91685830D01*
X216223226Y-91630500D01*
X216366953Y-91665200D01*
X216449675Y-91807947D01*
X216494125Y-92116705D01*
X216509588Y-92360750D01*
X216547676Y-93091000D01*
X215464766Y-93091000D01*
X214935172Y-93086326D01*
X214598308Y-93061696D01*
X214392932Y-93001193D01*
X214257808Y-92888902D01*
X214159604Y-92751799D01*
X213984737Y-92317367D01*
X213895851Y-91743156D01*
X213895567Y-91129319D01*
X213986504Y-90576010D01*
X214095368Y-90297000D01*
X214521478Y-89772768D01*
X215132954Y-89420592D01*
X215927216Y-89241672D01*
X216417275Y-89217500D01*
X216951120Y-89230329D01*
X217322637Y-89282818D01*
X217622812Y-89395965D01*
X217894139Y-89558370D01*
X218443303Y-90066443D01*
X218793961Y-90715377D01*
X218928975Y-91468204D01*
X218920351Y-91771702D01*
X218920351Y-91771702D01*
G37*
X218920351Y-91771702D02*
X218823280Y-92346206D01*
X218647926Y-92682707D01*
X218395696Y-92779392D01*
X218190967Y-92712657D01*
X217992675Y-92531037D01*
X218006204Y-92351010D01*
X218127560Y-91891886D01*
X218153740Y-91365812D01*
X218078195Y-90917560D01*
X218071829Y-90900308D01*
X217774533Y-90457118D01*
X217285103Y-90179868D01*
X216603819Y-90068684D01*
X216255435Y-90071790D01*
X215743133Y-90116077D01*
X215402242Y-90202754D01*
X215150841Y-90355809D01*
X215084371Y-90414727D01*
X214734383Y-90869646D01*
X214574130Y-91365956D01*
X214622811Y-91836707D01*
X214654803Y-91912642D01*
X214812046Y-92149703D01*
X215041137Y-92249108D01*
X215324486Y-92265500D01*
X215660125Y-92241464D01*
X215826998Y-92138790D01*
X215900000Y-91948000D01*
X216050685Y-91685830D01*
X216223226Y-91630500D01*
X216366953Y-91665200D01*
X216449675Y-91807947D01*
X216494125Y-92116705D01*
X216509588Y-92360750D01*
X216547676Y-93091000D01*
X215464766Y-93091000D01*
X214935172Y-93086326D01*
X214598308Y-93061696D01*
X214392932Y-93001193D01*
X214257808Y-92888902D01*
X214159604Y-92751799D01*
X213984737Y-92317367D01*
X213895851Y-91743156D01*
X213895567Y-91129319D01*
X213986504Y-90576010D01*
X214095368Y-90297000D01*
X214521478Y-89772768D01*
X215132954Y-89420592D01*
X215927216Y-89241672D01*
X216417275Y-89217500D01*
X216951120Y-89230329D01*
X217322637Y-89282818D01*
X217622812Y-89395965D01*
X217894139Y-89558370D01*
X218443303Y-90066443D01*
X218793961Y-90715377D01*
X218928975Y-91468204D01*
X218920351Y-91771702D01*
G36*
X217596975Y-95898628D02*
X217512399Y-96177822D01*
X217312773Y-96429237D01*
X217140116Y-96593258D01*
X216772341Y-96880673D01*
X216431948Y-97007612D01*
X216155866Y-97028000D01*
X215646000Y-97028000D01*
X215646000Y-95758000D01*
X215642684Y-95180351D01*
X215626452Y-94810612D01*
X215587883Y-94602718D01*
X215517553Y-94510601D01*
X215406041Y-94488196D01*
X215386228Y-94488000D01*
X215072714Y-94595456D01*
X214768669Y-94860258D01*
X214555168Y-95196052D01*
X214503000Y-95428751D01*
X214557385Y-95791145D01*
X214654530Y-96078619D01*
X214741023Y-96340005D01*
X214676939Y-96487760D01*
X214622780Y-96527150D01*
X214384742Y-96631270D01*
X214301136Y-96645055D01*
X214128851Y-96530432D01*
X213986435Y-96220419D01*
X213893513Y-95773421D01*
X213868000Y-95356083D01*
X213888557Y-94952990D01*
X213982872Y-94666955D01*
X214199909Y-94385058D01*
X214361059Y-94219058D01*
X214647837Y-93948890D01*
X214885397Y-93801748D01*
X215171210Y-93741052D01*
X215602746Y-93730221D01*
X215662809Y-93730500D01*
X216272661Y-93767215D01*
X216300218Y-93774974D01*
X216300218Y-94542487D01*
X216276368Y-94554362D01*
X216204013Y-94713344D01*
X216163045Y-95028176D01*
X216152244Y-95419695D01*
X216170391Y-95808740D01*
X216216265Y-96116147D01*
X216288646Y-96262754D01*
X216302750Y-96266000D01*
X216582207Y-96152550D01*
X216805394Y-95866376D01*
X216913349Y-95488740D01*
X216916000Y-95420816D01*
X216851956Y-95090737D01*
X216693901Y-94788161D01*
X216492950Y-94582331D01*
X216300218Y-94542487D01*
X216300218Y-93774974D01*
X216713404Y-93891318D01*
X217064029Y-94135781D01*
X217318083Y-94421395D01*
X217516623Y-94759174D01*
X217603325Y-95170748D01*
X217614500Y-95478903D01*
X217596975Y-95898628D01*
X217596975Y-95898628D01*
G37*
X217596975Y-95898628D02*
X217512399Y-96177822D01*
X217312773Y-96429237D01*
X217140116Y-96593258D01*
X216772341Y-96880673D01*
X216431948Y-97007612D01*
X216155866Y-97028000D01*
X215646000Y-97028000D01*
X215646000Y-95758000D01*
X215642684Y-95180351D01*
X215626452Y-94810612D01*
X215587883Y-94602718D01*
X215517553Y-94510601D01*
X215406041Y-94488196D01*
X215386228Y-94488000D01*
X215072714Y-94595456D01*
X214768669Y-94860258D01*
X214555168Y-95196052D01*
X214503000Y-95428751D01*
X214557385Y-95791145D01*
X214654530Y-96078619D01*
X214741023Y-96340005D01*
X214676939Y-96487760D01*
X214622780Y-96527150D01*
X214384742Y-96631270D01*
X214301136Y-96645055D01*
X214128851Y-96530432D01*
X213986435Y-96220419D01*
X213893513Y-95773421D01*
X213868000Y-95356083D01*
X213888557Y-94952990D01*
X213982872Y-94666955D01*
X214199909Y-94385058D01*
X214361059Y-94219058D01*
X214647837Y-93948890D01*
X214885397Y-93801748D01*
X215171210Y-93741052D01*
X215602746Y-93730221D01*
X215662809Y-93730500D01*
X216272661Y-93767215D01*
X216300218Y-93774974D01*
X216300218Y-94542487D01*
X216276368Y-94554362D01*
X216204013Y-94713344D01*
X216163045Y-95028176D01*
X216152244Y-95419695D01*
X216170391Y-95808740D01*
X216216265Y-96116147D01*
X216288646Y-96262754D01*
X216302750Y-96266000D01*
X216582207Y-96152550D01*
X216805394Y-95866376D01*
X216913349Y-95488740D01*
X216916000Y-95420816D01*
X216851956Y-95090737D01*
X216693901Y-94788161D01*
X216492950Y-94582331D01*
X216300218Y-94542487D01*
X216300218Y-93774974D01*
X216713404Y-93891318D01*
X217064029Y-94135781D01*
X217318083Y-94421395D01*
X217516623Y-94759174D01*
X217603325Y-95170748D01*
X217614500Y-95478903D01*
X217596975Y-95898628D01*
G36*
X217632930Y-98796881D02*
X217554753Y-99112131D01*
X217375488Y-99463778D01*
X217175481Y-99585005D01*
X216993753Y-99492260D01*
X216869326Y-99201993D01*
X216837820Y-98809921D01*
X216823744Y-98435043D01*
X216742827Y-98248943D01*
X216636499Y-98198562D01*
X216453763Y-98260066D01*
X216241736Y-98530833D01*
X216090082Y-98806825D01*
X215733387Y-99321473D01*
X215319102Y-99632433D01*
X214890117Y-99746839D01*
X214489317Y-99671825D01*
X214159590Y-99414525D01*
X213943823Y-98982075D01*
X213882733Y-98439622D01*
X213904356Y-98031576D01*
X213941179Y-97702630D01*
X213956970Y-97623850D01*
X214093514Y-97451614D01*
X214354988Y-97433350D01*
X214600805Y-97505539D01*
X214662626Y-97692477D01*
X214654567Y-97790000D01*
X214598326Y-98315287D01*
X214593053Y-98640655D01*
X214647710Y-98816686D01*
X214771258Y-98893964D01*
X214853029Y-98910185D01*
X215100101Y-98868600D01*
X215310730Y-98632284D01*
X215361029Y-98544929D01*
X215709158Y-97977538D01*
X216032084Y-97622219D01*
X216368286Y-97445157D01*
X216653607Y-97409000D01*
X217122545Y-97515796D01*
X217456226Y-97809447D01*
X217633428Y-98249844D01*
X217632930Y-98796881D01*
X217632930Y-98796881D01*
G37*
X217632930Y-98796881D02*
X217554753Y-99112131D01*
X217375488Y-99463778D01*
X217175481Y-99585005D01*
X216993753Y-99492260D01*
X216869326Y-99201993D01*
X216837820Y-98809921D01*
X216823744Y-98435043D01*
X216742827Y-98248943D01*
X216636499Y-98198562D01*
X216453763Y-98260066D01*
X216241736Y-98530833D01*
X216090082Y-98806825D01*
X215733387Y-99321473D01*
X215319102Y-99632433D01*
X214890117Y-99746839D01*
X214489317Y-99671825D01*
X214159590Y-99414525D01*
X213943823Y-98982075D01*
X213882733Y-98439622D01*
X213904356Y-98031576D01*
X213941179Y-97702630D01*
X213956970Y-97623850D01*
X214093514Y-97451614D01*
X214354988Y-97433350D01*
X214600805Y-97505539D01*
X214662626Y-97692477D01*
X214654567Y-97790000D01*
X214598326Y-98315287D01*
X214593053Y-98640655D01*
X214647710Y-98816686D01*
X214771258Y-98893964D01*
X214853029Y-98910185D01*
X215100101Y-98868600D01*
X215310730Y-98632284D01*
X215361029Y-98544929D01*
X215709158Y-97977538D01*
X216032084Y-97622219D01*
X216368286Y-97445157D01*
X216653607Y-97409000D01*
X217122545Y-97515796D01*
X217456226Y-97809447D01*
X217633428Y-98249844D01*
X217632930Y-98796881D01*
G36*
X213868000Y-101219000D02*
X213868000Y-100922666D01*
X213900829Y-100655952D01*
X213952667Y-100541666D01*
X214100637Y-100515092D01*
X214461550Y-100491936D01*
X214994360Y-100473599D01*
X215658018Y-100461487D01*
X216411477Y-100457002D01*
X216429167Y-100457000D01*
X218821000Y-100457000D01*
X218821000Y-101219000D01*
X213868000Y-101219000D01*
X213868000Y-101219000D01*
G37*
X213868000Y-101219000D02*
X213868000Y-100922666D01*
X213900829Y-100655952D01*
X213952667Y-100541666D01*
X214100637Y-100515092D01*
X214461550Y-100491936D01*
X214994360Y-100473599D01*
X215658018Y-100461487D01*
X216411477Y-100457002D01*
X216429167Y-100457000D01*
X218821000Y-100457000D01*
X218821000Y-101219000D01*
X213868000Y-101219000D01*
G36*
X217605179Y-104222826D02*
X217306770Y-104657769D01*
X217143456Y-104813476D01*
X216987889Y-104918120D01*
X216787772Y-104981848D01*
X216490808Y-105014807D01*
X216044700Y-105027142D01*
X215397149Y-105028999D01*
X215393334Y-105029000D01*
X213851129Y-105029000D01*
X213891315Y-104679750D01*
X213931500Y-104330500D01*
X215257666Y-104294037D01*
X215825779Y-104266208D01*
X216306788Y-104220035D01*
X216638925Y-104162731D01*
X216749916Y-104119737D01*
X216887291Y-103863646D01*
X216901259Y-103508366D01*
X216795669Y-103174532D01*
X216716429Y-103069571D01*
X216561796Y-102974038D01*
X216296529Y-102912996D01*
X215874150Y-102880360D01*
X215248182Y-102870043D01*
X215192429Y-102870000D01*
X214601411Y-102867828D01*
X214218999Y-102854542D01*
X213999803Y-102819986D01*
X213898431Y-102754004D01*
X213869492Y-102646440D01*
X213868000Y-102573666D01*
X213900829Y-102306952D01*
X213952667Y-102192666D01*
X214104045Y-102161913D01*
X214460713Y-102136149D01*
X214973979Y-102117612D01*
X215595147Y-102108540D01*
X215794167Y-102108000D01*
X217551000Y-102108000D01*
X217551000Y-102414916D01*
X217502052Y-102667517D01*
X217416378Y-102766707D01*
X217368047Y-102901756D01*
X217479096Y-103190040D01*
X217663575Y-103737916D01*
X217605179Y-104222826D01*
X217605179Y-104222826D01*
G37*
X217605179Y-104222826D02*
X217306770Y-104657769D01*
X217143456Y-104813476D01*
X216987889Y-104918120D01*
X216787772Y-104981848D01*
X216490808Y-105014807D01*
X216044700Y-105027142D01*
X215397149Y-105028999D01*
X215393334Y-105029000D01*
X213851129Y-105029000D01*
X213891315Y-104679750D01*
X213931500Y-104330500D01*
X215257666Y-104294037D01*
X215825779Y-104266208D01*
X216306788Y-104220035D01*
X216638925Y-104162731D01*
X216749916Y-104119737D01*
X216887291Y-103863646D01*
X216901259Y-103508366D01*
X216795669Y-103174532D01*
X216716429Y-103069571D01*
X216561796Y-102974038D01*
X216296529Y-102912996D01*
X215874150Y-102880360D01*
X215248182Y-102870043D01*
X215192429Y-102870000D01*
X214601411Y-102867828D01*
X214218999Y-102854542D01*
X213999803Y-102819986D01*
X213898431Y-102754004D01*
X213869492Y-102646440D01*
X213868000Y-102573666D01*
X213900829Y-102306952D01*
X213952667Y-102192666D01*
X214104045Y-102161913D01*
X214460713Y-102136149D01*
X214973979Y-102117612D01*
X215595147Y-102108540D01*
X215794167Y-102108000D01*
X217551000Y-102108000D01*
X217551000Y-102414916D01*
X217502052Y-102667517D01*
X217416378Y-102766707D01*
X217368047Y-102901756D01*
X217479096Y-103190040D01*
X217663575Y-103737916D01*
X217605179Y-104222826D01*
G36*
X213868000Y-108839000D02*
X213868000Y-107387058D01*
X213871318Y-106758108D01*
X213886281Y-106337574D01*
X213920407Y-106079905D01*
X213981215Y-105939549D01*
X214076220Y-105870956D01*
X214120864Y-105854860D01*
X214385064Y-105823196D01*
X214501864Y-105853797D01*
X214556002Y-106009600D01*
X214597841Y-106373662D01*
X214623569Y-106900382D01*
X214630000Y-107385995D01*
X214630000Y-108839000D01*
X213868000Y-108839000D01*
X213868000Y-108839000D01*
G37*
X213868000Y-108839000D02*
X213868000Y-107387058D01*
X213871318Y-106758108D01*
X213886281Y-106337574D01*
X213920407Y-106079905D01*
X213981215Y-105939549D01*
X214076220Y-105870956D01*
X214120864Y-105854860D01*
X214385064Y-105823196D01*
X214501864Y-105853797D01*
X214556002Y-106009600D01*
X214597841Y-106373662D01*
X214623569Y-106900382D01*
X214630000Y-107385995D01*
X214630000Y-108839000D01*
X213868000Y-108839000D01*
G36*
X217574281Y-111518839D02*
X217310781Y-111912983D01*
X216943561Y-112323973D01*
X215437531Y-112327736D01*
X213931500Y-112331500D01*
X213891315Y-111982250D01*
X213851129Y-111633000D01*
X214843815Y-111625681D01*
X215402507Y-111610247D01*
X215933992Y-111576579D01*
X216328098Y-111531775D01*
X216344500Y-111528971D01*
X216674462Y-111449229D01*
X216829745Y-111317213D01*
X216888799Y-111059636D01*
X216893183Y-111016410D01*
X216892915Y-110654852D01*
X216788731Y-110401389D01*
X216547131Y-110238257D01*
X216134619Y-110147697D01*
X215517695Y-110111945D01*
X215181817Y-110109000D01*
X214593680Y-110106951D01*
X214213956Y-110093777D01*
X213997056Y-110058931D01*
X213897394Y-109991868D01*
X213869383Y-109882043D01*
X213868000Y-109805087D01*
X213942929Y-109540025D01*
X214068888Y-109424087D01*
X214268447Y-109394439D01*
X214665301Y-109370076D01*
X215202758Y-109353449D01*
X215824130Y-109347010D01*
X215850873Y-109347000D01*
X216523312Y-109351443D01*
X216983530Y-109368243D01*
X217273204Y-109402601D01*
X217434015Y-109459723D01*
X217507638Y-109544810D01*
X217511530Y-109554323D01*
X217519120Y-109834381D01*
X217467667Y-109967073D01*
X217424262Y-110264311D01*
X217509252Y-110490000D01*
X217667480Y-111018463D01*
X217574281Y-111518839D01*
X217574281Y-111518839D01*
G37*
X217574281Y-111518839D02*
X217310781Y-111912983D01*
X216943561Y-112323973D01*
X215437531Y-112327736D01*
X213931500Y-112331500D01*
X213891315Y-111982250D01*
X213851129Y-111633000D01*
X214843815Y-111625681D01*
X215402507Y-111610247D01*
X215933992Y-111576579D01*
X216328098Y-111531775D01*
X216344500Y-111528971D01*
X216674462Y-111449229D01*
X216829745Y-111317213D01*
X216888799Y-111059636D01*
X216893183Y-111016410D01*
X216892915Y-110654852D01*
X216788731Y-110401389D01*
X216547131Y-110238257D01*
X216134619Y-110147697D01*
X215517695Y-110111945D01*
X215181817Y-110109000D01*
X214593680Y-110106951D01*
X214213956Y-110093777D01*
X213997056Y-110058931D01*
X213897394Y-109991868D01*
X213869383Y-109882043D01*
X213868000Y-109805087D01*
X213942929Y-109540025D01*
X214068888Y-109424087D01*
X214268447Y-109394439D01*
X214665301Y-109370076D01*
X215202758Y-109353449D01*
X215824130Y-109347010D01*
X215850873Y-109347000D01*
X216523312Y-109351443D01*
X216983530Y-109368243D01*
X217273204Y-109402601D01*
X217434015Y-109459723D01*
X217507638Y-109544810D01*
X217511530Y-109554323D01*
X217519120Y-109834381D01*
X217467667Y-109967073D01*
X217424262Y-110264311D01*
X217509252Y-110490000D01*
X217667480Y-111018463D01*
X217574281Y-111518839D01*
G36*
X218163875Y-86734492D02*
X218136741Y-87035102D01*
X218083419Y-87216718D01*
X217999200Y-87324246D01*
X217975380Y-87342917D01*
X217747954Y-87414854D01*
X217336045Y-87466044D01*
X216808374Y-87495853D01*
X216233661Y-87503644D01*
X215680626Y-87488785D01*
X215217989Y-87450641D01*
X214914471Y-87388578D01*
X214875651Y-87371531D01*
X214672028Y-87125889D01*
X214630000Y-86867062D01*
X214659790Y-86634827D01*
X214788087Y-86467682D01*
X215073288Y-86306147D01*
X215263939Y-86221347D01*
X215946303Y-85806267D01*
X216537416Y-85217673D01*
X216960739Y-84533939D01*
X216998073Y-84445615D01*
X217144268Y-84125878D01*
X217296276Y-83985621D01*
X217540344Y-83963395D01*
X217662715Y-83972065D01*
X218122500Y-84010500D01*
X218158404Y-85596667D01*
X218169527Y-86269983D01*
X218163875Y-86734492D01*
X218163875Y-86734492D01*
G37*
X218163875Y-86734492D02*
X218136741Y-87035102D01*
X218083419Y-87216718D01*
X217999200Y-87324246D01*
X217975380Y-87342917D01*
X217747954Y-87414854D01*
X217336045Y-87466044D01*
X216808374Y-87495853D01*
X216233661Y-87503644D01*
X215680626Y-87488785D01*
X215217989Y-87450641D01*
X214914471Y-87388578D01*
X214875651Y-87371531D01*
X214672028Y-87125889D01*
X214630000Y-86867062D01*
X214659790Y-86634827D01*
X214788087Y-86467682D01*
X215073288Y-86306147D01*
X215263939Y-86221347D01*
X215946303Y-85806267D01*
X216537416Y-85217673D01*
X216960739Y-84533939D01*
X216998073Y-84445615D01*
X217144268Y-84125878D01*
X217296276Y-83985621D01*
X217540344Y-83963395D01*
X217662715Y-83972065D01*
X218122500Y-84010500D01*
X218158404Y-85596667D01*
X218169527Y-86269983D01*
X218163875Y-86734492D01*
G36*
X215728394Y-88175294D02*
X215550750Y-88242082D01*
X215327854Y-88218589D01*
X215265068Y-88022366D01*
X215265000Y-88011000D01*
X215323009Y-87807327D01*
X215538784Y-87778281D01*
X215550750Y-87779917D01*
X215774163Y-87883717D01*
X215836500Y-88011000D01*
X215728394Y-88175294D01*
X215728394Y-88175294D01*
G37*
X215728394Y-88175294D02*
X215550750Y-88242082D01*
X215327854Y-88218589D01*
X215265068Y-88022366D01*
X215265000Y-88011000D01*
X215323009Y-87807327D01*
X215538784Y-87778281D01*
X215550750Y-87779917D01*
X215774163Y-87883717D01*
X215836500Y-88011000D01*
X215728394Y-88175294D01*
G36*
X216572198Y-88223256D02*
X216408000Y-88265000D01*
X216195744Y-88175197D01*
X216154000Y-88011000D01*
X216243803Y-87798743D01*
X216408000Y-87757000D01*
X216620257Y-87846802D01*
X216662000Y-88011000D01*
X216572198Y-88223256D01*
X216572198Y-88223256D01*
G37*
X216572198Y-88223256D02*
X216408000Y-88265000D01*
X216195744Y-88175197D01*
X216154000Y-88011000D01*
X216243803Y-87798743D01*
X216408000Y-87757000D01*
X216620257Y-87846802D01*
X216662000Y-88011000D01*
X216572198Y-88223256D01*
G36*
X216913430Y-107607432D02*
X216896579Y-107941409D01*
X216851734Y-108119463D01*
X216765184Y-108190634D01*
X216623217Y-108203959D01*
X216598500Y-108204000D01*
X216448410Y-108194946D01*
X216355123Y-108135257D01*
X216305133Y-107976139D01*
X216284934Y-107668798D01*
X216281018Y-107164441D01*
X216281000Y-107057014D01*
X216290826Y-106476488D01*
X216324574Y-106107057D01*
X216388650Y-105906421D01*
X216465419Y-105839260D01*
X216665013Y-105806829D01*
X216798039Y-105912442D01*
X216876151Y-106187893D01*
X216911004Y-106664975D01*
X216916000Y-107068495D01*
X216913430Y-107607432D01*
X216913430Y-107607432D01*
G37*
X216913430Y-107607432D02*
X216896579Y-107941409D01*
X216851734Y-108119463D01*
X216765184Y-108190634D01*
X216623217Y-108203959D01*
X216598500Y-108204000D01*
X216448410Y-108194946D01*
X216355123Y-108135257D01*
X216305133Y-107976139D01*
X216284934Y-107668798D01*
X216281018Y-107164441D01*
X216281000Y-107057014D01*
X216290826Y-106476488D01*
X216324574Y-106107057D01*
X216388650Y-105906421D01*
X216465419Y-105839260D01*
X216665013Y-105806829D01*
X216798039Y-105912442D01*
X216876151Y-106187893D01*
X216911004Y-106664975D01*
X216916000Y-107068495D01*
X216913430Y-107607432D01*
G36*
X217488374Y-88218409D02*
X217275198Y-88242082D01*
X217020911Y-88136990D01*
X216937288Y-87962827D01*
X216998021Y-87844312D01*
X217226937Y-87745638D01*
X217449045Y-87814676D01*
X217550966Y-88015440D01*
X217551000Y-88019832D01*
X217488374Y-88218409D01*
X217488374Y-88218409D01*
G37*
X217488374Y-88218409D02*
X217275198Y-88242082D01*
X217020911Y-88136990D01*
X216937288Y-87962827D01*
X216998021Y-87844312D01*
X217226937Y-87745638D01*
X217449045Y-87814676D01*
X217550966Y-88015440D01*
X217551000Y-88019832D01*
X217488374Y-88218409D01*
G36*
X218884832Y-84291678D02*
X218752994Y-84309205D01*
X218733581Y-84305772D01*
X218535339Y-84159527D01*
X218462918Y-83977452D01*
X218402164Y-83798459D01*
X218239749Y-83715019D01*
X217903533Y-83693115D01*
X217859668Y-83693000D01*
X217506642Y-83676278D01*
X217341002Y-83605919D01*
X217297205Y-83451630D01*
X217297000Y-83432939D01*
X217319262Y-83291699D01*
X217424414Y-83218503D01*
X217670008Y-83197236D01*
X218090750Y-83210689D01*
X218884500Y-83248500D01*
X218924081Y-83799070D01*
X218934442Y-84141366D01*
X218884832Y-84291678D01*
X218884832Y-84291678D01*
G37*
X218884832Y-84291678D02*
X218752994Y-84309205D01*
X218733581Y-84305772D01*
X218535339Y-84159527D01*
X218462918Y-83977452D01*
X218402164Y-83798459D01*
X218239749Y-83715019D01*
X217903533Y-83693115D01*
X217859668Y-83693000D01*
X217506642Y-83676278D01*
X217341002Y-83605919D01*
X217297205Y-83451630D01*
X217297000Y-83432939D01*
X217319262Y-83291699D01*
X217424414Y-83218503D01*
X217670008Y-83197236D01*
X218090750Y-83210689D01*
X218884500Y-83248500D01*
X218924081Y-83799070D01*
X218934442Y-84141366D01*
X218884832Y-84291678D01*
G36*
X218927311Y-87604452D02*
X218924081Y-87650929D01*
X218887814Y-87994231D01*
X218795553Y-88159320D01*
X218573453Y-88221356D01*
X218344750Y-88240552D01*
X217981247Y-88241309D01*
X217821562Y-88167092D01*
X217805000Y-88102968D01*
X217859160Y-87884102D01*
X217889667Y-87841666D01*
X218077203Y-87768010D01*
X218198334Y-87757000D01*
X218398681Y-87646105D01*
X218462918Y-87472547D01*
X218585251Y-87229927D01*
X218733581Y-87144227D01*
X218875291Y-87151300D01*
X218932449Y-87284975D01*
X218927311Y-87604452D01*
X218927311Y-87604452D01*
G37*
X218927311Y-87604452D02*
X218924081Y-87650929D01*
X218887814Y-87994231D01*
X218795553Y-88159320D01*
X218573453Y-88221356D01*
X218344750Y-88240552D01*
X217981247Y-88241309D01*
X217821562Y-88167092D01*
X217805000Y-88102968D01*
X217859160Y-87884102D01*
X217889667Y-87841666D01*
X218077203Y-87768010D01*
X218198334Y-87757000D01*
X218398681Y-87646105D01*
X218462918Y-87472547D01*
X218585251Y-87229927D01*
X218733581Y-87144227D01*
X218875291Y-87151300D01*
X218932449Y-87284975D01*
X218927311Y-87604452D01*
G36*
X218186000Y-108839000D02*
X218186000Y-107374514D01*
X218192470Y-106715228D01*
X218215027Y-106270374D01*
X218258394Y-106000637D01*
X218327294Y-105866702D01*
X218370419Y-105839260D01*
X218552744Y-105803583D01*
X218679495Y-105881658D01*
X218760048Y-106105663D01*
X218803776Y-106507778D01*
X218820054Y-107120182D01*
X218821000Y-107385995D01*
X218821000Y-108839000D01*
X218186000Y-108839000D01*
X218186000Y-108839000D01*
G37*
X218186000Y-108839000D02*
X218186000Y-107374514D01*
X218192470Y-106715228D01*
X218215027Y-106270374D01*
X218258394Y-106000637D01*
X218327294Y-105866702D01*
X218370419Y-105839260D01*
X218552744Y-105803583D01*
X218679495Y-105881658D01*
X218760048Y-106105663D01*
X218803776Y-106507778D01*
X218820054Y-107120182D01*
X218821000Y-107385995D01*
X218821000Y-108839000D01*
X218186000Y-108839000D01*
G36*
X218858198Y-85048256D02*
X218694000Y-85090000D01*
X218483824Y-84998541D01*
X218445486Y-84796835D01*
X218524667Y-84666666D01*
X218740121Y-84579255D01*
X218911581Y-84690183D01*
X218948000Y-84836000D01*
X218858198Y-85048256D01*
X218858198Y-85048256D01*
G37*
X218858198Y-85048256D02*
X218694000Y-85090000D01*
X218483824Y-84998541D01*
X218445486Y-84796835D01*
X218524667Y-84666666D01*
X218740121Y-84579255D01*
X218911581Y-84690183D01*
X218948000Y-84836000D01*
X218858198Y-85048256D01*
G36*
X218879570Y-85936717D02*
X218727209Y-85955103D01*
X218521657Y-85837045D01*
X218459347Y-85653992D01*
X218548906Y-85504150D01*
X218684688Y-85471000D01*
X218901813Y-85554673D01*
X218948000Y-85734312D01*
X218879570Y-85936717D01*
X218879570Y-85936717D01*
G37*
X218879570Y-85936717D02*
X218727209Y-85955103D01*
X218521657Y-85837045D01*
X218459347Y-85653992D01*
X218548906Y-85504150D01*
X218684688Y-85471000D01*
X218901813Y-85554673D01*
X218948000Y-85734312D01*
X218879570Y-85936717D01*
G36*
X218910244Y-86798333D02*
X218775398Y-86827884D01*
X218747113Y-86818087D01*
X218544662Y-86750845D01*
X218493113Y-86741000D01*
X218442002Y-86644588D01*
X218460431Y-86451650D01*
X218524667Y-86317666D01*
X218735828Y-86225760D01*
X218899170Y-86345759D01*
X218948000Y-86564087D01*
X218910244Y-86798333D01*
X218910244Y-86798333D01*
G37*
X218910244Y-86798333D02*
X218775398Y-86827884D01*
X218747113Y-86818087D01*
X218544662Y-86750845D01*
X218493113Y-86741000D01*
X218442002Y-86644588D01*
X218460431Y-86451650D01*
X218524667Y-86317666D01*
X218735828Y-86225760D01*
X218899170Y-86345759D01*
X218948000Y-86564087D01*
X218910244Y-86798333D01*
D10*
%TO.C,J6*%
X270125000Y-130334000D02*
X270125000Y-125614000D01*
X270125000Y-125614000D02*
X258005000Y-125614000D01*
X258005000Y-125614000D02*
X258005000Y-130334000D01*
X258005000Y-130334000D02*
X270125000Y-130334000D01*
X268365000Y-130334000D02*
X268365000Y-130534000D01*
X268365000Y-130534000D02*
X268665000Y-130534000D01*
X268665000Y-130534000D02*
X268665000Y-130334000D01*
X268365000Y-130434000D02*
X268665000Y-130434000D01*
X267565000Y-130334000D02*
X267565000Y-129724000D01*
X267565000Y-129724000D02*
X269515000Y-129724000D01*
X269515000Y-129724000D02*
X269515000Y-126224000D01*
X269515000Y-126224000D02*
X258615000Y-126224000D01*
X258615000Y-126224000D02*
X258615000Y-129724000D01*
X258615000Y-129724000D02*
X260565000Y-129724000D01*
X260565000Y-129724000D02*
X260565000Y-130334000D01*
X270125000Y-129024000D02*
X269515000Y-129024000D01*
X270125000Y-127724000D02*
X269515000Y-127724000D01*
X258005000Y-129024000D02*
X258615000Y-129024000D01*
X258005000Y-127724000D02*
X258615000Y-127724000D01*
X267165000Y-126224000D02*
X267165000Y-126724000D01*
X267165000Y-126724000D02*
X266965000Y-126724000D01*
X266965000Y-126724000D02*
X266965000Y-126224000D01*
X267065000Y-126224000D02*
X267065000Y-126724000D01*
X265165000Y-126224000D02*
X265165000Y-126724000D01*
X265165000Y-126724000D02*
X264965000Y-126724000D01*
X264965000Y-126724000D02*
X264965000Y-126224000D01*
X265065000Y-126224000D02*
X265065000Y-126724000D01*
X263165000Y-126224000D02*
X263165000Y-126724000D01*
X263165000Y-126724000D02*
X262965000Y-126724000D01*
X262965000Y-126724000D02*
X262965000Y-126224000D01*
X263065000Y-126224000D02*
X263065000Y-126724000D01*
X261165000Y-126224000D02*
X261165000Y-126724000D01*
X261165000Y-126724000D02*
X260965000Y-126724000D01*
X260965000Y-126724000D02*
X260965000Y-126224000D01*
X261065000Y-126224000D02*
X261065000Y-126724000D01*
X269175000Y-130634000D02*
X270425000Y-130634000D01*
X270425000Y-130634000D02*
X270425000Y-129384000D01*
%TO.C,J7*%
X270824000Y-95885000D02*
X268164000Y-95885000D01*
X270824000Y-95885000D02*
X270824000Y-85665000D01*
X270824000Y-85665000D02*
X268164000Y-85665000D01*
X268164000Y-95885000D02*
X268164000Y-85665000D01*
X268164000Y-98485000D02*
X268164000Y-97155000D01*
X269494000Y-98485000D02*
X268164000Y-98485000D01*
%TO.C,J5*%
D11*
X251761666Y-134580380D02*
X251761666Y-135294666D01*
X251714047Y-135437523D01*
X251618809Y-135532761D01*
X251475952Y-135580380D01*
X251380714Y-135580380D01*
X252714047Y-134580380D02*
X252237857Y-134580380D01*
X252190238Y-135056571D01*
X252237857Y-135008952D01*
X252333095Y-134961333D01*
X252571190Y-134961333D01*
X252666428Y-135008952D01*
X252714047Y-135056571D01*
X252761666Y-135151809D01*
X252761666Y-135389904D01*
X252714047Y-135485142D01*
X252666428Y-135532761D01*
X252571190Y-135580380D01*
X252333095Y-135580380D01*
X252237857Y-135532761D01*
X252190238Y-135485142D01*
%TO.C,J8*%
X267763666Y-124650380D02*
X267763666Y-125364666D01*
X267716047Y-125507523D01*
X267620809Y-125602761D01*
X267477952Y-125650380D01*
X267382714Y-125650380D01*
X268382714Y-125078952D02*
X268287476Y-125031333D01*
X268239857Y-124983714D01*
X268192238Y-124888476D01*
X268192238Y-124840857D01*
X268239857Y-124745619D01*
X268287476Y-124698000D01*
X268382714Y-124650380D01*
X268573190Y-124650380D01*
X268668428Y-124698000D01*
X268716047Y-124745619D01*
X268763666Y-124840857D01*
X268763666Y-124888476D01*
X268716047Y-124983714D01*
X268668428Y-125031333D01*
X268573190Y-125078952D01*
X268382714Y-125078952D01*
X268287476Y-125126571D01*
X268239857Y-125174190D01*
X268192238Y-125269428D01*
X268192238Y-125459904D01*
X268239857Y-125555142D01*
X268287476Y-125602761D01*
X268382714Y-125650380D01*
X268573190Y-125650380D01*
X268668428Y-125602761D01*
X268716047Y-125555142D01*
X268763666Y-125459904D01*
X268763666Y-125269428D01*
X268716047Y-125174190D01*
X268668428Y-125126571D01*
X268573190Y-125078952D01*
%TO.C,J9*%
X246123666Y-124857380D02*
X246123666Y-125571666D01*
X246076047Y-125714523D01*
X245980809Y-125809761D01*
X245837952Y-125857380D01*
X245742714Y-125857380D01*
X246647476Y-125857380D02*
X246837952Y-125857380D01*
X246933190Y-125809761D01*
X246980809Y-125762142D01*
X247076047Y-125619285D01*
X247123666Y-125428809D01*
X247123666Y-125047857D01*
X247076047Y-124952619D01*
X247028428Y-124905000D01*
X246933190Y-124857380D01*
X246742714Y-124857380D01*
X246647476Y-124905000D01*
X246599857Y-124952619D01*
X246552238Y-125047857D01*
X246552238Y-125285952D01*
X246599857Y-125381190D01*
X246647476Y-125428809D01*
X246742714Y-125476428D01*
X246933190Y-125476428D01*
X247028428Y-125428809D01*
X247076047Y-125381190D01*
X247123666Y-125285952D01*
%TO.C,J10*%
X221647476Y-87487380D02*
X221647476Y-88201666D01*
X221599857Y-88344523D01*
X221504619Y-88439761D01*
X221361761Y-88487380D01*
X221266523Y-88487380D01*
X222647476Y-88487380D02*
X222076047Y-88487380D01*
X222361761Y-88487380D02*
X222361761Y-87487380D01*
X222266523Y-87630238D01*
X222171285Y-87725476D01*
X222076047Y-87773095D01*
X223266523Y-87487380D02*
X223361761Y-87487380D01*
X223457000Y-87535000D01*
X223504619Y-87582619D01*
X223552238Y-87677857D01*
X223599857Y-87868333D01*
X223599857Y-88106428D01*
X223552238Y-88296904D01*
X223504619Y-88392142D01*
X223457000Y-88439761D01*
X223361761Y-88487380D01*
X223266523Y-88487380D01*
X223171285Y-88439761D01*
X223123666Y-88392142D01*
X223076047Y-88296904D01*
X223028428Y-88106428D01*
X223028428Y-87868333D01*
X223076047Y-87677857D01*
X223123666Y-87582619D01*
X223171285Y-87535000D01*
X223266523Y-87487380D01*
%TO.C,U3*%
X249301095Y-84161380D02*
X249301095Y-84970904D01*
X249348714Y-85066142D01*
X249396333Y-85113761D01*
X249491571Y-85161380D01*
X249682047Y-85161380D01*
X249777285Y-85113761D01*
X249824904Y-85066142D01*
X249872523Y-84970904D01*
X249872523Y-84161380D01*
X250253476Y-84161380D02*
X250872523Y-84161380D01*
X250539190Y-84542333D01*
X250682047Y-84542333D01*
X250777285Y-84589952D01*
X250824904Y-84637571D01*
X250872523Y-84732809D01*
X250872523Y-84970904D01*
X250824904Y-85066142D01*
X250777285Y-85113761D01*
X250682047Y-85161380D01*
X250396333Y-85161380D01*
X250301095Y-85113761D01*
X250253476Y-85066142D01*
%TO.C,C1*%
X252994142Y-90721666D02*
X253041761Y-90769285D01*
X253089380Y-90912142D01*
X253089380Y-91007380D01*
X253041761Y-91150238D01*
X252946523Y-91245476D01*
X252851285Y-91293095D01*
X252660809Y-91340714D01*
X252517952Y-91340714D01*
X252327476Y-91293095D01*
X252232238Y-91245476D01*
X252137000Y-91150238D01*
X252089380Y-91007380D01*
X252089380Y-90912142D01*
X252137000Y-90769285D01*
X252184619Y-90721666D01*
X253089380Y-89769285D02*
X253089380Y-90340714D01*
X253089380Y-90055000D02*
X252089380Y-90055000D01*
X252232238Y-90150238D01*
X252327476Y-90245476D01*
X252375095Y-90340714D01*
%TO.C,C2*%
X239990333Y-115292142D02*
X239942714Y-115339761D01*
X239799857Y-115387380D01*
X239704619Y-115387380D01*
X239561761Y-115339761D01*
X239466523Y-115244523D01*
X239418904Y-115149285D01*
X239371285Y-114958809D01*
X239371285Y-114815952D01*
X239418904Y-114625476D01*
X239466523Y-114530238D01*
X239561761Y-114435000D01*
X239704619Y-114387380D01*
X239799857Y-114387380D01*
X239942714Y-114435000D01*
X239990333Y-114482619D01*
X240371285Y-114482619D02*
X240418904Y-114435000D01*
X240514142Y-114387380D01*
X240752238Y-114387380D01*
X240847476Y-114435000D01*
X240895095Y-114482619D01*
X240942714Y-114577857D01*
X240942714Y-114673095D01*
X240895095Y-114815952D01*
X240323666Y-115387380D01*
X240942714Y-115387380D01*
%TO.C,C3*%
X239736333Y-112117142D02*
X239688714Y-112164761D01*
X239545857Y-112212380D01*
X239450619Y-112212380D01*
X239307761Y-112164761D01*
X239212523Y-112069523D01*
X239164904Y-111974285D01*
X239117285Y-111783809D01*
X239117285Y-111640952D01*
X239164904Y-111450476D01*
X239212523Y-111355238D01*
X239307761Y-111260000D01*
X239450619Y-111212380D01*
X239545857Y-111212380D01*
X239688714Y-111260000D01*
X239736333Y-111307619D01*
X240069666Y-111212380D02*
X240688714Y-111212380D01*
X240355380Y-111593333D01*
X240498238Y-111593333D01*
X240593476Y-111640952D01*
X240641095Y-111688571D01*
X240688714Y-111783809D01*
X240688714Y-112021904D01*
X240641095Y-112117142D01*
X240593476Y-112164761D01*
X240498238Y-112212380D01*
X240212523Y-112212380D01*
X240117285Y-112164761D01*
X240069666Y-112117142D01*
%TO.C,D1*%
X272692904Y-85542380D02*
X272692904Y-84542380D01*
X272931000Y-84542380D01*
X273073857Y-84590000D01*
X273169095Y-84685238D01*
X273216714Y-84780476D01*
X273264333Y-84970952D01*
X273264333Y-85113809D01*
X273216714Y-85304285D01*
X273169095Y-85399523D01*
X273073857Y-85494761D01*
X272931000Y-85542380D01*
X272692904Y-85542380D01*
X274216714Y-85542380D02*
X273645285Y-85542380D01*
X273931000Y-85542380D02*
X273931000Y-84542380D01*
X273835761Y-84685238D01*
X273740523Y-84780476D01*
X273645285Y-84828095D01*
%TO.C,J1*%
X265123666Y-73597380D02*
X265123666Y-74311666D01*
X265076047Y-74454523D01*
X264980809Y-74549761D01*
X264837952Y-74597380D01*
X264742714Y-74597380D01*
X266123666Y-74597380D02*
X265552238Y-74597380D01*
X265837952Y-74597380D02*
X265837952Y-73597380D01*
X265742714Y-73740238D01*
X265647476Y-73835476D01*
X265552238Y-73883095D01*
%TO.C,J2*%
X229978380Y-86534333D02*
X230692666Y-86534333D01*
X230835523Y-86581952D01*
X230930761Y-86677190D01*
X230978380Y-86820047D01*
X230978380Y-86915285D01*
X230073619Y-86105761D02*
X230026000Y-86058142D01*
X229978380Y-85962904D01*
X229978380Y-85724809D01*
X230026000Y-85629571D01*
X230073619Y-85581952D01*
X230168857Y-85534333D01*
X230264095Y-85534333D01*
X230406952Y-85581952D01*
X230978380Y-86153380D01*
X230978380Y-85534333D01*
%TO.C,J3*%
X255190666Y-74636380D02*
X255190666Y-75350666D01*
X255143047Y-75493523D01*
X255047809Y-75588761D01*
X254904952Y-75636380D01*
X254809714Y-75636380D01*
X255571619Y-74636380D02*
X256190666Y-74636380D01*
X255857333Y-75017333D01*
X256000190Y-75017333D01*
X256095428Y-75064952D01*
X256143047Y-75112571D01*
X256190666Y-75207809D01*
X256190666Y-75445904D01*
X256143047Y-75541142D01*
X256095428Y-75588761D01*
X256000190Y-75636380D01*
X255714476Y-75636380D01*
X255619238Y-75588761D01*
X255571619Y-75541142D01*
%TO.C,JP1*%
X256202380Y-101163333D02*
X256916666Y-101163333D01*
X257059523Y-101210952D01*
X257154761Y-101306190D01*
X257202380Y-101449047D01*
X257202380Y-101544285D01*
X257202380Y-100687142D02*
X256202380Y-100687142D01*
X256202380Y-100306190D01*
X256250000Y-100210952D01*
X256297619Y-100163333D01*
X256392857Y-100115714D01*
X256535714Y-100115714D01*
X256630952Y-100163333D01*
X256678571Y-100210952D01*
X256726190Y-100306190D01*
X256726190Y-100687142D01*
X257202380Y-99163333D02*
X257202380Y-99734761D01*
X257202380Y-99449047D02*
X256202380Y-99449047D01*
X256345238Y-99544285D01*
X256440476Y-99639523D01*
X256488095Y-99734761D01*
%TO.C,JP2*%
X265645380Y-101036333D02*
X266359666Y-101036333D01*
X266502523Y-101083952D01*
X266597761Y-101179190D01*
X266645380Y-101322047D01*
X266645380Y-101417285D01*
X266645380Y-100560142D02*
X265645380Y-100560142D01*
X265645380Y-100179190D01*
X265693000Y-100083952D01*
X265740619Y-100036333D01*
X265835857Y-99988714D01*
X265978714Y-99988714D01*
X266073952Y-100036333D01*
X266121571Y-100083952D01*
X266169190Y-100179190D01*
X266169190Y-100560142D01*
X265740619Y-99607761D02*
X265693000Y-99560142D01*
X265645380Y-99464904D01*
X265645380Y-99226809D01*
X265693000Y-99131571D01*
X265740619Y-99083952D01*
X265835857Y-99036333D01*
X265931095Y-99036333D01*
X266073952Y-99083952D01*
X266645380Y-99655380D01*
X266645380Y-99036333D01*
%TO.C,Q1*%
X264427761Y-91492619D02*
X264332523Y-91445000D01*
X264237285Y-91349761D01*
X264094428Y-91206904D01*
X263999190Y-91159285D01*
X263903952Y-91159285D01*
X263951571Y-91397380D02*
X263856333Y-91349761D01*
X263761095Y-91254523D01*
X263713476Y-91064047D01*
X263713476Y-90730714D01*
X263761095Y-90540238D01*
X263856333Y-90445000D01*
X263951571Y-90397380D01*
X264142047Y-90397380D01*
X264237285Y-90445000D01*
X264332523Y-90540238D01*
X264380142Y-90730714D01*
X264380142Y-91064047D01*
X264332523Y-91254523D01*
X264237285Y-91349761D01*
X264142047Y-91397380D01*
X263951571Y-91397380D01*
X265332523Y-91397380D02*
X264761095Y-91397380D01*
X265046809Y-91397380D02*
X265046809Y-90397380D01*
X264951571Y-90540238D01*
X264856333Y-90635476D01*
X264761095Y-90683095D01*
%TO.C,Q2*%
X259361761Y-85102619D02*
X259266523Y-85055000D01*
X259171285Y-84959761D01*
X259028428Y-84816904D01*
X258933190Y-84769285D01*
X258837952Y-84769285D01*
X258885571Y-85007380D02*
X258790333Y-84959761D01*
X258695095Y-84864523D01*
X258647476Y-84674047D01*
X258647476Y-84340714D01*
X258695095Y-84150238D01*
X258790333Y-84055000D01*
X258885571Y-84007380D01*
X259076047Y-84007380D01*
X259171285Y-84055000D01*
X259266523Y-84150238D01*
X259314142Y-84340714D01*
X259314142Y-84674047D01*
X259266523Y-84864523D01*
X259171285Y-84959761D01*
X259076047Y-85007380D01*
X258885571Y-85007380D01*
X259695095Y-84102619D02*
X259742714Y-84055000D01*
X259837952Y-84007380D01*
X260076047Y-84007380D01*
X260171285Y-84055000D01*
X260218904Y-84102619D01*
X260266523Y-84197857D01*
X260266523Y-84293095D01*
X260218904Y-84435952D01*
X259647476Y-85007380D01*
X260266523Y-85007380D01*
%TO.C,R1*%
X241879380Y-101639666D02*
X241403190Y-101973000D01*
X241879380Y-102211095D02*
X240879380Y-102211095D01*
X240879380Y-101830142D01*
X240927000Y-101734904D01*
X240974619Y-101687285D01*
X241069857Y-101639666D01*
X241212714Y-101639666D01*
X241307952Y-101687285D01*
X241355571Y-101734904D01*
X241403190Y-101830142D01*
X241403190Y-102211095D01*
X241879380Y-100687285D02*
X241879380Y-101258714D01*
X241879380Y-100973000D02*
X240879380Y-100973000D01*
X241022238Y-101068238D01*
X241117476Y-101163476D01*
X241165095Y-101258714D01*
%TO.C,R2*%
X226020333Y-110942380D02*
X225687000Y-110466190D01*
X225448904Y-110942380D02*
X225448904Y-109942380D01*
X225829857Y-109942380D01*
X225925095Y-109990000D01*
X225972714Y-110037619D01*
X226020333Y-110132857D01*
X226020333Y-110275714D01*
X225972714Y-110370952D01*
X225925095Y-110418571D01*
X225829857Y-110466190D01*
X225448904Y-110466190D01*
X226401285Y-110037619D02*
X226448904Y-109990000D01*
X226544142Y-109942380D01*
X226782238Y-109942380D01*
X226877476Y-109990000D01*
X226925095Y-110037619D01*
X226972714Y-110132857D01*
X226972714Y-110228095D01*
X226925095Y-110370952D01*
X226353666Y-110942380D01*
X226972714Y-110942380D01*
%TO.C,R3*%
X244292380Y-101385666D02*
X243816190Y-101719000D01*
X244292380Y-101957095D02*
X243292380Y-101957095D01*
X243292380Y-101576142D01*
X243340000Y-101480904D01*
X243387619Y-101433285D01*
X243482857Y-101385666D01*
X243625714Y-101385666D01*
X243720952Y-101433285D01*
X243768571Y-101480904D01*
X243816190Y-101576142D01*
X243816190Y-101957095D01*
X243292380Y-101052333D02*
X243292380Y-100433285D01*
X243673333Y-100766619D01*
X243673333Y-100623761D01*
X243720952Y-100528523D01*
X243768571Y-100480904D01*
X243863809Y-100433285D01*
X244101904Y-100433285D01*
X244197142Y-100480904D01*
X244244761Y-100528523D01*
X244292380Y-100623761D01*
X244292380Y-100909476D01*
X244244761Y-101004714D01*
X244197142Y-101052333D01*
%TO.C,R4*%
X230830380Y-101512666D02*
X230354190Y-101846000D01*
X230830380Y-102084095D02*
X229830380Y-102084095D01*
X229830380Y-101703142D01*
X229878000Y-101607904D01*
X229925619Y-101560285D01*
X230020857Y-101512666D01*
X230163714Y-101512666D01*
X230258952Y-101560285D01*
X230306571Y-101607904D01*
X230354190Y-101703142D01*
X230354190Y-102084095D01*
X230163714Y-100655523D02*
X230830380Y-100655523D01*
X229782761Y-100893619D02*
X230497047Y-101131714D01*
X230497047Y-100512666D01*
%TO.C,R5*%
X273265333Y-88657380D02*
X272932000Y-88181190D01*
X272693904Y-88657380D02*
X272693904Y-87657380D01*
X273074857Y-87657380D01*
X273170095Y-87705000D01*
X273217714Y-87752619D01*
X273265333Y-87847857D01*
X273265333Y-87990714D01*
X273217714Y-88085952D01*
X273170095Y-88133571D01*
X273074857Y-88181190D01*
X272693904Y-88181190D01*
X274170095Y-87657380D02*
X273693904Y-87657380D01*
X273646285Y-88133571D01*
X273693904Y-88085952D01*
X273789142Y-88038333D01*
X274027238Y-88038333D01*
X274122476Y-88085952D01*
X274170095Y-88133571D01*
X274217714Y-88228809D01*
X274217714Y-88466904D01*
X274170095Y-88562142D01*
X274122476Y-88609761D01*
X274027238Y-88657380D01*
X273789142Y-88657380D01*
X273693904Y-88609761D01*
X273646285Y-88562142D01*
%TO.C,R6*%
X238831380Y-104306666D02*
X238355190Y-104640000D01*
X238831380Y-104878095D02*
X237831380Y-104878095D01*
X237831380Y-104497142D01*
X237879000Y-104401904D01*
X237926619Y-104354285D01*
X238021857Y-104306666D01*
X238164714Y-104306666D01*
X238259952Y-104354285D01*
X238307571Y-104401904D01*
X238355190Y-104497142D01*
X238355190Y-104878095D01*
X237831380Y-103449523D02*
X237831380Y-103640000D01*
X237879000Y-103735238D01*
X237926619Y-103782857D01*
X238069476Y-103878095D01*
X238259952Y-103925714D01*
X238640904Y-103925714D01*
X238736142Y-103878095D01*
X238783761Y-103830476D01*
X238831380Y-103735238D01*
X238831380Y-103544761D01*
X238783761Y-103449523D01*
X238736142Y-103401904D01*
X238640904Y-103354285D01*
X238402809Y-103354285D01*
X238307571Y-103401904D01*
X238259952Y-103449523D01*
X238212333Y-103544761D01*
X238212333Y-103735238D01*
X238259952Y-103830476D01*
X238307571Y-103878095D01*
X238402809Y-103925714D01*
%TO.C,R7*%
X234767380Y-104179666D02*
X234291190Y-104513000D01*
X234767380Y-104751095D02*
X233767380Y-104751095D01*
X233767380Y-104370142D01*
X233815000Y-104274904D01*
X233862619Y-104227285D01*
X233957857Y-104179666D01*
X234100714Y-104179666D01*
X234195952Y-104227285D01*
X234243571Y-104274904D01*
X234291190Y-104370142D01*
X234291190Y-104751095D01*
X233767380Y-103846333D02*
X233767380Y-103179666D01*
X234767380Y-103608238D01*
%TO.C,R8*%
X237134333Y-124703380D02*
X236801000Y-124227190D01*
X236562904Y-124703380D02*
X236562904Y-123703380D01*
X236943857Y-123703380D01*
X237039095Y-123751000D01*
X237086714Y-123798619D01*
X237134333Y-123893857D01*
X237134333Y-124036714D01*
X237086714Y-124131952D01*
X237039095Y-124179571D01*
X236943857Y-124227190D01*
X236562904Y-124227190D01*
X237705761Y-124131952D02*
X237610523Y-124084333D01*
X237562904Y-124036714D01*
X237515285Y-123941476D01*
X237515285Y-123893857D01*
X237562904Y-123798619D01*
X237610523Y-123751000D01*
X237705761Y-123703380D01*
X237896238Y-123703380D01*
X237991476Y-123751000D01*
X238039095Y-123798619D01*
X238086714Y-123893857D01*
X238086714Y-123941476D01*
X238039095Y-124036714D01*
X237991476Y-124084333D01*
X237896238Y-124131952D01*
X237705761Y-124131952D01*
X237610523Y-124179571D01*
X237562904Y-124227190D01*
X237515285Y-124322428D01*
X237515285Y-124512904D01*
X237562904Y-124608142D01*
X237610523Y-124655761D01*
X237705761Y-124703380D01*
X237896238Y-124703380D01*
X237991476Y-124655761D01*
X238039095Y-124608142D01*
X238086714Y-124512904D01*
X238086714Y-124322428D01*
X238039095Y-124227190D01*
X237991476Y-124179571D01*
X237896238Y-124131952D01*
%TO.C,R9*%
X261625380Y-93586666D02*
X261149190Y-93920000D01*
X261625380Y-94158095D02*
X260625380Y-94158095D01*
X260625380Y-93777142D01*
X260673000Y-93681904D01*
X260720619Y-93634285D01*
X260815857Y-93586666D01*
X260958714Y-93586666D01*
X261053952Y-93634285D01*
X261101571Y-93681904D01*
X261149190Y-93777142D01*
X261149190Y-94158095D01*
X261625380Y-93110476D02*
X261625380Y-92920000D01*
X261577761Y-92824761D01*
X261530142Y-92777142D01*
X261387285Y-92681904D01*
X261196809Y-92634285D01*
X260815857Y-92634285D01*
X260720619Y-92681904D01*
X260673000Y-92729523D01*
X260625380Y-92824761D01*
X260625380Y-93015238D01*
X260673000Y-93110476D01*
X260720619Y-93158095D01*
X260815857Y-93205714D01*
X261053952Y-93205714D01*
X261149190Y-93158095D01*
X261196809Y-93110476D01*
X261244428Y-93015238D01*
X261244428Y-92824761D01*
X261196809Y-92729523D01*
X261149190Y-92681904D01*
X261053952Y-92634285D01*
%TO.C,R10*%
X272789142Y-96657380D02*
X272455809Y-96181190D01*
X272217714Y-96657380D02*
X272217714Y-95657380D01*
X272598666Y-95657380D01*
X272693904Y-95705000D01*
X272741523Y-95752619D01*
X272789142Y-95847857D01*
X272789142Y-95990714D01*
X272741523Y-96085952D01*
X272693904Y-96133571D01*
X272598666Y-96181190D01*
X272217714Y-96181190D01*
X273741523Y-96657380D02*
X273170095Y-96657380D01*
X273455809Y-96657380D02*
X273455809Y-95657380D01*
X273360571Y-95800238D01*
X273265333Y-95895476D01*
X273170095Y-95943095D01*
X274360571Y-95657380D02*
X274455809Y-95657380D01*
X274551047Y-95705000D01*
X274598666Y-95752619D01*
X274646285Y-95847857D01*
X274693904Y-96038333D01*
X274693904Y-96276428D01*
X274646285Y-96466904D01*
X274598666Y-96562142D01*
X274551047Y-96609761D01*
X274455809Y-96657380D01*
X274360571Y-96657380D01*
X274265333Y-96609761D01*
X274217714Y-96562142D01*
X274170095Y-96466904D01*
X274122476Y-96276428D01*
X274122476Y-96038333D01*
X274170095Y-95847857D01*
X274217714Y-95752619D01*
X274265333Y-95705000D01*
X274360571Y-95657380D01*
%TO.C,R11*%
X253259380Y-85222857D02*
X252783190Y-85556190D01*
X253259380Y-85794285D02*
X252259380Y-85794285D01*
X252259380Y-85413333D01*
X252307000Y-85318095D01*
X252354619Y-85270476D01*
X252449857Y-85222857D01*
X252592714Y-85222857D01*
X252687952Y-85270476D01*
X252735571Y-85318095D01*
X252783190Y-85413333D01*
X252783190Y-85794285D01*
X253259380Y-84270476D02*
X253259380Y-84841904D01*
X253259380Y-84556190D02*
X252259380Y-84556190D01*
X252402238Y-84651428D01*
X252497476Y-84746666D01*
X252545095Y-84841904D01*
X253259380Y-83318095D02*
X253259380Y-83889523D01*
X253259380Y-83603809D02*
X252259380Y-83603809D01*
X252402238Y-83699047D01*
X252497476Y-83794285D01*
X252545095Y-83889523D01*
%TO.C,R12*%
X272915142Y-92654380D02*
X272581809Y-92178190D01*
X272343714Y-92654380D02*
X272343714Y-91654380D01*
X272724666Y-91654380D01*
X272819904Y-91702000D01*
X272867523Y-91749619D01*
X272915142Y-91844857D01*
X272915142Y-91987714D01*
X272867523Y-92082952D01*
X272819904Y-92130571D01*
X272724666Y-92178190D01*
X272343714Y-92178190D01*
X273867523Y-92654380D02*
X273296095Y-92654380D01*
X273581809Y-92654380D02*
X273581809Y-91654380D01*
X273486571Y-91797238D01*
X273391333Y-91892476D01*
X273296095Y-91940095D01*
X274248476Y-91749619D02*
X274296095Y-91702000D01*
X274391333Y-91654380D01*
X274629428Y-91654380D01*
X274724666Y-91702000D01*
X274772285Y-91749619D01*
X274819904Y-91844857D01*
X274819904Y-91940095D01*
X274772285Y-92082952D01*
X274200857Y-92654380D01*
X274819904Y-92654380D01*
%TO.C,R13*%
X267406380Y-88145857D02*
X266930190Y-88479190D01*
X267406380Y-88717285D02*
X266406380Y-88717285D01*
X266406380Y-88336333D01*
X266454000Y-88241095D01*
X266501619Y-88193476D01*
X266596857Y-88145857D01*
X266739714Y-88145857D01*
X266834952Y-88193476D01*
X266882571Y-88241095D01*
X266930190Y-88336333D01*
X266930190Y-88717285D01*
X267406380Y-87193476D02*
X267406380Y-87764904D01*
X267406380Y-87479190D02*
X266406380Y-87479190D01*
X266549238Y-87574428D01*
X266644476Y-87669666D01*
X266692095Y-87764904D01*
X266406380Y-86860142D02*
X266406380Y-86241095D01*
X266787333Y-86574428D01*
X266787333Y-86431571D01*
X266834952Y-86336333D01*
X266882571Y-86288714D01*
X266977809Y-86241095D01*
X267215904Y-86241095D01*
X267311142Y-86288714D01*
X267358761Y-86336333D01*
X267406380Y-86431571D01*
X267406380Y-86717285D01*
X267358761Y-86812523D01*
X267311142Y-86860142D01*
%TO.C,R14*%
X263215380Y-84462857D02*
X262739190Y-84796190D01*
X263215380Y-85034285D02*
X262215380Y-85034285D01*
X262215380Y-84653333D01*
X262263000Y-84558095D01*
X262310619Y-84510476D01*
X262405857Y-84462857D01*
X262548714Y-84462857D01*
X262643952Y-84510476D01*
X262691571Y-84558095D01*
X262739190Y-84653333D01*
X262739190Y-85034285D01*
X263215380Y-83510476D02*
X263215380Y-84081904D01*
X263215380Y-83796190D02*
X262215380Y-83796190D01*
X262358238Y-83891428D01*
X262453476Y-83986666D01*
X262501095Y-84081904D01*
X262548714Y-82653333D02*
X263215380Y-82653333D01*
X262167761Y-82891428D02*
X262882047Y-83129523D01*
X262882047Y-82510476D01*
%TO.C,SW1*%
X259123666Y-75629761D02*
X259266523Y-75677380D01*
X259504619Y-75677380D01*
X259599857Y-75629761D01*
X259647476Y-75582142D01*
X259695095Y-75486904D01*
X259695095Y-75391666D01*
X259647476Y-75296428D01*
X259599857Y-75248809D01*
X259504619Y-75201190D01*
X259314142Y-75153571D01*
X259218904Y-75105952D01*
X259171285Y-75058333D01*
X259123666Y-74963095D01*
X259123666Y-74867857D01*
X259171285Y-74772619D01*
X259218904Y-74725000D01*
X259314142Y-74677380D01*
X259552238Y-74677380D01*
X259695095Y-74725000D01*
X260028428Y-74677380D02*
X260266523Y-75677380D01*
X260457000Y-74963095D01*
X260647476Y-75677380D01*
X260885571Y-74677380D01*
X261790333Y-75677380D02*
X261218904Y-75677380D01*
X261504619Y-75677380D02*
X261504619Y-74677380D01*
X261409380Y-74820238D01*
X261314142Y-74915476D01*
X261218904Y-74963095D01*
%TO.C,U2*%
X236180380Y-94962904D02*
X236989904Y-94962904D01*
X237085142Y-94915285D01*
X237132761Y-94867666D01*
X237180380Y-94772428D01*
X237180380Y-94581952D01*
X237132761Y-94486714D01*
X237085142Y-94439095D01*
X236989904Y-94391476D01*
X236180380Y-94391476D01*
X236275619Y-93962904D02*
X236228000Y-93915285D01*
X236180380Y-93820047D01*
X236180380Y-93581952D01*
X236228000Y-93486714D01*
X236275619Y-93439095D01*
X236370857Y-93391476D01*
X236466095Y-93391476D01*
X236608952Y-93439095D01*
X237180380Y-94010523D01*
X237180380Y-93391476D01*
%TO.C,J11*%
X229978380Y-127650523D02*
X230692666Y-127650523D01*
X230835523Y-127698142D01*
X230930761Y-127793380D01*
X230978380Y-127936238D01*
X230978380Y-128031476D01*
X230978380Y-126650523D02*
X230978380Y-127221952D01*
X230978380Y-126936238D02*
X229978380Y-126936238D01*
X230121238Y-127031476D01*
X230216476Y-127126714D01*
X230264095Y-127221952D01*
X230978380Y-125698142D02*
X230978380Y-126269571D01*
X230978380Y-125983857D02*
X229978380Y-125983857D01*
X230121238Y-126079095D01*
X230216476Y-126174333D01*
X230264095Y-126269571D01*
%TO.C,J4*%
X232518380Y-118839334D02*
X233232666Y-118839334D01*
X233375523Y-118886953D01*
X233470761Y-118982191D01*
X233518380Y-119125048D01*
X233518380Y-119220286D01*
X232851714Y-117934572D02*
X233518380Y-117934572D01*
X232470761Y-118172667D02*
X233185047Y-118410762D01*
X233185047Y-117791715D01*
%TO.C,AE1*%
X272815333Y-110521666D02*
X273291523Y-110521666D01*
X272720095Y-110807380D02*
X273053428Y-109807380D01*
X273386761Y-110807380D01*
X273720095Y-110283571D02*
X274053428Y-110283571D01*
X274196285Y-110807380D02*
X273720095Y-110807380D01*
X273720095Y-109807380D01*
X274196285Y-109807380D01*
X275148666Y-110807380D02*
X274577238Y-110807380D01*
X274862952Y-110807380D02*
X274862952Y-109807380D01*
X274767714Y-109950238D01*
X274672476Y-110045476D01*
X274577238Y-110093095D01*
%TO.C,U1*%
X260695095Y-100807380D02*
X260695095Y-101616904D01*
X260742714Y-101712142D01*
X260790333Y-101759761D01*
X260885571Y-101807380D01*
X261076047Y-101807380D01*
X261171285Y-101759761D01*
X261218904Y-101712142D01*
X261266523Y-101616904D01*
X261266523Y-100807380D01*
X262266523Y-101807380D02*
X261695095Y-101807380D01*
X261980809Y-101807380D02*
X261980809Y-100807380D01*
X261885571Y-100950238D01*
X261790333Y-101045476D01*
X261695095Y-101093095D01*
%TO.C,H2*%
X224028095Y-101535380D02*
X224028095Y-100535380D01*
X224028095Y-101011571D02*
X224599523Y-101011571D01*
X224599523Y-101535380D02*
X224599523Y-100535380D01*
X225028095Y-100630619D02*
X225075714Y-100583000D01*
X225170952Y-100535380D01*
X225409047Y-100535380D01*
X225504285Y-100583000D01*
X225551904Y-100630619D01*
X225599523Y-100725857D01*
X225599523Y-100821095D01*
X225551904Y-100963952D01*
X224980476Y-101535380D01*
X225599523Y-101535380D01*
%TO.C,J6*%
X271319666Y-127214380D02*
X271319666Y-127928666D01*
X271272047Y-128071523D01*
X271176809Y-128166761D01*
X271033952Y-128214380D01*
X270938714Y-128214380D01*
X272224428Y-127214380D02*
X272033952Y-127214380D01*
X271938714Y-127262000D01*
X271891095Y-127309619D01*
X271795857Y-127452476D01*
X271748238Y-127642952D01*
X271748238Y-128023904D01*
X271795857Y-128119142D01*
X271843476Y-128166761D01*
X271938714Y-128214380D01*
X272129190Y-128214380D01*
X272224428Y-128166761D01*
X272272047Y-128119142D01*
X272319666Y-128023904D01*
X272319666Y-127785809D01*
X272272047Y-127690571D01*
X272224428Y-127642952D01*
X272129190Y-127595333D01*
X271938714Y-127595333D01*
X271843476Y-127642952D01*
X271795857Y-127690571D01*
X271748238Y-127785809D01*
%TO.C,J7*%
X269160666Y-99377380D02*
X269160666Y-100091666D01*
X269113047Y-100234523D01*
X269017809Y-100329761D01*
X268874952Y-100377380D01*
X268779714Y-100377380D01*
X269541619Y-99377380D02*
X270208285Y-99377380D01*
X269779714Y-100377380D01*
%TD*%
M02*
