%TF.GenerationSoftware,KiCad,Pcbnew,(5.0.0)*%
%TF.CreationDate,2021-11-24T17:07:04+01:00*%
%TF.ProjectId,Master3A__2,4D617374657233415F5F322E6B696361,rev?*%
%TF.SameCoordinates,Original*%
%TF.FileFunction,Copper,L2,Bot,Signal*%
%TF.FilePolarity,Positive*%
%FSLAX46Y46*%
G04 Gerber Fmt 4.6, Leading zero omitted, Abs format (unit mm)*
G04 Created by KiCad (PCBNEW (5.0.0)) date 11/24/21 17:07:04*
%MOMM*%
%LPD*%
G01*
G04 APERTURE LIST*
%TA.AperFunction,ComponentPad*%
%ADD10C,3.000000*%
%TD*%
%TA.AperFunction,ComponentPad*%
%ADD11R,3.000000X3.000000*%
%TD*%
%TA.AperFunction,ComponentPad*%
%ADD12O,1.200000X1.750000*%
%TD*%
%TA.AperFunction,Conductor*%
%ADD13C,0.100000*%
%TD*%
%TA.AperFunction,ComponentPad*%
%ADD14C,1.200000*%
%TD*%
%TA.AperFunction,ComponentPad*%
%ADD15R,1.700000X1.700000*%
%TD*%
%TA.AperFunction,ComponentPad*%
%ADD16O,1.700000X1.700000*%
%TD*%
%TA.AperFunction,ComponentPad*%
%ADD17C,1.524000*%
%TD*%
%TA.AperFunction,ViaPad*%
%ADD18C,0.350000*%
%TD*%
%TA.AperFunction,ViaPad*%
%ADD19C,0.800000*%
%TD*%
%TA.AperFunction,Conductor*%
%ADD20C,0.400000*%
%TD*%
%TA.AperFunction,Conductor*%
%ADD21C,0.650000*%
%TD*%
%TA.AperFunction,Conductor*%
%ADD22C,0.250000*%
%TD*%
%TA.AperFunction,Conductor*%
%ADD23C,0.254000*%
%TD*%
G04 APERTURE END LIST*
D10*
%TO.P,J5,4*%
%TO.N,/A*%
X256032000Y-134620000D03*
D11*
%TO.P,J5,1*%
%TO.N,+5V*%
X271272000Y-134620000D03*
D10*
%TO.P,J5,3*%
%TO.N,/B*%
X261112000Y-134620000D03*
%TO.P,J5,2*%
%TO.N,GND*%
X266192000Y-134620000D03*
%TD*%
D12*
%TO.P,J8,5*%
%TO.N,/SCL_5V*%
X260097000Y-122428000D03*
%TO.P,J8,4*%
%TO.N,/SDA_5V*%
X262097000Y-122428000D03*
%TO.P,J8,3*%
%TO.N,GND*%
X264097000Y-122428000D03*
%TO.P,J8,2*%
%TO.N,+5V*%
X266097000Y-122428000D03*
D13*
%TD*%
%TO.N,+3V3*%
%TO.C,J8*%
G36*
X268471505Y-121554204D02*
X268495773Y-121557804D01*
X268519572Y-121563765D01*
X268542671Y-121572030D01*
X268564850Y-121582520D01*
X268585893Y-121595132D01*
X268605599Y-121609747D01*
X268623777Y-121626223D01*
X268640253Y-121644401D01*
X268654868Y-121664107D01*
X268667480Y-121685150D01*
X268677970Y-121707329D01*
X268686235Y-121730428D01*
X268692196Y-121754227D01*
X268695796Y-121778495D01*
X268697000Y-121802999D01*
X268697000Y-123053001D01*
X268695796Y-123077505D01*
X268692196Y-123101773D01*
X268686235Y-123125572D01*
X268677970Y-123148671D01*
X268667480Y-123170850D01*
X268654868Y-123191893D01*
X268640253Y-123211599D01*
X268623777Y-123229777D01*
X268605599Y-123246253D01*
X268585893Y-123260868D01*
X268564850Y-123273480D01*
X268542671Y-123283970D01*
X268519572Y-123292235D01*
X268495773Y-123298196D01*
X268471505Y-123301796D01*
X268447001Y-123303000D01*
X267746999Y-123303000D01*
X267722495Y-123301796D01*
X267698227Y-123298196D01*
X267674428Y-123292235D01*
X267651329Y-123283970D01*
X267629150Y-123273480D01*
X267608107Y-123260868D01*
X267588401Y-123246253D01*
X267570223Y-123229777D01*
X267553747Y-123211599D01*
X267539132Y-123191893D01*
X267526520Y-123170850D01*
X267516030Y-123148671D01*
X267507765Y-123125572D01*
X267501804Y-123101773D01*
X267498204Y-123077505D01*
X267497000Y-123053001D01*
X267497000Y-121802999D01*
X267498204Y-121778495D01*
X267501804Y-121754227D01*
X267507765Y-121730428D01*
X267516030Y-121707329D01*
X267526520Y-121685150D01*
X267539132Y-121664107D01*
X267553747Y-121644401D01*
X267570223Y-121626223D01*
X267588401Y-121609747D01*
X267608107Y-121595132D01*
X267629150Y-121582520D01*
X267651329Y-121572030D01*
X267674428Y-121563765D01*
X267698227Y-121557804D01*
X267722495Y-121554204D01*
X267746999Y-121553000D01*
X268447001Y-121553000D01*
X268471505Y-121554204D01*
X268471505Y-121554204D01*
G37*
D14*
%TO.P,J8,1*%
%TO.N,+3V3*%
X268097000Y-122428000D03*
%TD*%
D15*
%TO.P,J9,1*%
%TO.N,Net-(J9-Pad1)*%
X246457000Y-122635000D03*
D16*
%TO.P,J9,2*%
%TO.N,Net-(J9-Pad2)*%
X246457000Y-120095000D03*
%TO.P,J9,3*%
%TO.N,Net-(J9-Pad3)*%
X246457000Y-117555000D03*
%TO.P,J9,4*%
%TO.N,Net-(J9-Pad4)*%
X246457000Y-115015000D03*
%TO.P,J9,5*%
%TO.N,Net-(J9-Pad5)*%
X246457000Y-112475000D03*
%TD*%
%TO.P,J10,5*%
%TO.N,Net-(J10-Pad5)*%
X222457000Y-100965000D03*
%TO.P,J10,4*%
%TO.N,Net-(J10-Pad4)*%
X222457000Y-98425000D03*
%TO.P,J10,3*%
%TO.N,Net-(J10-Pad3)*%
X222457000Y-95885000D03*
%TO.P,J10,2*%
%TO.N,Net-(J10-Pad2)*%
X222457000Y-93345000D03*
D15*
%TO.P,J10,1*%
%TO.N,Net-(J10-Pad1)*%
X222457000Y-90805000D03*
%TD*%
D17*
%TO.P,U3,32*%
%TO.N,Net-(U3-Pad32)*%
X219710000Y-124655000D03*
%TO.P,U3,31*%
%TO.N,Net-(U3-Pad31)*%
X219710000Y-122115000D03*
%TO.P,U3,30*%
%TO.N,/TX_MODBUS*%
X219710000Y-119575000D03*
%TO.P,U3,29*%
%TO.N,/GPIO14*%
X219710000Y-117035000D03*
%TO.P,U3,28*%
%TO.N,/RX_MODBUS*%
X219710000Y-114495000D03*
%TO.P,U3,27*%
%TO.N,/GPIO2*%
X219710000Y-111955000D03*
%TO.P,U3,26*%
%TO.N,Net-(U3-Pad26)*%
X219710000Y-109415000D03*
%TO.P,U3,25*%
%TO.N,Net-(U3-Pad25)*%
X219710000Y-106875000D03*
%TO.P,U3,24*%
%TO.N,Net-(U3-Pad24)*%
X219710000Y-104335000D03*
%TO.P,U3,23*%
%TO.N,Net-(J10-Pad5)*%
X219710000Y-101795000D03*
%TO.P,U3,22*%
%TO.N,Net-(J10-Pad4)*%
X219710000Y-99255000D03*
%TO.P,U3,21*%
%TO.N,Net-(J10-Pad3)*%
X219710000Y-96715000D03*
%TO.P,U3,20*%
%TO.N,Net-(J10-Pad2)*%
X219710000Y-94175000D03*
%TO.P,U3,19*%
%TO.N,Net-(J10-Pad1)*%
X219710000Y-91635000D03*
%TO.P,U3,18*%
%TO.N,GND*%
X219710000Y-89095000D03*
%TO.P,U3,17*%
%TO.N,+3V3*%
X219710000Y-86555000D03*
%TO.P,U3,16*%
%TO.N,+5V*%
X250190000Y-124655000D03*
%TO.P,U3,15*%
%TO.N,Net-(J9-Pad1)*%
X250190000Y-122115000D03*
%TO.P,U3,14*%
%TO.N,Net-(J9-Pad2)*%
X250190000Y-119575000D03*
%TO.P,U3,13*%
%TO.N,Net-(J9-Pad3)*%
X250190000Y-117035000D03*
%TO.P,U3,12*%
%TO.N,Net-(J9-Pad4)*%
X250190000Y-114495000D03*
%TO.P,U3,11*%
%TO.N,Net-(J9-Pad5)*%
X250190000Y-111955000D03*
%TO.P,U3,10*%
%TO.N,/NSS*%
X250190000Y-109415000D03*
%TO.P,U3,9*%
%TO.N,/SCK*%
X250190000Y-106875000D03*
%TO.P,U3,8*%
%TO.N,/MISO*%
X250190000Y-104335000D03*
%TO.P,U3,7*%
%TO.N,/MOSI*%
X250190000Y-101795000D03*
%TO.P,U3,6*%
%TO.N,/SDA_3V3*%
X250190000Y-99255000D03*
%TO.P,U3,5*%
%TO.N,/SCL_3V3*%
X250190000Y-96715000D03*
%TO.P,U3,4*%
%TO.N,Net-(U3-Pad4)*%
X250190000Y-94175000D03*
%TO.P,U3,3*%
%TO.N,Net-(U3-Pad3)*%
X250190000Y-91635000D03*
%TO.P,U3,2*%
%TO.N,Net-(U3-Pad2)*%
X250190000Y-89095000D03*
%TO.P,U3,1*%
%TO.N,Net-(U3-Pad1)*%
X250190000Y-86555000D03*
%TD*%
D15*
%TO.P,J1,1*%
%TO.N,GND*%
X265457000Y-76475000D03*
D16*
%TO.P,J1,2*%
%TO.N,Net-(J1-Pad2)*%
X265457000Y-79015000D03*
%TO.P,J1,3*%
%TO.N,Net-(J1-Pad3)*%
X265457000Y-81555000D03*
%TD*%
D15*
%TO.P,J2,1*%
%TO.N,/TX_MODBUS*%
X232856000Y-86201000D03*
D16*
%TO.P,J2,2*%
%TO.N,/GPIOXX*%
X235396000Y-86201000D03*
%TO.P,J2,3*%
X237936000Y-86201000D03*
%TO.P,J2,4*%
%TO.N,/RX_MODBUS*%
X240476000Y-86201000D03*
%TD*%
D15*
%TO.P,J3,1*%
%TO.N,Net-(J3-Pad1)*%
X255457000Y-80095000D03*
D16*
%TO.P,J3,2*%
%TO.N,Net-(D1-Pad2)*%
X255457000Y-77555000D03*
%TD*%
%TO.P,JP1,2*%
%TO.N,/SDA_5V*%
X261620000Y-100330000D03*
D15*
%TO.P,JP1,1*%
%TO.N,/SDA_3V3*%
X259080000Y-100330000D03*
%TD*%
%TO.P,JP2,1*%
%TO.N,/SCL_3V3*%
X268523000Y-100203000D03*
D16*
%TO.P,JP2,2*%
%TO.N,/SCL_5V*%
X271063000Y-100203000D03*
%TD*%
%TO.P,SW1,2*%
%TO.N,+5V*%
X260457000Y-80095000D03*
D15*
%TO.P,SW1,1*%
%TO.N,Net-(J1-Pad3)*%
X260457000Y-77555000D03*
%TD*%
%TO.P,J11,1*%
%TO.N,+5V*%
X232856000Y-126841000D03*
D16*
%TO.P,J11,2*%
%TO.N,/B*%
X235396000Y-126841000D03*
%TO.P,J11,3*%
%TO.N,/A*%
X237936000Y-126841000D03*
%TO.P,J11,4*%
%TO.N,GND*%
X240476000Y-126841000D03*
%TD*%
D15*
%TO.P,J4,1*%
%TO.N,/B*%
X235396000Y-118506001D03*
D16*
%TO.P,J4,2*%
%TO.N,/A*%
X237936000Y-118506001D03*
%TD*%
D13*
%TO.N,+3V3*%
%TO.C,J6*%
G36*
X268439505Y-127650204D02*
X268463773Y-127653804D01*
X268487572Y-127659765D01*
X268510671Y-127668030D01*
X268532850Y-127678520D01*
X268553893Y-127691132D01*
X268573599Y-127705747D01*
X268591777Y-127722223D01*
X268608253Y-127740401D01*
X268622868Y-127760107D01*
X268635480Y-127781150D01*
X268645970Y-127803329D01*
X268654235Y-127826428D01*
X268660196Y-127850227D01*
X268663796Y-127874495D01*
X268665000Y-127898999D01*
X268665000Y-129149001D01*
X268663796Y-129173505D01*
X268660196Y-129197773D01*
X268654235Y-129221572D01*
X268645970Y-129244671D01*
X268635480Y-129266850D01*
X268622868Y-129287893D01*
X268608253Y-129307599D01*
X268591777Y-129325777D01*
X268573599Y-129342253D01*
X268553893Y-129356868D01*
X268532850Y-129369480D01*
X268510671Y-129379970D01*
X268487572Y-129388235D01*
X268463773Y-129394196D01*
X268439505Y-129397796D01*
X268415001Y-129399000D01*
X267714999Y-129399000D01*
X267690495Y-129397796D01*
X267666227Y-129394196D01*
X267642428Y-129388235D01*
X267619329Y-129379970D01*
X267597150Y-129369480D01*
X267576107Y-129356868D01*
X267556401Y-129342253D01*
X267538223Y-129325777D01*
X267521747Y-129307599D01*
X267507132Y-129287893D01*
X267494520Y-129266850D01*
X267484030Y-129244671D01*
X267475765Y-129221572D01*
X267469804Y-129197773D01*
X267466204Y-129173505D01*
X267465000Y-129149001D01*
X267465000Y-127898999D01*
X267466204Y-127874495D01*
X267469804Y-127850227D01*
X267475765Y-127826428D01*
X267484030Y-127803329D01*
X267494520Y-127781150D01*
X267507132Y-127760107D01*
X267521747Y-127740401D01*
X267538223Y-127722223D01*
X267556401Y-127705747D01*
X267576107Y-127691132D01*
X267597150Y-127678520D01*
X267619329Y-127668030D01*
X267642428Y-127659765D01*
X267666227Y-127653804D01*
X267690495Y-127650204D01*
X267714999Y-127649000D01*
X268415001Y-127649000D01*
X268439505Y-127650204D01*
X268439505Y-127650204D01*
G37*
D14*
%TD*%
%TO.P,J6,1*%
%TO.N,+3V3*%
X268065000Y-128524000D03*
D12*
%TO.P,J6,2*%
%TO.N,+5V*%
X266065000Y-128524000D03*
%TO.P,J6,3*%
%TO.N,GND*%
X264065000Y-128524000D03*
%TO.P,J6,4*%
%TO.N,/B*%
X262065000Y-128524000D03*
%TO.P,J6,5*%
%TO.N,/A*%
X260065000Y-128524000D03*
%TD*%
D15*
%TO.P,J7,1*%
%TO.N,+3V3*%
X269494000Y-97155000D03*
D16*
%TO.P,J7,2*%
%TO.N,/SDA_5V*%
X269494000Y-94615000D03*
%TO.P,J7,3*%
%TO.N,/SCL_5V*%
X269494000Y-92075000D03*
%TO.P,J7,4*%
%TO.N,GND*%
X269494000Y-89535000D03*
%TO.P,J7,5*%
%TO.N,+5V*%
X269494000Y-86995000D03*
%TD*%
D18*
%TO.N,*%
X271457000Y-114555000D03*
X271399000Y-113538000D03*
X271653000Y-112649000D03*
X272161000Y-112014000D03*
X272415000Y-111252000D03*
X273431000Y-110998000D03*
X274320000Y-110998000D03*
X275336000Y-111125000D03*
X275717000Y-112014000D03*
X275717000Y-113030000D03*
X275717000Y-113919000D03*
X275717000Y-114808000D03*
X275717000Y-115570000D03*
X275463000Y-116205000D03*
X274701000Y-116205000D03*
X273304000Y-116205000D03*
X272542000Y-116205000D03*
X271653000Y-115443000D03*
D19*
%TO.N,GND*%
X253457000Y-100619000D03*
X253457000Y-97952000D03*
X257429000Y-90805000D03*
X260604000Y-88519000D03*
X236728000Y-104013000D03*
X234823000Y-99568000D03*
X275463000Y-85344000D03*
%TO.N,+5V*%
X235786000Y-108151000D03*
X241173000Y-108204000D03*
%TO.N,Net-(D1-Pad2)*%
X273558000Y-81280000D03*
%TO.N,+3V3*%
X248793000Y-82677000D03*
X256540000Y-85471000D03*
X266700000Y-94996000D03*
X264541000Y-92456000D03*
X267970000Y-109555000D03*
%TO.N,/TX_MODBUS*%
X230251000Y-99568000D03*
X230251000Y-96393000D03*
%TO.N,/GPIOXX*%
X227330000Y-102108000D03*
%TO.N,Net-(J3-Pad1)*%
X269240000Y-84455000D03*
%TO.N,/A*%
X232481000Y-106101000D03*
%TO.N,/B*%
X239522000Y-116586000D03*
X239522000Y-106172000D03*
%TO.N,/SCL_5V*%
X272669000Y-98171000D03*
%TO.N,/MOSI*%
X251714000Y-102870000D03*
X251714000Y-107061000D03*
%TO.N,/GPIO2*%
X242697000Y-120777000D03*
X231267000Y-112395000D03*
%TD*%
D20*
%TO.N,GND*%
X274828000Y-89535000D02*
X269113000Y-89535000D01*
X275463000Y-88900000D02*
X274828000Y-89535000D01*
X253457000Y-100619000D02*
X253457000Y-97952000D01*
X257429000Y-90805000D02*
X259715000Y-88519000D01*
X259715000Y-88519000D02*
X260604000Y-88519000D01*
X234823000Y-99568000D02*
X234823000Y-103124000D01*
X235712000Y-104013000D02*
X236728000Y-104013000D01*
X234823000Y-103124000D02*
X235712000Y-104013000D01*
X240476000Y-126841000D02*
X253968000Y-126841000D01*
X259461000Y-129921000D02*
X257048000Y-129921000D01*
X253968000Y-126841000D02*
X257048000Y-129921000D01*
X264065000Y-129889000D02*
X264033000Y-129921000D01*
X264065000Y-129572000D02*
X264414000Y-129921000D01*
X264065000Y-129540000D02*
X264065000Y-129572000D01*
X264414000Y-129921000D02*
X264922000Y-129921000D01*
X264033000Y-129921000D02*
X264414000Y-129921000D01*
X264065000Y-129540000D02*
X264065000Y-129889000D01*
X264065000Y-128524000D02*
X264065000Y-129540000D01*
X264065000Y-129635000D02*
X263779000Y-129921000D01*
X264065000Y-129540000D02*
X264065000Y-129635000D01*
X259461000Y-129921000D02*
X263779000Y-129921000D01*
X263779000Y-129921000D02*
X264033000Y-129921000D01*
X265684000Y-131990680D02*
X265684000Y-130683000D01*
X266192000Y-132498680D02*
X265684000Y-131990680D01*
X266192000Y-134620000D02*
X266192000Y-132498680D01*
X264922000Y-129921000D02*
X265684000Y-130683000D01*
X275463000Y-87503000D02*
X275463000Y-85344000D01*
X275463000Y-87503000D02*
X275463000Y-88900000D01*
D21*
%TO.N,+5V*%
X260457000Y-85324000D02*
X262128000Y-86995000D01*
X260457000Y-80095000D02*
X260457000Y-85324000D01*
X269113000Y-86995000D02*
X262128000Y-86995000D01*
D20*
X235786000Y-108151000D02*
X241120000Y-108151000D01*
X241120000Y-108151000D02*
X241173000Y-108204000D01*
D21*
X255515000Y-125984000D02*
X254186000Y-124655000D01*
X250190000Y-124655000D02*
X254186000Y-124655000D01*
X265050000Y-125984000D02*
X263525000Y-125984000D01*
X266065000Y-126999000D02*
X265050000Y-125984000D01*
X266065000Y-128524000D02*
X266065000Y-126999000D01*
X263525000Y-125984000D02*
X255515000Y-125984000D01*
X266065000Y-128524000D02*
X266065000Y-129540000D01*
X266065000Y-129540000D02*
X266954000Y-130429000D01*
X266954000Y-130429000D02*
X270764000Y-130429000D01*
X271399000Y-131064000D02*
X271399000Y-133477000D01*
X270764000Y-130429000D02*
X271399000Y-131064000D01*
D20*
X271526000Y-133604000D02*
X271399000Y-133477000D01*
X271526000Y-135128000D02*
X271526000Y-133604000D01*
D21*
%TO.N,Net-(D1-Pad2)*%
X273957999Y-80880001D02*
X274719999Y-80880001D01*
X273558000Y-81280000D02*
X273957999Y-80880001D01*
X274719999Y-80880001D02*
X274955000Y-80645000D01*
X274955000Y-75692000D02*
X273368010Y-74105010D01*
X274955000Y-80645000D02*
X274955000Y-75692000D01*
X271720176Y-74105010D02*
X271403186Y-74422000D01*
X273368010Y-74105010D02*
X271720176Y-74105010D01*
X271403186Y-74422000D02*
X256159000Y-74422000D01*
X255457000Y-75124000D02*
X255457000Y-77555000D01*
X256159000Y-74422000D02*
X255457000Y-75124000D01*
D20*
%TO.N,+3V3*%
X248793000Y-82677000D02*
X255905000Y-82677000D01*
X255905000Y-82677000D02*
X256540000Y-83312000D01*
X256540000Y-83312000D02*
X256540000Y-85471000D01*
X266700000Y-94996000D02*
X266700000Y-92837000D01*
X266700000Y-92837000D02*
X266319000Y-92456000D01*
X266319000Y-92456000D02*
X264541000Y-92456000D01*
X266954000Y-118237000D02*
X266954000Y-110236000D01*
X266954000Y-110236000D02*
X267635000Y-109555000D01*
X268097000Y-119380000D02*
X267970000Y-119253000D01*
X268097000Y-122682000D02*
X268097000Y-119380000D01*
X267970000Y-119253000D02*
X266954000Y-118237000D01*
%TO.N,/TX_MODBUS*%
X230251000Y-99568000D02*
X230251000Y-96393000D01*
X230251000Y-99568000D02*
X230251000Y-117475000D01*
X228151000Y-119575000D02*
X219710000Y-119575000D01*
X230251000Y-117475000D02*
X228151000Y-119575000D01*
%TO.N,/GPIOXX*%
X235396000Y-86201000D02*
X235396000Y-87565000D01*
X235396000Y-87565000D02*
X232918000Y-90043000D01*
X229235000Y-90043000D02*
X227330000Y-91948000D01*
X232918000Y-90043000D02*
X229235000Y-90043000D01*
X227330000Y-102108000D02*
X227330000Y-91948000D01*
%TO.N,/RX_MODBUS*%
X240476000Y-86201000D02*
X240476000Y-87565000D01*
X240476000Y-87565000D02*
X239268000Y-88773000D01*
X239268000Y-88773000D02*
X235204000Y-88773000D01*
X235204000Y-88773000D02*
X233172000Y-90805000D01*
X233172000Y-90805000D02*
X229489000Y-90805000D01*
X228130001Y-92163999D02*
X228130001Y-113499999D01*
X229489000Y-90805000D02*
X228130001Y-92163999D01*
X227135000Y-114495000D02*
X219710000Y-114495000D01*
X228130001Y-113499999D02*
X227135000Y-114495000D01*
D21*
%TO.N,Net-(J3-Pad1)*%
X256957000Y-80095000D02*
X257683000Y-79369000D01*
X255457000Y-80095000D02*
X256957000Y-80095000D01*
X257683000Y-79369000D02*
X257683000Y-76073000D01*
X257683000Y-76073000D02*
X258483990Y-75272010D01*
X260819012Y-75272010D02*
X260858002Y-75311000D01*
X258483990Y-75272010D02*
X260819012Y-75272010D01*
X260858002Y-75311000D02*
X261747000Y-75311000D01*
X261747000Y-75311000D02*
X263017000Y-76581000D01*
X263017000Y-76581000D02*
X263017000Y-83058000D01*
X263017000Y-83058000D02*
X264414000Y-84455000D01*
X264414000Y-84455000D02*
X269240000Y-84455000D01*
%TO.N,/A*%
X232481000Y-106101000D02*
X232481000Y-115006000D01*
X232481000Y-115006000D02*
X234188000Y-116713000D01*
X234188000Y-116713000D02*
X237490000Y-116713000D01*
X237936000Y-117159000D02*
X237936000Y-118506001D01*
X237490000Y-116713000D02*
X237936000Y-117159000D01*
D20*
X256286000Y-135128000D02*
X239395000Y-135128000D01*
X237936000Y-133669000D02*
X237936000Y-131318000D01*
X239395000Y-135128000D02*
X237936000Y-133669000D01*
X237936000Y-131318000D02*
X237936000Y-126841000D01*
D21*
%TO.N,/B*%
X239522000Y-116586000D02*
X241046000Y-116586000D01*
X241046000Y-116586000D02*
X242697000Y-114935000D01*
X242697000Y-114935000D02*
X242697000Y-107061000D01*
X242697000Y-107061000D02*
X241808000Y-106172000D01*
X241808000Y-106172000D02*
X239522000Y-106172000D01*
D20*
X261239000Y-135598320D02*
X259931320Y-136906000D01*
X261239000Y-133477000D02*
X261239000Y-135598320D01*
X259931320Y-136906000D02*
X236982000Y-136906000D01*
X235396000Y-135320000D02*
X235396000Y-126841000D01*
X236982000Y-136906000D02*
X235396000Y-135320000D01*
%TO.N,/SDA_5V*%
X262097000Y-119095000D02*
X261620000Y-118618000D01*
X262097000Y-122682000D02*
X262097000Y-119095000D01*
X261620000Y-100330000D02*
X261620000Y-118618000D01*
D22*
%TO.N,/SCL_5V*%
X272669000Y-98171000D02*
X272669000Y-92710000D01*
X272034000Y-92075000D02*
X269113000Y-92075000D01*
X272669000Y-92710000D02*
X272034000Y-92075000D01*
D20*
X271063000Y-100203000D02*
X271063000Y-109138000D01*
X271063000Y-112208998D02*
X270637000Y-112634998D01*
X271063000Y-109138000D02*
X271063000Y-112208998D01*
X270637000Y-123653002D02*
X269703002Y-124587000D01*
X270637000Y-112634998D02*
X270637000Y-123653002D01*
X269703002Y-124587000D02*
X267208000Y-124587000D01*
X260097000Y-123572000D02*
X261112000Y-124587000D01*
X260097000Y-122682000D02*
X260097000Y-123572000D01*
X261112000Y-124587000D02*
X267208000Y-124587000D01*
X267208000Y-124587000D02*
X266446000Y-124587000D01*
%TO.N,/SCL_3V3*%
X268523000Y-100203000D02*
X265430000Y-100203000D01*
X265430000Y-100203000D02*
X264922000Y-99695000D01*
X264922000Y-99695000D02*
X264922000Y-97037000D01*
X264922000Y-97037000D02*
X264600000Y-96715000D01*
X264600000Y-96715000D02*
X250190000Y-96715000D01*
D22*
%TO.N,/MOSI*%
X251714000Y-102870000D02*
X251714000Y-107061000D01*
D20*
%TO.N,/GPIO2*%
X242697000Y-120777000D02*
X232029000Y-120777000D01*
X232029000Y-120777000D02*
X231267000Y-120015000D01*
X231267000Y-120015000D02*
X231267000Y-112395000D01*
%TD*%
D23*
%TO.N,GND*%
G36*
X254811531Y-74411825D02*
X254774893Y-74441893D01*
X254654927Y-74588072D01*
X254565784Y-74754847D01*
X254510890Y-74935808D01*
X254497000Y-75076839D01*
X254497000Y-75076848D01*
X254492356Y-75124000D01*
X254497000Y-75171152D01*
X254497001Y-76421791D01*
X254401866Y-76499866D01*
X254216294Y-76725986D01*
X254078401Y-76983966D01*
X253993487Y-77263889D01*
X253964815Y-77555000D01*
X253993487Y-77846111D01*
X254078401Y-78126034D01*
X254216294Y-78384014D01*
X254401866Y-78610134D01*
X254431687Y-78634607D01*
X254362820Y-78655498D01*
X254252506Y-78714463D01*
X254155815Y-78793815D01*
X254076463Y-78890506D01*
X254017498Y-79000820D01*
X253981188Y-79120518D01*
X253968928Y-79245000D01*
X253968928Y-80945000D01*
X253981188Y-81069482D01*
X254017498Y-81189180D01*
X254076463Y-81299494D01*
X254155815Y-81396185D01*
X254252506Y-81475537D01*
X254362820Y-81534502D01*
X254482518Y-81570812D01*
X254607000Y-81583072D01*
X256307000Y-81583072D01*
X256431482Y-81570812D01*
X256551180Y-81534502D01*
X256661494Y-81475537D01*
X256758185Y-81396185D01*
X256837537Y-81299494D01*
X256896502Y-81189180D01*
X256932812Y-81069482D01*
X256934004Y-81057379D01*
X256957000Y-81059644D01*
X257004152Y-81055000D01*
X257004162Y-81055000D01*
X257145193Y-81041110D01*
X257326154Y-80986216D01*
X257492928Y-80897073D01*
X257639107Y-80777107D01*
X257669175Y-80740469D01*
X258328474Y-80081171D01*
X258365107Y-80051107D01*
X258395171Y-80014474D01*
X258485073Y-79904929D01*
X258574216Y-79738154D01*
X258599683Y-79654200D01*
X258629110Y-79557193D01*
X258643000Y-79416162D01*
X258643000Y-79416153D01*
X258647644Y-79369001D01*
X258643000Y-79321849D01*
X258643000Y-76470644D01*
X258881635Y-76232010D01*
X259182385Y-76232010D01*
X259155815Y-76253815D01*
X259076463Y-76350506D01*
X259017498Y-76460820D01*
X258981188Y-76580518D01*
X258968928Y-76705000D01*
X258968928Y-78405000D01*
X258981188Y-78529482D01*
X259017498Y-78649180D01*
X259076463Y-78759494D01*
X259155815Y-78856185D01*
X259252506Y-78935537D01*
X259362820Y-78994502D01*
X259431687Y-79015393D01*
X259401866Y-79039866D01*
X259216294Y-79265986D01*
X259078401Y-79523966D01*
X258993487Y-79803889D01*
X258964815Y-80095000D01*
X258993487Y-80386111D01*
X259078401Y-80666034D01*
X259216294Y-80924014D01*
X259401866Y-81150134D01*
X259497000Y-81228209D01*
X259497001Y-85276838D01*
X259492356Y-85324000D01*
X259497001Y-85371162D01*
X259510022Y-85503364D01*
X259510891Y-85512192D01*
X259565784Y-85693153D01*
X259654927Y-85859928D01*
X259744829Y-85969473D01*
X259774894Y-86006107D01*
X259811526Y-86036170D01*
X261415829Y-87640474D01*
X261445893Y-87677107D01*
X261482526Y-87707171D01*
X261592071Y-87797073D01*
X261758605Y-87886087D01*
X261758846Y-87886216D01*
X261939807Y-87941110D01*
X262080838Y-87955000D01*
X262080840Y-87955000D01*
X262128000Y-87959645D01*
X262175160Y-87955000D01*
X268360791Y-87955000D01*
X268438866Y-88050134D01*
X268664986Y-88235706D01*
X268729523Y-88270201D01*
X268612645Y-88339822D01*
X268396412Y-88534731D01*
X268222359Y-88768080D01*
X268097175Y-89030901D01*
X268052524Y-89178110D01*
X268173845Y-89408000D01*
X269367000Y-89408000D01*
X269367000Y-89388000D01*
X269621000Y-89388000D01*
X269621000Y-89408000D01*
X270814155Y-89408000D01*
X270935476Y-89178110D01*
X270890825Y-89030901D01*
X270765641Y-88768080D01*
X270591588Y-88534731D01*
X270375355Y-88339822D01*
X270258477Y-88270201D01*
X270323014Y-88235706D01*
X270549134Y-88050134D01*
X270734706Y-87824014D01*
X270872599Y-87566034D01*
X270957513Y-87286111D01*
X270986185Y-86995000D01*
X270957513Y-86703889D01*
X270872599Y-86423966D01*
X270734706Y-86165986D01*
X270549134Y-85939866D01*
X270323014Y-85754294D01*
X270065034Y-85616401D01*
X269785111Y-85531487D01*
X269566950Y-85510000D01*
X269421050Y-85510000D01*
X269202889Y-85531487D01*
X268922966Y-85616401D01*
X268664986Y-85754294D01*
X268438866Y-85939866D01*
X268360791Y-86035000D01*
X262525645Y-86035000D01*
X261417000Y-84926356D01*
X261417000Y-81228209D01*
X261512134Y-81150134D01*
X261697706Y-80924014D01*
X261835599Y-80666034D01*
X261920513Y-80386111D01*
X261949185Y-80095000D01*
X261920513Y-79803889D01*
X261835599Y-79523966D01*
X261697706Y-79265986D01*
X261512134Y-79039866D01*
X261482313Y-79015393D01*
X261551180Y-78994502D01*
X261661494Y-78935537D01*
X261758185Y-78856185D01*
X261837537Y-78759494D01*
X261896502Y-78649180D01*
X261932812Y-78529482D01*
X261945072Y-78405000D01*
X261945072Y-76866717D01*
X262057000Y-76978645D01*
X262057001Y-83010838D01*
X262052356Y-83058000D01*
X262057001Y-83105162D01*
X262070891Y-83246193D01*
X262078411Y-83270982D01*
X262125784Y-83427153D01*
X262214927Y-83593928D01*
X262304829Y-83703473D01*
X262334894Y-83740107D01*
X262371526Y-83770170D01*
X263701829Y-85100474D01*
X263731893Y-85137107D01*
X263768525Y-85167170D01*
X263878071Y-85257073D01*
X263936163Y-85288124D01*
X264044846Y-85346216D01*
X264225807Y-85401110D01*
X264366838Y-85415000D01*
X264366847Y-85415000D01*
X264413999Y-85419644D01*
X264461151Y-85415000D01*
X268853060Y-85415000D01*
X268938102Y-85450226D01*
X269138061Y-85490000D01*
X269341939Y-85490000D01*
X269541898Y-85450226D01*
X269730256Y-85372205D01*
X269899774Y-85258937D01*
X270043937Y-85114774D01*
X270157205Y-84945256D01*
X270235226Y-84756898D01*
X270275000Y-84556939D01*
X270275000Y-84353061D01*
X270235226Y-84153102D01*
X270157205Y-83964744D01*
X270043937Y-83795226D01*
X269899774Y-83651063D01*
X269730256Y-83537795D01*
X269541898Y-83459774D01*
X269341939Y-83420000D01*
X269138061Y-83420000D01*
X268938102Y-83459774D01*
X268853060Y-83495000D01*
X264811645Y-83495000D01*
X263977000Y-82660356D01*
X263977000Y-81678716D01*
X263993487Y-81846111D01*
X264078401Y-82126034D01*
X264216294Y-82384014D01*
X264401866Y-82610134D01*
X264627986Y-82795706D01*
X264885966Y-82933599D01*
X265165889Y-83018513D01*
X265384050Y-83040000D01*
X265529950Y-83040000D01*
X265748111Y-83018513D01*
X266028034Y-82933599D01*
X266286014Y-82795706D01*
X266512134Y-82610134D01*
X266697706Y-82384014D01*
X266835599Y-82126034D01*
X266920513Y-81846111D01*
X266949185Y-81555000D01*
X266920513Y-81263889D01*
X266835599Y-80983966D01*
X266697706Y-80725986D01*
X266512134Y-80499866D01*
X266286014Y-80314294D01*
X266231209Y-80285000D01*
X266286014Y-80255706D01*
X266512134Y-80070134D01*
X266697706Y-79844014D01*
X266835599Y-79586034D01*
X266920513Y-79306111D01*
X266949185Y-79015000D01*
X266920513Y-78723889D01*
X266835599Y-78443966D01*
X266697706Y-78185986D01*
X266512134Y-77959866D01*
X266484447Y-77937144D01*
X266492223Y-77935597D01*
X266607785Y-77887730D01*
X266711789Y-77818237D01*
X266800237Y-77729789D01*
X266849359Y-77656272D01*
X268529000Y-77656272D01*
X268529000Y-78096528D01*
X268614890Y-78528325D01*
X268783369Y-78935069D01*
X269027962Y-79301129D01*
X269339271Y-79612438D01*
X269705331Y-79857031D01*
X270112075Y-80025510D01*
X270543872Y-80111400D01*
X270984128Y-80111400D01*
X271415925Y-80025510D01*
X271822669Y-79857031D01*
X272188729Y-79612438D01*
X272500038Y-79301129D01*
X272744631Y-78935069D01*
X272913110Y-78528325D01*
X272999000Y-78096528D01*
X272999000Y-77656272D01*
X272913110Y-77224475D01*
X272744631Y-76817731D01*
X272500038Y-76451671D01*
X272188729Y-76140362D01*
X271822669Y-75895769D01*
X271415925Y-75727290D01*
X270984128Y-75641400D01*
X270543872Y-75641400D01*
X270112075Y-75727290D01*
X269705331Y-75895769D01*
X269339271Y-76140362D01*
X269027962Y-76451671D01*
X268783369Y-76817731D01*
X268614890Y-77224475D01*
X268529000Y-77656272D01*
X266849359Y-77656272D01*
X266869730Y-77625785D01*
X266917597Y-77510223D01*
X266942000Y-77387542D01*
X266942000Y-76760750D01*
X266783250Y-76602000D01*
X265584000Y-76602000D01*
X265584000Y-76622000D01*
X265330000Y-76622000D01*
X265330000Y-76602000D01*
X264130750Y-76602000D01*
X263977000Y-76755750D01*
X263977000Y-76628151D01*
X263981644Y-76580999D01*
X263977000Y-76533847D01*
X263977000Y-76533838D01*
X263963110Y-76392807D01*
X263908216Y-76211846D01*
X263856717Y-76115498D01*
X263819073Y-76045071D01*
X263729170Y-75935525D01*
X263699107Y-75898893D01*
X263662474Y-75868829D01*
X263175645Y-75382000D01*
X264020335Y-75382000D01*
X263996403Y-75439777D01*
X263972000Y-75562458D01*
X263972000Y-76189250D01*
X264130750Y-76348000D01*
X265330000Y-76348000D01*
X265330000Y-76328000D01*
X265584000Y-76328000D01*
X265584000Y-76348000D01*
X266783250Y-76348000D01*
X266942000Y-76189250D01*
X266942000Y-75562458D01*
X266917597Y-75439777D01*
X266893665Y-75382000D01*
X271356034Y-75382000D01*
X271403186Y-75386644D01*
X271450338Y-75382000D01*
X271450348Y-75382000D01*
X271591379Y-75368110D01*
X271772340Y-75313216D01*
X271939114Y-75224073D01*
X272085293Y-75104107D01*
X272115361Y-75067469D01*
X272117820Y-75065010D01*
X272970366Y-75065010D01*
X273995001Y-76089646D01*
X273995000Y-79919001D01*
X273957998Y-79915357D01*
X273910846Y-79920001D01*
X273910837Y-79920001D01*
X273769806Y-79933891D01*
X273588845Y-79988785D01*
X273422071Y-80077928D01*
X273275892Y-80197894D01*
X273245824Y-80234532D01*
X273152787Y-80327569D01*
X273067744Y-80362795D01*
X272898226Y-80476063D01*
X272754063Y-80620226D01*
X272640795Y-80789744D01*
X272562774Y-80978102D01*
X272523000Y-81178061D01*
X272523000Y-81381939D01*
X272562774Y-81581898D01*
X272640795Y-81770256D01*
X272754063Y-81939774D01*
X272898226Y-82083937D01*
X273067744Y-82197205D01*
X273256102Y-82275226D01*
X273456061Y-82315000D01*
X273659939Y-82315000D01*
X273859898Y-82275226D01*
X274048256Y-82197205D01*
X274217774Y-82083937D01*
X274361937Y-81939774D01*
X274428603Y-81840001D01*
X274672847Y-81840001D01*
X274719999Y-81844645D01*
X274767151Y-81840001D01*
X274767161Y-81840001D01*
X274908192Y-81826111D01*
X275089153Y-81771217D01*
X275255927Y-81682074D01*
X275402106Y-81562108D01*
X275432174Y-81525470D01*
X275600469Y-81357175D01*
X275637107Y-81327107D01*
X275757073Y-81180928D01*
X275772001Y-81153000D01*
X275772000Y-110442148D01*
X275719679Y-110407188D01*
X275572268Y-110346128D01*
X275415778Y-110315000D01*
X275256222Y-110315000D01*
X275099732Y-110346128D01*
X274952321Y-110407188D01*
X274905791Y-110438278D01*
X274836345Y-110368832D01*
X274703679Y-110280188D01*
X274556268Y-110219128D01*
X274399778Y-110188000D01*
X274240222Y-110188000D01*
X274083732Y-110219128D01*
X273936321Y-110280188D01*
X273875500Y-110320827D01*
X273814679Y-110280188D01*
X273667268Y-110219128D01*
X273510778Y-110188000D01*
X273351222Y-110188000D01*
X273194732Y-110219128D01*
X273047321Y-110280188D01*
X272914655Y-110368832D01*
X272801832Y-110481655D01*
X272773656Y-110523823D01*
X272651268Y-110473128D01*
X272494778Y-110442000D01*
X272335222Y-110442000D01*
X272178732Y-110473128D01*
X272031321Y-110534188D01*
X271898655Y-110622832D01*
X271898000Y-110623487D01*
X271898000Y-101438793D01*
X272118134Y-101258134D01*
X272303706Y-101032014D01*
X272441599Y-100774034D01*
X272526513Y-100494111D01*
X272555185Y-100203000D01*
X272526513Y-99911889D01*
X272441599Y-99631966D01*
X272303706Y-99373986D01*
X272118134Y-99147866D01*
X271892014Y-98962294D01*
X271634034Y-98824401D01*
X271354111Y-98739487D01*
X271135950Y-98718000D01*
X270990050Y-98718000D01*
X270771889Y-98739487D01*
X270491966Y-98824401D01*
X270233986Y-98962294D01*
X270007866Y-99147866D01*
X269983393Y-99177687D01*
X269962502Y-99108820D01*
X269903537Y-98998506D01*
X269824185Y-98901815D01*
X269727494Y-98822463D01*
X269617180Y-98763498D01*
X269497482Y-98727188D01*
X269373000Y-98714928D01*
X267673000Y-98714928D01*
X267548518Y-98727188D01*
X267428820Y-98763498D01*
X267318506Y-98822463D01*
X267221815Y-98901815D01*
X267142463Y-98998506D01*
X267083498Y-99108820D01*
X267047188Y-99228518D01*
X267034928Y-99353000D01*
X267034928Y-99368000D01*
X265775867Y-99368000D01*
X265757000Y-99349133D01*
X265757000Y-97078018D01*
X265761040Y-97037000D01*
X265753603Y-96961487D01*
X265744918Y-96873311D01*
X265697172Y-96715913D01*
X265619636Y-96570854D01*
X265515291Y-96443709D01*
X265483426Y-96417558D01*
X265219445Y-96153578D01*
X265193291Y-96121709D01*
X265066146Y-96017364D01*
X264921087Y-95939828D01*
X264763689Y-95892082D01*
X264641019Y-95880000D01*
X264641018Y-95880000D01*
X264600000Y-95875960D01*
X264558982Y-95880000D01*
X251312227Y-95880000D01*
X251275120Y-95824465D01*
X251080535Y-95629880D01*
X250851727Y-95476995D01*
X250774485Y-95445000D01*
X250851727Y-95413005D01*
X251080535Y-95260120D01*
X251275120Y-95065535D01*
X251428005Y-94836727D01*
X251533314Y-94582490D01*
X251587000Y-94312592D01*
X251587000Y-94037408D01*
X251533314Y-93767510D01*
X251428005Y-93513273D01*
X251275120Y-93284465D01*
X251080535Y-93089880D01*
X250851727Y-92936995D01*
X250774485Y-92905000D01*
X250851727Y-92873005D01*
X251080535Y-92720120D01*
X251275120Y-92525535D01*
X251389695Y-92354061D01*
X263506000Y-92354061D01*
X263506000Y-92557939D01*
X263545774Y-92757898D01*
X263623795Y-92946256D01*
X263737063Y-93115774D01*
X263881226Y-93259937D01*
X264050744Y-93373205D01*
X264239102Y-93451226D01*
X264439061Y-93491000D01*
X264642939Y-93491000D01*
X264842898Y-93451226D01*
X265031256Y-93373205D01*
X265154285Y-93291000D01*
X265865001Y-93291000D01*
X265865000Y-94382715D01*
X265782795Y-94505744D01*
X265704774Y-94694102D01*
X265665000Y-94894061D01*
X265665000Y-95097939D01*
X265704774Y-95297898D01*
X265782795Y-95486256D01*
X265896063Y-95655774D01*
X266040226Y-95799937D01*
X266209744Y-95913205D01*
X266398102Y-95991226D01*
X266598061Y-96031000D01*
X266801939Y-96031000D01*
X267001898Y-95991226D01*
X267190256Y-95913205D01*
X267359774Y-95799937D01*
X267503937Y-95655774D01*
X267617205Y-95486256D01*
X267695226Y-95297898D01*
X267735000Y-95097939D01*
X267735000Y-94894061D01*
X267695226Y-94694102D01*
X267617205Y-94505744D01*
X267535000Y-94382715D01*
X267535000Y-92878007D01*
X267539039Y-92836999D01*
X267535000Y-92795991D01*
X267535000Y-92795981D01*
X267522918Y-92673311D01*
X267475172Y-92515913D01*
X267397636Y-92370854D01*
X267293291Y-92243709D01*
X267261421Y-92217554D01*
X267118867Y-92075000D01*
X268001815Y-92075000D01*
X268030487Y-92366111D01*
X268115401Y-92646034D01*
X268253294Y-92904014D01*
X268438866Y-93130134D01*
X268664986Y-93315706D01*
X268719791Y-93345000D01*
X268664986Y-93374294D01*
X268438866Y-93559866D01*
X268253294Y-93785986D01*
X268115401Y-94043966D01*
X268030487Y-94323889D01*
X268001815Y-94615000D01*
X268030487Y-94906111D01*
X268115401Y-95186034D01*
X268253294Y-95444014D01*
X268438866Y-95670134D01*
X268468687Y-95694607D01*
X268399820Y-95715498D01*
X268289506Y-95774463D01*
X268192815Y-95853815D01*
X268113463Y-95950506D01*
X268054498Y-96060820D01*
X268018188Y-96180518D01*
X268005928Y-96305000D01*
X268005928Y-98005000D01*
X268018188Y-98129482D01*
X268054498Y-98249180D01*
X268113463Y-98359494D01*
X268192815Y-98456185D01*
X268289506Y-98535537D01*
X268399820Y-98594502D01*
X268519518Y-98630812D01*
X268644000Y-98643072D01*
X270344000Y-98643072D01*
X270468482Y-98630812D01*
X270588180Y-98594502D01*
X270698494Y-98535537D01*
X270795185Y-98456185D01*
X270874537Y-98359494D01*
X270933502Y-98249180D01*
X270969812Y-98129482D01*
X270982072Y-98005000D01*
X270982072Y-96305000D01*
X270969812Y-96180518D01*
X270933502Y-96060820D01*
X270874537Y-95950506D01*
X270795185Y-95853815D01*
X270698494Y-95774463D01*
X270588180Y-95715498D01*
X270519313Y-95694607D01*
X270549134Y-95670134D01*
X270734706Y-95444014D01*
X270872599Y-95186034D01*
X270957513Y-94906111D01*
X270986185Y-94615000D01*
X270957513Y-94323889D01*
X270872599Y-94043966D01*
X270734706Y-93785986D01*
X270549134Y-93559866D01*
X270323014Y-93374294D01*
X270268209Y-93345000D01*
X270323014Y-93315706D01*
X270549134Y-93130134D01*
X270734706Y-92904014D01*
X270771595Y-92835000D01*
X271719199Y-92835000D01*
X271909001Y-93024803D01*
X271909000Y-97467289D01*
X271865063Y-97511226D01*
X271751795Y-97680744D01*
X271673774Y-97869102D01*
X271634000Y-98069061D01*
X271634000Y-98272939D01*
X271673774Y-98472898D01*
X271751795Y-98661256D01*
X271865063Y-98830774D01*
X272009226Y-98974937D01*
X272178744Y-99088205D01*
X272367102Y-99166226D01*
X272567061Y-99206000D01*
X272770939Y-99206000D01*
X272970898Y-99166226D01*
X273159256Y-99088205D01*
X273328774Y-98974937D01*
X273472937Y-98830774D01*
X273586205Y-98661256D01*
X273664226Y-98472898D01*
X273704000Y-98272939D01*
X273704000Y-98069061D01*
X273664226Y-97869102D01*
X273586205Y-97680744D01*
X273472937Y-97511226D01*
X273429000Y-97467289D01*
X273429000Y-92747333D01*
X273432677Y-92710000D01*
X273418003Y-92561014D01*
X273374546Y-92417753D01*
X273303974Y-92285724D01*
X273232799Y-92198997D01*
X273209001Y-92169999D01*
X273180002Y-92146200D01*
X272597803Y-91564002D01*
X272574001Y-91534999D01*
X272458276Y-91440026D01*
X272326247Y-91369454D01*
X272182986Y-91325997D01*
X272071333Y-91315000D01*
X272071322Y-91315000D01*
X272034000Y-91311324D01*
X271996678Y-91315000D01*
X270771595Y-91315000D01*
X270734706Y-91245986D01*
X270549134Y-91019866D01*
X270323014Y-90834294D01*
X270258477Y-90799799D01*
X270375355Y-90730178D01*
X270591588Y-90535269D01*
X270765641Y-90301920D01*
X270890825Y-90039099D01*
X270935476Y-89891890D01*
X270814155Y-89662000D01*
X269621000Y-89662000D01*
X269621000Y-89682000D01*
X269367000Y-89682000D01*
X269367000Y-89662000D01*
X268173845Y-89662000D01*
X268052524Y-89891890D01*
X268097175Y-90039099D01*
X268222359Y-90301920D01*
X268396412Y-90535269D01*
X268612645Y-90730178D01*
X268729523Y-90799799D01*
X268664986Y-90834294D01*
X268438866Y-91019866D01*
X268253294Y-91245986D01*
X268115401Y-91503966D01*
X268030487Y-91783889D01*
X268001815Y-92075000D01*
X267118867Y-92075000D01*
X266938446Y-91894579D01*
X266912291Y-91862709D01*
X266785146Y-91758364D01*
X266640087Y-91680828D01*
X266482689Y-91633082D01*
X266360019Y-91621000D01*
X266360018Y-91621000D01*
X266319000Y-91616960D01*
X266277982Y-91621000D01*
X265154285Y-91621000D01*
X265031256Y-91538795D01*
X264842898Y-91460774D01*
X264642939Y-91421000D01*
X264439061Y-91421000D01*
X264239102Y-91460774D01*
X264050744Y-91538795D01*
X263881226Y-91652063D01*
X263737063Y-91796226D01*
X263623795Y-91965744D01*
X263545774Y-92154102D01*
X263506000Y-92354061D01*
X251389695Y-92354061D01*
X251428005Y-92296727D01*
X251533314Y-92042490D01*
X251587000Y-91772592D01*
X251587000Y-91497408D01*
X251533314Y-91227510D01*
X251428005Y-90973273D01*
X251275120Y-90744465D01*
X251080535Y-90549880D01*
X250851727Y-90396995D01*
X250774485Y-90365000D01*
X250851727Y-90333005D01*
X251080535Y-90180120D01*
X251275120Y-89985535D01*
X251428005Y-89756727D01*
X251533314Y-89502490D01*
X251587000Y-89232592D01*
X251587000Y-88957408D01*
X251533314Y-88687510D01*
X251428005Y-88433273D01*
X251275120Y-88204465D01*
X251080535Y-88009880D01*
X250851727Y-87856995D01*
X250774485Y-87825000D01*
X250851727Y-87793005D01*
X251080535Y-87640120D01*
X251275120Y-87445535D01*
X251428005Y-87216727D01*
X251533314Y-86962490D01*
X251587000Y-86692592D01*
X251587000Y-86417408D01*
X251533314Y-86147510D01*
X251428005Y-85893273D01*
X251275120Y-85664465D01*
X251080535Y-85469880D01*
X250851727Y-85316995D01*
X250597490Y-85211686D01*
X250327592Y-85158000D01*
X250052408Y-85158000D01*
X249782510Y-85211686D01*
X249528273Y-85316995D01*
X249299465Y-85469880D01*
X249104880Y-85664465D01*
X248951995Y-85893273D01*
X248846686Y-86147510D01*
X248793000Y-86417408D01*
X248793000Y-86692592D01*
X248846686Y-86962490D01*
X248951995Y-87216727D01*
X249104880Y-87445535D01*
X249299465Y-87640120D01*
X249528273Y-87793005D01*
X249605515Y-87825000D01*
X249528273Y-87856995D01*
X249299465Y-88009880D01*
X249104880Y-88204465D01*
X248951995Y-88433273D01*
X248846686Y-88687510D01*
X248793000Y-88957408D01*
X248793000Y-89232592D01*
X248846686Y-89502490D01*
X248951995Y-89756727D01*
X249104880Y-89985535D01*
X249299465Y-90180120D01*
X249528273Y-90333005D01*
X249605515Y-90365000D01*
X249528273Y-90396995D01*
X249299465Y-90549880D01*
X249104880Y-90744465D01*
X248951995Y-90973273D01*
X248846686Y-91227510D01*
X248793000Y-91497408D01*
X248793000Y-91772592D01*
X248846686Y-92042490D01*
X248951995Y-92296727D01*
X249104880Y-92525535D01*
X249299465Y-92720120D01*
X249528273Y-92873005D01*
X249605515Y-92905000D01*
X249528273Y-92936995D01*
X249299465Y-93089880D01*
X249104880Y-93284465D01*
X248951995Y-93513273D01*
X248846686Y-93767510D01*
X248793000Y-94037408D01*
X248793000Y-94312592D01*
X248846686Y-94582490D01*
X248951995Y-94836727D01*
X249104880Y-95065535D01*
X249299465Y-95260120D01*
X249528273Y-95413005D01*
X249605515Y-95445000D01*
X249528273Y-95476995D01*
X249299465Y-95629880D01*
X249104880Y-95824465D01*
X248951995Y-96053273D01*
X248846686Y-96307510D01*
X248793000Y-96577408D01*
X248793000Y-96852592D01*
X248846686Y-97122490D01*
X248951995Y-97376727D01*
X249104880Y-97605535D01*
X249299465Y-97800120D01*
X249528273Y-97953005D01*
X249605515Y-97985000D01*
X249528273Y-98016995D01*
X249299465Y-98169880D01*
X249104880Y-98364465D01*
X248951995Y-98593273D01*
X248846686Y-98847510D01*
X248793000Y-99117408D01*
X248793000Y-99392592D01*
X248846686Y-99662490D01*
X248951995Y-99916727D01*
X249104880Y-100145535D01*
X249299465Y-100340120D01*
X249528273Y-100493005D01*
X249605515Y-100525000D01*
X249528273Y-100556995D01*
X249299465Y-100709880D01*
X249104880Y-100904465D01*
X248951995Y-101133273D01*
X248846686Y-101387510D01*
X248793000Y-101657408D01*
X248793000Y-101932592D01*
X248846686Y-102202490D01*
X248951995Y-102456727D01*
X249104880Y-102685535D01*
X249299465Y-102880120D01*
X249528273Y-103033005D01*
X249605515Y-103065000D01*
X249528273Y-103096995D01*
X249299465Y-103249880D01*
X249104880Y-103444465D01*
X248951995Y-103673273D01*
X248846686Y-103927510D01*
X248793000Y-104197408D01*
X248793000Y-104472592D01*
X248846686Y-104742490D01*
X248951995Y-104996727D01*
X249104880Y-105225535D01*
X249299465Y-105420120D01*
X249528273Y-105573005D01*
X249605515Y-105605000D01*
X249528273Y-105636995D01*
X249299465Y-105789880D01*
X249104880Y-105984465D01*
X248951995Y-106213273D01*
X248846686Y-106467510D01*
X248793000Y-106737408D01*
X248793000Y-107012592D01*
X248846686Y-107282490D01*
X248951995Y-107536727D01*
X249104880Y-107765535D01*
X249299465Y-107960120D01*
X249528273Y-108113005D01*
X249605515Y-108145000D01*
X249528273Y-108176995D01*
X249299465Y-108329880D01*
X249104880Y-108524465D01*
X248951995Y-108753273D01*
X248846686Y-109007510D01*
X248793000Y-109277408D01*
X248793000Y-109552592D01*
X248846686Y-109822490D01*
X248951995Y-110076727D01*
X249104880Y-110305535D01*
X249299465Y-110500120D01*
X249528273Y-110653005D01*
X249605515Y-110685000D01*
X249528273Y-110716995D01*
X249299465Y-110869880D01*
X249104880Y-111064465D01*
X248951995Y-111293273D01*
X248846686Y-111547510D01*
X248793000Y-111817408D01*
X248793000Y-112092592D01*
X248846686Y-112362490D01*
X248951995Y-112616727D01*
X249104880Y-112845535D01*
X249299465Y-113040120D01*
X249528273Y-113193005D01*
X249605515Y-113225000D01*
X249528273Y-113256995D01*
X249299465Y-113409880D01*
X249104880Y-113604465D01*
X248951995Y-113833273D01*
X248846686Y-114087510D01*
X248793000Y-114357408D01*
X248793000Y-114632592D01*
X248846686Y-114902490D01*
X248951995Y-115156727D01*
X249104880Y-115385535D01*
X249299465Y-115580120D01*
X249528273Y-115733005D01*
X249605515Y-115765000D01*
X249528273Y-115796995D01*
X249299465Y-115949880D01*
X249104880Y-116144465D01*
X248951995Y-116373273D01*
X248846686Y-116627510D01*
X248793000Y-116897408D01*
X248793000Y-117172592D01*
X248846686Y-117442490D01*
X248951995Y-117696727D01*
X249104880Y-117925535D01*
X249299465Y-118120120D01*
X249528273Y-118273005D01*
X249605515Y-118305000D01*
X249528273Y-118336995D01*
X249299465Y-118489880D01*
X249104880Y-118684465D01*
X248951995Y-118913273D01*
X248846686Y-119167510D01*
X248793000Y-119437408D01*
X248793000Y-119712592D01*
X248846686Y-119982490D01*
X248951995Y-120236727D01*
X249104880Y-120465535D01*
X249299465Y-120660120D01*
X249528273Y-120813005D01*
X249605515Y-120845000D01*
X249528273Y-120876995D01*
X249299465Y-121029880D01*
X249104880Y-121224465D01*
X248951995Y-121453273D01*
X248846686Y-121707510D01*
X248793000Y-121977408D01*
X248793000Y-122252592D01*
X248846686Y-122522490D01*
X248951995Y-122776727D01*
X249104880Y-123005535D01*
X249299465Y-123200120D01*
X249528273Y-123353005D01*
X249605515Y-123385000D01*
X249528273Y-123416995D01*
X249299465Y-123569880D01*
X249104880Y-123764465D01*
X248951995Y-123993273D01*
X248846686Y-124247510D01*
X248793000Y-124517408D01*
X248793000Y-124792592D01*
X248846686Y-125062490D01*
X248951995Y-125316727D01*
X249104880Y-125545535D01*
X249299465Y-125740120D01*
X249528273Y-125893005D01*
X249782510Y-125998314D01*
X250052408Y-126052000D01*
X250327592Y-126052000D01*
X250597490Y-125998314D01*
X250851727Y-125893005D01*
X251080535Y-125740120D01*
X251205655Y-125615000D01*
X253788356Y-125615000D01*
X254802828Y-126629473D01*
X254832893Y-126666107D01*
X254869526Y-126696171D01*
X254979071Y-126786073D01*
X255145846Y-126875216D01*
X255326807Y-126930110D01*
X255467838Y-126944000D01*
X255467840Y-126944000D01*
X255515000Y-126948645D01*
X255562160Y-126944000D01*
X264652356Y-126944000D01*
X265105001Y-127396645D01*
X265105001Y-127472023D01*
X265064520Y-127521349D01*
X265021307Y-127457275D01*
X264848474Y-127285922D01*
X264645533Y-127151579D01*
X264420282Y-127059409D01*
X264382609Y-127055538D01*
X264192000Y-127180269D01*
X264192000Y-128397000D01*
X264212000Y-128397000D01*
X264212000Y-128651000D01*
X264192000Y-128651000D01*
X264192000Y-129867731D01*
X264382609Y-129992462D01*
X264420282Y-129988591D01*
X264645533Y-129896421D01*
X264848474Y-129762078D01*
X265021307Y-129590725D01*
X265064519Y-129526651D01*
X265103749Y-129574453D01*
X265118891Y-129728192D01*
X265173784Y-129909153D01*
X265262927Y-130075928D01*
X265352829Y-130185473D01*
X265382894Y-130222107D01*
X265419526Y-130252170D01*
X266241828Y-131074473D01*
X266271893Y-131111107D01*
X266308526Y-131141171D01*
X266418071Y-131231073D01*
X266503959Y-131276981D01*
X266584846Y-131320216D01*
X266765807Y-131375110D01*
X266906838Y-131389000D01*
X266906840Y-131389000D01*
X266954000Y-131393645D01*
X267001160Y-131389000D01*
X270366356Y-131389000D01*
X270439000Y-131461644D01*
X270439001Y-132481928D01*
X269772000Y-132481928D01*
X269647518Y-132494188D01*
X269527820Y-132530498D01*
X269417506Y-132589463D01*
X269320815Y-132668815D01*
X269241463Y-132765506D01*
X269182498Y-132875820D01*
X269146188Y-132995518D01*
X269133928Y-133120000D01*
X269133928Y-136120000D01*
X269146188Y-136244482D01*
X269182498Y-136364180D01*
X269241463Y-136474494D01*
X269320815Y-136571185D01*
X269417506Y-136650537D01*
X269527820Y-136709502D01*
X269647518Y-136745812D01*
X269772000Y-136758072D01*
X272772000Y-136758072D01*
X272896482Y-136745812D01*
X273016180Y-136709502D01*
X273126494Y-136650537D01*
X273223185Y-136571185D01*
X273302537Y-136474494D01*
X273361502Y-136364180D01*
X273397812Y-136244482D01*
X273410072Y-136120000D01*
X273410072Y-133120000D01*
X273397812Y-132995518D01*
X273361502Y-132875820D01*
X273302537Y-132765506D01*
X273223185Y-132668815D01*
X273126494Y-132589463D01*
X273016180Y-132530498D01*
X272896482Y-132494188D01*
X272772000Y-132481928D01*
X272359000Y-132481928D01*
X272359000Y-131111160D01*
X272363645Y-131064000D01*
X272359000Y-131016838D01*
X272345110Y-130875807D01*
X272290216Y-130694846D01*
X272201073Y-130528072D01*
X272081107Y-130381893D01*
X272044469Y-130351825D01*
X271476175Y-129783531D01*
X271446107Y-129746893D01*
X271299928Y-129626927D01*
X271133154Y-129537784D01*
X270952193Y-129482890D01*
X270811162Y-129469000D01*
X270811152Y-129469000D01*
X270764000Y-129464356D01*
X270716848Y-129469000D01*
X269241494Y-129469000D01*
X269286008Y-129322255D01*
X269303072Y-129149001D01*
X269303072Y-127898999D01*
X269286008Y-127725745D01*
X269235472Y-127559149D01*
X269153405Y-127405613D01*
X269042962Y-127271038D01*
X268908387Y-127160595D01*
X268754851Y-127078528D01*
X268588255Y-127027992D01*
X268415001Y-127010928D01*
X267714999Y-127010928D01*
X267541745Y-127027992D01*
X267375149Y-127078528D01*
X267221613Y-127160595D01*
X267087038Y-127271038D01*
X267025000Y-127346631D01*
X267025000Y-127046160D01*
X267029645Y-126999000D01*
X267025000Y-126951838D01*
X267011110Y-126810807D01*
X266956216Y-126629846D01*
X266913478Y-126549889D01*
X266867073Y-126463071D01*
X266777171Y-126353526D01*
X266747107Y-126316893D01*
X266710474Y-126286829D01*
X265845644Y-125422000D01*
X269661984Y-125422000D01*
X269703002Y-125426040D01*
X269744020Y-125422000D01*
X269744021Y-125422000D01*
X269866691Y-125409918D01*
X270024089Y-125362172D01*
X270169148Y-125284636D01*
X270296293Y-125180291D01*
X270322447Y-125148422D01*
X271198432Y-124272439D01*
X271230291Y-124246293D01*
X271296768Y-124165291D01*
X271334636Y-124119148D01*
X271412172Y-123974089D01*
X271421655Y-123942829D01*
X271459918Y-123816691D01*
X271472000Y-123694021D01*
X271472000Y-123694020D01*
X271476040Y-123653002D01*
X271472000Y-123611984D01*
X271472000Y-116232866D01*
X271573222Y-116253000D01*
X271732000Y-116253000D01*
X271732000Y-116284778D01*
X271763128Y-116441268D01*
X271824188Y-116588679D01*
X271912832Y-116721345D01*
X272025655Y-116834168D01*
X272158321Y-116922812D01*
X272305732Y-116983872D01*
X272462222Y-117015000D01*
X272621778Y-117015000D01*
X272778268Y-116983872D01*
X272923000Y-116923922D01*
X273067732Y-116983872D01*
X273224222Y-117015000D01*
X273383778Y-117015000D01*
X273540268Y-116983872D01*
X273687679Y-116922812D01*
X273820345Y-116834168D01*
X273933168Y-116721345D01*
X274002500Y-116617582D01*
X274071832Y-116721345D01*
X274184655Y-116834168D01*
X274317321Y-116922812D01*
X274464732Y-116983872D01*
X274621222Y-117015000D01*
X274780778Y-117015000D01*
X274937268Y-116983872D01*
X275082000Y-116923922D01*
X275133405Y-116945214D01*
X274013236Y-118065384D01*
X273988052Y-118086052D01*
X273967386Y-118111234D01*
X273905575Y-118186550D01*
X273871569Y-118250172D01*
X273844290Y-118301208D01*
X273806550Y-118425618D01*
X273797000Y-118522582D01*
X273797000Y-118522591D01*
X273793808Y-118555000D01*
X273797000Y-118587409D01*
X273797001Y-136281618D01*
X272183620Y-137895000D01*
X215730381Y-137895000D01*
X214117000Y-136281620D01*
X214117000Y-116739022D01*
X214132088Y-116689283D01*
X214142000Y-116588647D01*
X214142000Y-91497408D01*
X218313000Y-91497408D01*
X218313000Y-91772592D01*
X218366686Y-92042490D01*
X218471995Y-92296727D01*
X218624880Y-92525535D01*
X218819465Y-92720120D01*
X219048273Y-92873005D01*
X219125515Y-92905000D01*
X219048273Y-92936995D01*
X218819465Y-93089880D01*
X218624880Y-93284465D01*
X218471995Y-93513273D01*
X218366686Y-93767510D01*
X218313000Y-94037408D01*
X218313000Y-94312592D01*
X218366686Y-94582490D01*
X218471995Y-94836727D01*
X218624880Y-95065535D01*
X218819465Y-95260120D01*
X219048273Y-95413005D01*
X219125515Y-95445000D01*
X219048273Y-95476995D01*
X218819465Y-95629880D01*
X218624880Y-95824465D01*
X218471995Y-96053273D01*
X218366686Y-96307510D01*
X218313000Y-96577408D01*
X218313000Y-96852592D01*
X218366686Y-97122490D01*
X218471995Y-97376727D01*
X218624880Y-97605535D01*
X218819465Y-97800120D01*
X219048273Y-97953005D01*
X219125515Y-97985000D01*
X219048273Y-98016995D01*
X218819465Y-98169880D01*
X218624880Y-98364465D01*
X218471995Y-98593273D01*
X218366686Y-98847510D01*
X218313000Y-99117408D01*
X218313000Y-99392592D01*
X218366686Y-99662490D01*
X218471995Y-99916727D01*
X218624880Y-100145535D01*
X218819465Y-100340120D01*
X219048273Y-100493005D01*
X219125515Y-100525000D01*
X219048273Y-100556995D01*
X218819465Y-100709880D01*
X218624880Y-100904465D01*
X218471995Y-101133273D01*
X218366686Y-101387510D01*
X218313000Y-101657408D01*
X218313000Y-101932592D01*
X218366686Y-102202490D01*
X218471995Y-102456727D01*
X218624880Y-102685535D01*
X218819465Y-102880120D01*
X219048273Y-103033005D01*
X219125515Y-103065000D01*
X219048273Y-103096995D01*
X218819465Y-103249880D01*
X218624880Y-103444465D01*
X218471995Y-103673273D01*
X218366686Y-103927510D01*
X218313000Y-104197408D01*
X218313000Y-104472592D01*
X218366686Y-104742490D01*
X218471995Y-104996727D01*
X218624880Y-105225535D01*
X218819465Y-105420120D01*
X219048273Y-105573005D01*
X219125515Y-105605000D01*
X219048273Y-105636995D01*
X218819465Y-105789880D01*
X218624880Y-105984465D01*
X218471995Y-106213273D01*
X218366686Y-106467510D01*
X218313000Y-106737408D01*
X218313000Y-107012592D01*
X218366686Y-107282490D01*
X218471995Y-107536727D01*
X218624880Y-107765535D01*
X218819465Y-107960120D01*
X219048273Y-108113005D01*
X219125515Y-108145000D01*
X219048273Y-108176995D01*
X218819465Y-108329880D01*
X218624880Y-108524465D01*
X218471995Y-108753273D01*
X218366686Y-109007510D01*
X218313000Y-109277408D01*
X218313000Y-109552592D01*
X218366686Y-109822490D01*
X218471995Y-110076727D01*
X218624880Y-110305535D01*
X218819465Y-110500120D01*
X219048273Y-110653005D01*
X219125515Y-110685000D01*
X219048273Y-110716995D01*
X218819465Y-110869880D01*
X218624880Y-111064465D01*
X218471995Y-111293273D01*
X218366686Y-111547510D01*
X218313000Y-111817408D01*
X218313000Y-112092592D01*
X218366686Y-112362490D01*
X218471995Y-112616727D01*
X218624880Y-112845535D01*
X218819465Y-113040120D01*
X219048273Y-113193005D01*
X219125515Y-113225000D01*
X219048273Y-113256995D01*
X218819465Y-113409880D01*
X218624880Y-113604465D01*
X218471995Y-113833273D01*
X218366686Y-114087510D01*
X218313000Y-114357408D01*
X218313000Y-114632592D01*
X218366686Y-114902490D01*
X218471995Y-115156727D01*
X218624880Y-115385535D01*
X218819465Y-115580120D01*
X219048273Y-115733005D01*
X219125515Y-115765000D01*
X219048273Y-115796995D01*
X218819465Y-115949880D01*
X218624880Y-116144465D01*
X218471995Y-116373273D01*
X218366686Y-116627510D01*
X218313000Y-116897408D01*
X218313000Y-117172592D01*
X218366686Y-117442490D01*
X218471995Y-117696727D01*
X218624880Y-117925535D01*
X218819465Y-118120120D01*
X219048273Y-118273005D01*
X219125515Y-118305000D01*
X219048273Y-118336995D01*
X218819465Y-118489880D01*
X218624880Y-118684465D01*
X218471995Y-118913273D01*
X218366686Y-119167510D01*
X218313000Y-119437408D01*
X218313000Y-119712592D01*
X218366686Y-119982490D01*
X218471995Y-120236727D01*
X218624880Y-120465535D01*
X218819465Y-120660120D01*
X219048273Y-120813005D01*
X219125515Y-120845000D01*
X219048273Y-120876995D01*
X218819465Y-121029880D01*
X218624880Y-121224465D01*
X218471995Y-121453273D01*
X218366686Y-121707510D01*
X218313000Y-121977408D01*
X218313000Y-122252592D01*
X218366686Y-122522490D01*
X218471995Y-122776727D01*
X218624880Y-123005535D01*
X218819465Y-123200120D01*
X219048273Y-123353005D01*
X219125515Y-123385000D01*
X219048273Y-123416995D01*
X218819465Y-123569880D01*
X218624880Y-123764465D01*
X218471995Y-123993273D01*
X218366686Y-124247510D01*
X218313000Y-124517408D01*
X218313000Y-124792592D01*
X218366686Y-125062490D01*
X218471995Y-125316727D01*
X218624880Y-125545535D01*
X218819465Y-125740120D01*
X219048273Y-125893005D01*
X219302510Y-125998314D01*
X219572408Y-126052000D01*
X219847592Y-126052000D01*
X220117490Y-125998314D01*
X220135147Y-125991000D01*
X231367928Y-125991000D01*
X231367928Y-127691000D01*
X231380188Y-127815482D01*
X231416498Y-127935180D01*
X231475463Y-128045494D01*
X231554815Y-128142185D01*
X231651506Y-128221537D01*
X231761820Y-128280502D01*
X231881518Y-128316812D01*
X232006000Y-128329072D01*
X233706000Y-128329072D01*
X233830482Y-128316812D01*
X233950180Y-128280502D01*
X234060494Y-128221537D01*
X234157185Y-128142185D01*
X234236537Y-128045494D01*
X234295502Y-127935180D01*
X234316393Y-127866313D01*
X234340866Y-127896134D01*
X234561001Y-128076794D01*
X234561000Y-135278981D01*
X234556960Y-135320000D01*
X234561000Y-135361018D01*
X234573082Y-135483688D01*
X234620828Y-135641086D01*
X234698364Y-135786145D01*
X234802709Y-135913291D01*
X234834579Y-135939446D01*
X236362563Y-137467432D01*
X236388709Y-137499291D01*
X236515854Y-137603636D01*
X236660913Y-137681172D01*
X236818311Y-137728918D01*
X236940981Y-137741000D01*
X236940982Y-137741000D01*
X236982000Y-137745040D01*
X237023018Y-137741000D01*
X259890302Y-137741000D01*
X259931320Y-137745040D01*
X259972338Y-137741000D01*
X259972339Y-137741000D01*
X260095009Y-137728918D01*
X260252407Y-137681172D01*
X260397466Y-137603636D01*
X260524611Y-137499291D01*
X260550766Y-137467422D01*
X261263188Y-136755000D01*
X261322279Y-136755000D01*
X261734756Y-136672953D01*
X262123302Y-136512012D01*
X262472983Y-136278363D01*
X262639693Y-136111653D01*
X264879952Y-136111653D01*
X265035962Y-136427214D01*
X265410745Y-136618020D01*
X265815551Y-136732044D01*
X266234824Y-136764902D01*
X266652451Y-136715334D01*
X267052383Y-136585243D01*
X267348038Y-136427214D01*
X267504048Y-136111653D01*
X266192000Y-134799605D01*
X264879952Y-136111653D01*
X262639693Y-136111653D01*
X262770363Y-135980983D01*
X263004012Y-135631302D01*
X263164953Y-135242756D01*
X263247000Y-134830279D01*
X263247000Y-134662824D01*
X264047098Y-134662824D01*
X264096666Y-135080451D01*
X264226757Y-135480383D01*
X264384786Y-135776038D01*
X264700347Y-135932048D01*
X266012395Y-134620000D01*
X266371605Y-134620000D01*
X267683653Y-135932048D01*
X267999214Y-135776038D01*
X268190020Y-135401255D01*
X268304044Y-134996449D01*
X268336902Y-134577176D01*
X268287334Y-134159549D01*
X268157243Y-133759617D01*
X267999214Y-133463962D01*
X267683653Y-133307952D01*
X266371605Y-134620000D01*
X266012395Y-134620000D01*
X264700347Y-133307952D01*
X264384786Y-133463962D01*
X264193980Y-133838745D01*
X264079956Y-134243551D01*
X264047098Y-134662824D01*
X263247000Y-134662824D01*
X263247000Y-134409721D01*
X263164953Y-133997244D01*
X263004012Y-133608698D01*
X262770363Y-133259017D01*
X262639693Y-133128347D01*
X264879952Y-133128347D01*
X266192000Y-134440395D01*
X267504048Y-133128347D01*
X267348038Y-132812786D01*
X266973255Y-132621980D01*
X266568449Y-132507956D01*
X266149176Y-132475098D01*
X265731549Y-132524666D01*
X265331617Y-132654757D01*
X265035962Y-132812786D01*
X264879952Y-133128347D01*
X262639693Y-133128347D01*
X262472983Y-132961637D01*
X262123302Y-132727988D01*
X261734756Y-132567047D01*
X261322279Y-132485000D01*
X260901721Y-132485000D01*
X260489244Y-132567047D01*
X260100698Y-132727988D01*
X259751017Y-132961637D01*
X259453637Y-133259017D01*
X259219988Y-133608698D01*
X259059047Y-133997244D01*
X258977000Y-134409721D01*
X258977000Y-134830279D01*
X259059047Y-135242756D01*
X259219988Y-135631302D01*
X259453637Y-135980983D01*
X259543654Y-136071000D01*
X257600346Y-136071000D01*
X257690363Y-135980983D01*
X257924012Y-135631302D01*
X258084953Y-135242756D01*
X258167000Y-134830279D01*
X258167000Y-134409721D01*
X258084953Y-133997244D01*
X257924012Y-133608698D01*
X257690363Y-133259017D01*
X257392983Y-132961637D01*
X257043302Y-132727988D01*
X256654756Y-132567047D01*
X256242279Y-132485000D01*
X255821721Y-132485000D01*
X255409244Y-132567047D01*
X255020698Y-132727988D01*
X254671017Y-132961637D01*
X254373637Y-133259017D01*
X254139988Y-133608698D01*
X253979047Y-133997244D01*
X253920217Y-134293000D01*
X239740869Y-134293000D01*
X238771000Y-133323133D01*
X238771000Y-128076793D01*
X238991134Y-127896134D01*
X239176706Y-127670014D01*
X239211201Y-127605477D01*
X239280822Y-127722355D01*
X239475731Y-127938588D01*
X239709080Y-128112641D01*
X239971901Y-128237825D01*
X240119110Y-128282476D01*
X240349000Y-128161155D01*
X240349000Y-126968000D01*
X240603000Y-126968000D01*
X240603000Y-128161155D01*
X240832890Y-128282476D01*
X240980099Y-128237825D01*
X241084002Y-128188335D01*
X258830000Y-128188335D01*
X258830000Y-128859664D01*
X258847870Y-129041101D01*
X258918489Y-129273900D01*
X259033167Y-129488448D01*
X259187498Y-129676502D01*
X259375551Y-129830833D01*
X259590099Y-129945511D01*
X259822898Y-130016130D01*
X260065000Y-130039975D01*
X260307101Y-130016130D01*
X260539900Y-129945511D01*
X260754448Y-129830833D01*
X260942502Y-129676502D01*
X261065000Y-129527237D01*
X261187498Y-129676502D01*
X261375551Y-129830833D01*
X261590099Y-129945511D01*
X261822898Y-130016130D01*
X262065000Y-130039975D01*
X262307101Y-130016130D01*
X262539900Y-129945511D01*
X262754448Y-129830833D01*
X262942502Y-129676502D01*
X263065481Y-129526652D01*
X263108693Y-129590725D01*
X263281526Y-129762078D01*
X263484467Y-129896421D01*
X263709718Y-129988591D01*
X263747391Y-129992462D01*
X263938000Y-129867731D01*
X263938000Y-128651000D01*
X263918000Y-128651000D01*
X263918000Y-128397000D01*
X263938000Y-128397000D01*
X263938000Y-127180269D01*
X263747391Y-127055538D01*
X263709718Y-127059409D01*
X263484467Y-127151579D01*
X263281526Y-127285922D01*
X263108693Y-127457275D01*
X263065481Y-127521348D01*
X262942502Y-127371498D01*
X262754449Y-127217167D01*
X262539901Y-127102489D01*
X262307102Y-127031870D01*
X262065000Y-127008025D01*
X261822899Y-127031870D01*
X261590100Y-127102489D01*
X261375552Y-127217167D01*
X261187499Y-127371498D01*
X261065001Y-127520763D01*
X260942502Y-127371498D01*
X260754449Y-127217167D01*
X260539901Y-127102489D01*
X260307102Y-127031870D01*
X260065000Y-127008025D01*
X259822899Y-127031870D01*
X259590100Y-127102489D01*
X259375552Y-127217167D01*
X259187499Y-127371498D01*
X259033168Y-127559551D01*
X258918489Y-127774099D01*
X258847870Y-128006898D01*
X258830000Y-128188335D01*
X241084002Y-128188335D01*
X241242920Y-128112641D01*
X241476269Y-127938588D01*
X241671178Y-127722355D01*
X241820157Y-127472252D01*
X241917481Y-127197891D01*
X241796814Y-126968000D01*
X240603000Y-126968000D01*
X240349000Y-126968000D01*
X240329000Y-126968000D01*
X240329000Y-126714000D01*
X240349000Y-126714000D01*
X240349000Y-125520845D01*
X240603000Y-125520845D01*
X240603000Y-126714000D01*
X241796814Y-126714000D01*
X241917481Y-126484109D01*
X241820157Y-126209748D01*
X241671178Y-125959645D01*
X241476269Y-125743412D01*
X241242920Y-125569359D01*
X240980099Y-125444175D01*
X240832890Y-125399524D01*
X240603000Y-125520845D01*
X240349000Y-125520845D01*
X240119110Y-125399524D01*
X239971901Y-125444175D01*
X239709080Y-125569359D01*
X239475731Y-125743412D01*
X239280822Y-125959645D01*
X239211201Y-126076523D01*
X239176706Y-126011986D01*
X238991134Y-125785866D01*
X238765014Y-125600294D01*
X238507034Y-125462401D01*
X238227111Y-125377487D01*
X238008950Y-125356000D01*
X237863050Y-125356000D01*
X237644889Y-125377487D01*
X237364966Y-125462401D01*
X237106986Y-125600294D01*
X236880866Y-125785866D01*
X236695294Y-126011986D01*
X236666000Y-126066791D01*
X236636706Y-126011986D01*
X236451134Y-125785866D01*
X236225014Y-125600294D01*
X235967034Y-125462401D01*
X235687111Y-125377487D01*
X235468950Y-125356000D01*
X235323050Y-125356000D01*
X235104889Y-125377487D01*
X234824966Y-125462401D01*
X234566986Y-125600294D01*
X234340866Y-125785866D01*
X234316393Y-125815687D01*
X234295502Y-125746820D01*
X234236537Y-125636506D01*
X234157185Y-125539815D01*
X234060494Y-125460463D01*
X233950180Y-125401498D01*
X233830482Y-125365188D01*
X233706000Y-125352928D01*
X232006000Y-125352928D01*
X231881518Y-125365188D01*
X231761820Y-125401498D01*
X231651506Y-125460463D01*
X231554815Y-125539815D01*
X231475463Y-125636506D01*
X231416498Y-125746820D01*
X231380188Y-125866518D01*
X231367928Y-125991000D01*
X220135147Y-125991000D01*
X220371727Y-125893005D01*
X220600535Y-125740120D01*
X220795120Y-125545535D01*
X220948005Y-125316727D01*
X221053314Y-125062490D01*
X221107000Y-124792592D01*
X221107000Y-124517408D01*
X221053314Y-124247510D01*
X220948005Y-123993273D01*
X220795120Y-123764465D01*
X220600535Y-123569880D01*
X220371727Y-123416995D01*
X220294485Y-123385000D01*
X220371727Y-123353005D01*
X220600535Y-123200120D01*
X220795120Y-123005535D01*
X220948005Y-122776727D01*
X221053314Y-122522490D01*
X221107000Y-122252592D01*
X221107000Y-121977408D01*
X221053314Y-121707510D01*
X220948005Y-121453273D01*
X220795120Y-121224465D01*
X220600535Y-121029880D01*
X220371727Y-120876995D01*
X220294485Y-120845000D01*
X220371727Y-120813005D01*
X220600535Y-120660120D01*
X220795120Y-120465535D01*
X220832227Y-120410000D01*
X228109982Y-120410000D01*
X228151000Y-120414040D01*
X228192018Y-120410000D01*
X228192019Y-120410000D01*
X228314689Y-120397918D01*
X228472087Y-120350172D01*
X228617146Y-120272636D01*
X228744291Y-120168291D01*
X228770446Y-120136421D01*
X230432000Y-118474868D01*
X230432000Y-119973981D01*
X230427960Y-120015000D01*
X230432000Y-120056018D01*
X230444082Y-120178688D01*
X230491828Y-120336086D01*
X230569364Y-120481145D01*
X230673709Y-120608291D01*
X230705578Y-120634445D01*
X231409563Y-121338431D01*
X231435709Y-121370291D01*
X231562854Y-121474636D01*
X231707913Y-121552172D01*
X231865311Y-121599918D01*
X231987981Y-121612000D01*
X231987982Y-121612000D01*
X232029000Y-121616040D01*
X232070018Y-121612000D01*
X242083715Y-121612000D01*
X242206744Y-121694205D01*
X242395102Y-121772226D01*
X242595061Y-121812000D01*
X242798939Y-121812000D01*
X242998898Y-121772226D01*
X243187256Y-121694205D01*
X243356774Y-121580937D01*
X243500937Y-121436774D01*
X243614205Y-121267256D01*
X243692226Y-121078898D01*
X243732000Y-120878939D01*
X243732000Y-120675061D01*
X243692226Y-120475102D01*
X243614205Y-120286744D01*
X243500937Y-120117226D01*
X243356774Y-119973063D01*
X243187256Y-119859795D01*
X242998898Y-119781774D01*
X242798939Y-119742000D01*
X242595061Y-119742000D01*
X242395102Y-119781774D01*
X242206744Y-119859795D01*
X242083715Y-119942000D01*
X238317812Y-119942000D01*
X238507034Y-119884600D01*
X238765014Y-119746707D01*
X238991134Y-119561135D01*
X239176706Y-119335015D01*
X239314599Y-119077035D01*
X239399513Y-118797112D01*
X239428185Y-118506001D01*
X239399513Y-118214890D01*
X239314599Y-117934967D01*
X239176706Y-117676987D01*
X239035293Y-117504675D01*
X239220102Y-117581226D01*
X239420061Y-117621000D01*
X239623939Y-117621000D01*
X239823898Y-117581226D01*
X239908940Y-117546000D01*
X240998848Y-117546000D01*
X241046000Y-117550644D01*
X241093152Y-117546000D01*
X241093162Y-117546000D01*
X241234193Y-117532110D01*
X241415154Y-117477216D01*
X241581928Y-117388073D01*
X241728107Y-117268107D01*
X241758175Y-117231469D01*
X243342474Y-115647171D01*
X243379107Y-115617107D01*
X243409462Y-115580120D01*
X243499073Y-115470928D01*
X243588216Y-115304154D01*
X243588216Y-115304153D01*
X243643110Y-115123193D01*
X243657000Y-114982162D01*
X243657000Y-114982160D01*
X243661645Y-114935000D01*
X243657000Y-114887840D01*
X243657000Y-112475000D01*
X244964815Y-112475000D01*
X244993487Y-112766111D01*
X245078401Y-113046034D01*
X245216294Y-113304014D01*
X245401866Y-113530134D01*
X245627986Y-113715706D01*
X245682791Y-113745000D01*
X245627986Y-113774294D01*
X245401866Y-113959866D01*
X245216294Y-114185986D01*
X245078401Y-114443966D01*
X244993487Y-114723889D01*
X244964815Y-115015000D01*
X244993487Y-115306111D01*
X245078401Y-115586034D01*
X245216294Y-115844014D01*
X245401866Y-116070134D01*
X245627986Y-116255706D01*
X245682791Y-116285000D01*
X245627986Y-116314294D01*
X245401866Y-116499866D01*
X245216294Y-116725986D01*
X245078401Y-116983966D01*
X244993487Y-117263889D01*
X244964815Y-117555000D01*
X244993487Y-117846111D01*
X245078401Y-118126034D01*
X245216294Y-118384014D01*
X245401866Y-118610134D01*
X245627986Y-118795706D01*
X245682791Y-118825000D01*
X245627986Y-118854294D01*
X245401866Y-119039866D01*
X245216294Y-119265986D01*
X245078401Y-119523966D01*
X244993487Y-119803889D01*
X244964815Y-120095000D01*
X244993487Y-120386111D01*
X245078401Y-120666034D01*
X245216294Y-120924014D01*
X245401866Y-121150134D01*
X245431687Y-121174607D01*
X245362820Y-121195498D01*
X245252506Y-121254463D01*
X245155815Y-121333815D01*
X245076463Y-121430506D01*
X245017498Y-121540820D01*
X244981188Y-121660518D01*
X244968928Y-121785000D01*
X244968928Y-123485000D01*
X244981188Y-123609482D01*
X245017498Y-123729180D01*
X245076463Y-123839494D01*
X245155815Y-123936185D01*
X245252506Y-124015537D01*
X245362820Y-124074502D01*
X245482518Y-124110812D01*
X245607000Y-124123072D01*
X247307000Y-124123072D01*
X247431482Y-124110812D01*
X247551180Y-124074502D01*
X247661494Y-124015537D01*
X247758185Y-123936185D01*
X247837537Y-123839494D01*
X247896502Y-123729180D01*
X247932812Y-123609482D01*
X247945072Y-123485000D01*
X247945072Y-121785000D01*
X247932812Y-121660518D01*
X247896502Y-121540820D01*
X247837537Y-121430506D01*
X247758185Y-121333815D01*
X247661494Y-121254463D01*
X247551180Y-121195498D01*
X247482313Y-121174607D01*
X247512134Y-121150134D01*
X247697706Y-120924014D01*
X247835599Y-120666034D01*
X247920513Y-120386111D01*
X247949185Y-120095000D01*
X247920513Y-119803889D01*
X247835599Y-119523966D01*
X247697706Y-119265986D01*
X247512134Y-119039866D01*
X247286014Y-118854294D01*
X247231209Y-118825000D01*
X247286014Y-118795706D01*
X247512134Y-118610134D01*
X247697706Y-118384014D01*
X247835599Y-118126034D01*
X247920513Y-117846111D01*
X247949185Y-117555000D01*
X247920513Y-117263889D01*
X247835599Y-116983966D01*
X247697706Y-116725986D01*
X247512134Y-116499866D01*
X247286014Y-116314294D01*
X247231209Y-116285000D01*
X247286014Y-116255706D01*
X247512134Y-116070134D01*
X247697706Y-115844014D01*
X247835599Y-115586034D01*
X247920513Y-115306111D01*
X247949185Y-115015000D01*
X247920513Y-114723889D01*
X247835599Y-114443966D01*
X247697706Y-114185986D01*
X247512134Y-113959866D01*
X247286014Y-113774294D01*
X247231209Y-113745000D01*
X247286014Y-113715706D01*
X247512134Y-113530134D01*
X247697706Y-113304014D01*
X247835599Y-113046034D01*
X247920513Y-112766111D01*
X247949185Y-112475000D01*
X247920513Y-112183889D01*
X247835599Y-111903966D01*
X247697706Y-111645986D01*
X247512134Y-111419866D01*
X247286014Y-111234294D01*
X247028034Y-111096401D01*
X246748111Y-111011487D01*
X246529950Y-110990000D01*
X246384050Y-110990000D01*
X246165889Y-111011487D01*
X245885966Y-111096401D01*
X245627986Y-111234294D01*
X245401866Y-111419866D01*
X245216294Y-111645986D01*
X245078401Y-111903966D01*
X244993487Y-112183889D01*
X244964815Y-112475000D01*
X243657000Y-112475000D01*
X243657000Y-107108160D01*
X243661645Y-107061000D01*
X243653267Y-106975937D01*
X243643110Y-106872807D01*
X243588216Y-106691846D01*
X243572400Y-106662256D01*
X243499073Y-106525071D01*
X243409171Y-106415526D01*
X243379107Y-106378893D01*
X243342474Y-106348829D01*
X242520175Y-105526531D01*
X242490107Y-105489893D01*
X242343928Y-105369927D01*
X242177154Y-105280784D01*
X241996193Y-105225890D01*
X241855162Y-105212000D01*
X241855152Y-105212000D01*
X241808000Y-105207356D01*
X241760848Y-105212000D01*
X239908940Y-105212000D01*
X239823898Y-105176774D01*
X239623939Y-105137000D01*
X239420061Y-105137000D01*
X239220102Y-105176774D01*
X239031744Y-105254795D01*
X238862226Y-105368063D01*
X238718063Y-105512226D01*
X238604795Y-105681744D01*
X238526774Y-105870102D01*
X238487000Y-106070061D01*
X238487000Y-106273939D01*
X238526774Y-106473898D01*
X238604795Y-106662256D01*
X238718063Y-106831774D01*
X238862226Y-106975937D01*
X239031744Y-107089205D01*
X239220102Y-107167226D01*
X239420061Y-107207000D01*
X239623939Y-107207000D01*
X239823898Y-107167226D01*
X239908940Y-107132000D01*
X241410356Y-107132000D01*
X241495779Y-107217423D01*
X241474898Y-107208774D01*
X241274939Y-107169000D01*
X241071061Y-107169000D01*
X240871102Y-107208774D01*
X240682744Y-107286795D01*
X240639036Y-107316000D01*
X236399285Y-107316000D01*
X236276256Y-107233795D01*
X236087898Y-107155774D01*
X235887939Y-107116000D01*
X235684061Y-107116000D01*
X235484102Y-107155774D01*
X235295744Y-107233795D01*
X235126226Y-107347063D01*
X234982063Y-107491226D01*
X234868795Y-107660744D01*
X234790774Y-107849102D01*
X234751000Y-108049061D01*
X234751000Y-108252939D01*
X234790774Y-108452898D01*
X234868795Y-108641256D01*
X234982063Y-108810774D01*
X235126226Y-108954937D01*
X235295744Y-109068205D01*
X235484102Y-109146226D01*
X235684061Y-109186000D01*
X235887939Y-109186000D01*
X236087898Y-109146226D01*
X236276256Y-109068205D01*
X236399285Y-108986000D01*
X240491289Y-108986000D01*
X240513226Y-109007937D01*
X240682744Y-109121205D01*
X240871102Y-109199226D01*
X241071061Y-109239000D01*
X241274939Y-109239000D01*
X241474898Y-109199226D01*
X241663256Y-109121205D01*
X241737001Y-109071930D01*
X241737000Y-114537355D01*
X240648356Y-115626000D01*
X239908940Y-115626000D01*
X239823898Y-115590774D01*
X239623939Y-115551000D01*
X239420061Y-115551000D01*
X239220102Y-115590774D01*
X239031744Y-115668795D01*
X238862226Y-115782063D01*
X238718063Y-115926226D01*
X238604795Y-116095744D01*
X238526774Y-116284102D01*
X238508851Y-116374207D01*
X238202175Y-116067531D01*
X238172107Y-116030893D01*
X238025928Y-115910927D01*
X237859154Y-115821784D01*
X237678193Y-115766890D01*
X237537162Y-115753000D01*
X237537152Y-115753000D01*
X237490000Y-115748356D01*
X237442848Y-115753000D01*
X234585645Y-115753000D01*
X233441000Y-114608356D01*
X233441000Y-106487940D01*
X233476226Y-106402898D01*
X233516000Y-106202939D01*
X233516000Y-105999061D01*
X233476226Y-105799102D01*
X233398205Y-105610744D01*
X233284937Y-105441226D01*
X233140774Y-105297063D01*
X232971256Y-105183795D01*
X232782898Y-105105774D01*
X232582939Y-105066000D01*
X232379061Y-105066000D01*
X232179102Y-105105774D01*
X231990744Y-105183795D01*
X231821226Y-105297063D01*
X231677063Y-105441226D01*
X231563795Y-105610744D01*
X231485774Y-105799102D01*
X231446000Y-105999061D01*
X231446000Y-106202939D01*
X231485774Y-106402898D01*
X231521000Y-106487941D01*
X231521001Y-111390247D01*
X231368939Y-111360000D01*
X231165061Y-111360000D01*
X231086000Y-111375726D01*
X231086000Y-100181285D01*
X231168205Y-100058256D01*
X231246226Y-99869898D01*
X231286000Y-99669939D01*
X231286000Y-99466061D01*
X231246226Y-99266102D01*
X231168205Y-99077744D01*
X231086000Y-98954715D01*
X231086000Y-97006285D01*
X231168205Y-96883256D01*
X231246226Y-96694898D01*
X231286000Y-96494939D01*
X231286000Y-96291061D01*
X231246226Y-96091102D01*
X231168205Y-95902744D01*
X231054937Y-95733226D01*
X230910774Y-95589063D01*
X230741256Y-95475795D01*
X230552898Y-95397774D01*
X230352939Y-95358000D01*
X230149061Y-95358000D01*
X229949102Y-95397774D01*
X229760744Y-95475795D01*
X229591226Y-95589063D01*
X229447063Y-95733226D01*
X229333795Y-95902744D01*
X229255774Y-96091102D01*
X229216000Y-96291061D01*
X229216000Y-96494939D01*
X229255774Y-96694898D01*
X229333795Y-96883256D01*
X229416001Y-97006286D01*
X229416000Y-98954715D01*
X229333795Y-99077744D01*
X229255774Y-99266102D01*
X229216000Y-99466061D01*
X229216000Y-99669939D01*
X229255774Y-99869898D01*
X229333795Y-100058256D01*
X229416000Y-100181285D01*
X229416001Y-117129131D01*
X227805133Y-118740000D01*
X220832227Y-118740000D01*
X220795120Y-118684465D01*
X220600535Y-118489880D01*
X220371727Y-118336995D01*
X220294485Y-118305000D01*
X220371727Y-118273005D01*
X220600535Y-118120120D01*
X220795120Y-117925535D01*
X220948005Y-117696727D01*
X221053314Y-117442490D01*
X221107000Y-117172592D01*
X221107000Y-116897408D01*
X221053314Y-116627510D01*
X220948005Y-116373273D01*
X220795120Y-116144465D01*
X220600535Y-115949880D01*
X220371727Y-115796995D01*
X220294485Y-115765000D01*
X220371727Y-115733005D01*
X220600535Y-115580120D01*
X220795120Y-115385535D01*
X220832227Y-115330000D01*
X227093982Y-115330000D01*
X227135000Y-115334040D01*
X227176018Y-115330000D01*
X227176019Y-115330000D01*
X227298689Y-115317918D01*
X227456087Y-115270172D01*
X227601146Y-115192636D01*
X227728291Y-115088291D01*
X227754445Y-115056422D01*
X228691433Y-114119436D01*
X228723292Y-114093290D01*
X228755254Y-114054345D01*
X228827637Y-113966145D01*
X228905173Y-113821086D01*
X228952919Y-113663688D01*
X228969041Y-113499999D01*
X228965001Y-113458981D01*
X228965001Y-92509866D01*
X229834869Y-91640000D01*
X233130982Y-91640000D01*
X233172000Y-91644040D01*
X233213018Y-91640000D01*
X233213019Y-91640000D01*
X233335689Y-91627918D01*
X233493087Y-91580172D01*
X233638146Y-91502636D01*
X233765291Y-91398291D01*
X233791446Y-91366421D01*
X235549869Y-89608000D01*
X239226982Y-89608000D01*
X239268000Y-89612040D01*
X239309018Y-89608000D01*
X239309019Y-89608000D01*
X239431689Y-89595918D01*
X239589087Y-89548172D01*
X239734146Y-89470636D01*
X239861291Y-89366291D01*
X239887446Y-89334421D01*
X241037426Y-88184442D01*
X241069291Y-88158291D01*
X241173636Y-88031146D01*
X241251172Y-87886087D01*
X241298918Y-87728689D01*
X241311000Y-87606019D01*
X241315040Y-87565000D01*
X241311000Y-87523982D01*
X241311000Y-87436793D01*
X241531134Y-87256134D01*
X241716706Y-87030014D01*
X241854599Y-86772034D01*
X241939513Y-86492111D01*
X241968185Y-86201000D01*
X241939513Y-85909889D01*
X241854599Y-85629966D01*
X241716706Y-85371986D01*
X241531134Y-85145866D01*
X241305014Y-84960294D01*
X241047034Y-84822401D01*
X240767111Y-84737487D01*
X240548950Y-84716000D01*
X240403050Y-84716000D01*
X240184889Y-84737487D01*
X239904966Y-84822401D01*
X239646986Y-84960294D01*
X239420866Y-85145866D01*
X239235294Y-85371986D01*
X239206000Y-85426791D01*
X239176706Y-85371986D01*
X238991134Y-85145866D01*
X238765014Y-84960294D01*
X238507034Y-84822401D01*
X238227111Y-84737487D01*
X238008950Y-84716000D01*
X237863050Y-84716000D01*
X237644889Y-84737487D01*
X237364966Y-84822401D01*
X237106986Y-84960294D01*
X236880866Y-85145866D01*
X236695294Y-85371986D01*
X236666000Y-85426791D01*
X236636706Y-85371986D01*
X236451134Y-85145866D01*
X236225014Y-84960294D01*
X235967034Y-84822401D01*
X235687111Y-84737487D01*
X235468950Y-84716000D01*
X235323050Y-84716000D01*
X235104889Y-84737487D01*
X234824966Y-84822401D01*
X234566986Y-84960294D01*
X234340866Y-85145866D01*
X234316393Y-85175687D01*
X234295502Y-85106820D01*
X234236537Y-84996506D01*
X234157185Y-84899815D01*
X234060494Y-84820463D01*
X233950180Y-84761498D01*
X233830482Y-84725188D01*
X233706000Y-84712928D01*
X232006000Y-84712928D01*
X231881518Y-84725188D01*
X231761820Y-84761498D01*
X231651506Y-84820463D01*
X231554815Y-84899815D01*
X231475463Y-84996506D01*
X231416498Y-85106820D01*
X231380188Y-85226518D01*
X231367928Y-85351000D01*
X231367928Y-87051000D01*
X231380188Y-87175482D01*
X231416498Y-87295180D01*
X231475463Y-87405494D01*
X231554815Y-87502185D01*
X231651506Y-87581537D01*
X231761820Y-87640502D01*
X231881518Y-87676812D01*
X232006000Y-87689072D01*
X233706000Y-87689072D01*
X233830482Y-87676812D01*
X233950180Y-87640502D01*
X234060494Y-87581537D01*
X234157185Y-87502185D01*
X234236537Y-87405494D01*
X234295502Y-87295180D01*
X234316393Y-87226313D01*
X234340866Y-87256134D01*
X234441451Y-87338682D01*
X232572133Y-89208000D01*
X229276018Y-89208000D01*
X229235000Y-89203960D01*
X229071311Y-89220082D01*
X228913913Y-89267828D01*
X228768854Y-89345364D01*
X228692532Y-89408000D01*
X228641709Y-89449709D01*
X228615563Y-89481568D01*
X226768574Y-91328559D01*
X226736710Y-91354709D01*
X226679485Y-91424438D01*
X226632364Y-91481855D01*
X226554828Y-91626914D01*
X226507082Y-91784312D01*
X226490960Y-91948000D01*
X226495001Y-91989029D01*
X226495000Y-101494715D01*
X226412795Y-101617744D01*
X226334774Y-101806102D01*
X226295000Y-102006061D01*
X226295000Y-102209939D01*
X226334774Y-102409898D01*
X226412795Y-102598256D01*
X226526063Y-102767774D01*
X226670226Y-102911937D01*
X226839744Y-103025205D01*
X227028102Y-103103226D01*
X227228061Y-103143000D01*
X227295002Y-103143000D01*
X227295002Y-113154130D01*
X226789132Y-113660000D01*
X220832227Y-113660000D01*
X220795120Y-113604465D01*
X220600535Y-113409880D01*
X220371727Y-113256995D01*
X220294485Y-113225000D01*
X220371727Y-113193005D01*
X220600535Y-113040120D01*
X220795120Y-112845535D01*
X220948005Y-112616727D01*
X221053314Y-112362490D01*
X221107000Y-112092592D01*
X221107000Y-111817408D01*
X221053314Y-111547510D01*
X220948005Y-111293273D01*
X220795120Y-111064465D01*
X220600535Y-110869880D01*
X220371727Y-110716995D01*
X220294485Y-110685000D01*
X220371727Y-110653005D01*
X220600535Y-110500120D01*
X220795120Y-110305535D01*
X220948005Y-110076727D01*
X221053314Y-109822490D01*
X221107000Y-109552592D01*
X221107000Y-109277408D01*
X221053314Y-109007510D01*
X220948005Y-108753273D01*
X220795120Y-108524465D01*
X220600535Y-108329880D01*
X220371727Y-108176995D01*
X220294485Y-108145000D01*
X220371727Y-108113005D01*
X220600535Y-107960120D01*
X220795120Y-107765535D01*
X220948005Y-107536727D01*
X221053314Y-107282490D01*
X221107000Y-107012592D01*
X221107000Y-106737408D01*
X221053314Y-106467510D01*
X220948005Y-106213273D01*
X220795120Y-105984465D01*
X220600535Y-105789880D01*
X220371727Y-105636995D01*
X220294485Y-105605000D01*
X220371727Y-105573005D01*
X220600535Y-105420120D01*
X220795120Y-105225535D01*
X220903808Y-105062872D01*
X222555000Y-105062872D01*
X222555000Y-105503128D01*
X222640890Y-105934925D01*
X222809369Y-106341669D01*
X223053962Y-106707729D01*
X223365271Y-107019038D01*
X223731331Y-107263631D01*
X224138075Y-107432110D01*
X224569872Y-107518000D01*
X225010128Y-107518000D01*
X225441925Y-107432110D01*
X225848669Y-107263631D01*
X226214729Y-107019038D01*
X226526038Y-106707729D01*
X226770631Y-106341669D01*
X226939110Y-105934925D01*
X227025000Y-105503128D01*
X227025000Y-105062872D01*
X226939110Y-104631075D01*
X226770631Y-104224331D01*
X226526038Y-103858271D01*
X226214729Y-103546962D01*
X225848669Y-103302369D01*
X225441925Y-103133890D01*
X225010128Y-103048000D01*
X224569872Y-103048000D01*
X224138075Y-103133890D01*
X223731331Y-103302369D01*
X223365271Y-103546962D01*
X223053962Y-103858271D01*
X222809369Y-104224331D01*
X222640890Y-104631075D01*
X222555000Y-105062872D01*
X220903808Y-105062872D01*
X220948005Y-104996727D01*
X221053314Y-104742490D01*
X221107000Y-104472592D01*
X221107000Y-104197408D01*
X221053314Y-103927510D01*
X220948005Y-103673273D01*
X220795120Y-103444465D01*
X220600535Y-103249880D01*
X220371727Y-103096995D01*
X220294485Y-103065000D01*
X220371727Y-103033005D01*
X220600535Y-102880120D01*
X220795120Y-102685535D01*
X220948005Y-102456727D01*
X221053314Y-102202490D01*
X221107000Y-101932592D01*
X221107000Y-101657408D01*
X221085498Y-101549312D01*
X221216294Y-101794014D01*
X221401866Y-102020134D01*
X221627986Y-102205706D01*
X221885966Y-102343599D01*
X222165889Y-102428513D01*
X222384050Y-102450000D01*
X222529950Y-102450000D01*
X222748111Y-102428513D01*
X223028034Y-102343599D01*
X223286014Y-102205706D01*
X223512134Y-102020134D01*
X223697706Y-101794014D01*
X223835599Y-101536034D01*
X223920513Y-101256111D01*
X223949185Y-100965000D01*
X223920513Y-100673889D01*
X223835599Y-100393966D01*
X223697706Y-100135986D01*
X223512134Y-99909866D01*
X223286014Y-99724294D01*
X223231209Y-99695000D01*
X223286014Y-99665706D01*
X223512134Y-99480134D01*
X223697706Y-99254014D01*
X223835599Y-98996034D01*
X223920513Y-98716111D01*
X223949185Y-98425000D01*
X223920513Y-98133889D01*
X223835599Y-97853966D01*
X223697706Y-97595986D01*
X223512134Y-97369866D01*
X223286014Y-97184294D01*
X223231209Y-97155000D01*
X223286014Y-97125706D01*
X223512134Y-96940134D01*
X223697706Y-96714014D01*
X223835599Y-96456034D01*
X223920513Y-96176111D01*
X223949185Y-95885000D01*
X223920513Y-95593889D01*
X223835599Y-95313966D01*
X223697706Y-95055986D01*
X223512134Y-94829866D01*
X223286014Y-94644294D01*
X223231209Y-94615000D01*
X223286014Y-94585706D01*
X223512134Y-94400134D01*
X223697706Y-94174014D01*
X223835599Y-93916034D01*
X223920513Y-93636111D01*
X223949185Y-93345000D01*
X223920513Y-93053889D01*
X223835599Y-92773966D01*
X223697706Y-92515986D01*
X223512134Y-92289866D01*
X223482313Y-92265393D01*
X223551180Y-92244502D01*
X223661494Y-92185537D01*
X223758185Y-92106185D01*
X223837537Y-92009494D01*
X223896502Y-91899180D01*
X223932812Y-91779482D01*
X223945072Y-91655000D01*
X223945072Y-89955000D01*
X223932812Y-89830518D01*
X223896502Y-89710820D01*
X223837537Y-89600506D01*
X223758185Y-89503815D01*
X223661494Y-89424463D01*
X223551180Y-89365498D01*
X223431482Y-89329188D01*
X223307000Y-89316928D01*
X221607000Y-89316928D01*
X221482518Y-89329188D01*
X221362820Y-89365498D01*
X221252506Y-89424463D01*
X221155815Y-89503815D01*
X221076463Y-89600506D01*
X221017498Y-89710820D01*
X220981188Y-89830518D01*
X220968928Y-89955000D01*
X220968928Y-91023785D01*
X220948005Y-90973273D01*
X220795120Y-90744465D01*
X220600535Y-90549880D01*
X220371727Y-90396995D01*
X220300057Y-90367308D01*
X220313023Y-90362636D01*
X220428980Y-90300656D01*
X220495960Y-90060565D01*
X219710000Y-89274605D01*
X218924040Y-90060565D01*
X218991020Y-90300656D01*
X219126760Y-90364485D01*
X219048273Y-90396995D01*
X218819465Y-90549880D01*
X218624880Y-90744465D01*
X218471995Y-90973273D01*
X218366686Y-91227510D01*
X218313000Y-91497408D01*
X214142000Y-91497408D01*
X214142000Y-89167017D01*
X218308090Y-89167017D01*
X218349078Y-89439133D01*
X218442364Y-89698023D01*
X218504344Y-89813980D01*
X218744435Y-89880960D01*
X219530395Y-89095000D01*
X219889605Y-89095000D01*
X220675565Y-89880960D01*
X220915656Y-89813980D01*
X221032756Y-89564952D01*
X221099023Y-89297865D01*
X221111910Y-89022983D01*
X221070922Y-88750867D01*
X220977636Y-88491977D01*
X220915656Y-88376020D01*
X220675565Y-88309040D01*
X219889605Y-89095000D01*
X219530395Y-89095000D01*
X218744435Y-88309040D01*
X218504344Y-88376020D01*
X218387244Y-88625048D01*
X218320977Y-88892135D01*
X218308090Y-89167017D01*
X214142000Y-89167017D01*
X214142000Y-86417408D01*
X218313000Y-86417408D01*
X218313000Y-86692592D01*
X218366686Y-86962490D01*
X218471995Y-87216727D01*
X218624880Y-87445535D01*
X218819465Y-87640120D01*
X219048273Y-87793005D01*
X219119943Y-87822692D01*
X219106977Y-87827364D01*
X218991020Y-87889344D01*
X218924040Y-88129435D01*
X219710000Y-88915395D01*
X220495960Y-88129435D01*
X220428980Y-87889344D01*
X220293240Y-87825515D01*
X220371727Y-87793005D01*
X220600535Y-87640120D01*
X220795120Y-87445535D01*
X220948005Y-87216727D01*
X221053314Y-86962490D01*
X221107000Y-86692592D01*
X221107000Y-86417408D01*
X221053314Y-86147510D01*
X220948005Y-85893273D01*
X220795120Y-85664465D01*
X220600535Y-85469880D01*
X220371727Y-85316995D01*
X220117490Y-85211686D01*
X219847592Y-85158000D01*
X219572408Y-85158000D01*
X219302510Y-85211686D01*
X219048273Y-85316995D01*
X218819465Y-85469880D01*
X218624880Y-85664465D01*
X218471995Y-85893273D01*
X218366686Y-86147510D01*
X218313000Y-86417408D01*
X214142000Y-86417408D01*
X214142000Y-82575061D01*
X247758000Y-82575061D01*
X247758000Y-82778939D01*
X247797774Y-82978898D01*
X247875795Y-83167256D01*
X247989063Y-83336774D01*
X248133226Y-83480937D01*
X248302744Y-83594205D01*
X248491102Y-83672226D01*
X248691061Y-83712000D01*
X248894939Y-83712000D01*
X249094898Y-83672226D01*
X249283256Y-83594205D01*
X249406285Y-83512000D01*
X255559132Y-83512000D01*
X255705000Y-83657868D01*
X255705001Y-84857714D01*
X255622795Y-84980744D01*
X255544774Y-85169102D01*
X255505000Y-85369061D01*
X255505000Y-85572939D01*
X255544774Y-85772898D01*
X255622795Y-85961256D01*
X255736063Y-86130774D01*
X255880226Y-86274937D01*
X256049744Y-86388205D01*
X256238102Y-86466226D01*
X256438061Y-86506000D01*
X256641939Y-86506000D01*
X256841898Y-86466226D01*
X257030256Y-86388205D01*
X257199774Y-86274937D01*
X257343937Y-86130774D01*
X257457205Y-85961256D01*
X257535226Y-85772898D01*
X257575000Y-85572939D01*
X257575000Y-85369061D01*
X257535226Y-85169102D01*
X257457205Y-84980744D01*
X257375000Y-84857715D01*
X257375000Y-83353018D01*
X257379040Y-83312000D01*
X257362918Y-83148312D01*
X257335523Y-83058000D01*
X257315172Y-82990913D01*
X257237636Y-82845854D01*
X257196481Y-82795706D01*
X257159439Y-82750570D01*
X257159437Y-82750568D01*
X257133291Y-82718709D01*
X257101432Y-82692564D01*
X256524445Y-82115578D01*
X256498291Y-82083709D01*
X256371146Y-81979364D01*
X256226087Y-81901828D01*
X256068689Y-81854082D01*
X255946019Y-81842000D01*
X255946018Y-81842000D01*
X255905000Y-81837960D01*
X255863982Y-81842000D01*
X249406285Y-81842000D01*
X249283256Y-81759795D01*
X249094898Y-81681774D01*
X248894939Y-81642000D01*
X248691061Y-81642000D01*
X248491102Y-81681774D01*
X248302744Y-81759795D01*
X248133226Y-81873063D01*
X247989063Y-82017226D01*
X247875795Y-82186744D01*
X247797774Y-82375102D01*
X247758000Y-82575061D01*
X214142000Y-82575061D01*
X214142000Y-77199072D01*
X214681000Y-77199072D01*
X214681000Y-77639328D01*
X214766890Y-78071125D01*
X214935369Y-78477869D01*
X215179962Y-78843929D01*
X215491271Y-79155238D01*
X215857331Y-79399831D01*
X216264075Y-79568310D01*
X216695872Y-79654200D01*
X217136128Y-79654200D01*
X217567925Y-79568310D01*
X217974669Y-79399831D01*
X218340729Y-79155238D01*
X218652038Y-78843929D01*
X218896631Y-78477869D01*
X219065110Y-78071125D01*
X219151000Y-77639328D01*
X219151000Y-77199072D01*
X219065110Y-76767275D01*
X218896631Y-76360531D01*
X218652038Y-75994471D01*
X218340729Y-75683162D01*
X217974669Y-75438569D01*
X217567925Y-75270090D01*
X217136128Y-75184200D01*
X216695872Y-75184200D01*
X216264075Y-75270090D01*
X215857331Y-75438569D01*
X215491271Y-75683162D01*
X215179962Y-75994471D01*
X214935369Y-76360531D01*
X214766890Y-76767275D01*
X214681000Y-77199072D01*
X214142000Y-77199072D01*
X214142000Y-75838736D01*
X215740737Y-74240000D01*
X254983356Y-74240000D01*
X254811531Y-74411825D01*
X254811531Y-74411825D01*
G37*
X254811531Y-74411825D02*
X254774893Y-74441893D01*
X254654927Y-74588072D01*
X254565784Y-74754847D01*
X254510890Y-74935808D01*
X254497000Y-75076839D01*
X254497000Y-75076848D01*
X254492356Y-75124000D01*
X254497000Y-75171152D01*
X254497001Y-76421791D01*
X254401866Y-76499866D01*
X254216294Y-76725986D01*
X254078401Y-76983966D01*
X253993487Y-77263889D01*
X253964815Y-77555000D01*
X253993487Y-77846111D01*
X254078401Y-78126034D01*
X254216294Y-78384014D01*
X254401866Y-78610134D01*
X254431687Y-78634607D01*
X254362820Y-78655498D01*
X254252506Y-78714463D01*
X254155815Y-78793815D01*
X254076463Y-78890506D01*
X254017498Y-79000820D01*
X253981188Y-79120518D01*
X253968928Y-79245000D01*
X253968928Y-80945000D01*
X253981188Y-81069482D01*
X254017498Y-81189180D01*
X254076463Y-81299494D01*
X254155815Y-81396185D01*
X254252506Y-81475537D01*
X254362820Y-81534502D01*
X254482518Y-81570812D01*
X254607000Y-81583072D01*
X256307000Y-81583072D01*
X256431482Y-81570812D01*
X256551180Y-81534502D01*
X256661494Y-81475537D01*
X256758185Y-81396185D01*
X256837537Y-81299494D01*
X256896502Y-81189180D01*
X256932812Y-81069482D01*
X256934004Y-81057379D01*
X256957000Y-81059644D01*
X257004152Y-81055000D01*
X257004162Y-81055000D01*
X257145193Y-81041110D01*
X257326154Y-80986216D01*
X257492928Y-80897073D01*
X257639107Y-80777107D01*
X257669175Y-80740469D01*
X258328474Y-80081171D01*
X258365107Y-80051107D01*
X258395171Y-80014474D01*
X258485073Y-79904929D01*
X258574216Y-79738154D01*
X258599683Y-79654200D01*
X258629110Y-79557193D01*
X258643000Y-79416162D01*
X258643000Y-79416153D01*
X258647644Y-79369001D01*
X258643000Y-79321849D01*
X258643000Y-76470644D01*
X258881635Y-76232010D01*
X259182385Y-76232010D01*
X259155815Y-76253815D01*
X259076463Y-76350506D01*
X259017498Y-76460820D01*
X258981188Y-76580518D01*
X258968928Y-76705000D01*
X258968928Y-78405000D01*
X258981188Y-78529482D01*
X259017498Y-78649180D01*
X259076463Y-78759494D01*
X259155815Y-78856185D01*
X259252506Y-78935537D01*
X259362820Y-78994502D01*
X259431687Y-79015393D01*
X259401866Y-79039866D01*
X259216294Y-79265986D01*
X259078401Y-79523966D01*
X258993487Y-79803889D01*
X258964815Y-80095000D01*
X258993487Y-80386111D01*
X259078401Y-80666034D01*
X259216294Y-80924014D01*
X259401866Y-81150134D01*
X259497000Y-81228209D01*
X259497001Y-85276838D01*
X259492356Y-85324000D01*
X259497001Y-85371162D01*
X259510022Y-85503364D01*
X259510891Y-85512192D01*
X259565784Y-85693153D01*
X259654927Y-85859928D01*
X259744829Y-85969473D01*
X259774894Y-86006107D01*
X259811526Y-86036170D01*
X261415829Y-87640474D01*
X261445893Y-87677107D01*
X261482526Y-87707171D01*
X261592071Y-87797073D01*
X261758605Y-87886087D01*
X261758846Y-87886216D01*
X261939807Y-87941110D01*
X262080838Y-87955000D01*
X262080840Y-87955000D01*
X262128000Y-87959645D01*
X262175160Y-87955000D01*
X268360791Y-87955000D01*
X268438866Y-88050134D01*
X268664986Y-88235706D01*
X268729523Y-88270201D01*
X268612645Y-88339822D01*
X268396412Y-88534731D01*
X268222359Y-88768080D01*
X268097175Y-89030901D01*
X268052524Y-89178110D01*
X268173845Y-89408000D01*
X269367000Y-89408000D01*
X269367000Y-89388000D01*
X269621000Y-89388000D01*
X269621000Y-89408000D01*
X270814155Y-89408000D01*
X270935476Y-89178110D01*
X270890825Y-89030901D01*
X270765641Y-88768080D01*
X270591588Y-88534731D01*
X270375355Y-88339822D01*
X270258477Y-88270201D01*
X270323014Y-88235706D01*
X270549134Y-88050134D01*
X270734706Y-87824014D01*
X270872599Y-87566034D01*
X270957513Y-87286111D01*
X270986185Y-86995000D01*
X270957513Y-86703889D01*
X270872599Y-86423966D01*
X270734706Y-86165986D01*
X270549134Y-85939866D01*
X270323014Y-85754294D01*
X270065034Y-85616401D01*
X269785111Y-85531487D01*
X269566950Y-85510000D01*
X269421050Y-85510000D01*
X269202889Y-85531487D01*
X268922966Y-85616401D01*
X268664986Y-85754294D01*
X268438866Y-85939866D01*
X268360791Y-86035000D01*
X262525645Y-86035000D01*
X261417000Y-84926356D01*
X261417000Y-81228209D01*
X261512134Y-81150134D01*
X261697706Y-80924014D01*
X261835599Y-80666034D01*
X261920513Y-80386111D01*
X261949185Y-80095000D01*
X261920513Y-79803889D01*
X261835599Y-79523966D01*
X261697706Y-79265986D01*
X261512134Y-79039866D01*
X261482313Y-79015393D01*
X261551180Y-78994502D01*
X261661494Y-78935537D01*
X261758185Y-78856185D01*
X261837537Y-78759494D01*
X261896502Y-78649180D01*
X261932812Y-78529482D01*
X261945072Y-78405000D01*
X261945072Y-76866717D01*
X262057000Y-76978645D01*
X262057001Y-83010838D01*
X262052356Y-83058000D01*
X262057001Y-83105162D01*
X262070891Y-83246193D01*
X262078411Y-83270982D01*
X262125784Y-83427153D01*
X262214927Y-83593928D01*
X262304829Y-83703473D01*
X262334894Y-83740107D01*
X262371526Y-83770170D01*
X263701829Y-85100474D01*
X263731893Y-85137107D01*
X263768525Y-85167170D01*
X263878071Y-85257073D01*
X263936163Y-85288124D01*
X264044846Y-85346216D01*
X264225807Y-85401110D01*
X264366838Y-85415000D01*
X264366847Y-85415000D01*
X264413999Y-85419644D01*
X264461151Y-85415000D01*
X268853060Y-85415000D01*
X268938102Y-85450226D01*
X269138061Y-85490000D01*
X269341939Y-85490000D01*
X269541898Y-85450226D01*
X269730256Y-85372205D01*
X269899774Y-85258937D01*
X270043937Y-85114774D01*
X270157205Y-84945256D01*
X270235226Y-84756898D01*
X270275000Y-84556939D01*
X270275000Y-84353061D01*
X270235226Y-84153102D01*
X270157205Y-83964744D01*
X270043937Y-83795226D01*
X269899774Y-83651063D01*
X269730256Y-83537795D01*
X269541898Y-83459774D01*
X269341939Y-83420000D01*
X269138061Y-83420000D01*
X268938102Y-83459774D01*
X268853060Y-83495000D01*
X264811645Y-83495000D01*
X263977000Y-82660356D01*
X263977000Y-81678716D01*
X263993487Y-81846111D01*
X264078401Y-82126034D01*
X264216294Y-82384014D01*
X264401866Y-82610134D01*
X264627986Y-82795706D01*
X264885966Y-82933599D01*
X265165889Y-83018513D01*
X265384050Y-83040000D01*
X265529950Y-83040000D01*
X265748111Y-83018513D01*
X266028034Y-82933599D01*
X266286014Y-82795706D01*
X266512134Y-82610134D01*
X266697706Y-82384014D01*
X266835599Y-82126034D01*
X266920513Y-81846111D01*
X266949185Y-81555000D01*
X266920513Y-81263889D01*
X266835599Y-80983966D01*
X266697706Y-80725986D01*
X266512134Y-80499866D01*
X266286014Y-80314294D01*
X266231209Y-80285000D01*
X266286014Y-80255706D01*
X266512134Y-80070134D01*
X266697706Y-79844014D01*
X266835599Y-79586034D01*
X266920513Y-79306111D01*
X266949185Y-79015000D01*
X266920513Y-78723889D01*
X266835599Y-78443966D01*
X266697706Y-78185986D01*
X266512134Y-77959866D01*
X266484447Y-77937144D01*
X266492223Y-77935597D01*
X266607785Y-77887730D01*
X266711789Y-77818237D01*
X266800237Y-77729789D01*
X266849359Y-77656272D01*
X268529000Y-77656272D01*
X268529000Y-78096528D01*
X268614890Y-78528325D01*
X268783369Y-78935069D01*
X269027962Y-79301129D01*
X269339271Y-79612438D01*
X269705331Y-79857031D01*
X270112075Y-80025510D01*
X270543872Y-80111400D01*
X270984128Y-80111400D01*
X271415925Y-80025510D01*
X271822669Y-79857031D01*
X272188729Y-79612438D01*
X272500038Y-79301129D01*
X272744631Y-78935069D01*
X272913110Y-78528325D01*
X272999000Y-78096528D01*
X272999000Y-77656272D01*
X272913110Y-77224475D01*
X272744631Y-76817731D01*
X272500038Y-76451671D01*
X272188729Y-76140362D01*
X271822669Y-75895769D01*
X271415925Y-75727290D01*
X270984128Y-75641400D01*
X270543872Y-75641400D01*
X270112075Y-75727290D01*
X269705331Y-75895769D01*
X269339271Y-76140362D01*
X269027962Y-76451671D01*
X268783369Y-76817731D01*
X268614890Y-77224475D01*
X268529000Y-77656272D01*
X266849359Y-77656272D01*
X266869730Y-77625785D01*
X266917597Y-77510223D01*
X266942000Y-77387542D01*
X266942000Y-76760750D01*
X266783250Y-76602000D01*
X265584000Y-76602000D01*
X265584000Y-76622000D01*
X265330000Y-76622000D01*
X265330000Y-76602000D01*
X264130750Y-76602000D01*
X263977000Y-76755750D01*
X263977000Y-76628151D01*
X263981644Y-76580999D01*
X263977000Y-76533847D01*
X263977000Y-76533838D01*
X263963110Y-76392807D01*
X263908216Y-76211846D01*
X263856717Y-76115498D01*
X263819073Y-76045071D01*
X263729170Y-75935525D01*
X263699107Y-75898893D01*
X263662474Y-75868829D01*
X263175645Y-75382000D01*
X264020335Y-75382000D01*
X263996403Y-75439777D01*
X263972000Y-75562458D01*
X263972000Y-76189250D01*
X264130750Y-76348000D01*
X265330000Y-76348000D01*
X265330000Y-76328000D01*
X265584000Y-76328000D01*
X265584000Y-76348000D01*
X266783250Y-76348000D01*
X266942000Y-76189250D01*
X266942000Y-75562458D01*
X266917597Y-75439777D01*
X266893665Y-75382000D01*
X271356034Y-75382000D01*
X271403186Y-75386644D01*
X271450338Y-75382000D01*
X271450348Y-75382000D01*
X271591379Y-75368110D01*
X271772340Y-75313216D01*
X271939114Y-75224073D01*
X272085293Y-75104107D01*
X272115361Y-75067469D01*
X272117820Y-75065010D01*
X272970366Y-75065010D01*
X273995001Y-76089646D01*
X273995000Y-79919001D01*
X273957998Y-79915357D01*
X273910846Y-79920001D01*
X273910837Y-79920001D01*
X273769806Y-79933891D01*
X273588845Y-79988785D01*
X273422071Y-80077928D01*
X273275892Y-80197894D01*
X273245824Y-80234532D01*
X273152787Y-80327569D01*
X273067744Y-80362795D01*
X272898226Y-80476063D01*
X272754063Y-80620226D01*
X272640795Y-80789744D01*
X272562774Y-80978102D01*
X272523000Y-81178061D01*
X272523000Y-81381939D01*
X272562774Y-81581898D01*
X272640795Y-81770256D01*
X272754063Y-81939774D01*
X272898226Y-82083937D01*
X273067744Y-82197205D01*
X273256102Y-82275226D01*
X273456061Y-82315000D01*
X273659939Y-82315000D01*
X273859898Y-82275226D01*
X274048256Y-82197205D01*
X274217774Y-82083937D01*
X274361937Y-81939774D01*
X274428603Y-81840001D01*
X274672847Y-81840001D01*
X274719999Y-81844645D01*
X274767151Y-81840001D01*
X274767161Y-81840001D01*
X274908192Y-81826111D01*
X275089153Y-81771217D01*
X275255927Y-81682074D01*
X275402106Y-81562108D01*
X275432174Y-81525470D01*
X275600469Y-81357175D01*
X275637107Y-81327107D01*
X275757073Y-81180928D01*
X275772001Y-81153000D01*
X275772000Y-110442148D01*
X275719679Y-110407188D01*
X275572268Y-110346128D01*
X275415778Y-110315000D01*
X275256222Y-110315000D01*
X275099732Y-110346128D01*
X274952321Y-110407188D01*
X274905791Y-110438278D01*
X274836345Y-110368832D01*
X274703679Y-110280188D01*
X274556268Y-110219128D01*
X274399778Y-110188000D01*
X274240222Y-110188000D01*
X274083732Y-110219128D01*
X273936321Y-110280188D01*
X273875500Y-110320827D01*
X273814679Y-110280188D01*
X273667268Y-110219128D01*
X273510778Y-110188000D01*
X273351222Y-110188000D01*
X273194732Y-110219128D01*
X273047321Y-110280188D01*
X272914655Y-110368832D01*
X272801832Y-110481655D01*
X272773656Y-110523823D01*
X272651268Y-110473128D01*
X272494778Y-110442000D01*
X272335222Y-110442000D01*
X272178732Y-110473128D01*
X272031321Y-110534188D01*
X271898655Y-110622832D01*
X271898000Y-110623487D01*
X271898000Y-101438793D01*
X272118134Y-101258134D01*
X272303706Y-101032014D01*
X272441599Y-100774034D01*
X272526513Y-100494111D01*
X272555185Y-100203000D01*
X272526513Y-99911889D01*
X272441599Y-99631966D01*
X272303706Y-99373986D01*
X272118134Y-99147866D01*
X271892014Y-98962294D01*
X271634034Y-98824401D01*
X271354111Y-98739487D01*
X271135950Y-98718000D01*
X270990050Y-98718000D01*
X270771889Y-98739487D01*
X270491966Y-98824401D01*
X270233986Y-98962294D01*
X270007866Y-99147866D01*
X269983393Y-99177687D01*
X269962502Y-99108820D01*
X269903537Y-98998506D01*
X269824185Y-98901815D01*
X269727494Y-98822463D01*
X269617180Y-98763498D01*
X269497482Y-98727188D01*
X269373000Y-98714928D01*
X267673000Y-98714928D01*
X267548518Y-98727188D01*
X267428820Y-98763498D01*
X267318506Y-98822463D01*
X267221815Y-98901815D01*
X267142463Y-98998506D01*
X267083498Y-99108820D01*
X267047188Y-99228518D01*
X267034928Y-99353000D01*
X267034928Y-99368000D01*
X265775867Y-99368000D01*
X265757000Y-99349133D01*
X265757000Y-97078018D01*
X265761040Y-97037000D01*
X265753603Y-96961487D01*
X265744918Y-96873311D01*
X265697172Y-96715913D01*
X265619636Y-96570854D01*
X265515291Y-96443709D01*
X265483426Y-96417558D01*
X265219445Y-96153578D01*
X265193291Y-96121709D01*
X265066146Y-96017364D01*
X264921087Y-95939828D01*
X264763689Y-95892082D01*
X264641019Y-95880000D01*
X264641018Y-95880000D01*
X264600000Y-95875960D01*
X264558982Y-95880000D01*
X251312227Y-95880000D01*
X251275120Y-95824465D01*
X251080535Y-95629880D01*
X250851727Y-95476995D01*
X250774485Y-95445000D01*
X250851727Y-95413005D01*
X251080535Y-95260120D01*
X251275120Y-95065535D01*
X251428005Y-94836727D01*
X251533314Y-94582490D01*
X251587000Y-94312592D01*
X251587000Y-94037408D01*
X251533314Y-93767510D01*
X251428005Y-93513273D01*
X251275120Y-93284465D01*
X251080535Y-93089880D01*
X250851727Y-92936995D01*
X250774485Y-92905000D01*
X250851727Y-92873005D01*
X251080535Y-92720120D01*
X251275120Y-92525535D01*
X251389695Y-92354061D01*
X263506000Y-92354061D01*
X263506000Y-92557939D01*
X263545774Y-92757898D01*
X263623795Y-92946256D01*
X263737063Y-93115774D01*
X263881226Y-93259937D01*
X264050744Y-93373205D01*
X264239102Y-93451226D01*
X264439061Y-93491000D01*
X264642939Y-93491000D01*
X264842898Y-93451226D01*
X265031256Y-93373205D01*
X265154285Y-93291000D01*
X265865001Y-93291000D01*
X265865000Y-94382715D01*
X265782795Y-94505744D01*
X265704774Y-94694102D01*
X265665000Y-94894061D01*
X265665000Y-95097939D01*
X265704774Y-95297898D01*
X265782795Y-95486256D01*
X265896063Y-95655774D01*
X266040226Y-95799937D01*
X266209744Y-95913205D01*
X266398102Y-95991226D01*
X266598061Y-96031000D01*
X266801939Y-96031000D01*
X267001898Y-95991226D01*
X267190256Y-95913205D01*
X267359774Y-95799937D01*
X267503937Y-95655774D01*
X267617205Y-95486256D01*
X267695226Y-95297898D01*
X267735000Y-95097939D01*
X267735000Y-94894061D01*
X267695226Y-94694102D01*
X267617205Y-94505744D01*
X267535000Y-94382715D01*
X267535000Y-92878007D01*
X267539039Y-92836999D01*
X267535000Y-92795991D01*
X267535000Y-92795981D01*
X267522918Y-92673311D01*
X267475172Y-92515913D01*
X267397636Y-92370854D01*
X267293291Y-92243709D01*
X267261421Y-92217554D01*
X267118867Y-92075000D01*
X268001815Y-92075000D01*
X268030487Y-92366111D01*
X268115401Y-92646034D01*
X268253294Y-92904014D01*
X268438866Y-93130134D01*
X268664986Y-93315706D01*
X268719791Y-93345000D01*
X268664986Y-93374294D01*
X268438866Y-93559866D01*
X268253294Y-93785986D01*
X268115401Y-94043966D01*
X268030487Y-94323889D01*
X268001815Y-94615000D01*
X268030487Y-94906111D01*
X268115401Y-95186034D01*
X268253294Y-95444014D01*
X268438866Y-95670134D01*
X268468687Y-95694607D01*
X268399820Y-95715498D01*
X268289506Y-95774463D01*
X268192815Y-95853815D01*
X268113463Y-95950506D01*
X268054498Y-96060820D01*
X268018188Y-96180518D01*
X268005928Y-96305000D01*
X268005928Y-98005000D01*
X268018188Y-98129482D01*
X268054498Y-98249180D01*
X268113463Y-98359494D01*
X268192815Y-98456185D01*
X268289506Y-98535537D01*
X268399820Y-98594502D01*
X268519518Y-98630812D01*
X268644000Y-98643072D01*
X270344000Y-98643072D01*
X270468482Y-98630812D01*
X270588180Y-98594502D01*
X270698494Y-98535537D01*
X270795185Y-98456185D01*
X270874537Y-98359494D01*
X270933502Y-98249180D01*
X270969812Y-98129482D01*
X270982072Y-98005000D01*
X270982072Y-96305000D01*
X270969812Y-96180518D01*
X270933502Y-96060820D01*
X270874537Y-95950506D01*
X270795185Y-95853815D01*
X270698494Y-95774463D01*
X270588180Y-95715498D01*
X270519313Y-95694607D01*
X270549134Y-95670134D01*
X270734706Y-95444014D01*
X270872599Y-95186034D01*
X270957513Y-94906111D01*
X270986185Y-94615000D01*
X270957513Y-94323889D01*
X270872599Y-94043966D01*
X270734706Y-93785986D01*
X270549134Y-93559866D01*
X270323014Y-93374294D01*
X270268209Y-93345000D01*
X270323014Y-93315706D01*
X270549134Y-93130134D01*
X270734706Y-92904014D01*
X270771595Y-92835000D01*
X271719199Y-92835000D01*
X271909001Y-93024803D01*
X271909000Y-97467289D01*
X271865063Y-97511226D01*
X271751795Y-97680744D01*
X271673774Y-97869102D01*
X271634000Y-98069061D01*
X271634000Y-98272939D01*
X271673774Y-98472898D01*
X271751795Y-98661256D01*
X271865063Y-98830774D01*
X272009226Y-98974937D01*
X272178744Y-99088205D01*
X272367102Y-99166226D01*
X272567061Y-99206000D01*
X272770939Y-99206000D01*
X272970898Y-99166226D01*
X273159256Y-99088205D01*
X273328774Y-98974937D01*
X273472937Y-98830774D01*
X273586205Y-98661256D01*
X273664226Y-98472898D01*
X273704000Y-98272939D01*
X273704000Y-98069061D01*
X273664226Y-97869102D01*
X273586205Y-97680744D01*
X273472937Y-97511226D01*
X273429000Y-97467289D01*
X273429000Y-92747333D01*
X273432677Y-92710000D01*
X273418003Y-92561014D01*
X273374546Y-92417753D01*
X273303974Y-92285724D01*
X273232799Y-92198997D01*
X273209001Y-92169999D01*
X273180002Y-92146200D01*
X272597803Y-91564002D01*
X272574001Y-91534999D01*
X272458276Y-91440026D01*
X272326247Y-91369454D01*
X272182986Y-91325997D01*
X272071333Y-91315000D01*
X272071322Y-91315000D01*
X272034000Y-91311324D01*
X271996678Y-91315000D01*
X270771595Y-91315000D01*
X270734706Y-91245986D01*
X270549134Y-91019866D01*
X270323014Y-90834294D01*
X270258477Y-90799799D01*
X270375355Y-90730178D01*
X270591588Y-90535269D01*
X270765641Y-90301920D01*
X270890825Y-90039099D01*
X270935476Y-89891890D01*
X270814155Y-89662000D01*
X269621000Y-89662000D01*
X269621000Y-89682000D01*
X269367000Y-89682000D01*
X269367000Y-89662000D01*
X268173845Y-89662000D01*
X268052524Y-89891890D01*
X268097175Y-90039099D01*
X268222359Y-90301920D01*
X268396412Y-90535269D01*
X268612645Y-90730178D01*
X268729523Y-90799799D01*
X268664986Y-90834294D01*
X268438866Y-91019866D01*
X268253294Y-91245986D01*
X268115401Y-91503966D01*
X268030487Y-91783889D01*
X268001815Y-92075000D01*
X267118867Y-92075000D01*
X266938446Y-91894579D01*
X266912291Y-91862709D01*
X266785146Y-91758364D01*
X266640087Y-91680828D01*
X266482689Y-91633082D01*
X266360019Y-91621000D01*
X266360018Y-91621000D01*
X266319000Y-91616960D01*
X266277982Y-91621000D01*
X265154285Y-91621000D01*
X265031256Y-91538795D01*
X264842898Y-91460774D01*
X264642939Y-91421000D01*
X264439061Y-91421000D01*
X264239102Y-91460774D01*
X264050744Y-91538795D01*
X263881226Y-91652063D01*
X263737063Y-91796226D01*
X263623795Y-91965744D01*
X263545774Y-92154102D01*
X263506000Y-92354061D01*
X251389695Y-92354061D01*
X251428005Y-92296727D01*
X251533314Y-92042490D01*
X251587000Y-91772592D01*
X251587000Y-91497408D01*
X251533314Y-91227510D01*
X251428005Y-90973273D01*
X251275120Y-90744465D01*
X251080535Y-90549880D01*
X250851727Y-90396995D01*
X250774485Y-90365000D01*
X250851727Y-90333005D01*
X251080535Y-90180120D01*
X251275120Y-89985535D01*
X251428005Y-89756727D01*
X251533314Y-89502490D01*
X251587000Y-89232592D01*
X251587000Y-88957408D01*
X251533314Y-88687510D01*
X251428005Y-88433273D01*
X251275120Y-88204465D01*
X251080535Y-88009880D01*
X250851727Y-87856995D01*
X250774485Y-87825000D01*
X250851727Y-87793005D01*
X251080535Y-87640120D01*
X251275120Y-87445535D01*
X251428005Y-87216727D01*
X251533314Y-86962490D01*
X251587000Y-86692592D01*
X251587000Y-86417408D01*
X251533314Y-86147510D01*
X251428005Y-85893273D01*
X251275120Y-85664465D01*
X251080535Y-85469880D01*
X250851727Y-85316995D01*
X250597490Y-85211686D01*
X250327592Y-85158000D01*
X250052408Y-85158000D01*
X249782510Y-85211686D01*
X249528273Y-85316995D01*
X249299465Y-85469880D01*
X249104880Y-85664465D01*
X248951995Y-85893273D01*
X248846686Y-86147510D01*
X248793000Y-86417408D01*
X248793000Y-86692592D01*
X248846686Y-86962490D01*
X248951995Y-87216727D01*
X249104880Y-87445535D01*
X249299465Y-87640120D01*
X249528273Y-87793005D01*
X249605515Y-87825000D01*
X249528273Y-87856995D01*
X249299465Y-88009880D01*
X249104880Y-88204465D01*
X248951995Y-88433273D01*
X248846686Y-88687510D01*
X248793000Y-88957408D01*
X248793000Y-89232592D01*
X248846686Y-89502490D01*
X248951995Y-89756727D01*
X249104880Y-89985535D01*
X249299465Y-90180120D01*
X249528273Y-90333005D01*
X249605515Y-90365000D01*
X249528273Y-90396995D01*
X249299465Y-90549880D01*
X249104880Y-90744465D01*
X248951995Y-90973273D01*
X248846686Y-91227510D01*
X248793000Y-91497408D01*
X248793000Y-91772592D01*
X248846686Y-92042490D01*
X248951995Y-92296727D01*
X249104880Y-92525535D01*
X249299465Y-92720120D01*
X249528273Y-92873005D01*
X249605515Y-92905000D01*
X249528273Y-92936995D01*
X249299465Y-93089880D01*
X249104880Y-93284465D01*
X248951995Y-93513273D01*
X248846686Y-93767510D01*
X248793000Y-94037408D01*
X248793000Y-94312592D01*
X248846686Y-94582490D01*
X248951995Y-94836727D01*
X249104880Y-95065535D01*
X249299465Y-95260120D01*
X249528273Y-95413005D01*
X249605515Y-95445000D01*
X249528273Y-95476995D01*
X249299465Y-95629880D01*
X249104880Y-95824465D01*
X248951995Y-96053273D01*
X248846686Y-96307510D01*
X248793000Y-96577408D01*
X248793000Y-96852592D01*
X248846686Y-97122490D01*
X248951995Y-97376727D01*
X249104880Y-97605535D01*
X249299465Y-97800120D01*
X249528273Y-97953005D01*
X249605515Y-97985000D01*
X249528273Y-98016995D01*
X249299465Y-98169880D01*
X249104880Y-98364465D01*
X248951995Y-98593273D01*
X248846686Y-98847510D01*
X248793000Y-99117408D01*
X248793000Y-99392592D01*
X248846686Y-99662490D01*
X248951995Y-99916727D01*
X249104880Y-100145535D01*
X249299465Y-100340120D01*
X249528273Y-100493005D01*
X249605515Y-100525000D01*
X249528273Y-100556995D01*
X249299465Y-100709880D01*
X249104880Y-100904465D01*
X248951995Y-101133273D01*
X248846686Y-101387510D01*
X248793000Y-101657408D01*
X248793000Y-101932592D01*
X248846686Y-102202490D01*
X248951995Y-102456727D01*
X249104880Y-102685535D01*
X249299465Y-102880120D01*
X249528273Y-103033005D01*
X249605515Y-103065000D01*
X249528273Y-103096995D01*
X249299465Y-103249880D01*
X249104880Y-103444465D01*
X248951995Y-103673273D01*
X248846686Y-103927510D01*
X248793000Y-104197408D01*
X248793000Y-104472592D01*
X248846686Y-104742490D01*
X248951995Y-104996727D01*
X249104880Y-105225535D01*
X249299465Y-105420120D01*
X249528273Y-105573005D01*
X249605515Y-105605000D01*
X249528273Y-105636995D01*
X249299465Y-105789880D01*
X249104880Y-105984465D01*
X248951995Y-106213273D01*
X248846686Y-106467510D01*
X248793000Y-106737408D01*
X248793000Y-107012592D01*
X248846686Y-107282490D01*
X248951995Y-107536727D01*
X249104880Y-107765535D01*
X249299465Y-107960120D01*
X249528273Y-108113005D01*
X249605515Y-108145000D01*
X249528273Y-108176995D01*
X249299465Y-108329880D01*
X249104880Y-108524465D01*
X248951995Y-108753273D01*
X248846686Y-109007510D01*
X248793000Y-109277408D01*
X248793000Y-109552592D01*
X248846686Y-109822490D01*
X248951995Y-110076727D01*
X249104880Y-110305535D01*
X249299465Y-110500120D01*
X249528273Y-110653005D01*
X249605515Y-110685000D01*
X249528273Y-110716995D01*
X249299465Y-110869880D01*
X249104880Y-111064465D01*
X248951995Y-111293273D01*
X248846686Y-111547510D01*
X248793000Y-111817408D01*
X248793000Y-112092592D01*
X248846686Y-112362490D01*
X248951995Y-112616727D01*
X249104880Y-112845535D01*
X249299465Y-113040120D01*
X249528273Y-113193005D01*
X249605515Y-113225000D01*
X249528273Y-113256995D01*
X249299465Y-113409880D01*
X249104880Y-113604465D01*
X248951995Y-113833273D01*
X248846686Y-114087510D01*
X248793000Y-114357408D01*
X248793000Y-114632592D01*
X248846686Y-114902490D01*
X248951995Y-115156727D01*
X249104880Y-115385535D01*
X249299465Y-115580120D01*
X249528273Y-115733005D01*
X249605515Y-115765000D01*
X249528273Y-115796995D01*
X249299465Y-115949880D01*
X249104880Y-116144465D01*
X248951995Y-116373273D01*
X248846686Y-116627510D01*
X248793000Y-116897408D01*
X248793000Y-117172592D01*
X248846686Y-117442490D01*
X248951995Y-117696727D01*
X249104880Y-117925535D01*
X249299465Y-118120120D01*
X249528273Y-118273005D01*
X249605515Y-118305000D01*
X249528273Y-118336995D01*
X249299465Y-118489880D01*
X249104880Y-118684465D01*
X248951995Y-118913273D01*
X248846686Y-119167510D01*
X248793000Y-119437408D01*
X248793000Y-119712592D01*
X248846686Y-119982490D01*
X248951995Y-120236727D01*
X249104880Y-120465535D01*
X249299465Y-120660120D01*
X249528273Y-120813005D01*
X249605515Y-120845000D01*
X249528273Y-120876995D01*
X249299465Y-121029880D01*
X249104880Y-121224465D01*
X248951995Y-121453273D01*
X248846686Y-121707510D01*
X248793000Y-121977408D01*
X248793000Y-122252592D01*
X248846686Y-122522490D01*
X248951995Y-122776727D01*
X249104880Y-123005535D01*
X249299465Y-123200120D01*
X249528273Y-123353005D01*
X249605515Y-123385000D01*
X249528273Y-123416995D01*
X249299465Y-123569880D01*
X249104880Y-123764465D01*
X248951995Y-123993273D01*
X248846686Y-124247510D01*
X248793000Y-124517408D01*
X248793000Y-124792592D01*
X248846686Y-125062490D01*
X248951995Y-125316727D01*
X249104880Y-125545535D01*
X249299465Y-125740120D01*
X249528273Y-125893005D01*
X249782510Y-125998314D01*
X250052408Y-126052000D01*
X250327592Y-126052000D01*
X250597490Y-125998314D01*
X250851727Y-125893005D01*
X251080535Y-125740120D01*
X251205655Y-125615000D01*
X253788356Y-125615000D01*
X254802828Y-126629473D01*
X254832893Y-126666107D01*
X254869526Y-126696171D01*
X254979071Y-126786073D01*
X255145846Y-126875216D01*
X255326807Y-126930110D01*
X255467838Y-126944000D01*
X255467840Y-126944000D01*
X255515000Y-126948645D01*
X255562160Y-126944000D01*
X264652356Y-126944000D01*
X265105001Y-127396645D01*
X265105001Y-127472023D01*
X265064520Y-127521349D01*
X265021307Y-127457275D01*
X264848474Y-127285922D01*
X264645533Y-127151579D01*
X264420282Y-127059409D01*
X264382609Y-127055538D01*
X264192000Y-127180269D01*
X264192000Y-128397000D01*
X264212000Y-128397000D01*
X264212000Y-128651000D01*
X264192000Y-128651000D01*
X264192000Y-129867731D01*
X264382609Y-129992462D01*
X264420282Y-129988591D01*
X264645533Y-129896421D01*
X264848474Y-129762078D01*
X265021307Y-129590725D01*
X265064519Y-129526651D01*
X265103749Y-129574453D01*
X265118891Y-129728192D01*
X265173784Y-129909153D01*
X265262927Y-130075928D01*
X265352829Y-130185473D01*
X265382894Y-130222107D01*
X265419526Y-130252170D01*
X266241828Y-131074473D01*
X266271893Y-131111107D01*
X266308526Y-131141171D01*
X266418071Y-131231073D01*
X266503959Y-131276981D01*
X266584846Y-131320216D01*
X266765807Y-131375110D01*
X266906838Y-131389000D01*
X266906840Y-131389000D01*
X266954000Y-131393645D01*
X267001160Y-131389000D01*
X270366356Y-131389000D01*
X270439000Y-131461644D01*
X270439001Y-132481928D01*
X269772000Y-132481928D01*
X269647518Y-132494188D01*
X269527820Y-132530498D01*
X269417506Y-132589463D01*
X269320815Y-132668815D01*
X269241463Y-132765506D01*
X269182498Y-132875820D01*
X269146188Y-132995518D01*
X269133928Y-133120000D01*
X269133928Y-136120000D01*
X269146188Y-136244482D01*
X269182498Y-136364180D01*
X269241463Y-136474494D01*
X269320815Y-136571185D01*
X269417506Y-136650537D01*
X269527820Y-136709502D01*
X269647518Y-136745812D01*
X269772000Y-136758072D01*
X272772000Y-136758072D01*
X272896482Y-136745812D01*
X273016180Y-136709502D01*
X273126494Y-136650537D01*
X273223185Y-136571185D01*
X273302537Y-136474494D01*
X273361502Y-136364180D01*
X273397812Y-136244482D01*
X273410072Y-136120000D01*
X273410072Y-133120000D01*
X273397812Y-132995518D01*
X273361502Y-132875820D01*
X273302537Y-132765506D01*
X273223185Y-132668815D01*
X273126494Y-132589463D01*
X273016180Y-132530498D01*
X272896482Y-132494188D01*
X272772000Y-132481928D01*
X272359000Y-132481928D01*
X272359000Y-131111160D01*
X272363645Y-131064000D01*
X272359000Y-131016838D01*
X272345110Y-130875807D01*
X272290216Y-130694846D01*
X272201073Y-130528072D01*
X272081107Y-130381893D01*
X272044469Y-130351825D01*
X271476175Y-129783531D01*
X271446107Y-129746893D01*
X271299928Y-129626927D01*
X271133154Y-129537784D01*
X270952193Y-129482890D01*
X270811162Y-129469000D01*
X270811152Y-129469000D01*
X270764000Y-129464356D01*
X270716848Y-129469000D01*
X269241494Y-129469000D01*
X269286008Y-129322255D01*
X269303072Y-129149001D01*
X269303072Y-127898999D01*
X269286008Y-127725745D01*
X269235472Y-127559149D01*
X269153405Y-127405613D01*
X269042962Y-127271038D01*
X268908387Y-127160595D01*
X268754851Y-127078528D01*
X268588255Y-127027992D01*
X268415001Y-127010928D01*
X267714999Y-127010928D01*
X267541745Y-127027992D01*
X267375149Y-127078528D01*
X267221613Y-127160595D01*
X267087038Y-127271038D01*
X267025000Y-127346631D01*
X267025000Y-127046160D01*
X267029645Y-126999000D01*
X267025000Y-126951838D01*
X267011110Y-126810807D01*
X266956216Y-126629846D01*
X266913478Y-126549889D01*
X266867073Y-126463071D01*
X266777171Y-126353526D01*
X266747107Y-126316893D01*
X266710474Y-126286829D01*
X265845644Y-125422000D01*
X269661984Y-125422000D01*
X269703002Y-125426040D01*
X269744020Y-125422000D01*
X269744021Y-125422000D01*
X269866691Y-125409918D01*
X270024089Y-125362172D01*
X270169148Y-125284636D01*
X270296293Y-125180291D01*
X270322447Y-125148422D01*
X271198432Y-124272439D01*
X271230291Y-124246293D01*
X271296768Y-124165291D01*
X271334636Y-124119148D01*
X271412172Y-123974089D01*
X271421655Y-123942829D01*
X271459918Y-123816691D01*
X271472000Y-123694021D01*
X271472000Y-123694020D01*
X271476040Y-123653002D01*
X271472000Y-123611984D01*
X271472000Y-116232866D01*
X271573222Y-116253000D01*
X271732000Y-116253000D01*
X271732000Y-116284778D01*
X271763128Y-116441268D01*
X271824188Y-116588679D01*
X271912832Y-116721345D01*
X272025655Y-116834168D01*
X272158321Y-116922812D01*
X272305732Y-116983872D01*
X272462222Y-117015000D01*
X272621778Y-117015000D01*
X272778268Y-116983872D01*
X272923000Y-116923922D01*
X273067732Y-116983872D01*
X273224222Y-117015000D01*
X273383778Y-117015000D01*
X273540268Y-116983872D01*
X273687679Y-116922812D01*
X273820345Y-116834168D01*
X273933168Y-116721345D01*
X274002500Y-116617582D01*
X274071832Y-116721345D01*
X274184655Y-116834168D01*
X274317321Y-116922812D01*
X274464732Y-116983872D01*
X274621222Y-117015000D01*
X274780778Y-117015000D01*
X274937268Y-116983872D01*
X275082000Y-116923922D01*
X275133405Y-116945214D01*
X274013236Y-118065384D01*
X273988052Y-118086052D01*
X273967386Y-118111234D01*
X273905575Y-118186550D01*
X273871569Y-118250172D01*
X273844290Y-118301208D01*
X273806550Y-118425618D01*
X273797000Y-118522582D01*
X273797000Y-118522591D01*
X273793808Y-118555000D01*
X273797000Y-118587409D01*
X273797001Y-136281618D01*
X272183620Y-137895000D01*
X215730381Y-137895000D01*
X214117000Y-136281620D01*
X214117000Y-116739022D01*
X214132088Y-116689283D01*
X214142000Y-116588647D01*
X214142000Y-91497408D01*
X218313000Y-91497408D01*
X218313000Y-91772592D01*
X218366686Y-92042490D01*
X218471995Y-92296727D01*
X218624880Y-92525535D01*
X218819465Y-92720120D01*
X219048273Y-92873005D01*
X219125515Y-92905000D01*
X219048273Y-92936995D01*
X218819465Y-93089880D01*
X218624880Y-93284465D01*
X218471995Y-93513273D01*
X218366686Y-93767510D01*
X218313000Y-94037408D01*
X218313000Y-94312592D01*
X218366686Y-94582490D01*
X218471995Y-94836727D01*
X218624880Y-95065535D01*
X218819465Y-95260120D01*
X219048273Y-95413005D01*
X219125515Y-95445000D01*
X219048273Y-95476995D01*
X218819465Y-95629880D01*
X218624880Y-95824465D01*
X218471995Y-96053273D01*
X218366686Y-96307510D01*
X218313000Y-96577408D01*
X218313000Y-96852592D01*
X218366686Y-97122490D01*
X218471995Y-97376727D01*
X218624880Y-97605535D01*
X218819465Y-97800120D01*
X219048273Y-97953005D01*
X219125515Y-97985000D01*
X219048273Y-98016995D01*
X218819465Y-98169880D01*
X218624880Y-98364465D01*
X218471995Y-98593273D01*
X218366686Y-98847510D01*
X218313000Y-99117408D01*
X218313000Y-99392592D01*
X218366686Y-99662490D01*
X218471995Y-99916727D01*
X218624880Y-100145535D01*
X218819465Y-100340120D01*
X219048273Y-100493005D01*
X219125515Y-100525000D01*
X219048273Y-100556995D01*
X218819465Y-100709880D01*
X218624880Y-100904465D01*
X218471995Y-101133273D01*
X218366686Y-101387510D01*
X218313000Y-101657408D01*
X218313000Y-101932592D01*
X218366686Y-102202490D01*
X218471995Y-102456727D01*
X218624880Y-102685535D01*
X218819465Y-102880120D01*
X219048273Y-103033005D01*
X219125515Y-103065000D01*
X219048273Y-103096995D01*
X218819465Y-103249880D01*
X218624880Y-103444465D01*
X218471995Y-103673273D01*
X218366686Y-103927510D01*
X218313000Y-104197408D01*
X218313000Y-104472592D01*
X218366686Y-104742490D01*
X218471995Y-104996727D01*
X218624880Y-105225535D01*
X218819465Y-105420120D01*
X219048273Y-105573005D01*
X219125515Y-105605000D01*
X219048273Y-105636995D01*
X218819465Y-105789880D01*
X218624880Y-105984465D01*
X218471995Y-106213273D01*
X218366686Y-106467510D01*
X218313000Y-106737408D01*
X218313000Y-107012592D01*
X218366686Y-107282490D01*
X218471995Y-107536727D01*
X218624880Y-107765535D01*
X218819465Y-107960120D01*
X219048273Y-108113005D01*
X219125515Y-108145000D01*
X219048273Y-108176995D01*
X218819465Y-108329880D01*
X218624880Y-108524465D01*
X218471995Y-108753273D01*
X218366686Y-109007510D01*
X218313000Y-109277408D01*
X218313000Y-109552592D01*
X218366686Y-109822490D01*
X218471995Y-110076727D01*
X218624880Y-110305535D01*
X218819465Y-110500120D01*
X219048273Y-110653005D01*
X219125515Y-110685000D01*
X219048273Y-110716995D01*
X218819465Y-110869880D01*
X218624880Y-111064465D01*
X218471995Y-111293273D01*
X218366686Y-111547510D01*
X218313000Y-111817408D01*
X218313000Y-112092592D01*
X218366686Y-112362490D01*
X218471995Y-112616727D01*
X218624880Y-112845535D01*
X218819465Y-113040120D01*
X219048273Y-113193005D01*
X219125515Y-113225000D01*
X219048273Y-113256995D01*
X218819465Y-113409880D01*
X218624880Y-113604465D01*
X218471995Y-113833273D01*
X218366686Y-114087510D01*
X218313000Y-114357408D01*
X218313000Y-114632592D01*
X218366686Y-114902490D01*
X218471995Y-115156727D01*
X218624880Y-115385535D01*
X218819465Y-115580120D01*
X219048273Y-115733005D01*
X219125515Y-115765000D01*
X219048273Y-115796995D01*
X218819465Y-115949880D01*
X218624880Y-116144465D01*
X218471995Y-116373273D01*
X218366686Y-116627510D01*
X218313000Y-116897408D01*
X218313000Y-117172592D01*
X218366686Y-117442490D01*
X218471995Y-117696727D01*
X218624880Y-117925535D01*
X218819465Y-118120120D01*
X219048273Y-118273005D01*
X219125515Y-118305000D01*
X219048273Y-118336995D01*
X218819465Y-118489880D01*
X218624880Y-118684465D01*
X218471995Y-118913273D01*
X218366686Y-119167510D01*
X218313000Y-119437408D01*
X218313000Y-119712592D01*
X218366686Y-119982490D01*
X218471995Y-120236727D01*
X218624880Y-120465535D01*
X218819465Y-120660120D01*
X219048273Y-120813005D01*
X219125515Y-120845000D01*
X219048273Y-120876995D01*
X218819465Y-121029880D01*
X218624880Y-121224465D01*
X218471995Y-121453273D01*
X218366686Y-121707510D01*
X218313000Y-121977408D01*
X218313000Y-122252592D01*
X218366686Y-122522490D01*
X218471995Y-122776727D01*
X218624880Y-123005535D01*
X218819465Y-123200120D01*
X219048273Y-123353005D01*
X219125515Y-123385000D01*
X219048273Y-123416995D01*
X218819465Y-123569880D01*
X218624880Y-123764465D01*
X218471995Y-123993273D01*
X218366686Y-124247510D01*
X218313000Y-124517408D01*
X218313000Y-124792592D01*
X218366686Y-125062490D01*
X218471995Y-125316727D01*
X218624880Y-125545535D01*
X218819465Y-125740120D01*
X219048273Y-125893005D01*
X219302510Y-125998314D01*
X219572408Y-126052000D01*
X219847592Y-126052000D01*
X220117490Y-125998314D01*
X220135147Y-125991000D01*
X231367928Y-125991000D01*
X231367928Y-127691000D01*
X231380188Y-127815482D01*
X231416498Y-127935180D01*
X231475463Y-128045494D01*
X231554815Y-128142185D01*
X231651506Y-128221537D01*
X231761820Y-128280502D01*
X231881518Y-128316812D01*
X232006000Y-128329072D01*
X233706000Y-128329072D01*
X233830482Y-128316812D01*
X233950180Y-128280502D01*
X234060494Y-128221537D01*
X234157185Y-128142185D01*
X234236537Y-128045494D01*
X234295502Y-127935180D01*
X234316393Y-127866313D01*
X234340866Y-127896134D01*
X234561001Y-128076794D01*
X234561000Y-135278981D01*
X234556960Y-135320000D01*
X234561000Y-135361018D01*
X234573082Y-135483688D01*
X234620828Y-135641086D01*
X234698364Y-135786145D01*
X234802709Y-135913291D01*
X234834579Y-135939446D01*
X236362563Y-137467432D01*
X236388709Y-137499291D01*
X236515854Y-137603636D01*
X236660913Y-137681172D01*
X236818311Y-137728918D01*
X236940981Y-137741000D01*
X236940982Y-137741000D01*
X236982000Y-137745040D01*
X237023018Y-137741000D01*
X259890302Y-137741000D01*
X259931320Y-137745040D01*
X259972338Y-137741000D01*
X259972339Y-137741000D01*
X260095009Y-137728918D01*
X260252407Y-137681172D01*
X260397466Y-137603636D01*
X260524611Y-137499291D01*
X260550766Y-137467422D01*
X261263188Y-136755000D01*
X261322279Y-136755000D01*
X261734756Y-136672953D01*
X262123302Y-136512012D01*
X262472983Y-136278363D01*
X262639693Y-136111653D01*
X264879952Y-136111653D01*
X265035962Y-136427214D01*
X265410745Y-136618020D01*
X265815551Y-136732044D01*
X266234824Y-136764902D01*
X266652451Y-136715334D01*
X267052383Y-136585243D01*
X267348038Y-136427214D01*
X267504048Y-136111653D01*
X266192000Y-134799605D01*
X264879952Y-136111653D01*
X262639693Y-136111653D01*
X262770363Y-135980983D01*
X263004012Y-135631302D01*
X263164953Y-135242756D01*
X263247000Y-134830279D01*
X263247000Y-134662824D01*
X264047098Y-134662824D01*
X264096666Y-135080451D01*
X264226757Y-135480383D01*
X264384786Y-135776038D01*
X264700347Y-135932048D01*
X266012395Y-134620000D01*
X266371605Y-134620000D01*
X267683653Y-135932048D01*
X267999214Y-135776038D01*
X268190020Y-135401255D01*
X268304044Y-134996449D01*
X268336902Y-134577176D01*
X268287334Y-134159549D01*
X268157243Y-133759617D01*
X267999214Y-133463962D01*
X267683653Y-133307952D01*
X266371605Y-134620000D01*
X266012395Y-134620000D01*
X264700347Y-133307952D01*
X264384786Y-133463962D01*
X264193980Y-133838745D01*
X264079956Y-134243551D01*
X264047098Y-134662824D01*
X263247000Y-134662824D01*
X263247000Y-134409721D01*
X263164953Y-133997244D01*
X263004012Y-133608698D01*
X262770363Y-133259017D01*
X262639693Y-133128347D01*
X264879952Y-133128347D01*
X266192000Y-134440395D01*
X267504048Y-133128347D01*
X267348038Y-132812786D01*
X266973255Y-132621980D01*
X266568449Y-132507956D01*
X266149176Y-132475098D01*
X265731549Y-132524666D01*
X265331617Y-132654757D01*
X265035962Y-132812786D01*
X264879952Y-133128347D01*
X262639693Y-133128347D01*
X262472983Y-132961637D01*
X262123302Y-132727988D01*
X261734756Y-132567047D01*
X261322279Y-132485000D01*
X260901721Y-132485000D01*
X260489244Y-132567047D01*
X260100698Y-132727988D01*
X259751017Y-132961637D01*
X259453637Y-133259017D01*
X259219988Y-133608698D01*
X259059047Y-133997244D01*
X258977000Y-134409721D01*
X258977000Y-134830279D01*
X259059047Y-135242756D01*
X259219988Y-135631302D01*
X259453637Y-135980983D01*
X259543654Y-136071000D01*
X257600346Y-136071000D01*
X257690363Y-135980983D01*
X257924012Y-135631302D01*
X258084953Y-135242756D01*
X258167000Y-134830279D01*
X258167000Y-134409721D01*
X258084953Y-133997244D01*
X257924012Y-133608698D01*
X257690363Y-133259017D01*
X257392983Y-132961637D01*
X257043302Y-132727988D01*
X256654756Y-132567047D01*
X256242279Y-132485000D01*
X255821721Y-132485000D01*
X255409244Y-132567047D01*
X255020698Y-132727988D01*
X254671017Y-132961637D01*
X254373637Y-133259017D01*
X254139988Y-133608698D01*
X253979047Y-133997244D01*
X253920217Y-134293000D01*
X239740869Y-134293000D01*
X238771000Y-133323133D01*
X238771000Y-128076793D01*
X238991134Y-127896134D01*
X239176706Y-127670014D01*
X239211201Y-127605477D01*
X239280822Y-127722355D01*
X239475731Y-127938588D01*
X239709080Y-128112641D01*
X239971901Y-128237825D01*
X240119110Y-128282476D01*
X240349000Y-128161155D01*
X240349000Y-126968000D01*
X240603000Y-126968000D01*
X240603000Y-128161155D01*
X240832890Y-128282476D01*
X240980099Y-128237825D01*
X241084002Y-128188335D01*
X258830000Y-128188335D01*
X258830000Y-128859664D01*
X258847870Y-129041101D01*
X258918489Y-129273900D01*
X259033167Y-129488448D01*
X259187498Y-129676502D01*
X259375551Y-129830833D01*
X259590099Y-129945511D01*
X259822898Y-130016130D01*
X260065000Y-130039975D01*
X260307101Y-130016130D01*
X260539900Y-129945511D01*
X260754448Y-129830833D01*
X260942502Y-129676502D01*
X261065000Y-129527237D01*
X261187498Y-129676502D01*
X261375551Y-129830833D01*
X261590099Y-129945511D01*
X261822898Y-130016130D01*
X262065000Y-130039975D01*
X262307101Y-130016130D01*
X262539900Y-129945511D01*
X262754448Y-129830833D01*
X262942502Y-129676502D01*
X263065481Y-129526652D01*
X263108693Y-129590725D01*
X263281526Y-129762078D01*
X263484467Y-129896421D01*
X263709718Y-129988591D01*
X263747391Y-129992462D01*
X263938000Y-129867731D01*
X263938000Y-128651000D01*
X263918000Y-128651000D01*
X263918000Y-128397000D01*
X263938000Y-128397000D01*
X263938000Y-127180269D01*
X263747391Y-127055538D01*
X263709718Y-127059409D01*
X263484467Y-127151579D01*
X263281526Y-127285922D01*
X263108693Y-127457275D01*
X263065481Y-127521348D01*
X262942502Y-127371498D01*
X262754449Y-127217167D01*
X262539901Y-127102489D01*
X262307102Y-127031870D01*
X262065000Y-127008025D01*
X261822899Y-127031870D01*
X261590100Y-127102489D01*
X261375552Y-127217167D01*
X261187499Y-127371498D01*
X261065001Y-127520763D01*
X260942502Y-127371498D01*
X260754449Y-127217167D01*
X260539901Y-127102489D01*
X260307102Y-127031870D01*
X260065000Y-127008025D01*
X259822899Y-127031870D01*
X259590100Y-127102489D01*
X259375552Y-127217167D01*
X259187499Y-127371498D01*
X259033168Y-127559551D01*
X258918489Y-127774099D01*
X258847870Y-128006898D01*
X258830000Y-128188335D01*
X241084002Y-128188335D01*
X241242920Y-128112641D01*
X241476269Y-127938588D01*
X241671178Y-127722355D01*
X241820157Y-127472252D01*
X241917481Y-127197891D01*
X241796814Y-126968000D01*
X240603000Y-126968000D01*
X240349000Y-126968000D01*
X240329000Y-126968000D01*
X240329000Y-126714000D01*
X240349000Y-126714000D01*
X240349000Y-125520845D01*
X240603000Y-125520845D01*
X240603000Y-126714000D01*
X241796814Y-126714000D01*
X241917481Y-126484109D01*
X241820157Y-126209748D01*
X241671178Y-125959645D01*
X241476269Y-125743412D01*
X241242920Y-125569359D01*
X240980099Y-125444175D01*
X240832890Y-125399524D01*
X240603000Y-125520845D01*
X240349000Y-125520845D01*
X240119110Y-125399524D01*
X239971901Y-125444175D01*
X239709080Y-125569359D01*
X239475731Y-125743412D01*
X239280822Y-125959645D01*
X239211201Y-126076523D01*
X239176706Y-126011986D01*
X238991134Y-125785866D01*
X238765014Y-125600294D01*
X238507034Y-125462401D01*
X238227111Y-125377487D01*
X238008950Y-125356000D01*
X237863050Y-125356000D01*
X237644889Y-125377487D01*
X237364966Y-125462401D01*
X237106986Y-125600294D01*
X236880866Y-125785866D01*
X236695294Y-126011986D01*
X236666000Y-126066791D01*
X236636706Y-126011986D01*
X236451134Y-125785866D01*
X236225014Y-125600294D01*
X235967034Y-125462401D01*
X235687111Y-125377487D01*
X235468950Y-125356000D01*
X235323050Y-125356000D01*
X235104889Y-125377487D01*
X234824966Y-125462401D01*
X234566986Y-125600294D01*
X234340866Y-125785866D01*
X234316393Y-125815687D01*
X234295502Y-125746820D01*
X234236537Y-125636506D01*
X234157185Y-125539815D01*
X234060494Y-125460463D01*
X233950180Y-125401498D01*
X233830482Y-125365188D01*
X233706000Y-125352928D01*
X232006000Y-125352928D01*
X231881518Y-125365188D01*
X231761820Y-125401498D01*
X231651506Y-125460463D01*
X231554815Y-125539815D01*
X231475463Y-125636506D01*
X231416498Y-125746820D01*
X231380188Y-125866518D01*
X231367928Y-125991000D01*
X220135147Y-125991000D01*
X220371727Y-125893005D01*
X220600535Y-125740120D01*
X220795120Y-125545535D01*
X220948005Y-125316727D01*
X221053314Y-125062490D01*
X221107000Y-124792592D01*
X221107000Y-124517408D01*
X221053314Y-124247510D01*
X220948005Y-123993273D01*
X220795120Y-123764465D01*
X220600535Y-123569880D01*
X220371727Y-123416995D01*
X220294485Y-123385000D01*
X220371727Y-123353005D01*
X220600535Y-123200120D01*
X220795120Y-123005535D01*
X220948005Y-122776727D01*
X221053314Y-122522490D01*
X221107000Y-122252592D01*
X221107000Y-121977408D01*
X221053314Y-121707510D01*
X220948005Y-121453273D01*
X220795120Y-121224465D01*
X220600535Y-121029880D01*
X220371727Y-120876995D01*
X220294485Y-120845000D01*
X220371727Y-120813005D01*
X220600535Y-120660120D01*
X220795120Y-120465535D01*
X220832227Y-120410000D01*
X228109982Y-120410000D01*
X228151000Y-120414040D01*
X228192018Y-120410000D01*
X228192019Y-120410000D01*
X228314689Y-120397918D01*
X228472087Y-120350172D01*
X228617146Y-120272636D01*
X228744291Y-120168291D01*
X228770446Y-120136421D01*
X230432000Y-118474868D01*
X230432000Y-119973981D01*
X230427960Y-120015000D01*
X230432000Y-120056018D01*
X230444082Y-120178688D01*
X230491828Y-120336086D01*
X230569364Y-120481145D01*
X230673709Y-120608291D01*
X230705578Y-120634445D01*
X231409563Y-121338431D01*
X231435709Y-121370291D01*
X231562854Y-121474636D01*
X231707913Y-121552172D01*
X231865311Y-121599918D01*
X231987981Y-121612000D01*
X231987982Y-121612000D01*
X232029000Y-121616040D01*
X232070018Y-121612000D01*
X242083715Y-121612000D01*
X242206744Y-121694205D01*
X242395102Y-121772226D01*
X242595061Y-121812000D01*
X242798939Y-121812000D01*
X242998898Y-121772226D01*
X243187256Y-121694205D01*
X243356774Y-121580937D01*
X243500937Y-121436774D01*
X243614205Y-121267256D01*
X243692226Y-121078898D01*
X243732000Y-120878939D01*
X243732000Y-120675061D01*
X243692226Y-120475102D01*
X243614205Y-120286744D01*
X243500937Y-120117226D01*
X243356774Y-119973063D01*
X243187256Y-119859795D01*
X242998898Y-119781774D01*
X242798939Y-119742000D01*
X242595061Y-119742000D01*
X242395102Y-119781774D01*
X242206744Y-119859795D01*
X242083715Y-119942000D01*
X238317812Y-119942000D01*
X238507034Y-119884600D01*
X238765014Y-119746707D01*
X238991134Y-119561135D01*
X239176706Y-119335015D01*
X239314599Y-119077035D01*
X239399513Y-118797112D01*
X239428185Y-118506001D01*
X239399513Y-118214890D01*
X239314599Y-117934967D01*
X239176706Y-117676987D01*
X239035293Y-117504675D01*
X239220102Y-117581226D01*
X239420061Y-117621000D01*
X239623939Y-117621000D01*
X239823898Y-117581226D01*
X239908940Y-117546000D01*
X240998848Y-117546000D01*
X241046000Y-117550644D01*
X241093152Y-117546000D01*
X241093162Y-117546000D01*
X241234193Y-117532110D01*
X241415154Y-117477216D01*
X241581928Y-117388073D01*
X241728107Y-117268107D01*
X241758175Y-117231469D01*
X243342474Y-115647171D01*
X243379107Y-115617107D01*
X243409462Y-115580120D01*
X243499073Y-115470928D01*
X243588216Y-115304154D01*
X243588216Y-115304153D01*
X243643110Y-115123193D01*
X243657000Y-114982162D01*
X243657000Y-114982160D01*
X243661645Y-114935000D01*
X243657000Y-114887840D01*
X243657000Y-112475000D01*
X244964815Y-112475000D01*
X244993487Y-112766111D01*
X245078401Y-113046034D01*
X245216294Y-113304014D01*
X245401866Y-113530134D01*
X245627986Y-113715706D01*
X245682791Y-113745000D01*
X245627986Y-113774294D01*
X245401866Y-113959866D01*
X245216294Y-114185986D01*
X245078401Y-114443966D01*
X244993487Y-114723889D01*
X244964815Y-115015000D01*
X244993487Y-115306111D01*
X245078401Y-115586034D01*
X245216294Y-115844014D01*
X245401866Y-116070134D01*
X245627986Y-116255706D01*
X245682791Y-116285000D01*
X245627986Y-116314294D01*
X245401866Y-116499866D01*
X245216294Y-116725986D01*
X245078401Y-116983966D01*
X244993487Y-117263889D01*
X244964815Y-117555000D01*
X244993487Y-117846111D01*
X245078401Y-118126034D01*
X245216294Y-118384014D01*
X245401866Y-118610134D01*
X245627986Y-118795706D01*
X245682791Y-118825000D01*
X245627986Y-118854294D01*
X245401866Y-119039866D01*
X245216294Y-119265986D01*
X245078401Y-119523966D01*
X244993487Y-119803889D01*
X244964815Y-120095000D01*
X244993487Y-120386111D01*
X245078401Y-120666034D01*
X245216294Y-120924014D01*
X245401866Y-121150134D01*
X245431687Y-121174607D01*
X245362820Y-121195498D01*
X245252506Y-121254463D01*
X245155815Y-121333815D01*
X245076463Y-121430506D01*
X245017498Y-121540820D01*
X244981188Y-121660518D01*
X244968928Y-121785000D01*
X244968928Y-123485000D01*
X244981188Y-123609482D01*
X245017498Y-123729180D01*
X245076463Y-123839494D01*
X245155815Y-123936185D01*
X245252506Y-124015537D01*
X245362820Y-124074502D01*
X245482518Y-124110812D01*
X245607000Y-124123072D01*
X247307000Y-124123072D01*
X247431482Y-124110812D01*
X247551180Y-124074502D01*
X247661494Y-124015537D01*
X247758185Y-123936185D01*
X247837537Y-123839494D01*
X247896502Y-123729180D01*
X247932812Y-123609482D01*
X247945072Y-123485000D01*
X247945072Y-121785000D01*
X247932812Y-121660518D01*
X247896502Y-121540820D01*
X247837537Y-121430506D01*
X247758185Y-121333815D01*
X247661494Y-121254463D01*
X247551180Y-121195498D01*
X247482313Y-121174607D01*
X247512134Y-121150134D01*
X247697706Y-120924014D01*
X247835599Y-120666034D01*
X247920513Y-120386111D01*
X247949185Y-120095000D01*
X247920513Y-119803889D01*
X247835599Y-119523966D01*
X247697706Y-119265986D01*
X247512134Y-119039866D01*
X247286014Y-118854294D01*
X247231209Y-118825000D01*
X247286014Y-118795706D01*
X247512134Y-118610134D01*
X247697706Y-118384014D01*
X247835599Y-118126034D01*
X247920513Y-117846111D01*
X247949185Y-117555000D01*
X247920513Y-117263889D01*
X247835599Y-116983966D01*
X247697706Y-116725986D01*
X247512134Y-116499866D01*
X247286014Y-116314294D01*
X247231209Y-116285000D01*
X247286014Y-116255706D01*
X247512134Y-116070134D01*
X247697706Y-115844014D01*
X247835599Y-115586034D01*
X247920513Y-115306111D01*
X247949185Y-115015000D01*
X247920513Y-114723889D01*
X247835599Y-114443966D01*
X247697706Y-114185986D01*
X247512134Y-113959866D01*
X247286014Y-113774294D01*
X247231209Y-113745000D01*
X247286014Y-113715706D01*
X247512134Y-113530134D01*
X247697706Y-113304014D01*
X247835599Y-113046034D01*
X247920513Y-112766111D01*
X247949185Y-112475000D01*
X247920513Y-112183889D01*
X247835599Y-111903966D01*
X247697706Y-111645986D01*
X247512134Y-111419866D01*
X247286014Y-111234294D01*
X247028034Y-111096401D01*
X246748111Y-111011487D01*
X246529950Y-110990000D01*
X246384050Y-110990000D01*
X246165889Y-111011487D01*
X245885966Y-111096401D01*
X245627986Y-111234294D01*
X245401866Y-111419866D01*
X245216294Y-111645986D01*
X245078401Y-111903966D01*
X244993487Y-112183889D01*
X244964815Y-112475000D01*
X243657000Y-112475000D01*
X243657000Y-107108160D01*
X243661645Y-107061000D01*
X243653267Y-106975937D01*
X243643110Y-106872807D01*
X243588216Y-106691846D01*
X243572400Y-106662256D01*
X243499073Y-106525071D01*
X243409171Y-106415526D01*
X243379107Y-106378893D01*
X243342474Y-106348829D01*
X242520175Y-105526531D01*
X242490107Y-105489893D01*
X242343928Y-105369927D01*
X242177154Y-105280784D01*
X241996193Y-105225890D01*
X241855162Y-105212000D01*
X241855152Y-105212000D01*
X241808000Y-105207356D01*
X241760848Y-105212000D01*
X239908940Y-105212000D01*
X239823898Y-105176774D01*
X239623939Y-105137000D01*
X239420061Y-105137000D01*
X239220102Y-105176774D01*
X239031744Y-105254795D01*
X238862226Y-105368063D01*
X238718063Y-105512226D01*
X238604795Y-105681744D01*
X238526774Y-105870102D01*
X238487000Y-106070061D01*
X238487000Y-106273939D01*
X238526774Y-106473898D01*
X238604795Y-106662256D01*
X238718063Y-106831774D01*
X238862226Y-106975937D01*
X239031744Y-107089205D01*
X239220102Y-107167226D01*
X239420061Y-107207000D01*
X239623939Y-107207000D01*
X239823898Y-107167226D01*
X239908940Y-107132000D01*
X241410356Y-107132000D01*
X241495779Y-107217423D01*
X241474898Y-107208774D01*
X241274939Y-107169000D01*
X241071061Y-107169000D01*
X240871102Y-107208774D01*
X240682744Y-107286795D01*
X240639036Y-107316000D01*
X236399285Y-107316000D01*
X236276256Y-107233795D01*
X236087898Y-107155774D01*
X235887939Y-107116000D01*
X235684061Y-107116000D01*
X235484102Y-107155774D01*
X235295744Y-107233795D01*
X235126226Y-107347063D01*
X234982063Y-107491226D01*
X234868795Y-107660744D01*
X234790774Y-107849102D01*
X234751000Y-108049061D01*
X234751000Y-108252939D01*
X234790774Y-108452898D01*
X234868795Y-108641256D01*
X234982063Y-108810774D01*
X235126226Y-108954937D01*
X235295744Y-109068205D01*
X235484102Y-109146226D01*
X235684061Y-109186000D01*
X235887939Y-109186000D01*
X236087898Y-109146226D01*
X236276256Y-109068205D01*
X236399285Y-108986000D01*
X240491289Y-108986000D01*
X240513226Y-109007937D01*
X240682744Y-109121205D01*
X240871102Y-109199226D01*
X241071061Y-109239000D01*
X241274939Y-109239000D01*
X241474898Y-109199226D01*
X241663256Y-109121205D01*
X241737001Y-109071930D01*
X241737000Y-114537355D01*
X240648356Y-115626000D01*
X239908940Y-115626000D01*
X239823898Y-115590774D01*
X239623939Y-115551000D01*
X239420061Y-115551000D01*
X239220102Y-115590774D01*
X239031744Y-115668795D01*
X238862226Y-115782063D01*
X238718063Y-115926226D01*
X238604795Y-116095744D01*
X238526774Y-116284102D01*
X238508851Y-116374207D01*
X238202175Y-116067531D01*
X238172107Y-116030893D01*
X238025928Y-115910927D01*
X237859154Y-115821784D01*
X237678193Y-115766890D01*
X237537162Y-115753000D01*
X237537152Y-115753000D01*
X237490000Y-115748356D01*
X237442848Y-115753000D01*
X234585645Y-115753000D01*
X233441000Y-114608356D01*
X233441000Y-106487940D01*
X233476226Y-106402898D01*
X233516000Y-106202939D01*
X233516000Y-105999061D01*
X233476226Y-105799102D01*
X233398205Y-105610744D01*
X233284937Y-105441226D01*
X233140774Y-105297063D01*
X232971256Y-105183795D01*
X232782898Y-105105774D01*
X232582939Y-105066000D01*
X232379061Y-105066000D01*
X232179102Y-105105774D01*
X231990744Y-105183795D01*
X231821226Y-105297063D01*
X231677063Y-105441226D01*
X231563795Y-105610744D01*
X231485774Y-105799102D01*
X231446000Y-105999061D01*
X231446000Y-106202939D01*
X231485774Y-106402898D01*
X231521000Y-106487941D01*
X231521001Y-111390247D01*
X231368939Y-111360000D01*
X231165061Y-111360000D01*
X231086000Y-111375726D01*
X231086000Y-100181285D01*
X231168205Y-100058256D01*
X231246226Y-99869898D01*
X231286000Y-99669939D01*
X231286000Y-99466061D01*
X231246226Y-99266102D01*
X231168205Y-99077744D01*
X231086000Y-98954715D01*
X231086000Y-97006285D01*
X231168205Y-96883256D01*
X231246226Y-96694898D01*
X231286000Y-96494939D01*
X231286000Y-96291061D01*
X231246226Y-96091102D01*
X231168205Y-95902744D01*
X231054937Y-95733226D01*
X230910774Y-95589063D01*
X230741256Y-95475795D01*
X230552898Y-95397774D01*
X230352939Y-95358000D01*
X230149061Y-95358000D01*
X229949102Y-95397774D01*
X229760744Y-95475795D01*
X229591226Y-95589063D01*
X229447063Y-95733226D01*
X229333795Y-95902744D01*
X229255774Y-96091102D01*
X229216000Y-96291061D01*
X229216000Y-96494939D01*
X229255774Y-96694898D01*
X229333795Y-96883256D01*
X229416001Y-97006286D01*
X229416000Y-98954715D01*
X229333795Y-99077744D01*
X229255774Y-99266102D01*
X229216000Y-99466061D01*
X229216000Y-99669939D01*
X229255774Y-99869898D01*
X229333795Y-100058256D01*
X229416000Y-100181285D01*
X229416001Y-117129131D01*
X227805133Y-118740000D01*
X220832227Y-118740000D01*
X220795120Y-118684465D01*
X220600535Y-118489880D01*
X220371727Y-118336995D01*
X220294485Y-118305000D01*
X220371727Y-118273005D01*
X220600535Y-118120120D01*
X220795120Y-117925535D01*
X220948005Y-117696727D01*
X221053314Y-117442490D01*
X221107000Y-117172592D01*
X221107000Y-116897408D01*
X221053314Y-116627510D01*
X220948005Y-116373273D01*
X220795120Y-116144465D01*
X220600535Y-115949880D01*
X220371727Y-115796995D01*
X220294485Y-115765000D01*
X220371727Y-115733005D01*
X220600535Y-115580120D01*
X220795120Y-115385535D01*
X220832227Y-115330000D01*
X227093982Y-115330000D01*
X227135000Y-115334040D01*
X227176018Y-115330000D01*
X227176019Y-115330000D01*
X227298689Y-115317918D01*
X227456087Y-115270172D01*
X227601146Y-115192636D01*
X227728291Y-115088291D01*
X227754445Y-115056422D01*
X228691433Y-114119436D01*
X228723292Y-114093290D01*
X228755254Y-114054345D01*
X228827637Y-113966145D01*
X228905173Y-113821086D01*
X228952919Y-113663688D01*
X228969041Y-113499999D01*
X228965001Y-113458981D01*
X228965001Y-92509866D01*
X229834869Y-91640000D01*
X233130982Y-91640000D01*
X233172000Y-91644040D01*
X233213018Y-91640000D01*
X233213019Y-91640000D01*
X233335689Y-91627918D01*
X233493087Y-91580172D01*
X233638146Y-91502636D01*
X233765291Y-91398291D01*
X233791446Y-91366421D01*
X235549869Y-89608000D01*
X239226982Y-89608000D01*
X239268000Y-89612040D01*
X239309018Y-89608000D01*
X239309019Y-89608000D01*
X239431689Y-89595918D01*
X239589087Y-89548172D01*
X239734146Y-89470636D01*
X239861291Y-89366291D01*
X239887446Y-89334421D01*
X241037426Y-88184442D01*
X241069291Y-88158291D01*
X241173636Y-88031146D01*
X241251172Y-87886087D01*
X241298918Y-87728689D01*
X241311000Y-87606019D01*
X241315040Y-87565000D01*
X241311000Y-87523982D01*
X241311000Y-87436793D01*
X241531134Y-87256134D01*
X241716706Y-87030014D01*
X241854599Y-86772034D01*
X241939513Y-86492111D01*
X241968185Y-86201000D01*
X241939513Y-85909889D01*
X241854599Y-85629966D01*
X241716706Y-85371986D01*
X241531134Y-85145866D01*
X241305014Y-84960294D01*
X241047034Y-84822401D01*
X240767111Y-84737487D01*
X240548950Y-84716000D01*
X240403050Y-84716000D01*
X240184889Y-84737487D01*
X239904966Y-84822401D01*
X239646986Y-84960294D01*
X239420866Y-85145866D01*
X239235294Y-85371986D01*
X239206000Y-85426791D01*
X239176706Y-85371986D01*
X238991134Y-85145866D01*
X238765014Y-84960294D01*
X238507034Y-84822401D01*
X238227111Y-84737487D01*
X238008950Y-84716000D01*
X237863050Y-84716000D01*
X237644889Y-84737487D01*
X237364966Y-84822401D01*
X237106986Y-84960294D01*
X236880866Y-85145866D01*
X236695294Y-85371986D01*
X236666000Y-85426791D01*
X236636706Y-85371986D01*
X236451134Y-85145866D01*
X236225014Y-84960294D01*
X235967034Y-84822401D01*
X235687111Y-84737487D01*
X235468950Y-84716000D01*
X235323050Y-84716000D01*
X235104889Y-84737487D01*
X234824966Y-84822401D01*
X234566986Y-84960294D01*
X234340866Y-85145866D01*
X234316393Y-85175687D01*
X234295502Y-85106820D01*
X234236537Y-84996506D01*
X234157185Y-84899815D01*
X234060494Y-84820463D01*
X233950180Y-84761498D01*
X233830482Y-84725188D01*
X233706000Y-84712928D01*
X232006000Y-84712928D01*
X231881518Y-84725188D01*
X231761820Y-84761498D01*
X231651506Y-84820463D01*
X231554815Y-84899815D01*
X231475463Y-84996506D01*
X231416498Y-85106820D01*
X231380188Y-85226518D01*
X231367928Y-85351000D01*
X231367928Y-87051000D01*
X231380188Y-87175482D01*
X231416498Y-87295180D01*
X231475463Y-87405494D01*
X231554815Y-87502185D01*
X231651506Y-87581537D01*
X231761820Y-87640502D01*
X231881518Y-87676812D01*
X232006000Y-87689072D01*
X233706000Y-87689072D01*
X233830482Y-87676812D01*
X233950180Y-87640502D01*
X234060494Y-87581537D01*
X234157185Y-87502185D01*
X234236537Y-87405494D01*
X234295502Y-87295180D01*
X234316393Y-87226313D01*
X234340866Y-87256134D01*
X234441451Y-87338682D01*
X232572133Y-89208000D01*
X229276018Y-89208000D01*
X229235000Y-89203960D01*
X229071311Y-89220082D01*
X228913913Y-89267828D01*
X228768854Y-89345364D01*
X228692532Y-89408000D01*
X228641709Y-89449709D01*
X228615563Y-89481568D01*
X226768574Y-91328559D01*
X226736710Y-91354709D01*
X226679485Y-91424438D01*
X226632364Y-91481855D01*
X226554828Y-91626914D01*
X226507082Y-91784312D01*
X226490960Y-91948000D01*
X226495001Y-91989029D01*
X226495000Y-101494715D01*
X226412795Y-101617744D01*
X226334774Y-101806102D01*
X226295000Y-102006061D01*
X226295000Y-102209939D01*
X226334774Y-102409898D01*
X226412795Y-102598256D01*
X226526063Y-102767774D01*
X226670226Y-102911937D01*
X226839744Y-103025205D01*
X227028102Y-103103226D01*
X227228061Y-103143000D01*
X227295002Y-103143000D01*
X227295002Y-113154130D01*
X226789132Y-113660000D01*
X220832227Y-113660000D01*
X220795120Y-113604465D01*
X220600535Y-113409880D01*
X220371727Y-113256995D01*
X220294485Y-113225000D01*
X220371727Y-113193005D01*
X220600535Y-113040120D01*
X220795120Y-112845535D01*
X220948005Y-112616727D01*
X221053314Y-112362490D01*
X221107000Y-112092592D01*
X221107000Y-111817408D01*
X221053314Y-111547510D01*
X220948005Y-111293273D01*
X220795120Y-111064465D01*
X220600535Y-110869880D01*
X220371727Y-110716995D01*
X220294485Y-110685000D01*
X220371727Y-110653005D01*
X220600535Y-110500120D01*
X220795120Y-110305535D01*
X220948005Y-110076727D01*
X221053314Y-109822490D01*
X221107000Y-109552592D01*
X221107000Y-109277408D01*
X221053314Y-109007510D01*
X220948005Y-108753273D01*
X220795120Y-108524465D01*
X220600535Y-108329880D01*
X220371727Y-108176995D01*
X220294485Y-108145000D01*
X220371727Y-108113005D01*
X220600535Y-107960120D01*
X220795120Y-107765535D01*
X220948005Y-107536727D01*
X221053314Y-107282490D01*
X221107000Y-107012592D01*
X221107000Y-106737408D01*
X221053314Y-106467510D01*
X220948005Y-106213273D01*
X220795120Y-105984465D01*
X220600535Y-105789880D01*
X220371727Y-105636995D01*
X220294485Y-105605000D01*
X220371727Y-105573005D01*
X220600535Y-105420120D01*
X220795120Y-105225535D01*
X220903808Y-105062872D01*
X222555000Y-105062872D01*
X222555000Y-105503128D01*
X222640890Y-105934925D01*
X222809369Y-106341669D01*
X223053962Y-106707729D01*
X223365271Y-107019038D01*
X223731331Y-107263631D01*
X224138075Y-107432110D01*
X224569872Y-107518000D01*
X225010128Y-107518000D01*
X225441925Y-107432110D01*
X225848669Y-107263631D01*
X226214729Y-107019038D01*
X226526038Y-106707729D01*
X226770631Y-106341669D01*
X226939110Y-105934925D01*
X227025000Y-105503128D01*
X227025000Y-105062872D01*
X226939110Y-104631075D01*
X226770631Y-104224331D01*
X226526038Y-103858271D01*
X226214729Y-103546962D01*
X225848669Y-103302369D01*
X225441925Y-103133890D01*
X225010128Y-103048000D01*
X224569872Y-103048000D01*
X224138075Y-103133890D01*
X223731331Y-103302369D01*
X223365271Y-103546962D01*
X223053962Y-103858271D01*
X222809369Y-104224331D01*
X222640890Y-104631075D01*
X222555000Y-105062872D01*
X220903808Y-105062872D01*
X220948005Y-104996727D01*
X221053314Y-104742490D01*
X221107000Y-104472592D01*
X221107000Y-104197408D01*
X221053314Y-103927510D01*
X220948005Y-103673273D01*
X220795120Y-103444465D01*
X220600535Y-103249880D01*
X220371727Y-103096995D01*
X220294485Y-103065000D01*
X220371727Y-103033005D01*
X220600535Y-102880120D01*
X220795120Y-102685535D01*
X220948005Y-102456727D01*
X221053314Y-102202490D01*
X221107000Y-101932592D01*
X221107000Y-101657408D01*
X221085498Y-101549312D01*
X221216294Y-101794014D01*
X221401866Y-102020134D01*
X221627986Y-102205706D01*
X221885966Y-102343599D01*
X222165889Y-102428513D01*
X222384050Y-102450000D01*
X222529950Y-102450000D01*
X222748111Y-102428513D01*
X223028034Y-102343599D01*
X223286014Y-102205706D01*
X223512134Y-102020134D01*
X223697706Y-101794014D01*
X223835599Y-101536034D01*
X223920513Y-101256111D01*
X223949185Y-100965000D01*
X223920513Y-100673889D01*
X223835599Y-100393966D01*
X223697706Y-100135986D01*
X223512134Y-99909866D01*
X223286014Y-99724294D01*
X223231209Y-99695000D01*
X223286014Y-99665706D01*
X223512134Y-99480134D01*
X223697706Y-99254014D01*
X223835599Y-98996034D01*
X223920513Y-98716111D01*
X223949185Y-98425000D01*
X223920513Y-98133889D01*
X223835599Y-97853966D01*
X223697706Y-97595986D01*
X223512134Y-97369866D01*
X223286014Y-97184294D01*
X223231209Y-97155000D01*
X223286014Y-97125706D01*
X223512134Y-96940134D01*
X223697706Y-96714014D01*
X223835599Y-96456034D01*
X223920513Y-96176111D01*
X223949185Y-95885000D01*
X223920513Y-95593889D01*
X223835599Y-95313966D01*
X223697706Y-95055986D01*
X223512134Y-94829866D01*
X223286014Y-94644294D01*
X223231209Y-94615000D01*
X223286014Y-94585706D01*
X223512134Y-94400134D01*
X223697706Y-94174014D01*
X223835599Y-93916034D01*
X223920513Y-93636111D01*
X223949185Y-93345000D01*
X223920513Y-93053889D01*
X223835599Y-92773966D01*
X223697706Y-92515986D01*
X223512134Y-92289866D01*
X223482313Y-92265393D01*
X223551180Y-92244502D01*
X223661494Y-92185537D01*
X223758185Y-92106185D01*
X223837537Y-92009494D01*
X223896502Y-91899180D01*
X223932812Y-91779482D01*
X223945072Y-91655000D01*
X223945072Y-89955000D01*
X223932812Y-89830518D01*
X223896502Y-89710820D01*
X223837537Y-89600506D01*
X223758185Y-89503815D01*
X223661494Y-89424463D01*
X223551180Y-89365498D01*
X223431482Y-89329188D01*
X223307000Y-89316928D01*
X221607000Y-89316928D01*
X221482518Y-89329188D01*
X221362820Y-89365498D01*
X221252506Y-89424463D01*
X221155815Y-89503815D01*
X221076463Y-89600506D01*
X221017498Y-89710820D01*
X220981188Y-89830518D01*
X220968928Y-89955000D01*
X220968928Y-91023785D01*
X220948005Y-90973273D01*
X220795120Y-90744465D01*
X220600535Y-90549880D01*
X220371727Y-90396995D01*
X220300057Y-90367308D01*
X220313023Y-90362636D01*
X220428980Y-90300656D01*
X220495960Y-90060565D01*
X219710000Y-89274605D01*
X218924040Y-90060565D01*
X218991020Y-90300656D01*
X219126760Y-90364485D01*
X219048273Y-90396995D01*
X218819465Y-90549880D01*
X218624880Y-90744465D01*
X218471995Y-90973273D01*
X218366686Y-91227510D01*
X218313000Y-91497408D01*
X214142000Y-91497408D01*
X214142000Y-89167017D01*
X218308090Y-89167017D01*
X218349078Y-89439133D01*
X218442364Y-89698023D01*
X218504344Y-89813980D01*
X218744435Y-89880960D01*
X219530395Y-89095000D01*
X219889605Y-89095000D01*
X220675565Y-89880960D01*
X220915656Y-89813980D01*
X221032756Y-89564952D01*
X221099023Y-89297865D01*
X221111910Y-89022983D01*
X221070922Y-88750867D01*
X220977636Y-88491977D01*
X220915656Y-88376020D01*
X220675565Y-88309040D01*
X219889605Y-89095000D01*
X219530395Y-89095000D01*
X218744435Y-88309040D01*
X218504344Y-88376020D01*
X218387244Y-88625048D01*
X218320977Y-88892135D01*
X218308090Y-89167017D01*
X214142000Y-89167017D01*
X214142000Y-86417408D01*
X218313000Y-86417408D01*
X218313000Y-86692592D01*
X218366686Y-86962490D01*
X218471995Y-87216727D01*
X218624880Y-87445535D01*
X218819465Y-87640120D01*
X219048273Y-87793005D01*
X219119943Y-87822692D01*
X219106977Y-87827364D01*
X218991020Y-87889344D01*
X218924040Y-88129435D01*
X219710000Y-88915395D01*
X220495960Y-88129435D01*
X220428980Y-87889344D01*
X220293240Y-87825515D01*
X220371727Y-87793005D01*
X220600535Y-87640120D01*
X220795120Y-87445535D01*
X220948005Y-87216727D01*
X221053314Y-86962490D01*
X221107000Y-86692592D01*
X221107000Y-86417408D01*
X221053314Y-86147510D01*
X220948005Y-85893273D01*
X220795120Y-85664465D01*
X220600535Y-85469880D01*
X220371727Y-85316995D01*
X220117490Y-85211686D01*
X219847592Y-85158000D01*
X219572408Y-85158000D01*
X219302510Y-85211686D01*
X219048273Y-85316995D01*
X218819465Y-85469880D01*
X218624880Y-85664465D01*
X218471995Y-85893273D01*
X218366686Y-86147510D01*
X218313000Y-86417408D01*
X214142000Y-86417408D01*
X214142000Y-82575061D01*
X247758000Y-82575061D01*
X247758000Y-82778939D01*
X247797774Y-82978898D01*
X247875795Y-83167256D01*
X247989063Y-83336774D01*
X248133226Y-83480937D01*
X248302744Y-83594205D01*
X248491102Y-83672226D01*
X248691061Y-83712000D01*
X248894939Y-83712000D01*
X249094898Y-83672226D01*
X249283256Y-83594205D01*
X249406285Y-83512000D01*
X255559132Y-83512000D01*
X255705000Y-83657868D01*
X255705001Y-84857714D01*
X255622795Y-84980744D01*
X255544774Y-85169102D01*
X255505000Y-85369061D01*
X255505000Y-85572939D01*
X255544774Y-85772898D01*
X255622795Y-85961256D01*
X255736063Y-86130774D01*
X255880226Y-86274937D01*
X256049744Y-86388205D01*
X256238102Y-86466226D01*
X256438061Y-86506000D01*
X256641939Y-86506000D01*
X256841898Y-86466226D01*
X257030256Y-86388205D01*
X257199774Y-86274937D01*
X257343937Y-86130774D01*
X257457205Y-85961256D01*
X257535226Y-85772898D01*
X257575000Y-85572939D01*
X257575000Y-85369061D01*
X257535226Y-85169102D01*
X257457205Y-84980744D01*
X257375000Y-84857715D01*
X257375000Y-83353018D01*
X257379040Y-83312000D01*
X257362918Y-83148312D01*
X257335523Y-83058000D01*
X257315172Y-82990913D01*
X257237636Y-82845854D01*
X257196481Y-82795706D01*
X257159439Y-82750570D01*
X257159437Y-82750568D01*
X257133291Y-82718709D01*
X257101432Y-82692564D01*
X256524445Y-82115578D01*
X256498291Y-82083709D01*
X256371146Y-81979364D01*
X256226087Y-81901828D01*
X256068689Y-81854082D01*
X255946019Y-81842000D01*
X255946018Y-81842000D01*
X255905000Y-81837960D01*
X255863982Y-81842000D01*
X249406285Y-81842000D01*
X249283256Y-81759795D01*
X249094898Y-81681774D01*
X248894939Y-81642000D01*
X248691061Y-81642000D01*
X248491102Y-81681774D01*
X248302744Y-81759795D01*
X248133226Y-81873063D01*
X247989063Y-82017226D01*
X247875795Y-82186744D01*
X247797774Y-82375102D01*
X247758000Y-82575061D01*
X214142000Y-82575061D01*
X214142000Y-77199072D01*
X214681000Y-77199072D01*
X214681000Y-77639328D01*
X214766890Y-78071125D01*
X214935369Y-78477869D01*
X215179962Y-78843929D01*
X215491271Y-79155238D01*
X215857331Y-79399831D01*
X216264075Y-79568310D01*
X216695872Y-79654200D01*
X217136128Y-79654200D01*
X217567925Y-79568310D01*
X217974669Y-79399831D01*
X218340729Y-79155238D01*
X218652038Y-78843929D01*
X218896631Y-78477869D01*
X219065110Y-78071125D01*
X219151000Y-77639328D01*
X219151000Y-77199072D01*
X219065110Y-76767275D01*
X218896631Y-76360531D01*
X218652038Y-75994471D01*
X218340729Y-75683162D01*
X217974669Y-75438569D01*
X217567925Y-75270090D01*
X217136128Y-75184200D01*
X216695872Y-75184200D01*
X216264075Y-75270090D01*
X215857331Y-75438569D01*
X215491271Y-75683162D01*
X215179962Y-75994471D01*
X214935369Y-76360531D01*
X214766890Y-76767275D01*
X214681000Y-77199072D01*
X214142000Y-77199072D01*
X214142000Y-75838736D01*
X215740737Y-74240000D01*
X254983356Y-74240000D01*
X254811531Y-74411825D01*
G36*
X264087000Y-99653981D02*
X264082960Y-99695000D01*
X264087000Y-99736018D01*
X264099082Y-99858688D01*
X264146828Y-100016086D01*
X264224364Y-100161145D01*
X264328709Y-100288291D01*
X264360579Y-100314446D01*
X264810554Y-100764421D01*
X264836709Y-100796291D01*
X264963854Y-100900636D01*
X265108913Y-100978172D01*
X265266311Y-101025918D01*
X265388981Y-101038000D01*
X265388991Y-101038000D01*
X265429999Y-101042039D01*
X265471007Y-101038000D01*
X267034928Y-101038000D01*
X267034928Y-101053000D01*
X267047188Y-101177482D01*
X267083498Y-101297180D01*
X267142463Y-101407494D01*
X267221815Y-101504185D01*
X267318506Y-101583537D01*
X267428820Y-101642502D01*
X267548518Y-101678812D01*
X267673000Y-101691072D01*
X269373000Y-101691072D01*
X269497482Y-101678812D01*
X269617180Y-101642502D01*
X269727494Y-101583537D01*
X269824185Y-101504185D01*
X269903537Y-101407494D01*
X269962502Y-101297180D01*
X269983393Y-101228313D01*
X270007866Y-101258134D01*
X270228000Y-101438794D01*
X270228001Y-109096972D01*
X270228000Y-109096982D01*
X270228001Y-111863130D01*
X270075579Y-112015552D01*
X270043709Y-112041707D01*
X269969071Y-112132655D01*
X269939364Y-112168853D01*
X269861828Y-112313912D01*
X269814082Y-112471310D01*
X269797960Y-112634998D01*
X269802000Y-112676017D01*
X269802001Y-123307133D01*
X269357134Y-123752000D01*
X268988402Y-123752000D01*
X269074962Y-123680962D01*
X269185405Y-123546387D01*
X269267472Y-123392851D01*
X269318008Y-123226255D01*
X269335072Y-123053001D01*
X269335072Y-121802999D01*
X269318008Y-121629745D01*
X269267472Y-121463149D01*
X269185405Y-121309613D01*
X269074962Y-121175038D01*
X268940387Y-121064595D01*
X268932000Y-121060112D01*
X268932000Y-119421018D01*
X268936040Y-119379999D01*
X268919918Y-119216312D01*
X268912568Y-119192082D01*
X268872172Y-119058913D01*
X268794636Y-118913854D01*
X268690291Y-118786709D01*
X268658421Y-118760554D01*
X268589443Y-118691576D01*
X268589438Y-118691570D01*
X267789000Y-117891133D01*
X267789000Y-110581867D01*
X267795334Y-110575534D01*
X267868061Y-110590000D01*
X268071939Y-110590000D01*
X268271898Y-110550226D01*
X268460256Y-110472205D01*
X268629774Y-110358937D01*
X268773937Y-110214774D01*
X268887205Y-110045256D01*
X268965226Y-109856898D01*
X269005000Y-109656939D01*
X269005000Y-109453061D01*
X268965226Y-109253102D01*
X268887205Y-109064744D01*
X268773937Y-108895226D01*
X268629774Y-108751063D01*
X268460256Y-108637795D01*
X268271898Y-108559774D01*
X268071939Y-108520000D01*
X267868061Y-108520000D01*
X267668102Y-108559774D01*
X267479744Y-108637795D01*
X267310226Y-108751063D01*
X267244196Y-108817093D01*
X267168854Y-108857364D01*
X267073570Y-108935562D01*
X266392574Y-109616559D01*
X266360710Y-109642709D01*
X266334562Y-109674571D01*
X266256364Y-109769855D01*
X266178828Y-109914914D01*
X266131082Y-110072312D01*
X266114960Y-110236000D01*
X266119001Y-110277029D01*
X266119000Y-118195981D01*
X266114960Y-118237000D01*
X266119000Y-118278018D01*
X266131082Y-118400688D01*
X266178828Y-118558086D01*
X266256364Y-118703145D01*
X266360709Y-118830291D01*
X266392579Y-118856446D01*
X267262001Y-119725869D01*
X267262000Y-121060112D01*
X267253613Y-121064595D01*
X267119038Y-121175038D01*
X267008595Y-121309613D01*
X267006191Y-121314111D01*
X266974502Y-121275498D01*
X266786449Y-121121167D01*
X266571901Y-121006489D01*
X266339102Y-120935870D01*
X266097000Y-120912025D01*
X265854899Y-120935870D01*
X265622100Y-121006489D01*
X265407552Y-121121167D01*
X265219499Y-121275498D01*
X265096520Y-121425349D01*
X265053307Y-121361275D01*
X264880474Y-121189922D01*
X264677533Y-121055579D01*
X264452282Y-120963409D01*
X264414609Y-120959538D01*
X264224000Y-121084269D01*
X264224000Y-122301000D01*
X264244000Y-122301000D01*
X264244000Y-122555000D01*
X264224000Y-122555000D01*
X264224000Y-122575000D01*
X263970000Y-122575000D01*
X263970000Y-122555000D01*
X263950000Y-122555000D01*
X263950000Y-122301000D01*
X263970000Y-122301000D01*
X263970000Y-121084269D01*
X263779391Y-120959538D01*
X263741718Y-120963409D01*
X263516467Y-121055579D01*
X263313526Y-121189922D01*
X263140693Y-121361275D01*
X263097481Y-121425348D01*
X262974502Y-121275498D01*
X262932000Y-121240618D01*
X262932000Y-119136018D01*
X262936040Y-119095000D01*
X262919918Y-118931311D01*
X262872172Y-118773913D01*
X262794636Y-118628854D01*
X262734324Y-118555364D01*
X262690291Y-118501709D01*
X262658426Y-118475558D01*
X262455000Y-118272132D01*
X262455000Y-101565793D01*
X262675134Y-101385134D01*
X262860706Y-101159014D01*
X262998599Y-100901034D01*
X263083513Y-100621111D01*
X263112185Y-100330000D01*
X263083513Y-100038889D01*
X262998599Y-99758966D01*
X262860706Y-99500986D01*
X262675134Y-99274866D01*
X262449014Y-99089294D01*
X262191034Y-98951401D01*
X261911111Y-98866487D01*
X261692950Y-98845000D01*
X261547050Y-98845000D01*
X261328889Y-98866487D01*
X261048966Y-98951401D01*
X260790986Y-99089294D01*
X260564866Y-99274866D01*
X260540393Y-99304687D01*
X260519502Y-99235820D01*
X260460537Y-99125506D01*
X260381185Y-99028815D01*
X260284494Y-98949463D01*
X260174180Y-98890498D01*
X260054482Y-98854188D01*
X259930000Y-98841928D01*
X258230000Y-98841928D01*
X258105518Y-98854188D01*
X257985820Y-98890498D01*
X257875506Y-98949463D01*
X257778815Y-99028815D01*
X257699463Y-99125506D01*
X257640498Y-99235820D01*
X257604188Y-99355518D01*
X257591928Y-99480000D01*
X257591928Y-101180000D01*
X257604188Y-101304482D01*
X257640498Y-101424180D01*
X257699463Y-101534494D01*
X257778815Y-101631185D01*
X257875506Y-101710537D01*
X257985820Y-101769502D01*
X258105518Y-101805812D01*
X258230000Y-101818072D01*
X259930000Y-101818072D01*
X260054482Y-101805812D01*
X260174180Y-101769502D01*
X260284494Y-101710537D01*
X260381185Y-101631185D01*
X260460537Y-101534494D01*
X260519502Y-101424180D01*
X260540393Y-101355313D01*
X260564866Y-101385134D01*
X260785000Y-101565793D01*
X260785001Y-118576971D01*
X260780960Y-118618000D01*
X260797082Y-118781688D01*
X260844828Y-118939086D01*
X260922364Y-119084145D01*
X260931273Y-119095000D01*
X261026710Y-119211291D01*
X261058574Y-119237441D01*
X261262001Y-119440868D01*
X261262000Y-121240618D01*
X261219499Y-121275498D01*
X261097001Y-121424763D01*
X260974502Y-121275498D01*
X260786449Y-121121167D01*
X260571901Y-121006489D01*
X260339102Y-120935870D01*
X260097000Y-120912025D01*
X259854899Y-120935870D01*
X259622100Y-121006489D01*
X259407552Y-121121167D01*
X259219499Y-121275498D01*
X259065168Y-121463551D01*
X258950489Y-121678099D01*
X258879870Y-121910898D01*
X258862000Y-122092335D01*
X258862000Y-122763664D01*
X258879870Y-122945101D01*
X258950489Y-123177900D01*
X259065167Y-123392448D01*
X259219498Y-123580502D01*
X259262253Y-123615590D01*
X259274082Y-123735688D01*
X259321828Y-123893086D01*
X259392643Y-124025571D01*
X259399365Y-124038146D01*
X259503710Y-124165291D01*
X259535574Y-124191441D01*
X260368131Y-125024000D01*
X255912645Y-125024000D01*
X254898175Y-124009531D01*
X254868107Y-123972893D01*
X254721928Y-123852927D01*
X254555154Y-123763784D01*
X254374193Y-123708890D01*
X254233162Y-123695000D01*
X254233152Y-123695000D01*
X254186000Y-123690356D01*
X254138848Y-123695000D01*
X251205655Y-123695000D01*
X251080535Y-123569880D01*
X250851727Y-123416995D01*
X250774485Y-123385000D01*
X250851727Y-123353005D01*
X251080535Y-123200120D01*
X251275120Y-123005535D01*
X251428005Y-122776727D01*
X251533314Y-122522490D01*
X251587000Y-122252592D01*
X251587000Y-121977408D01*
X251533314Y-121707510D01*
X251428005Y-121453273D01*
X251275120Y-121224465D01*
X251080535Y-121029880D01*
X250851727Y-120876995D01*
X250774485Y-120845000D01*
X250851727Y-120813005D01*
X251080535Y-120660120D01*
X251275120Y-120465535D01*
X251428005Y-120236727D01*
X251533314Y-119982490D01*
X251587000Y-119712592D01*
X251587000Y-119437408D01*
X251533314Y-119167510D01*
X251428005Y-118913273D01*
X251275120Y-118684465D01*
X251080535Y-118489880D01*
X250851727Y-118336995D01*
X250774485Y-118305000D01*
X250851727Y-118273005D01*
X251080535Y-118120120D01*
X251275120Y-117925535D01*
X251428005Y-117696727D01*
X251533314Y-117442490D01*
X251587000Y-117172592D01*
X251587000Y-116897408D01*
X251533314Y-116627510D01*
X251428005Y-116373273D01*
X251275120Y-116144465D01*
X251080535Y-115949880D01*
X250851727Y-115796995D01*
X250774485Y-115765000D01*
X250851727Y-115733005D01*
X251080535Y-115580120D01*
X251275120Y-115385535D01*
X251428005Y-115156727D01*
X251533314Y-114902490D01*
X251587000Y-114632592D01*
X251587000Y-114357408D01*
X251533314Y-114087510D01*
X251428005Y-113833273D01*
X251275120Y-113604465D01*
X251080535Y-113409880D01*
X250851727Y-113256995D01*
X250774485Y-113225000D01*
X250851727Y-113193005D01*
X251080535Y-113040120D01*
X251275120Y-112845535D01*
X251428005Y-112616727D01*
X251533314Y-112362490D01*
X251587000Y-112092592D01*
X251587000Y-111817408D01*
X251533314Y-111547510D01*
X251428005Y-111293273D01*
X251275120Y-111064465D01*
X251080535Y-110869880D01*
X250851727Y-110716995D01*
X250774485Y-110685000D01*
X250851727Y-110653005D01*
X251080535Y-110500120D01*
X251275120Y-110305535D01*
X251428005Y-110076727D01*
X251533314Y-109822490D01*
X251587000Y-109552592D01*
X251587000Y-109277408D01*
X251533314Y-109007510D01*
X251428005Y-108753273D01*
X251275120Y-108524465D01*
X251080535Y-108329880D01*
X250851727Y-108176995D01*
X250774485Y-108145000D01*
X250851727Y-108113005D01*
X251080535Y-107960120D01*
X251127055Y-107913600D01*
X251223744Y-107978205D01*
X251412102Y-108056226D01*
X251612061Y-108096000D01*
X251815939Y-108096000D01*
X252015898Y-108056226D01*
X252204256Y-107978205D01*
X252373774Y-107864937D01*
X252517937Y-107720774D01*
X252631205Y-107551256D01*
X252709226Y-107362898D01*
X252749000Y-107162939D01*
X252749000Y-106959061D01*
X252709226Y-106759102D01*
X252631205Y-106570744D01*
X252517937Y-106401226D01*
X252474000Y-106357289D01*
X252474000Y-103573711D01*
X252517937Y-103529774D01*
X252631205Y-103360256D01*
X252709226Y-103171898D01*
X252749000Y-102971939D01*
X252749000Y-102768061D01*
X252709226Y-102568102D01*
X252631205Y-102379744D01*
X252517937Y-102210226D01*
X252373774Y-102066063D01*
X252204256Y-101952795D01*
X252015898Y-101874774D01*
X251815939Y-101835000D01*
X251612061Y-101835000D01*
X251587000Y-101839985D01*
X251587000Y-101657408D01*
X251533314Y-101387510D01*
X251428005Y-101133273D01*
X251275120Y-100904465D01*
X251080535Y-100709880D01*
X250851727Y-100556995D01*
X250774485Y-100525000D01*
X250851727Y-100493005D01*
X251080535Y-100340120D01*
X251275120Y-100145535D01*
X251428005Y-99916727D01*
X251533314Y-99662490D01*
X251587000Y-99392592D01*
X251587000Y-99117408D01*
X251533314Y-98847510D01*
X251428005Y-98593273D01*
X251275120Y-98364465D01*
X251080535Y-98169880D01*
X250851727Y-98016995D01*
X250774485Y-97985000D01*
X250851727Y-97953005D01*
X251080535Y-97800120D01*
X251275120Y-97605535D01*
X251312227Y-97550000D01*
X264087001Y-97550000D01*
X264087000Y-99653981D01*
X264087000Y-99653981D01*
G37*
X264087000Y-99653981D02*
X264082960Y-99695000D01*
X264087000Y-99736018D01*
X264099082Y-99858688D01*
X264146828Y-100016086D01*
X264224364Y-100161145D01*
X264328709Y-100288291D01*
X264360579Y-100314446D01*
X264810554Y-100764421D01*
X264836709Y-100796291D01*
X264963854Y-100900636D01*
X265108913Y-100978172D01*
X265266311Y-101025918D01*
X265388981Y-101038000D01*
X265388991Y-101038000D01*
X265429999Y-101042039D01*
X265471007Y-101038000D01*
X267034928Y-101038000D01*
X267034928Y-101053000D01*
X267047188Y-101177482D01*
X267083498Y-101297180D01*
X267142463Y-101407494D01*
X267221815Y-101504185D01*
X267318506Y-101583537D01*
X267428820Y-101642502D01*
X267548518Y-101678812D01*
X267673000Y-101691072D01*
X269373000Y-101691072D01*
X269497482Y-101678812D01*
X269617180Y-101642502D01*
X269727494Y-101583537D01*
X269824185Y-101504185D01*
X269903537Y-101407494D01*
X269962502Y-101297180D01*
X269983393Y-101228313D01*
X270007866Y-101258134D01*
X270228000Y-101438794D01*
X270228001Y-109096972D01*
X270228000Y-109096982D01*
X270228001Y-111863130D01*
X270075579Y-112015552D01*
X270043709Y-112041707D01*
X269969071Y-112132655D01*
X269939364Y-112168853D01*
X269861828Y-112313912D01*
X269814082Y-112471310D01*
X269797960Y-112634998D01*
X269802000Y-112676017D01*
X269802001Y-123307133D01*
X269357134Y-123752000D01*
X268988402Y-123752000D01*
X269074962Y-123680962D01*
X269185405Y-123546387D01*
X269267472Y-123392851D01*
X269318008Y-123226255D01*
X269335072Y-123053001D01*
X269335072Y-121802999D01*
X269318008Y-121629745D01*
X269267472Y-121463149D01*
X269185405Y-121309613D01*
X269074962Y-121175038D01*
X268940387Y-121064595D01*
X268932000Y-121060112D01*
X268932000Y-119421018D01*
X268936040Y-119379999D01*
X268919918Y-119216312D01*
X268912568Y-119192082D01*
X268872172Y-119058913D01*
X268794636Y-118913854D01*
X268690291Y-118786709D01*
X268658421Y-118760554D01*
X268589443Y-118691576D01*
X268589438Y-118691570D01*
X267789000Y-117891133D01*
X267789000Y-110581867D01*
X267795334Y-110575534D01*
X267868061Y-110590000D01*
X268071939Y-110590000D01*
X268271898Y-110550226D01*
X268460256Y-110472205D01*
X268629774Y-110358937D01*
X268773937Y-110214774D01*
X268887205Y-110045256D01*
X268965226Y-109856898D01*
X269005000Y-109656939D01*
X269005000Y-109453061D01*
X268965226Y-109253102D01*
X268887205Y-109064744D01*
X268773937Y-108895226D01*
X268629774Y-108751063D01*
X268460256Y-108637795D01*
X268271898Y-108559774D01*
X268071939Y-108520000D01*
X267868061Y-108520000D01*
X267668102Y-108559774D01*
X267479744Y-108637795D01*
X267310226Y-108751063D01*
X267244196Y-108817093D01*
X267168854Y-108857364D01*
X267073570Y-108935562D01*
X266392574Y-109616559D01*
X266360710Y-109642709D01*
X266334562Y-109674571D01*
X266256364Y-109769855D01*
X266178828Y-109914914D01*
X266131082Y-110072312D01*
X266114960Y-110236000D01*
X266119001Y-110277029D01*
X266119000Y-118195981D01*
X266114960Y-118237000D01*
X266119000Y-118278018D01*
X266131082Y-118400688D01*
X266178828Y-118558086D01*
X266256364Y-118703145D01*
X266360709Y-118830291D01*
X266392579Y-118856446D01*
X267262001Y-119725869D01*
X267262000Y-121060112D01*
X267253613Y-121064595D01*
X267119038Y-121175038D01*
X267008595Y-121309613D01*
X267006191Y-121314111D01*
X266974502Y-121275498D01*
X266786449Y-121121167D01*
X266571901Y-121006489D01*
X266339102Y-120935870D01*
X266097000Y-120912025D01*
X265854899Y-120935870D01*
X265622100Y-121006489D01*
X265407552Y-121121167D01*
X265219499Y-121275498D01*
X265096520Y-121425349D01*
X265053307Y-121361275D01*
X264880474Y-121189922D01*
X264677533Y-121055579D01*
X264452282Y-120963409D01*
X264414609Y-120959538D01*
X264224000Y-121084269D01*
X264224000Y-122301000D01*
X264244000Y-122301000D01*
X264244000Y-122555000D01*
X264224000Y-122555000D01*
X264224000Y-122575000D01*
X263970000Y-122575000D01*
X263970000Y-122555000D01*
X263950000Y-122555000D01*
X263950000Y-122301000D01*
X263970000Y-122301000D01*
X263970000Y-121084269D01*
X263779391Y-120959538D01*
X263741718Y-120963409D01*
X263516467Y-121055579D01*
X263313526Y-121189922D01*
X263140693Y-121361275D01*
X263097481Y-121425348D01*
X262974502Y-121275498D01*
X262932000Y-121240618D01*
X262932000Y-119136018D01*
X262936040Y-119095000D01*
X262919918Y-118931311D01*
X262872172Y-118773913D01*
X262794636Y-118628854D01*
X262734324Y-118555364D01*
X262690291Y-118501709D01*
X262658426Y-118475558D01*
X262455000Y-118272132D01*
X262455000Y-101565793D01*
X262675134Y-101385134D01*
X262860706Y-101159014D01*
X262998599Y-100901034D01*
X263083513Y-100621111D01*
X263112185Y-100330000D01*
X263083513Y-100038889D01*
X262998599Y-99758966D01*
X262860706Y-99500986D01*
X262675134Y-99274866D01*
X262449014Y-99089294D01*
X262191034Y-98951401D01*
X261911111Y-98866487D01*
X261692950Y-98845000D01*
X261547050Y-98845000D01*
X261328889Y-98866487D01*
X261048966Y-98951401D01*
X260790986Y-99089294D01*
X260564866Y-99274866D01*
X260540393Y-99304687D01*
X260519502Y-99235820D01*
X260460537Y-99125506D01*
X260381185Y-99028815D01*
X260284494Y-98949463D01*
X260174180Y-98890498D01*
X260054482Y-98854188D01*
X259930000Y-98841928D01*
X258230000Y-98841928D01*
X258105518Y-98854188D01*
X257985820Y-98890498D01*
X257875506Y-98949463D01*
X257778815Y-99028815D01*
X257699463Y-99125506D01*
X257640498Y-99235820D01*
X257604188Y-99355518D01*
X257591928Y-99480000D01*
X257591928Y-101180000D01*
X257604188Y-101304482D01*
X257640498Y-101424180D01*
X257699463Y-101534494D01*
X257778815Y-101631185D01*
X257875506Y-101710537D01*
X257985820Y-101769502D01*
X258105518Y-101805812D01*
X258230000Y-101818072D01*
X259930000Y-101818072D01*
X260054482Y-101805812D01*
X260174180Y-101769502D01*
X260284494Y-101710537D01*
X260381185Y-101631185D01*
X260460537Y-101534494D01*
X260519502Y-101424180D01*
X260540393Y-101355313D01*
X260564866Y-101385134D01*
X260785000Y-101565793D01*
X260785001Y-118576971D01*
X260780960Y-118618000D01*
X260797082Y-118781688D01*
X260844828Y-118939086D01*
X260922364Y-119084145D01*
X260931273Y-119095000D01*
X261026710Y-119211291D01*
X261058574Y-119237441D01*
X261262001Y-119440868D01*
X261262000Y-121240618D01*
X261219499Y-121275498D01*
X261097001Y-121424763D01*
X260974502Y-121275498D01*
X260786449Y-121121167D01*
X260571901Y-121006489D01*
X260339102Y-120935870D01*
X260097000Y-120912025D01*
X259854899Y-120935870D01*
X259622100Y-121006489D01*
X259407552Y-121121167D01*
X259219499Y-121275498D01*
X259065168Y-121463551D01*
X258950489Y-121678099D01*
X258879870Y-121910898D01*
X258862000Y-122092335D01*
X258862000Y-122763664D01*
X258879870Y-122945101D01*
X258950489Y-123177900D01*
X259065167Y-123392448D01*
X259219498Y-123580502D01*
X259262253Y-123615590D01*
X259274082Y-123735688D01*
X259321828Y-123893086D01*
X259392643Y-124025571D01*
X259399365Y-124038146D01*
X259503710Y-124165291D01*
X259535574Y-124191441D01*
X260368131Y-125024000D01*
X255912645Y-125024000D01*
X254898175Y-124009531D01*
X254868107Y-123972893D01*
X254721928Y-123852927D01*
X254555154Y-123763784D01*
X254374193Y-123708890D01*
X254233162Y-123695000D01*
X254233152Y-123695000D01*
X254186000Y-123690356D01*
X254138848Y-123695000D01*
X251205655Y-123695000D01*
X251080535Y-123569880D01*
X250851727Y-123416995D01*
X250774485Y-123385000D01*
X250851727Y-123353005D01*
X251080535Y-123200120D01*
X251275120Y-123005535D01*
X251428005Y-122776727D01*
X251533314Y-122522490D01*
X251587000Y-122252592D01*
X251587000Y-121977408D01*
X251533314Y-121707510D01*
X251428005Y-121453273D01*
X251275120Y-121224465D01*
X251080535Y-121029880D01*
X250851727Y-120876995D01*
X250774485Y-120845000D01*
X250851727Y-120813005D01*
X251080535Y-120660120D01*
X251275120Y-120465535D01*
X251428005Y-120236727D01*
X251533314Y-119982490D01*
X251587000Y-119712592D01*
X251587000Y-119437408D01*
X251533314Y-119167510D01*
X251428005Y-118913273D01*
X251275120Y-118684465D01*
X251080535Y-118489880D01*
X250851727Y-118336995D01*
X250774485Y-118305000D01*
X250851727Y-118273005D01*
X251080535Y-118120120D01*
X251275120Y-117925535D01*
X251428005Y-117696727D01*
X251533314Y-117442490D01*
X251587000Y-117172592D01*
X251587000Y-116897408D01*
X251533314Y-116627510D01*
X251428005Y-116373273D01*
X251275120Y-116144465D01*
X251080535Y-115949880D01*
X250851727Y-115796995D01*
X250774485Y-115765000D01*
X250851727Y-115733005D01*
X251080535Y-115580120D01*
X251275120Y-115385535D01*
X251428005Y-115156727D01*
X251533314Y-114902490D01*
X251587000Y-114632592D01*
X251587000Y-114357408D01*
X251533314Y-114087510D01*
X251428005Y-113833273D01*
X251275120Y-113604465D01*
X251080535Y-113409880D01*
X250851727Y-113256995D01*
X250774485Y-113225000D01*
X250851727Y-113193005D01*
X251080535Y-113040120D01*
X251275120Y-112845535D01*
X251428005Y-112616727D01*
X251533314Y-112362490D01*
X251587000Y-112092592D01*
X251587000Y-111817408D01*
X251533314Y-111547510D01*
X251428005Y-111293273D01*
X251275120Y-111064465D01*
X251080535Y-110869880D01*
X250851727Y-110716995D01*
X250774485Y-110685000D01*
X250851727Y-110653005D01*
X251080535Y-110500120D01*
X251275120Y-110305535D01*
X251428005Y-110076727D01*
X251533314Y-109822490D01*
X251587000Y-109552592D01*
X251587000Y-109277408D01*
X251533314Y-109007510D01*
X251428005Y-108753273D01*
X251275120Y-108524465D01*
X251080535Y-108329880D01*
X250851727Y-108176995D01*
X250774485Y-108145000D01*
X250851727Y-108113005D01*
X251080535Y-107960120D01*
X251127055Y-107913600D01*
X251223744Y-107978205D01*
X251412102Y-108056226D01*
X251612061Y-108096000D01*
X251815939Y-108096000D01*
X252015898Y-108056226D01*
X252204256Y-107978205D01*
X252373774Y-107864937D01*
X252517937Y-107720774D01*
X252631205Y-107551256D01*
X252709226Y-107362898D01*
X252749000Y-107162939D01*
X252749000Y-106959061D01*
X252709226Y-106759102D01*
X252631205Y-106570744D01*
X252517937Y-106401226D01*
X252474000Y-106357289D01*
X252474000Y-103573711D01*
X252517937Y-103529774D01*
X252631205Y-103360256D01*
X252709226Y-103171898D01*
X252749000Y-102971939D01*
X252749000Y-102768061D01*
X252709226Y-102568102D01*
X252631205Y-102379744D01*
X252517937Y-102210226D01*
X252373774Y-102066063D01*
X252204256Y-101952795D01*
X252015898Y-101874774D01*
X251815939Y-101835000D01*
X251612061Y-101835000D01*
X251587000Y-101839985D01*
X251587000Y-101657408D01*
X251533314Y-101387510D01*
X251428005Y-101133273D01*
X251275120Y-100904465D01*
X251080535Y-100709880D01*
X250851727Y-100556995D01*
X250774485Y-100525000D01*
X250851727Y-100493005D01*
X251080535Y-100340120D01*
X251275120Y-100145535D01*
X251428005Y-99916727D01*
X251533314Y-99662490D01*
X251587000Y-99392592D01*
X251587000Y-99117408D01*
X251533314Y-98847510D01*
X251428005Y-98593273D01*
X251275120Y-98364465D01*
X251080535Y-98169880D01*
X250851727Y-98016995D01*
X250774485Y-97985000D01*
X250851727Y-97953005D01*
X251080535Y-97800120D01*
X251275120Y-97605535D01*
X251312227Y-97550000D01*
X264087001Y-97550000D01*
X264087000Y-99653981D01*
%TD*%
M02*
