M48
;DRILL file {KiCad (5.0.0)} date 11/24/21 17:07:00
;FORMAT={-:-/ absolute / inch / decimal}
FMAT,2
INCH,TZ
T1C0.0118
T2C0.0157
T3C0.0295
T4C0.0300
T5C0.0394
T6C0.0598
%
G90
G05
M72
T1
X10.685Y-4.47
X10.6873Y-4.51
X10.695Y-4.435
X10.695Y-4.545
X10.715Y-4.41
X10.725Y-4.38
X10.73Y-4.575
X10.76Y-4.575
X10.765Y-4.37
X10.8Y-4.37
X10.815Y-4.575
X10.84Y-4.375
X10.845Y-4.575
X10.855Y-4.41
X10.855Y-4.45
X10.855Y-4.485
X10.855Y-4.52
X10.855Y-4.55
T2
X8.95Y-4.02
X9.065Y-3.795
X9.065Y-3.92
X9.105Y-4.425
X9.1528Y-4.1772
X9.245Y-3.92
X9.2829Y-4.2579
X9.32Y-4.095
X9.43Y-4.18
X9.43Y-4.59
X9.495Y-4.26
X9.555Y-4.755
X9.795Y-3.255
X9.91Y-4.05
X9.91Y-4.215
X9.9786Y-3.8564
X9.9786Y-3.9614
X10.1Y-3.365
X10.135Y-3.575
X10.26Y-3.485
X10.415Y-3.64
X10.5Y-3.74
X10.55Y-4.3132
X10.6Y-3.325
X10.735Y-3.865
X10.77Y-3.2
X10.845Y-3.36
T3
X10.24Y-4.82
X10.3188Y-4.82
X10.3975Y-4.82
X10.4763Y-4.82
X10.555Y-4.82
X10.2388Y-5.06
X10.3175Y-5.06
X10.3963Y-5.06
X10.475Y-5.06
X10.5537Y-5.06
T4
X8.65Y-3.4077
X8.65Y-3.5077
X8.65Y-3.6077
X8.65Y-3.7077
X8.65Y-3.8077
X8.65Y-3.9077
X8.65Y-4.0077
X8.65Y-4.1077
X8.65Y-4.2077
X8.65Y-4.3077
X8.65Y-4.4077
X8.65Y-4.5077
X8.65Y-4.6077
X8.65Y-4.7077
X8.65Y-4.8077
X8.65Y-4.9077
X9.85Y-3.4077
X9.85Y-3.5077
X9.85Y-3.6077
X9.85Y-3.7077
X9.85Y-3.8077
X9.85Y-3.9077
X9.85Y-4.0077
X9.85Y-4.1077
X9.85Y-4.2077
X9.85Y-4.3077
X9.85Y-4.4077
X9.85Y-4.5077
X9.85Y-4.6077
X9.85Y-4.7077
X9.85Y-4.8077
X9.85Y-4.9077
T5
X10.2Y-3.95
X10.3Y-3.95
X10.2542Y-3.0533
X10.2542Y-3.1533
X9.2676Y-4.6656
X9.3676Y-4.6656
X10.4511Y-3.0108
X10.4511Y-3.1108
X10.4511Y-3.2108
X10.5718Y-3.945
X10.6718Y-3.945
X9.1676Y-3.3937
X9.2676Y-3.3937
X9.3676Y-3.3937
X9.4676Y-3.3937
X10.61Y-3.425
X10.61Y-3.525
X10.61Y-3.625
X10.61Y-3.725
X10.61Y-3.825
X8.7581Y-3.575
X8.7581Y-3.675
X8.7581Y-3.775
X8.7581Y-3.875
X8.7581Y-3.975
X10.0574Y-3.0533
X10.0574Y-3.1533
X9.703Y-4.4281
X9.703Y-4.5281
X9.703Y-4.6281
X9.703Y-4.7281
X9.703Y-4.8281
X9.1676Y-4.9937
X9.2676Y-4.9937
X9.3676Y-4.9937
X9.4676Y-4.9937
T6
X10.08Y-5.3
X10.28Y-5.3
X10.48Y-5.3
X10.68Y-5.3
T0
M30
