%TF.GenerationSoftware,KiCad,Pcbnew,(5.0.0)*%
%TF.CreationDate,2021-11-24T17:07:04+01:00*%
%TF.ProjectId,Master3A__2,4D617374657233415F5F322E6B696361,rev?*%
%TF.SameCoordinates,Original*%
%TF.FileFunction,Soldermask,Bot*%
%TF.FilePolarity,Negative*%
%FSLAX46Y46*%
G04 Gerber Fmt 4.6, Leading zero omitted, Abs format (unit mm)*
G04 Created by KiCad (PCBNEW (5.0.0)) date 11/24/21 17:07:04*
%MOMM*%
%LPD*%
G01*
G04 APERTURE LIST*
%ADD10C,3.100000*%
%ADD11R,3.100000X3.100000*%
%ADD12C,3.300000*%
%ADD13O,1.300000X1.850000*%
%ADD14C,0.100000*%
%ADD15C,1.300000*%
%ADD16R,1.800000X1.800000*%
%ADD17O,1.800000X1.800000*%
%ADD18C,1.624000*%
G04 APERTURE END LIST*
D10*
%TO.C,J5*%
X256032000Y-134620000D03*
D11*
X271272000Y-134620000D03*
D10*
X261112000Y-134620000D03*
X266192000Y-134620000D03*
%TD*%
D12*
%TO.C,H1*%
X216916000Y-77419200D03*
%TD*%
D13*
%TO.C,J8*%
X260097000Y-122428000D03*
X262097000Y-122428000D03*
X264097000Y-122428000D03*
X266097000Y-122428000D03*
D14*
G36*
X268502714Y-121504304D02*
X268529005Y-121508204D01*
X268554786Y-121514662D01*
X268579811Y-121523616D01*
X268603837Y-121534980D01*
X268626634Y-121548643D01*
X268647982Y-121564476D01*
X268667675Y-121582325D01*
X268685524Y-121602018D01*
X268701357Y-121623366D01*
X268715020Y-121646163D01*
X268726384Y-121670189D01*
X268735338Y-121695214D01*
X268741796Y-121720995D01*
X268745696Y-121747286D01*
X268747000Y-121773832D01*
X268747000Y-123082168D01*
X268745696Y-123108714D01*
X268741796Y-123135005D01*
X268735338Y-123160786D01*
X268726384Y-123185811D01*
X268715020Y-123209837D01*
X268701357Y-123232634D01*
X268685524Y-123253982D01*
X268667675Y-123273675D01*
X268647982Y-123291524D01*
X268626634Y-123307357D01*
X268603837Y-123321020D01*
X268579811Y-123332384D01*
X268554786Y-123341338D01*
X268529005Y-123347796D01*
X268502714Y-123351696D01*
X268476168Y-123353000D01*
X267717832Y-123353000D01*
X267691286Y-123351696D01*
X267664995Y-123347796D01*
X267639214Y-123341338D01*
X267614189Y-123332384D01*
X267590163Y-123321020D01*
X267567366Y-123307357D01*
X267546018Y-123291524D01*
X267526325Y-123273675D01*
X267508476Y-123253982D01*
X267492643Y-123232634D01*
X267478980Y-123209837D01*
X267467616Y-123185811D01*
X267458662Y-123160786D01*
X267452204Y-123135005D01*
X267448304Y-123108714D01*
X267447000Y-123082168D01*
X267447000Y-121773832D01*
X267448304Y-121747286D01*
X267452204Y-121720995D01*
X267458662Y-121695214D01*
X267467616Y-121670189D01*
X267478980Y-121646163D01*
X267492643Y-121623366D01*
X267508476Y-121602018D01*
X267526325Y-121582325D01*
X267546018Y-121564476D01*
X267567366Y-121548643D01*
X267590163Y-121534980D01*
X267614189Y-121523616D01*
X267639214Y-121514662D01*
X267664995Y-121508204D01*
X267691286Y-121504304D01*
X267717832Y-121503000D01*
X268476168Y-121503000D01*
X268502714Y-121504304D01*
X268502714Y-121504304D01*
G37*
D15*
X268097000Y-122428000D03*
%TD*%
D16*
%TO.C,J9*%
X246457000Y-122635000D03*
D17*
X246457000Y-120095000D03*
X246457000Y-117555000D03*
X246457000Y-115015000D03*
X246457000Y-112475000D03*
%TD*%
%TO.C,J10*%
X222457000Y-100965000D03*
X222457000Y-98425000D03*
X222457000Y-95885000D03*
X222457000Y-93345000D03*
D16*
X222457000Y-90805000D03*
%TD*%
D12*
%TO.C,MH2*%
X270764000Y-77876400D03*
%TD*%
D18*
%TO.C,U3*%
X219710000Y-124655000D03*
X219710000Y-122115000D03*
X219710000Y-119575000D03*
X219710000Y-117035000D03*
X219710000Y-114495000D03*
X219710000Y-111955000D03*
X219710000Y-109415000D03*
X219710000Y-106875000D03*
X219710000Y-104335000D03*
X219710000Y-101795000D03*
X219710000Y-99255000D03*
X219710000Y-96715000D03*
X219710000Y-94175000D03*
X219710000Y-91635000D03*
X219710000Y-89095000D03*
X219710000Y-86555000D03*
X250190000Y-124655000D03*
X250190000Y-122115000D03*
X250190000Y-119575000D03*
X250190000Y-117035000D03*
X250190000Y-114495000D03*
X250190000Y-111955000D03*
X250190000Y-109415000D03*
X250190000Y-106875000D03*
X250190000Y-104335000D03*
X250190000Y-101795000D03*
X250190000Y-99255000D03*
X250190000Y-96715000D03*
X250190000Y-94175000D03*
X250190000Y-91635000D03*
X250190000Y-89095000D03*
X250190000Y-86555000D03*
%TD*%
D16*
%TO.C,J1*%
X265457000Y-76475000D03*
D17*
X265457000Y-79015000D03*
X265457000Y-81555000D03*
%TD*%
D16*
%TO.C,J2*%
X232856000Y-86201000D03*
D17*
X235396000Y-86201000D03*
X237936000Y-86201000D03*
X240476000Y-86201000D03*
%TD*%
D16*
%TO.C,J3*%
X255457000Y-80095000D03*
D17*
X255457000Y-77555000D03*
%TD*%
%TO.C,JP1*%
X261620000Y-100330000D03*
D16*
X259080000Y-100330000D03*
%TD*%
%TO.C,JP2*%
X268523000Y-100203000D03*
D17*
X271063000Y-100203000D03*
%TD*%
%TO.C,SW1*%
X260457000Y-80095000D03*
D16*
X260457000Y-77555000D03*
%TD*%
%TO.C,J11*%
X232856000Y-126841000D03*
D17*
X235396000Y-126841000D03*
X237936000Y-126841000D03*
X240476000Y-126841000D03*
%TD*%
D16*
%TO.C,J4*%
X235396000Y-118506001D03*
D17*
X237936000Y-118506001D03*
%TD*%
D12*
%TO.C,H2*%
X224790000Y-105283000D03*
%TD*%
D14*
%TO.C,J6*%
G36*
X268470714Y-127600304D02*
X268497005Y-127604204D01*
X268522786Y-127610662D01*
X268547811Y-127619616D01*
X268571837Y-127630980D01*
X268594634Y-127644643D01*
X268615982Y-127660476D01*
X268635675Y-127678325D01*
X268653524Y-127698018D01*
X268669357Y-127719366D01*
X268683020Y-127742163D01*
X268694384Y-127766189D01*
X268703338Y-127791214D01*
X268709796Y-127816995D01*
X268713696Y-127843286D01*
X268715000Y-127869832D01*
X268715000Y-129178168D01*
X268713696Y-129204714D01*
X268709796Y-129231005D01*
X268703338Y-129256786D01*
X268694384Y-129281811D01*
X268683020Y-129305837D01*
X268669357Y-129328634D01*
X268653524Y-129349982D01*
X268635675Y-129369675D01*
X268615982Y-129387524D01*
X268594634Y-129403357D01*
X268571837Y-129417020D01*
X268547811Y-129428384D01*
X268522786Y-129437338D01*
X268497005Y-129443796D01*
X268470714Y-129447696D01*
X268444168Y-129449000D01*
X267685832Y-129449000D01*
X267659286Y-129447696D01*
X267632995Y-129443796D01*
X267607214Y-129437338D01*
X267582189Y-129428384D01*
X267558163Y-129417020D01*
X267535366Y-129403357D01*
X267514018Y-129387524D01*
X267494325Y-129369675D01*
X267476476Y-129349982D01*
X267460643Y-129328634D01*
X267446980Y-129305837D01*
X267435616Y-129281811D01*
X267426662Y-129256786D01*
X267420204Y-129231005D01*
X267416304Y-129204714D01*
X267415000Y-129178168D01*
X267415000Y-127869832D01*
X267416304Y-127843286D01*
X267420204Y-127816995D01*
X267426662Y-127791214D01*
X267435616Y-127766189D01*
X267446980Y-127742163D01*
X267460643Y-127719366D01*
X267476476Y-127698018D01*
X267494325Y-127678325D01*
X267514018Y-127660476D01*
X267535366Y-127644643D01*
X267558163Y-127630980D01*
X267582189Y-127619616D01*
X267607214Y-127610662D01*
X267632995Y-127604204D01*
X267659286Y-127600304D01*
X267685832Y-127599000D01*
X268444168Y-127599000D01*
X268470714Y-127600304D01*
X268470714Y-127600304D01*
G37*
D15*
X268065000Y-128524000D03*
D13*
X266065000Y-128524000D03*
X264065000Y-128524000D03*
X262065000Y-128524000D03*
X260065000Y-128524000D03*
%TD*%
D16*
%TO.C,J7*%
X269494000Y-97155000D03*
D17*
X269494000Y-94615000D03*
X269494000Y-92075000D03*
X269494000Y-89535000D03*
X269494000Y-86995000D03*
%TD*%
M02*
